<svg xmlns="http://www.w3.org/2000/svg" width="302" height="50" fill="none" viewBox="0 0 302 50">
  <rect width="301" height="49" x=".5" y=".5" fill="#fff" rx="8.5"/>
  <g clip-path="url(#a)">
    <g clip-path="url(#b)">
      <path fill="#F90" d="M119.161 32.376c-9.715 4.624-15.744.756-19.604-1.594-.239-.148-.645.035-.292.44 1.285 1.558 5.499 5.316 11 5.316 5.504 0 8.778-3.003 9.188-3.527.407-.52.119-.806-.292-.635Zm2.729-1.506c-.261-.34-1.587-.403-2.421-.3-.835.099-2.089.61-1.98.916.056.115.17.063.744.011.575-.057 2.187-.26 2.523.179.338.442-.514 2.548-.669 2.888-.151.34.057.428.339.201.279-.226.783-.812 1.121-1.64.336-.834.541-1.997.343-2.255Z"/>
      <path fill="#000" fill-rule="evenodd" d="M112.629 22.942c0 1.213.03 2.225-.583 3.302-.495.876-1.279 1.415-2.154 1.415-1.196 0-1.893-.911-1.893-2.256 0-2.654 2.379-3.136 4.63-3.136v.675Zm3.14 7.59a.65.65 0 0 1-.736.074c-1.033-.858-1.217-1.257-1.787-2.076-1.708 1.744-2.917 2.265-5.133 2.265-2.619 0-4.66-1.616-4.66-4.853 0-2.527 1.371-4.248 3.32-5.09 1.691-.744 4.051-.875 5.856-1.08v-.404c0-.74.057-1.616-.377-2.255-.381-.574-1.108-.81-1.747-.81-1.187 0-2.247.608-2.506 1.87-.052.28-.258.556-.538.569l-3.022-.324c-.254-.057-.534-.263-.464-.653.696-3.661 4.003-4.765 6.963-4.765 1.516 0 3.495.403 4.691 1.55 1.515 1.415 1.371 3.303 1.371 5.357v4.852c0 1.459.604 2.098 1.173 2.887.202.28.246.617-.008.828-.635.53-1.765 1.515-2.387 2.067l-.009-.009" clip-rule="evenodd"/>
      <path fill="#F90" d="M119.161 32.376c-9.715 4.624-15.744.756-19.604-1.594-.239-.148-.645.035-.292.44 1.285 1.558 5.499 5.316 11 5.316 5.504 0 8.778-3.003 9.188-3.527.407-.52.119-.806-.292-.635Zm2.729-1.506c-.261-.34-1.587-.403-2.421-.3-.835.099-2.089.61-1.98.916.056.115.17.063.744.011.575-.057 2.187-.26 2.523.179.338.442-.514 2.548-.669 2.888-.151.34.057.428.339.201.279-.226.783-.812 1.121-1.64.336-.834.541-1.997.343-2.255Z"/>
      <path fill="#000" fill-rule="evenodd" d="M112.629 22.942c0 1.213.03 2.225-.583 3.302-.495.876-1.279 1.415-2.154 1.415-1.196 0-1.893-.911-1.893-2.256 0-2.654 2.379-3.136 4.63-3.136v.675Zm3.14 7.59a.65.65 0 0 1-.736.074c-1.033-.858-1.217-1.257-1.787-2.076-1.708 1.744-2.917 2.265-5.133 2.265-2.619 0-4.66-1.616-4.66-4.853 0-2.527 1.371-4.248 3.32-5.09 1.691-.744 4.051-.875 5.856-1.08v-.404c0-.74.057-1.616-.377-2.255-.381-.574-1.108-.81-1.747-.81-1.187 0-2.247.608-2.506 1.87-.052.28-.258.556-.538.569l-3.022-.324c-.254-.057-.534-.263-.464-.653.696-3.661 4.003-4.765 6.963-4.765 1.516 0 3.495.403 4.691 1.55 1.515 1.415 1.371 3.303 1.371 5.357v4.852c0 1.459.604 2.098 1.173 2.887.202.28.246.617-.008.828-.635.53-1.765 1.515-2.387 2.067l-.009-.009" clip-rule="evenodd"/>
    </g>
    <path fill="#000" d="m139.983 32-.931-3.059h-4.685L133.436 32H130.5l4.535-12.902h3.331L142.919 32h-2.936Zm-1.582-5.344c-.861-2.771-1.347-4.339-1.459-4.702a15.13 15.13 0 0 1-.228-.861c-.193.75-.747 2.604-1.661 5.563h3.348ZM153.132 32h-2.681v-5.74c0-.708-.12-1.239-.36-1.59-.235-.358-.607-.536-1.116-.536-.686 0-1.184.252-1.495.756-.31.504-.465 1.333-.465 2.487V32h-2.681v-9.826h2.048l.36 1.257h.15a2.69 2.69 0 0 1 1.142-1.055c.498-.258 1.07-.387 1.714-.387 1.471 0 2.467.48 2.988 1.442h.238c.263-.457.65-.812 1.16-1.064.515-.252 1.095-.378 1.74-.378 1.113 0 1.954.287 2.522.862.575.568.862 1.482.862 2.742V32h-2.69v-5.74c0-.708-.12-1.239-.36-1.59-.234-.358-.606-.536-1.116-.536-.656 0-1.149.234-1.477.703-.322.469-.483 1.213-.483 2.232V32Zm15.126 0-.519-1.336h-.07c-.451.568-.917.964-1.398 1.187-.474.216-1.095.325-1.863.325-.943 0-1.687-.27-2.232-.809-.539-.539-.809-1.306-.809-2.303 0-1.043.363-1.81 1.09-2.302.732-.498 1.834-.774 3.305-.826l1.705-.053v-.43c0-.997-.51-1.495-1.529-1.495-.786 0-1.709.237-2.769.712l-.888-1.81c1.131-.592 2.385-.888 3.762-.888 1.318 0 2.329.287 3.032.861.703.574 1.055 1.447 1.055 2.62V32h-1.872Zm-.791-4.553-1.037.035c-.78.024-1.36.165-1.741.422-.38.258-.571.65-.571 1.178 0 .756.434 1.134 1.301 1.134.621 0 1.116-.179 1.485-.536.375-.358.563-.832.563-1.424v-.809ZM179.736 32h-7.76v-1.582l4.552-6.196h-4.28v-2.048h7.33v1.74l-4.43 6.038h4.588V32Zm4.087-4.93c0 .972.158 1.707.475 2.205.322.498.844.748 1.564.748.715 0 1.228-.247 1.538-.739.317-.498.475-1.236.475-2.215 0-.972-.158-1.702-.475-2.188-.316-.486-.835-.73-1.555-.73-.715 0-1.231.244-1.547.73-.317.48-.475 1.21-.475 2.188Zm6.794 0c0 1.599-.422 2.85-1.265 3.752-.844.903-2.019 1.354-3.525 1.354-.943 0-1.775-.205-2.496-.616a4.15 4.15 0 0 1-1.661-1.784c-.387-.773-.58-1.675-.58-2.707 0-1.605.419-2.853 1.257-3.744.838-.89 2.015-1.336 3.533-1.336.943 0 1.775.205 2.496.616.721.41 1.274.998 1.661 1.766s.58 1.667.58 2.698ZM201.902 32h-2.68v-5.74c0-.708-.126-1.239-.378-1.59-.252-.358-.654-.536-1.204-.536-.75 0-1.292.252-1.626.756-.334.498-.501 1.327-.501 2.487V32h-2.681v-9.826h2.048l.36 1.257h.15a2.806 2.806 0 0 1 1.23-1.073c.527-.246 1.125-.369 1.793-.369 1.143 0 2.01.31 2.602.932.591.615.887 1.506.887 2.672V32Z"/>
  </g>
  <rect width="301" height="49" x=".5" y=".5" stroke="#212121" rx="8.5"/>
  <defs>
    <clipPath id="a">
      <path fill="#fff" d="M98.5 12h105v26h-105z"/>
    </clipPath>
    <clipPath id="b">
      <path fill="#fff" d="M98.5 13h24v24h-24z"/>
    </clipPath>
  </defs>
</svg>
