<svg xmlns="http://www.w3.org/2000/svg" width="300" height="48" fill="none" viewBox="0 0 300 48">
  <rect width="300" height="48" fill="#25D1DA" rx="8"/>
  <g clip-path="url(#a)">
    <path fill="#000" d="M84.952 23.066a1.275 1.275 0 0 1-.701.19c-.458 0-.89-.055-1.321-.19-.108-.027-.189-.054-.243-.054-.08 0-.108.054-.108.162v.27c0 .08.027.135.054.189.027.027.081.08.162.107.431.19.917.27 1.456.27.566 0 .998-.135 1.348-.404.35-.27.512-.62.512-1.079 0-.323-.08-.566-.242-.782-.162-.189-.432-.377-.81-.512l-.754-.297c-.297-.108-.512-.215-.593-.323a.509.509 0 0 1-.162-.405c0-.404.297-.62.917-.62.35 0 .7.054 1.024.162.108.027.189.054.216.054.08 0 .135-.054.135-.162v-.27a.39.39 0 0 0-.054-.188c-.027-.054-.081-.081-.162-.108a3.838 3.838 0 0 0-1.213-.216c-.513 0-.944.135-1.267.378a1.202 1.202 0 0 0-.486.997c0 .62.35 1.079 1.052 1.349l.809.296c.27.108.431.189.539.297.108.108.135.215.135.377 0 .216-.081.405-.243.512Zm-4.233-3.882v3.586c-.458.296-.917.458-1.375.458-.297 0-.512-.08-.647-.243-.135-.161-.189-.404-.189-.755v-3.046c0-.135-.054-.189-.189-.189h-.566c-.135 0-.189.054-.189.189v3.343c0 .458.108.836.351 1.079.243.242.593.377 1.051.377.62 0 1.24-.216 1.834-.647l.054.324c0 .08.027.107.08.134.028.027.082.027.162.027h.405c.135 0 .189-.054.189-.189v-4.448c0-.135-.054-.189-.19-.189h-.565c-.162 0-.216.081-.216.189Zm-5.123 4.664h.567c.134 0 .188-.054.188-.188v-3.37c0-.459-.108-.81-.35-1.052-.243-.243-.566-.378-1.025-.378-.62 0-1.267.216-1.887.674-.216-.458-.62-.674-1.213-.674-.593 0-1.187.216-1.78.62l-.054-.296c0-.081-.027-.108-.08-.135-.028-.027-.081-.027-.135-.027h-.432c-.135 0-.188.054-.188.189v4.476c0 .134.053.188.188.188h.567c.134 0 .188-.054.188-.189v-3.64c.459-.269.917-.43 1.402-.43.27 0 .458.08.566.242.108.162.19.377.19.7v3.102c0 .134.053.188.188.188h.566c.135 0 .189-.054.189-.188v-3.613c.485-.297.943-.432 1.402-.432.27 0 .458.081.566.243.108.162.189.377.189.7v3.102c0 .134.054.188.188.188Zm14.694 3.586c-2.939 1.24-6.147 1.86-9.059 1.86-4.314 0-8.493-1.186-11.863-3.154a.384.384 0 0 0-.161-.054c-.19 0-.297.216-.108.404 3.127 2.831 7.28 4.53 11.863 4.53 3.289 0 7.09-1.025 9.706-2.966.458-.323.08-.809-.378-.62Zm-.08-7.36c.242-.27.62-.405 1.159-.405.27 0 .539.027.782.108a.4.4 0 0 0 .161.027c.081 0 .135-.054.135-.189v-.27c0-.08-.027-.161-.054-.188-.027-.027-.08-.081-.135-.108-.35-.08-.7-.162-1.024-.162-.755 0-1.321.216-1.753.674-.404.432-.62 1.079-.62 1.888 0 .808.19 1.429.593 1.86.405.431.971.647 1.726.647.404 0 .782-.054 1.078-.189.081-.027.135-.054.162-.107.027-.027.027-.108.027-.19v-.269c0-.135-.054-.189-.135-.189-.027 0-.08 0-.134.027a3.37 3.37 0 0 1-.863.135c-.512 0-.89-.135-1.133-.404-.242-.27-.35-.701-.35-1.267v-.135c.027-.593.135-1.025.377-1.294Z"/>
    <path fill="#000" d="M91.423 29.968c1.402-1.186 1.78-3.64 1.483-4.017-.135-.162-.782-.323-1.591-.323-.863 0-1.887.188-2.67.728-.242.161-.188.377.055.35.835-.108 2.723-.323 3.073.108.324.431-.377 2.21-.7 2.993-.082.242.107.323.35.161Zm-3.748-10.973h-.566c-.135 0-.189.054-.189.189v4.476c0 .134.054.188.189.188h.566c.135 0 .189-.054.189-.188v-4.476c0-.108-.054-.189-.189-.189Zm.162-1.833c-.108-.108-.27-.162-.458-.162a.569.569 0 0 0-.432.162.548.548 0 0 0-.162.404c0 .162.054.324.162.405a.569.569 0 0 0 .432.161.569.569 0 0 0 .43-.161.548.548 0 0 0 .163-.405c0-.162-.027-.323-.135-.404Z"/>
  </g>
  <path fill="#000" d="m110.483 31-.931-3.059h-4.685L103.936 31H101l4.535-12.902h3.331L113.419 31h-2.936Zm-1.582-5.344c-.861-2.771-1.347-4.339-1.459-4.702a15.13 15.13 0 0 1-.228-.861c-.193.75-.747 2.604-1.661 5.563h3.348ZM123.632 31h-2.681v-5.74c0-.708-.12-1.239-.36-1.59-.235-.358-.607-.536-1.116-.536-.686 0-1.184.252-1.495.756-.31.504-.465 1.333-.465 2.487V31h-2.681v-9.826h2.048l.36 1.257h.15a2.69 2.69 0 0 1 1.142-1.055c.498-.258 1.07-.387 1.714-.387 1.471 0 2.467.48 2.988 1.442h.238c.263-.457.65-.812 1.16-1.064.515-.252 1.095-.378 1.74-.378 1.113 0 1.954.287 2.522.862.575.568.862 1.482.862 2.742V31h-2.69v-5.74c0-.708-.12-1.239-.36-1.59-.234-.358-.606-.536-1.116-.536-.656 0-1.149.234-1.477.703-.322.469-.483 1.213-.483 2.232V31Zm15.126 0-.519-1.336h-.07c-.451.568-.917.964-1.398 1.187-.474.216-1.095.325-1.863.325-.943 0-1.687-.27-2.232-.809-.539-.539-.809-1.306-.809-2.303 0-1.043.363-1.81 1.09-2.302.732-.498 1.834-.774 3.305-.826l1.705-.053v-.43c0-.997-.51-1.495-1.529-1.495-.786 0-1.709.237-2.769.712l-.888-1.81c1.131-.592 2.385-.888 3.762-.888 1.318 0 2.329.287 3.032.861.703.574 1.055 1.447 1.055 2.62V31h-1.872Zm-.791-4.553-1.037.035c-.78.024-1.36.165-1.741.422-.38.258-.571.65-.571 1.178 0 .756.434 1.134 1.301 1.134.621 0 1.116-.179 1.485-.536.375-.358.563-.832.563-1.424v-.809ZM150.236 31h-7.76v-1.582l4.552-6.196h-4.28v-2.048h7.33v1.74l-4.43 6.038h4.588V31Zm4.087-4.93c0 .972.158 1.707.475 2.205.322.498.844.748 1.564.748.715 0 1.228-.247 1.538-.739.317-.498.475-1.236.475-2.215 0-.972-.158-1.702-.475-2.188-.316-.486-.835-.73-1.555-.73-.715 0-1.231.244-1.547.73-.317.48-.475 1.21-.475 2.188Zm6.794 0c0 1.599-.422 2.85-1.265 3.752-.844.903-2.019 1.354-3.525 1.354-.943 0-1.775-.205-2.496-.615a4.15 4.15 0 0 1-1.661-1.785c-.387-.773-.58-1.675-.58-2.707 0-1.605.419-2.853 1.257-3.744.838-.89 2.015-1.336 3.533-1.336.943 0 1.775.205 2.496.616.721.41 1.274.998 1.661 1.766s.58 1.667.58 2.698ZM172.402 31h-2.68v-5.74c0-.708-.126-1.239-.378-1.59-.252-.358-.654-.536-1.204-.536-.75 0-1.292.252-1.626.756-.334.498-.501 1.327-.501 2.487V31h-2.681v-9.826h2.048l.36 1.257h.15a2.806 2.806 0 0 1 1.23-1.073c.527-.246 1.125-.369 1.793-.369 1.143 0 2.01.31 2.602.932.591.615.887 1.506.887 2.672V31Zm13.087 0-3.093-10.081h-.08c.112 2.05.167 3.419.167 4.104V31h-2.434V18.15h3.709l3.041 9.827h.053l3.225-9.827h3.709V31h-2.54v-6.082c0-.287.003-.618.009-.993.012-.375.053-1.371.123-2.989h-.079L187.985 31h-2.496Zm18.29 0-.36-1.257h-.141a2.856 2.856 0 0 1-1.221 1.064c-.528.246-1.128.369-1.802.369-1.154 0-2.025-.308-2.61-.923-.586-.621-.879-1.512-.879-2.672v-6.407h2.68v5.74c0 .708.126 1.241.378 1.599.252.351.654.527 1.204.527.75 0 1.292-.249 1.626-.747.334-.504.501-1.336.501-2.496v-4.623h2.681V31h-2.057Zm11.725-2.918c0 1.008-.352 1.775-1.055 2.303-.697.527-1.743.79-3.137.79-.715 0-1.325-.049-1.829-.149a6.742 6.742 0 0 1-1.415-.421V28.39c.498.234 1.058.43 1.679.588.627.159 1.178.238 1.652.238.973 0 1.459-.281 1.459-.844a.689.689 0 0 0-.193-.51c-.129-.134-.352-.284-.668-.448a15.41 15.41 0 0 0-1.266-.589c-.755-.316-1.312-.61-1.669-.879a2.538 2.538 0 0 1-.774-.923c-.158-.351-.237-.782-.237-1.292 0-.873.337-1.546 1.011-2.021.679-.48 1.64-.72 2.882-.72 1.184 0 2.335.257 3.454.773l-.808 1.933a14.85 14.85 0 0 0-1.38-.518 4.336 4.336 0 0 0-1.31-.202c-.791 0-1.186.213-1.186.641 0 .24.126.448.378.624.258.176.817.437 1.679.782.767.311 1.33.601 1.687.87.357.27.621.58.791.932.17.352.255.77.255 1.257Zm1.977-9.448c0-.873.487-1.31 1.459-1.31.973 0 1.459.437 1.459 1.31 0 .416-.123.741-.369.975-.24.229-.603.343-1.09.343-.972 0-1.459-.44-1.459-1.318ZM220.276 31h-2.68v-9.826h2.68V31Zm6.812.176c-3.059 0-4.588-1.679-4.588-5.036 0-1.67.416-2.945 1.248-3.824.832-.884 2.024-1.327 3.577-1.327 1.137 0 2.156.223 3.059.668l-.791 2.074c-.422-.17-.815-.307-1.178-.413a3.701 3.701 0 0 0-1.09-.167c-1.394 0-2.092.99-2.092 2.971 0 1.922.698 2.883 2.092 2.883.516 0 .993-.067 1.433-.202a5.3 5.3 0 0 0 1.318-.65v2.293a4.308 4.308 0 0 1-1.318.572c-.44.105-.996.158-1.67.158Z"/>
  <defs>
    <clipPath id="a">
      <path fill="#fff" d="M69 17h24v14.02H69z"/>
    </clipPath>
  </defs>
</svg>
