<svg xmlns="http://www.w3.org/2000/svg" width="302" height="50" fill="none" viewBox="0 0 302 50">
  <rect width="301" height="49" x=".5" y=".5" fill="#000" rx="8.5"/>
  <g clip-path="url(#a)">
    <path fill="#fff" d="M84.361 21.182c-.142.108-2.658 1.492-2.658 4.572 0 3.561 3.201 4.821 3.297 4.852-.015.077-.508 1.726-1.688 3.406-1.051 1.478-2.15 2.954-3.82 2.954s-2.1-.948-4.029-.948c-1.88 0-2.547.98-4.076.98-1.528 0-2.594-1.368-3.82-3.048C66.147 31.977 65 28.912 65 26.003c0-4.665 3.105-7.14 6.161-7.14 1.624 0 2.978 1.042 3.998 1.042.97 0 2.483-1.104 4.33-1.104.7 0 3.216.062 4.872 2.38Zm-5.748-4.356c.764-.886 1.304-2.115 1.304-3.344 0-.17-.015-.343-.047-.482-1.243.046-2.722.809-3.613 1.82-.7.777-1.354 2.006-1.354 3.251 0 .187.032.375.047.435.078.014.206.03.334.03 1.115 0 2.518-.729 3.329-1.71Z"/>
  </g>
  <path fill="#fff" d="m104.483 32-.931-3.059h-4.685L97.936 32H95l4.535-12.902h3.331L107.419 32h-2.936Zm-1.582-5.344c-.861-2.771-1.347-4.339-1.459-4.702a15.13 15.13 0 0 1-.228-.861c-.193.75-.747 2.604-1.661 5.563h3.348Zm11.329 5.52c-1.154 0-2.059-.42-2.715-1.257h-.141c.094.82.141 1.295.141 1.424v3.981h-2.681v-14.15h2.18l.378 1.274h.123c.627-.972 1.555-1.459 2.786-1.459 1.16 0 2.068.448 2.724 1.345.657.896.985 2.142.985 3.735 0 1.05-.156 1.96-.466 2.734-.305.773-.741 1.362-1.31 1.766-.568.405-1.236.607-2.004.607Zm-.791-8.042c-.662 0-1.145.205-1.45.615-.304.404-.463 1.075-.474 2.013v.29c0 1.054.155 1.81.465 2.267.317.457.815.686 1.495.686 1.201 0 1.801-.99 1.801-2.97 0-.968-.149-1.691-.448-2.172-.293-.486-.756-.73-1.389-.73Zm12.182 8.042c-1.154 0-2.059-.42-2.716-1.257h-.14c.093.82.14 1.295.14 1.424v3.981h-2.68v-14.15h2.179l.378 1.274h.123c.627-.972 1.556-1.459 2.786-1.459 1.161 0 2.069.448 2.725 1.345.656.896.984 2.142.984 3.735 0 1.05-.155 1.96-.465 2.734-.305.773-.742 1.362-1.31 1.766-.568.405-1.236.607-2.004.607Zm-.791-8.042c-.662 0-1.145.205-1.45.615-.305.404-.463 1.075-.475 2.013v.29c0 1.054.156 1.81.466 2.267.317.457.815.686 1.494.686 1.201 0 1.802-.99 1.802-2.97 0-.968-.149-1.691-.448-2.172-.293-.486-.756-.73-1.389-.73ZM134.296 32h-2.681V18.324h2.681V32Zm6.891-8.104c-.569 0-1.014.182-1.336.545-.323.358-.507.868-.554 1.53h3.762c-.012-.662-.185-1.172-.519-1.53-.334-.363-.785-.544-1.353-.544Zm.377 8.28c-1.582 0-2.818-.437-3.709-1.31-.89-.873-1.335-2.11-1.335-3.709 0-1.646.41-2.918 1.23-3.814.826-.903 1.966-1.354 3.419-1.354 1.389 0 2.47.396 3.243 1.187.774.79 1.16 1.884 1.16 3.278v1.3h-6.337c.03.763.255 1.357.677 1.785.422.428 1.014.642 1.776.642a7.37 7.37 0 0 0 1.678-.185 8.407 8.407 0 0 0 1.653-.589v2.074c-.469.235-.97.408-1.503.519-.534.117-1.184.176-1.952.176ZM160.505 32l-.932-3.059h-4.684L153.957 32h-2.936l4.536-12.902h3.331L163.44 32h-2.935Zm-1.582-5.344c-.861-2.771-1.348-4.339-1.459-4.702a14.55 14.55 0 0 1-.229-.861c-.193.75-.747 2.604-1.661 5.563h3.349Zm11.329 5.52c-1.154 0-2.06-.42-2.716-1.257h-.14c.093.82.14 1.295.14 1.424v3.981h-2.681v-14.15h2.18l.378 1.274h.123c.627-.972 1.556-1.459 2.786-1.459 1.16 0 2.069.448 2.725 1.345.656.896.984 2.142.984 3.735 0 1.05-.155 1.96-.466 2.734-.304.773-.741 1.362-1.309 1.766-.568.405-1.236.607-2.004.607Zm-.791-8.042c-.662 0-1.146.205-1.45.615-.305.404-.463 1.075-.475 2.013v.29c0 1.054.155 1.81.466 2.267.316.457.814.686 1.494.686 1.201 0 1.802-.99 1.802-2.97 0-.968-.15-1.691-.448-2.172-.293-.486-.756-.73-1.389-.73Zm12.182 8.042c-1.155 0-2.06-.42-2.716-1.257h-.141c.094.82.141 1.295.141 1.424v3.981h-2.681v-14.15h2.18l.378 1.274h.123c.627-.972 1.555-1.459 2.786-1.459 1.16 0 2.068.448 2.725 1.345.656.896.984 2.142.984 3.735 0 1.05-.155 1.96-.466 2.734-.305.773-.741 1.362-1.31 1.766-.568.405-1.236.607-2.003.607Zm-.791-8.042c-.663 0-1.146.205-1.451.615-.304.404-.463 1.075-.474 2.013v.29c0 1.054.155 1.81.466 2.267.316.457.814.686 1.494.686 1.201 0 1.801-.99 1.801-2.97 0-.968-.149-1.691-.448-2.172-.293-.486-.756-.73-1.388-.73Zm19.256 4.298c0 1.16-.419 2.074-1.256 2.742-.832.668-1.993 1.002-3.481 1.002-1.371 0-2.584-.258-3.639-.774v-2.53c.868.386 1.6.658 2.198.817a6.56 6.56 0 0 0 1.652.237c.598 0 1.055-.114 1.371-.343.322-.228.484-.568.484-1.02a1.11 1.11 0 0 0-.211-.668 2.287 2.287 0 0 0-.624-.57c-.27-.182-.824-.473-1.662-.87-.785-.37-1.374-.724-1.766-1.064a3.996 3.996 0 0 1-.941-1.187c-.234-.451-.351-.978-.351-1.582 0-1.137.384-2.03 1.151-2.68.774-.651 1.84-.976 3.199-.976.668 0 1.304.079 1.908.237.609.158 1.245.381 1.907.668l-.879 2.118c-.686-.281-1.254-.477-1.705-.589a5.421 5.421 0 0 0-1.318-.167c-.516 0-.912.12-1.187.36a1.19 1.19 0 0 0-.413.941c0 .24.056.451.167.633.111.176.287.349.527.518.246.165.823.463 1.732.897 1.201.574 2.024 1.151 2.469 1.732.446.574.668 1.28.668 2.118Zm6.258 1.608c.469 0 1.031-.102 1.688-.308v1.995c-.668.3-1.489.449-2.461.449-1.072 0-1.855-.27-2.347-.809-.486-.545-.729-1.36-.729-2.443v-4.738h-1.284v-1.133l1.477-.897.773-2.074h1.714v2.092h2.751v2.012h-2.751v4.738c0 .38.106.662.317.844.216.181.501.272.852.272Zm5.819-2.97c0 .972.158 1.707.474 2.205.322.498.844.748 1.565.748.714 0 1.227-.247 1.538-.739.316-.498.474-1.236.474-2.215 0-.972-.158-1.702-.474-2.188-.317-.486-.835-.73-1.556-.73-.715 0-1.23.244-1.547.73-.316.48-.474 1.21-.474 2.188Zm6.794 0c0 1.599-.422 2.85-1.266 3.752-.844.903-2.019 1.354-3.525 1.354-.943 0-1.775-.205-2.496-.616a4.156 4.156 0 0 1-1.661-1.784c-.386-.773-.58-1.675-.58-2.707 0-1.605.419-2.853 1.257-3.744.838-.89 2.016-1.336 3.533-1.336.944 0 1.776.205 2.496.616a4.1 4.1 0 0 1 1.661 1.766c.387.768.581 1.667.581 2.698Zm7.699-5.08c.363 0 .665.026.905.078l-.202 2.514a3.074 3.074 0 0 0-.791-.088c-.856 0-1.524.22-2.004.66-.475.439-.712 1.054-.712 1.845V32h-2.681v-9.826h2.031l.395 1.652h.132c.305-.55.715-.993 1.23-1.327a3.05 3.05 0 0 1 1.697-.51Zm6.759 1.907c-.569 0-1.014.181-1.336.544-.323.358-.507.868-.554 1.53h3.762c-.012-.662-.185-1.172-.519-1.53-.334-.363-.785-.544-1.353-.544Zm.377 8.279c-1.582 0-2.818-.437-3.709-1.31-.89-.873-1.335-2.11-1.335-3.709 0-1.646.41-2.918 1.23-3.814.826-.903 1.966-1.354 3.419-1.354 1.389 0 2.47.396 3.243 1.187.774.79 1.16 1.884 1.16 3.278v1.3h-6.337c.03.763.255 1.357.677 1.785.422.428 1.014.642 1.776.642a7.37 7.37 0 0 0 1.678-.185 8.407 8.407 0 0 0 1.653-.589v2.074c-.469.235-.97.408-1.503.519-.534.117-1.184.176-1.952.176Z"/>
  <rect width="301" height="49" x=".5" y=".5" stroke="#fff" rx="8.5"/>
  <defs>
    <clipPath id="a">
      <path fill="#fff" d="M63 13h24v24H63z"/>
    </clipPath>
  </defs>
</svg>
