<svg xmlns="http://www.w3.org/2000/svg" width="302" height="50" fill="none" viewBox="0 0 302 50">
  <rect width="301" height="49" x=".5" y=".5" fill="#000" rx="8.5"/>
  <g clip-path="url(#a)">
    <path fill="url(#b)" fill-rule="evenodd" d="M90.528 33.8c-.232.592-.768 1.424-1.536 2.016-.44.336-.968.664-1.688.88-.768.232-1.72.304-2.904.304H73.6c-1.184 0-2.128-.08-2.904-.304a4.99 4.99 0 0 1-1.688-.88c-.76-.584-1.304-1.424-1.536-2.016-.464-1.192-.472-2.544-.472-3.4V19.6c0-.856.008-2.208.472-3.4.232-.592.768-1.424 1.536-2.016.44-.336.968-.664 1.688-.88.776-.224 1.72-.304 2.904-.304h10.8c1.184 0 2.128.08 2.904.304a4.99 4.99 0 0 1 1.688.88c.76.584 1.304 1.424 1.536 2.016.472 1.192.472 2.552.472 3.4v10.8c0 .856-.008 2.208-.472 3.4Z" clip-rule="evenodd"/>
    <path fill="#fff" d="M81.056 27.488a1.069 1.069 0 0 0-.32-.688c-.36-.376-.992-.624-1.736-.624s-1.376.24-1.736.624c-.184.2-.288.4-.32.688-.064.56-.024 1.04.04 1.816.064.736.184 1.72.336 2.712.112.712.2 1.096.28 1.368.136.448.624.832 1.4.832.776 0 1.272-.392 1.4-.832.08-.272.168-.656.28-1.368.152-1 .272-1.976.336-2.712.072-.776.104-1.256.04-1.816Zm-.088-4.08c0 1.088-.88 1.968-1.968 1.968a1.967 1.967 0 0 1-1.968-1.968c0-1.088.88-1.968 1.968-1.968s1.968.888 1.968 1.968Z"/>
    <path fill="#fff" d="M78.976 15.656c-4.592.016-8.352 3.744-8.416 8.336-.048 3.72 2.328 6.904 5.648 8.072.08.032.16-.04.152-.12-.04-.288-.088-.576-.12-.864a.317.317 0 0 0-.168-.232 7.365 7.365 0 0 1-4.424-6.824c.04-4 3.304-7.256 7.296-7.288 4.088-.032 7.424 3.28 7.424 7.36 0 3.016-1.824 5.608-4.424 6.752a.272.272 0 0 0-.168.232l-.12.864c-.016.088.072.152.152.12a8.448 8.448 0 0 0 5.648-7.968c-.016-4.656-3.816-8.448-8.48-8.44Z"/>
    <path fill="#fff" d="M78.784 18.456c-2.992.112-5.392 2.584-5.432 5.576a5.65 5.65 0 0 0 2.472 4.744c.072.048.176-.008.176-.096a7.853 7.853 0 0 1-.008-.968.326.326 0 0 0-.112-.272 4.574 4.574 0 0 1-1.448-3.456 4.585 4.585 0 0 1 4.392-4.448 4.574 4.574 0 0 1 4.752 4.568c0 1.312-.56 2.496-1.448 3.336a.381.381 0 0 0-.112.272c.016.312.008.616-.008.96-.008.088.096.152.176.096a5.661 5.661 0 0 0 2.472-4.672c.008-3.184-2.656-5.768-5.872-5.64Z"/>
  </g>
  <path fill="#fff" d="m108.483 32-.931-3.059h-4.685L101.936 32H99l4.535-12.902h3.331L111.419 32h-2.936Zm-1.582-5.344c-.861-2.771-1.347-4.339-1.459-4.702a15.13 15.13 0 0 1-.228-.861c-.193.75-.747 2.604-1.661 5.563h3.348Zm11.329 5.52c-1.154 0-2.059-.42-2.715-1.257h-.141c.094.82.141 1.295.141 1.424v3.981h-2.681v-14.15h2.18l.378 1.274h.123c.627-.972 1.555-1.459 2.786-1.459 1.16 0 2.068.448 2.724 1.345.657.896.985 2.142.985 3.735 0 1.05-.156 1.96-.466 2.734-.305.773-.741 1.362-1.31 1.766-.568.405-1.236.607-2.004.607Zm-.791-8.042c-.662 0-1.145.205-1.45.615-.304.404-.463 1.075-.474 2.013v.29c0 1.054.155 1.81.465 2.267.317.457.815.686 1.495.686 1.201 0 1.801-.99 1.801-2.97 0-.968-.149-1.691-.448-2.172-.293-.486-.756-.73-1.389-.73Zm12.182 8.042c-1.154 0-2.059-.42-2.716-1.257h-.14c.093.82.14 1.295.14 1.424v3.981h-2.68v-14.15h2.179l.378 1.274h.123c.627-.972 1.556-1.459 2.786-1.459 1.161 0 2.069.448 2.725 1.345.656.896.984 2.142.984 3.735 0 1.05-.155 1.96-.465 2.734-.305.773-.742 1.362-1.31 1.766-.568.405-1.236.607-2.004.607Zm-.791-8.042c-.662 0-1.145.205-1.45.615-.305.404-.463 1.075-.475 2.013v.29c0 1.054.156 1.81.466 2.267.317.457.815.686 1.494.686 1.201 0 1.802-.99 1.802-2.97 0-.968-.149-1.691-.448-2.172-.293-.486-.756-.73-1.389-.73ZM138.296 32h-2.681V18.324h2.681V32Zm6.891-8.104c-.569 0-1.014.182-1.336.545-.323.358-.507.868-.554 1.53h3.762c-.012-.662-.185-1.172-.519-1.53-.334-.363-.785-.544-1.353-.544Zm.377 8.28c-1.582 0-2.818-.437-3.709-1.31-.89-.873-1.335-2.11-1.335-3.709 0-1.646.41-2.918 1.23-3.814.826-.903 1.966-1.354 3.419-1.354 1.389 0 2.47.396 3.243 1.187.774.79 1.16 1.884 1.16 3.278v1.3h-6.337c.03.763.255 1.357.677 1.785.422.428 1.014.642 1.776.642a7.37 7.37 0 0 0 1.678-.185 8.407 8.407 0 0 0 1.653-.589v2.074c-.469.235-.97.408-1.503.519-.534.117-1.184.176-1.952.176Zm13.799-6.979h.897c.838 0 1.465-.164 1.881-.492.416-.334.624-.817.624-1.45 0-.639-.176-1.11-.528-1.415-.345-.305-.89-.457-1.634-.457h-1.24v3.814Zm6.153-2.039c0 1.383-.434 2.44-1.301 3.173-.861.733-2.089 1.099-3.683 1.099h-1.169V32h-2.724V19.15h4.104c1.559 0 2.742.337 3.551 1.011.814.668 1.222 1.667 1.222 2.997Zm4.35 3.911c0 .973.158 1.708.475 2.206.322.498.844.748 1.564.748.715 0 1.228-.247 1.538-.739.317-.498.475-1.236.475-2.215 0-.972-.158-1.702-.475-2.188-.316-.486-.835-.73-1.555-.73-.715 0-1.231.244-1.547.73-.317.48-.475 1.21-.475 2.188Zm6.794 0c0 1.6-.422 2.85-1.265 3.753-.844.903-2.019 1.354-3.525 1.354-.943 0-1.775-.205-2.496-.616a4.15 4.15 0 0 1-1.661-1.784c-.387-.773-.58-1.675-.58-2.707 0-1.605.419-2.853 1.257-3.744.838-.89 2.015-1.336 3.533-1.336.943 0 1.775.205 2.496.616.721.41 1.274.998 1.661 1.766s.58 1.667.58 2.698Zm5.326 5.107c-1.154 0-2.062-.449-2.724-1.345-.657-.896-.985-2.139-.985-3.726 0-1.612.334-2.866 1.002-3.762.674-.903 1.6-1.354 2.778-1.354 1.236 0 2.179.48 2.83 1.442h.088a10.946 10.946 0 0 1-.203-1.96v-3.147h2.69V32h-2.057l-.518-1.274h-.115c-.609.966-1.538 1.45-2.786 1.45Zm.941-2.136c.685 0 1.186-.2 1.503-.598.322-.398.498-1.075.527-2.03v-.29c0-1.055-.164-1.81-.492-2.267-.322-.457-.85-.686-1.582-.686-.598 0-1.064.255-1.398.765-.328.503-.492 1.239-.492 2.206 0 .966.167 1.693.501 2.18.334.48.812.72 1.433.72Zm11.329 2.136c-3.059 0-4.588-1.679-4.588-5.036 0-1.67.416-2.945 1.248-3.824.832-.884 2.024-1.327 3.577-1.327 1.137 0 2.156.223 3.059.668l-.791 2.074c-.422-.17-.815-.307-1.178-.413a3.701 3.701 0 0 0-1.09-.167c-1.394 0-2.092.99-2.092 2.971 0 1.922.698 2.883 2.092 2.883.516 0 .993-.067 1.433-.202a5.3 5.3 0 0 0 1.318-.65v2.293a4.308 4.308 0 0 1-1.318.572c-.44.105-.996.158-1.67.158ZM205.77 32l-.519-1.336h-.07c-.452.568-.917.964-1.398 1.187-.474.216-1.095.325-1.863.325-.943 0-1.688-.27-2.232-.809-.54-.539-.809-1.306-.809-2.303 0-1.043.363-1.81 1.09-2.302.732-.498 1.834-.774 3.304-.826l1.706-.053v-.43c0-.997-.51-1.495-1.53-1.495-.785 0-1.708.237-2.768.712l-.888-1.81c1.131-.592 2.385-.888 3.762-.888 1.318 0 2.329.287 3.032.861.703.574 1.055 1.447 1.055 2.62V32h-1.872Zm-.791-4.553-1.038.035c-.779.024-1.359.165-1.74.422-.381.258-.571.65-.571 1.178 0 .756.433 1.134 1.301 1.134.621 0 1.116-.179 1.485-.536.375-.358.563-.832.563-1.424v-.809Zm12.287 1.635c0 1.008-.352 1.775-1.055 2.303-.697.527-1.743.79-3.138.79-.715 0-1.324-.049-1.828-.149a6.742 6.742 0 0 1-1.415-.422V29.39c.498.234 1.058.43 1.679.588.627.159 1.178.238 1.652.238.973 0 1.459-.281 1.459-.844a.689.689 0 0 0-.193-.51c-.129-.134-.352-.284-.668-.448a15.57 15.57 0 0 0-1.266-.589c-.756-.316-1.312-.61-1.67-.879a2.545 2.545 0 0 1-.773-.923c-.158-.351-.238-.782-.238-1.292 0-.873.337-1.546 1.011-2.021.68-.48 1.641-.72 2.883-.72 1.184 0 2.335.257 3.454.773l-.808 1.933a15.08 15.08 0 0 0-1.38-.518 4.34 4.34 0 0 0-1.31-.202c-.791 0-1.186.213-1.186.641 0 .24.126.448.378.624.257.176.817.437 1.678.782.768.311 1.33.601 1.688.87.357.27.621.58.791.932.17.352.255.77.255 1.257Zm6.231.958c.469 0 1.031-.102 1.688-.308v1.995c-.668.3-1.489.449-2.461.449-1.073 0-1.855-.27-2.347-.809-.486-.545-.73-1.36-.73-2.443v-4.738h-1.283v-1.133l1.477-.897.773-2.074h1.714v2.092h2.751v2.012h-2.751v4.738c0 .38.106.662.317.844.216.181.501.272.852.272Zm10.538-.958c0 1.008-.351 1.775-1.055 2.303-.697.527-1.743.79-3.137.79-.715 0-1.324-.049-1.828-.149a6.724 6.724 0 0 1-1.415-.422V29.39c.498.234 1.057.43 1.678.588.627.159 1.178.238 1.653.238.972 0 1.459-.281 1.459-.844a.69.69 0 0 0-.194-.51c-.129-.134-.351-.284-.668-.448-.316-.17-.738-.366-1.265-.589-.756-.316-1.313-.61-1.67-.879a2.538 2.538 0 0 1-.774-.923c-.158-.351-.237-.782-.237-1.292 0-.873.337-1.546 1.011-2.021.679-.48 1.64-.72 2.883-.72 1.183 0 2.335.257 3.454.773l-.809 1.933a14.85 14.85 0 0 0-1.38-.518 4.334 4.334 0 0 0-1.309-.202c-.791 0-1.187.213-1.187.641 0 .24.126.448.378.624.258.176.817.437 1.679.782.767.311 1.33.601 1.687.87.358.27.621.58.791.932.17.352.255.77.255 1.257Z"/>
  <rect width="301" height="49" x=".5" y=".5" stroke="#fff" rx="8.5"/>
  <defs>
    <linearGradient id="b" x1="79" x2="79" y1="13" y2="37" gradientUnits="userSpaceOnUse">
      <stop stop-color="#F452FF"/>
      <stop offset="1" stop-color="#832BC1"/>
    </linearGradient>
    <clipPath id="a">
      <path fill="#fff" d="M67 13h24v24H67z"/>
    </clipPath>
  </defs>
</svg>
