<svg xmlns="http://www.w3.org/2000/svg" width="300" height="48" fill="none" viewBox="0 0 300 48">
  <rect width="300" height="48" fill="url(#a)" rx="8"/>
  <g clip-path="url(#b)">
    <g clip-path="url(#c)">
      <path fill="#fff" fill-rule="evenodd" d="M103.171 18.556c0-.237-.003-.477-.01-.714a10.264 10.264 0 0 0-.138-1.555 5.01 5.01 0 0 0-1.4-2.739 5.004 5.004 0 0 0-1.259-.914 5.237 5.237 0 0 0-1.477-.486 10.72 10.72 0 0 0-1.555-.138l-.716-.01h-10.56c-.237 0-.477.003-.714.01-.52.013-1.042.046-1.555.138a5.201 5.201 0 0 0-1.476.49 4.94 4.94 0 0 0-1.26.914c-.367.368-.68.792-.916 1.259a5.21 5.21 0 0 0-.487 1.48 10.72 10.72 0 0 0-.138 1.555l-.01.713v10.56c0 .237.003.477.01.713.013.52.046 1.043.138 1.555a5.25 5.25 0 0 0 .487 1.48c.236.463.545.89.913 1.259.369.368.796.677 1.26.914.473.24.956.395 1.476.487.513.092 1.035.121 1.555.138.237.006.477.01.713.01.283.003.566 0 .848 0h9.709c.237 0 .477-.004.714-.01a10.4 10.4 0 0 0 1.555-.138 5.199 5.199 0 0 0 1.476-.487 4.952 4.952 0 0 0 2.173-2.173 5.21 5.21 0 0 0 .486-1.48c.092-.512.122-1.035.139-1.555.006-.236.009-.476.009-.713.004-.283 0-.566 0-.848v-8.867c.01-.283.01-.566.01-.848Zm-6.342 8.847c0 .299-.003.572-.065.871a2.225 2.225 0 0 1-.346.812 2.049 2.049 0 0 1-.647.598c-.26.155-.533.24-.822.3-.546.108-.918.134-1.27.065a1.78 1.78 0 0 1-.854-.434 1.874 1.874 0 0 1-.598-1.17 1.882 1.882 0 0 1 .503-1.473c.194-.204.44-.365.769-.493.342-.132.72-.214 1.302-.329l.46-.092c.2-.04.375-.092.513-.263.141-.17.141-.381.141-.585v-5.214c0-.398-.177-.507-.559-.434-.272.052-6.121 1.232-6.121 1.232-.329.08-.447.188-.447.599v7.637c0 .3-.017.572-.08.871a2.226 2.226 0 0 1-.344.812 2.05 2.05 0 0 1-.648.599c-.26.154-.533.243-.822.302-.546.109-.917.135-1.27.066a1.785 1.785 0 0 1-.854-.437 1.873 1.873 0 0 1-.095-2.643c.194-.204.44-.366.77-.494.341-.131.72-.213 1.301-.329.154-.03.306-.062.46-.091.2-.04.375-.093.513-.264.138-.17.155-.371.155-.575V18.04c0-.118.01-.197.016-.236a.72.72 0 0 1 .237-.457c.112-.092.256-.158.437-.198h.003l7.043-1.423c.062-.013.568-.102.627-.109.382-.032.596.217.596.622l-.004 11.165Z" clip-rule="evenodd"/>
    </g>
    <path fill="#fff" d="m120.983 31-.931-3.059h-4.685L114.436 31H111.5l4.535-12.902h3.331L123.919 31h-2.936Zm-1.582-5.344c-.861-2.771-1.347-4.339-1.459-4.702a15.13 15.13 0 0 1-.228-.861c-.193.75-.747 2.604-1.661 5.563h3.348Zm11.329 5.52c-1.154 0-2.059-.42-2.715-1.257h-.141c.094.82.141 1.295.141 1.424v3.981h-2.681v-14.15h2.18l.378 1.274h.123c.627-.972 1.555-1.459 2.786-1.459 1.16 0 2.068.448 2.724 1.345.657.896.985 2.142.985 3.735 0 1.05-.156 1.96-.466 2.734-.305.773-.741 1.362-1.31 1.766-.568.405-1.236.607-2.004.607Zm-.791-8.042c-.662 0-1.145.205-1.45.615-.304.404-.463 1.075-.474 2.013v.29c0 1.054.155 1.81.465 2.267.317.457.815.686 1.495.686 1.201 0 1.801-.99 1.801-2.97 0-.968-.149-1.691-.448-2.172-.293-.486-.756-.73-1.389-.73Zm12.182 8.042c-1.154 0-2.059-.42-2.716-1.257h-.14c.093.82.14 1.295.14 1.424v3.981h-2.68v-14.15h2.179l.378 1.274h.123c.627-.972 1.556-1.459 2.786-1.459 1.161 0 2.069.448 2.725 1.345.656.896.984 2.142.984 3.735 0 1.05-.155 1.96-.465 2.734-.305.773-.742 1.362-1.31 1.766-.568.405-1.236.607-2.004.607Zm-.791-8.042c-.662 0-1.145.205-1.45.615-.305.404-.463 1.075-.475 2.013v.29c0 1.054.156 1.81.466 2.267.317.457.815.686 1.494.686 1.201 0 1.802-.99 1.802-2.97 0-.968-.149-1.691-.448-2.172-.293-.486-.756-.73-1.389-.73ZM150.796 31h-2.681V17.324h2.681V31Zm6.891-8.104c-.569 0-1.014.182-1.336.545-.323.358-.507.868-.554 1.53h3.762c-.012-.662-.185-1.172-.519-1.53-.334-.363-.785-.544-1.353-.544Zm.377 8.28c-1.582 0-2.818-.437-3.709-1.31-.89-.873-1.335-2.11-1.335-3.709 0-1.646.41-2.918 1.23-3.814.826-.903 1.966-1.354 3.419-1.354 1.389 0 2.47.396 3.243 1.187.774.79 1.16 1.884 1.16 3.278v1.3h-6.337c.03.763.255 1.357.677 1.785.422.428 1.014.642 1.776.642a7.37 7.37 0 0 0 1.678-.185 8.407 8.407 0 0 0 1.653-.589v2.074c-.469.235-.97.408-1.503.519-.534.117-1.184.176-1.952.176ZM174.579 31l-3.094-10.081h-.079c.112 2.05.167 3.419.167 4.104V31h-2.434V18.15h3.709l3.041 9.827h.052l3.226-9.827h3.709V31h-2.54v-6.082c0-.287.003-.618.009-.993.011-.375.052-1.371.123-2.989h-.079L177.075 31h-2.496Zm18.29 0-.36-1.257h-.141a2.853 2.853 0 0 1-1.222 1.064c-.527.246-1.127.369-1.801.369-1.155 0-2.025-.308-2.611-.923-.586-.621-.879-1.512-.879-2.672v-6.407h2.681v5.74c0 .708.126 1.241.378 1.599.252.351.653.527 1.204.527.75 0 1.292-.249 1.626-.747.334-.504.501-1.336.501-2.496v-4.623h2.681V31h-2.057Zm11.725-2.918c0 1.008-.352 1.775-1.055 2.303-.697.527-1.743.79-3.138.79-.714 0-1.324-.049-1.828-.149a6.742 6.742 0 0 1-1.415-.421V28.39c.498.234 1.058.43 1.679.588.627.159 1.178.238 1.652.238.973 0 1.459-.281 1.459-.844a.689.689 0 0 0-.193-.51c-.129-.134-.352-.284-.668-.448a15.41 15.41 0 0 0-1.266-.589c-.756-.316-1.312-.61-1.67-.879a2.545 2.545 0 0 1-.773-.923c-.158-.351-.237-.782-.237-1.292 0-.873.337-1.546 1.01-2.021.68-.48 1.641-.72 2.883-.72 1.184 0 2.335.257 3.454.773l-.808 1.933a14.85 14.85 0 0 0-1.38-.518 4.336 4.336 0 0 0-1.31-.202c-.791 0-1.186.213-1.186.641 0 .24.126.448.378.624.257.176.817.437 1.678.782.768.311 1.33.601 1.688.87.357.27.621.58.791.932.17.352.255.77.255 1.257Zm1.977-9.448c0-.873.487-1.31 1.459-1.31.973 0 1.459.437 1.459 1.31 0 .416-.123.741-.369.975-.24.229-.603.343-1.09.343-.972 0-1.459-.44-1.459-1.318ZM209.366 31h-2.68v-9.826h2.68V31Zm6.812.176c-3.059 0-4.588-1.679-4.588-5.036 0-1.67.416-2.945 1.248-3.824.832-.884 2.024-1.327 3.577-1.327 1.137 0 2.156.223 3.059.668l-.791 2.074c-.422-.17-.815-.307-1.178-.413a3.701 3.701 0 0 0-1.09-.167c-1.394 0-2.092.99-2.092 2.971 0 1.922.698 2.883 2.092 2.883.516 0 .993-.067 1.433-.202a5.3 5.3 0 0 0 1.318-.65v2.293a4.318 4.318 0 0 1-1.318.572c-.44.105-.996.158-1.67.158Z"/>
  </g>
  <defs>
    <clipPath id="b">
      <path fill="#fff" d="M79.5 11h141v26h-141z"/>
    </clipPath>
    <clipPath id="c">
      <path fill="#fff" d="M79.5 12h24v24h-24z"/>
    </clipPath>
    <linearGradient id="a" x1="150" x2="150" y1="0" y2="48" gradientUnits="userSpaceOnUse">
      <stop stop-color="#FB5C74"/>
      <stop offset="1" stop-color="#FA233B"/>
    </linearGradient>
  </defs>
</svg>
