<svg xmlns="http://www.w3.org/2000/svg" width="302" height="50" fill="none" viewBox="0 0 302 50">
  <rect width="301" height="49" x=".5" y=".5" fill="#000" rx="8.5"/>
  <g clip-path="url(#a)">
    <g clip-path="url(#b)">
      <path fill="url(#c)" fill-rule="evenodd" d="M104.171 20.404v-.848c0-.237-.003-.477-.01-.714a10.264 10.264 0 0 0-.138-1.555 5.01 5.01 0 0 0-1.4-2.739 5.004 5.004 0 0 0-1.259-.914 5.236 5.236 0 0 0-1.477-.486 10.72 10.72 0 0 0-1.555-.138l-.716-.01h-10.56c-.237 0-.477.003-.714.01-.52.013-1.042.046-1.555.138a5.201 5.201 0 0 0-1.476.49 4.94 4.94 0 0 0-1.26.914c-.367.368-.68.792-.916 1.259a5.21 5.21 0 0 0-.487 1.48 10.72 10.72 0 0 0-.138 1.555l-.01.71v10.556c0 .237.003.477.01.714.013.52.046 1.042.138 1.555a5.25 5.25 0 0 0 .487 1.48c.236.463.545.89.913 1.259.369.368.796.677 1.26.913.473.24.956.395 1.476.487.513.092 1.035.122 1.555.138.237.007.477.01.713.01.283.003.566 0 .848 0h9.709c.237 0 .477-.003.714-.01a10.27 10.27 0 0 0 1.555-.138 5.195 5.195 0 0 0 1.476-.487 4.955 4.955 0 0 0 2.173-2.173c.24-.473.394-.956.486-1.48.092-.512.122-1.035.139-1.554.006-.237.009-.477.009-.714.004-.282 0-.565 0-.848l.01-8.86Z" clip-rule="evenodd"/>
      <path fill="#fff" fill-rule="evenodd" d="M97.234 16.616c-.056.007-.565.096-.628.109l-7.035 1.42h-.004a.98.98 0 0 0-.437.198.72.72 0 0 0-.237.456c-.006.04-.016.119-.016.237v8.805c0 .207-.016.404-.155.575-.138.17-.312.22-.512.263l-.46.092c-.583.118-.96.197-1.303.329-.328.128-.572.29-.769.493a1.845 1.845 0 0 0-.49 1.473 1.825 1.825 0 0 0 1.44 1.607c.352.07.724.046 1.27-.065.288-.06.561-.152.821-.303.257-.151.477-.352.648-.598.17-.247.282-.52.345-.812.063-.3.079-.572.079-.871V22.39c0-.408.115-.517.447-.599 0 0 5.849-1.18 6.122-1.233.381-.072.559.037.559.434v5.215c0 .207-.004.414-.142.585-.138.17-.312.22-.513.263l-.46.092c-.582.118-.96.197-1.302.329a2.088 2.088 0 0 0-.77.493 1.842 1.842 0 0 0 .95 3.077c.353.07.724.046 1.27-.066.29-.059.562-.144.822-.299.256-.151.477-.352.648-.598.17-.247.282-.52.345-.812.062-.3.066-.572.066-.872v-11.16c-.004-.405-.217-.654-.599-.622Z" clip-rule="evenodd"/>
    </g>
    <path fill="#fff" d="m121.983 32-.931-3.059h-4.685L115.436 32H112.5l4.535-12.902h3.331L124.919 32h-2.936Zm-1.582-5.344c-.861-2.771-1.347-4.339-1.459-4.702a15.13 15.13 0 0 1-.228-.861c-.193.75-.747 2.604-1.661 5.563h3.348Zm11.329 5.52c-1.154 0-2.059-.42-2.715-1.257h-.141c.094.82.141 1.295.141 1.424v3.981h-2.681v-14.15h2.18l.378 1.274h.123c.627-.972 1.555-1.459 2.786-1.459 1.16 0 2.068.448 2.724 1.345.657.896.985 2.142.985 3.735 0 1.05-.156 1.96-.466 2.734-.305.773-.741 1.362-1.31 1.766-.568.405-1.236.607-2.004.607Zm-.791-8.042c-.662 0-1.145.205-1.45.615-.304.404-.463 1.075-.474 2.013v.29c0 1.054.155 1.81.465 2.267.317.457.815.686 1.495.686 1.201 0 1.801-.99 1.801-2.97 0-.968-.149-1.691-.448-2.172-.293-.486-.756-.73-1.389-.73Zm12.182 8.042c-1.154 0-2.059-.42-2.716-1.257h-.14c.093.82.14 1.295.14 1.424v3.981h-2.68v-14.15h2.179l.378 1.274h.123c.627-.972 1.556-1.459 2.786-1.459 1.161 0 2.069.448 2.725 1.345.656.896.984 2.142.984 3.735 0 1.05-.155 1.96-.465 2.734-.305.773-.742 1.362-1.31 1.766-.568.405-1.236.607-2.004.607Zm-.791-8.042c-.662 0-1.145.205-1.45.615-.305.404-.463 1.075-.475 2.013v.29c0 1.054.156 1.81.466 2.267.317.457.815.686 1.494.686 1.201 0 1.802-.99 1.802-2.97 0-.968-.149-1.691-.448-2.172-.293-.486-.756-.73-1.389-.73ZM151.796 32h-2.681V18.324h2.681V32Zm6.891-8.104c-.569 0-1.014.182-1.336.545-.323.358-.507.868-.554 1.53h3.762c-.012-.662-.185-1.172-.519-1.53-.334-.363-.785-.544-1.353-.544Zm.377 8.28c-1.582 0-2.818-.437-3.709-1.31-.89-.873-1.335-2.11-1.335-3.709 0-1.646.41-2.918 1.23-3.814.826-.903 1.966-1.354 3.419-1.354 1.389 0 2.47.396 3.243 1.187.774.79 1.16 1.884 1.16 3.278v1.3h-6.337c.03.763.255 1.357.677 1.785.422.428 1.014.642 1.776.642a7.37 7.37 0 0 0 1.678-.185 8.407 8.407 0 0 0 1.653-.589v2.074c-.469.235-.97.408-1.503.519-.534.117-1.184.176-1.952.176ZM175.579 32l-3.094-10.081h-.079c.112 2.05.167 3.419.167 4.104V32h-2.434V19.15h3.709l3.041 9.827h.052l3.226-9.827h3.709V32h-2.54v-6.082c0-.287.003-.618.009-.993.011-.375.052-1.371.123-2.989h-.079L178.075 32h-2.496Zm18.29 0-.36-1.257h-.141a2.853 2.853 0 0 1-1.222 1.064c-.527.246-1.127.369-1.801.369-1.155 0-2.025-.308-2.611-.923-.586-.621-.879-1.512-.879-2.672v-6.407h2.681v5.74c0 .708.126 1.241.378 1.599.252.351.653.527 1.204.527.75 0 1.292-.249 1.626-.747.334-.504.501-1.336.501-2.496v-4.623h2.681V32h-2.057Zm11.725-2.918c0 1.008-.352 1.775-1.055 2.303-.697.527-1.743.79-3.138.79-.714 0-1.324-.049-1.828-.149a6.742 6.742 0 0 1-1.415-.422V29.39c.498.234 1.058.43 1.679.588.627.159 1.178.238 1.652.238.973 0 1.459-.281 1.459-.844a.689.689 0 0 0-.193-.51c-.129-.134-.352-.284-.668-.448a15.41 15.41 0 0 0-1.266-.589c-.756-.316-1.312-.61-1.67-.879a2.545 2.545 0 0 1-.773-.923c-.158-.351-.237-.782-.237-1.292 0-.873.337-1.546 1.01-2.021.68-.48 1.641-.72 2.883-.72 1.184 0 2.335.257 3.454.773l-.808 1.933a14.85 14.85 0 0 0-1.38-.518 4.336 4.336 0 0 0-1.31-.202c-.791 0-1.186.213-1.186.641 0 .24.126.448.378.624.257.176.817.437 1.678.782.768.311 1.33.601 1.688.87.357.27.621.58.791.932.17.352.255.77.255 1.257Zm1.977-9.448c0-.873.487-1.31 1.459-1.31.973 0 1.459.437 1.459 1.31 0 .416-.123.741-.369.975-.24.229-.603.343-1.09.343-.972 0-1.459-.44-1.459-1.318ZM210.366 32h-2.68v-9.826h2.68V32Zm6.812.176c-3.059 0-4.588-1.679-4.588-5.036 0-1.67.416-2.945 1.248-3.824.832-.884 2.024-1.327 3.577-1.327 1.137 0 2.156.223 3.059.668l-.791 2.074c-.422-.17-.815-.307-1.178-.413a3.701 3.701 0 0 0-1.09-.167c-1.394 0-2.092.99-2.092 2.971 0 1.922.698 2.883 2.092 2.883.516 0 .993-.067 1.433-.202a5.3 5.3 0 0 0 1.318-.65v2.293a4.318 4.318 0 0 1-1.318.572c-.44.105-.996.158-1.67.158Z"/>
  </g>
  <rect width="301" height="49" x=".5" y=".5" stroke="#fff" rx="8.5"/>
  <defs>
    <clipPath id="a">
      <path fill="#fff" d="M80.5 12h141v26h-141z"/>
    </clipPath>
    <clipPath id="b">
      <path fill="#fff" d="M80.5 13h24v24h-24z"/>
    </clipPath>
    <linearGradient id="c" x1="92.336" x2="92.336" y1="36.58" y2="13.51" gradientUnits="userSpaceOnUse">
      <stop stop-color="#FA233B"/>
      <stop offset="1" stop-color="#FB5C74"/>
    </linearGradient>
  </defs>
</svg>
