<svg xmlns="http://www.w3.org/2000/svg" width="302" height="50" fill="none" viewBox="0 0 302 50">
  <rect width="301" height="49" x=".5" y=".5" fill="#18181C" rx="8.5"/>
  <path fill="#13AFF0" d="m88 30.727 2.019 3.494c.408.794 1.225 1.338 2.155 1.338h13.452l-2.79-4.832H88Zm24 .023c0-.476-.136-.93-.386-1.316l-7.894-13.701a2.402 2.402 0 0 0-2.132-1.293h-4.174l12.182 21.096 1.928-3.334c.363-.635.476-.908.476-1.452Zm-11.138-3.47-5.421-9.415-5.445 9.414h10.866Z"/>
  <path fill="#fff" d="m129.483 32-.931-3.059h-4.685L122.936 32H120l4.535-12.902h3.331L132.419 32h-2.936Zm-1.582-5.344c-.861-2.771-1.347-4.339-1.459-4.702a15.13 15.13 0 0 1-.228-.861c-.193.75-.747 2.604-1.661 5.563h3.348Zm11.417-4.667c.364 0 .665.027.906.08l-.203 2.513a3.064 3.064 0 0 0-.791-.088c-.855 0-1.523.22-2.003.66-.475.439-.712 1.054-.712 1.845V32h-2.681v-9.826h2.03l.396 1.652h.132a3.66 3.66 0 0 1 1.23-1.327 3.049 3.049 0 0 1 1.696-.51Zm6.829 8.051c.469 0 1.032-.102 1.688-.308v1.995c-.668.3-1.488.449-2.461.449-1.072 0-1.854-.27-2.347-.809-.486-.545-.729-1.36-.729-2.443v-4.738h-1.283v-1.133l1.476-.897.774-2.074h1.714v2.092h2.75v2.012h-2.75v4.738c0 .38.105.662.316.844.217.181.501.272.852.272Zm11.479-1.608c0 1.16-.419 2.074-1.257 2.742-.832.668-1.992 1.002-3.48 1.002-1.371 0-2.584-.258-3.639-.774v-2.53c.867.386 1.6.658 2.197.817a6.573 6.573 0 0 0 1.653.237c.597 0 1.054-.114 1.371-.343.322-.228.483-.568.483-1.02 0-.252-.07-.474-.211-.668a2.258 2.258 0 0 0-.624-.57c-.269-.182-.823-.473-1.661-.87-.785-.37-1.374-.724-1.767-1.064a3.993 3.993 0 0 1-.94-1.187c-.234-.451-.352-.978-.352-1.582 0-1.137.384-2.03 1.152-2.68.773-.651 1.84-.976 3.199-.976.668 0 1.304.079 1.907.237.61.158 1.245.381 1.907.668l-.878 2.118c-.686-.281-1.254-.477-1.706-.589a5.415 5.415 0 0 0-1.318-.167c-.516 0-.911.12-1.186.36a1.19 1.19 0 0 0-.414.941c0 .24.056.451.167.633.112.176.288.349.528.518.246.165.823.463 1.731.897 1.201.574 2.025 1.151 2.47 1.732.445.574.668 1.28.668 2.118Zm6.258 1.608c.469 0 1.031-.102 1.687-.308v1.995c-.668.3-1.488.449-2.461.449-1.072 0-1.854-.27-2.346-.809-.487-.545-.73-1.36-.73-2.443v-4.738h-1.283v-1.133l1.477-.897.773-2.074h1.714v2.092h2.751v2.012h-2.751v4.738c0 .38.105.662.316.844.217.181.501.272.853.272Zm9.923 1.96-.519-1.336h-.07c-.451.568-.917.964-1.398 1.187-.474.216-1.095.325-1.863.325-.943 0-1.687-.27-2.232-.809-.539-.539-.809-1.306-.809-2.303 0-1.043.363-1.81 1.09-2.302.732-.498 1.834-.774 3.305-.826l1.705-.053v-.43c0-.997-.51-1.495-1.53-1.495-.785 0-1.708.237-2.768.712l-.888-1.81c1.131-.592 2.385-.888 3.762-.888 1.318 0 2.329.287 3.032.861.703.574 1.055 1.447 1.055 2.62V32h-1.872Zm-.791-4.553-1.037.035c-.78.024-1.36.165-1.741.422-.381.258-.571.65-.571 1.178 0 .756.434 1.134 1.301 1.134.621 0 1.116-.179 1.485-.536.375-.358.563-.832.563-1.424v-.809Zm9.571 2.593c.469 0 1.031-.102 1.687-.308v1.995c-.668.3-1.488.449-2.461.449-1.072 0-1.854-.27-2.346-.809-.487-.545-.73-1.36-.73-2.443v-4.738h-1.283v-1.133l1.477-.897.773-2.074h1.714v2.092h2.751v2.012h-2.751v4.738c0 .38.105.662.316.844.217.181.501.272.853.272Zm3.568-10.406c0-.873.487-1.31 1.459-1.31.973 0 1.459.437 1.459 1.31 0 .416-.123.741-.369.975-.24.229-.603.343-1.09.343-.972 0-1.459-.44-1.459-1.318ZM188.95 32h-2.68v-9.826h2.68V32Zm4.957-4.93c0 .972.158 1.707.475 2.205.322.498.844.748 1.564.748.715 0 1.228-.247 1.538-.739.317-.498.475-1.236.475-2.215 0-.972-.158-1.702-.475-2.188-.316-.486-.835-.73-1.555-.73-.715 0-1.231.244-1.547.73-.317.48-.475 1.21-.475 2.188Zm6.794 0c0 1.599-.422 2.85-1.265 3.752-.844.903-2.019 1.354-3.525 1.354-.943 0-1.775-.205-2.496-.616a4.15 4.15 0 0 1-1.661-1.784c-.387-.773-.58-1.675-.58-2.707 0-1.605.419-2.853 1.257-3.744.838-.89 2.015-1.336 3.533-1.336.943 0 1.775.205 2.496.616.721.41 1.274.998 1.661 1.766s.58 1.667.58 2.698ZM211.986 32h-2.68v-5.74c0-.708-.126-1.239-.378-1.59-.252-.358-.654-.536-1.204-.536-.75 0-1.292.252-1.626.756-.334.498-.501 1.327-.501 2.487V32h-2.681v-9.826h2.048l.36 1.257h.15a2.806 2.806 0 0 1 1.23-1.073c.527-.246 1.125-.369 1.793-.369 1.143 0 2.01.31 2.602.932.591.615.887 1.506.887 2.672V32Z"/>
  <rect width="301" height="49" x=".5" y=".5" stroke="#fff" rx="8.5"/>
</svg>
