<svg xmlns="http://www.w3.org/2000/svg" width="300" height="48" fill="none" viewBox="0 0 300 48">
  <rect width="300" height="48" fill="#1D9FC3" rx="8"/>
  <path stroke="#fff" stroke-miterlimit="10" stroke-width="1.562" d="M98 35.219c6.194 0 11.217-5.023 11.217-11.218s-5.023-11.218-11.218-11.218-11.218 5.023-11.218 11.218S91.804 35.219 98 35.219Z"/>
  <path fill="#fff" d="M91.343 28.008h13.312v-8.015H91.343v8.015Zm28.274-9.858h3.999c1.822 0 3.144.261 3.964.783.826.515 1.239 1.338 1.239 2.47 0 .767-.181 1.397-.545 1.889a2.143 2.143 0 0 1-1.432.888v.088c.814.181 1.4.521 1.758 1.02.363.497.545 1.16.545 1.985 0 1.172-.425 2.086-1.275 2.743-.844.656-1.992.984-3.445.984h-4.808V18.15Zm2.725 5.09h1.582c.738 0 1.271-.115 1.599-.343.334-.229.501-.607.501-1.134 0-.493-.181-.844-.545-1.055-.357-.217-.925-.325-1.705-.325h-1.432v2.856Zm0 2.161v3.349h1.775c.75 0 1.304-.144 1.661-.43.358-.288.536-.727.536-1.319 0-1.066-.761-1.6-2.285-1.6h-1.687ZM137.74 31l-.518-1.336h-.071c-.451.568-.917.964-1.397 1.187-.475.216-1.096.325-1.863.325-.944 0-1.688-.27-2.233-.809-.539-.539-.808-1.306-.808-2.303 0-1.043.363-1.81 1.089-2.302.733-.498 1.834-.774 3.305-.826l1.705-.053v-.43c0-.997-.51-1.495-1.529-1.495-.785 0-1.708.237-2.769.712l-.887-1.81c1.131-.592 2.384-.888 3.761-.888 1.319 0 2.329.287 3.033.861.703.574 1.054 1.447 1.054 2.62V31h-1.872Zm-.791-4.553-1.037.035c-.779.024-1.359.165-1.74.422-.381.258-.571.65-.571 1.178 0 .756.433 1.134 1.3 1.134.621 0 1.117-.179 1.486-.536.375-.358.562-.832.562-1.424v-.809ZM151.451 31h-2.68v-5.74c0-.708-.126-1.239-.378-1.59-.252-.358-.654-.536-1.205-.536-.75 0-1.292.252-1.626.756-.333.498-.5 1.327-.5 2.487V31h-2.681v-9.826h2.048l.36 1.257h.149a2.81 2.81 0 0 1 1.231-1.073c.527-.246 1.125-.369 1.793-.369 1.142 0 2.01.31 2.601.932.592.615.888 1.506.888 2.672V31Zm5.871.176c-1.154 0-2.062-.448-2.724-1.345-.657-.896-.985-2.139-.985-3.726 0-1.612.334-2.866 1.002-3.762.674-.903 1.6-1.354 2.778-1.354 1.236 0 2.179.48 2.83 1.442h.088a10.946 10.946 0 0 1-.203-1.96v-3.147h2.69V31h-2.057l-.518-1.274h-.115c-.609.966-1.538 1.45-2.786 1.45Zm.941-2.136c.685 0 1.186-.2 1.503-.598.322-.398.498-1.075.527-2.03v-.29c0-1.055-.164-1.81-.492-2.267-.322-.457-.85-.686-1.582-.686-.598 0-1.064.255-1.398.765-.328.503-.492 1.239-.492 2.206 0 .966.167 1.693.501 2.18.334.48.812.72 1.433.72Zm11.329 2.136c-3.059 0-4.588-1.679-4.588-5.036 0-1.67.416-2.945 1.248-3.824.832-.884 2.024-1.327 3.577-1.327 1.137 0 2.156.223 3.059.668l-.791 2.074c-.422-.17-.815-.307-1.178-.413a3.701 3.701 0 0 0-1.09-.167c-1.394 0-2.092.99-2.092 2.971 0 1.922.698 2.883 2.092 2.883.516 0 .993-.067 1.433-.202a5.3 5.3 0 0 0 1.318-.65v2.293a4.318 4.318 0 0 1-1.318.572c-.44.105-.996.158-1.67.158ZM181.105 31l-.518-1.336h-.07c-.452.568-.917.964-1.398 1.187-.474.216-1.096.325-1.863.325-.944 0-1.688-.27-2.233-.809-.539-.539-.808-1.306-.808-2.303 0-1.043.363-1.81 1.09-2.302.732-.498 1.834-.774 3.304-.826l1.705-.053v-.43c0-.997-.509-1.495-1.529-1.495-.785 0-1.708.237-2.768.712l-.888-1.81c1.131-.592 2.385-.888 3.762-.888 1.318 0 2.329.287 3.032.861.703.574 1.055 1.447 1.055 2.62V31h-1.873Zm-.791-4.553-1.037.035c-.779.024-1.359.165-1.74.422-.381.258-.571.65-.571 1.178 0 .756.433 1.134 1.301 1.134.621 0 1.116-.179 1.485-.536.375-.358.562-.832.562-1.424v-.809ZM194.544 31h-2.681v-5.74c0-.708-.12-1.239-.36-1.59-.234-.358-.607-.536-1.116-.536-.686 0-1.184.252-1.494.756-.311.504-.466 1.333-.466 2.487V31h-2.681v-9.826h2.048l.36 1.257h.15a2.69 2.69 0 0 1 1.142-1.055c.498-.258 1.07-.387 1.714-.387 1.471 0 2.467.48 2.988 1.442h.238c.263-.457.65-.812 1.16-1.064.516-.252 1.096-.378 1.74-.378 1.113 0 1.954.287 2.523.862.574.568.861 1.482.861 2.742V31h-2.69v-5.74c0-.708-.12-1.239-.36-1.59-.234-.358-.606-.536-1.116-.536-.656 0-1.149.234-1.477.703-.322.469-.483 1.213-.483 2.232V31Zm14.282.176c-1.154 0-2.059-.42-2.716-1.257h-.14c.093.82.14 1.295.14 1.424v3.981h-2.68v-14.15h2.179l.378 1.274h.123c.627-.972 1.556-1.459 2.786-1.459 1.161 0 2.069.448 2.725 1.345.656.896.984 2.142.984 3.735 0 1.05-.155 1.96-.465 2.734-.305.773-.742 1.362-1.31 1.766-.568.405-1.236.607-2.004.607Zm-.791-8.042c-.662 0-1.145.205-1.45.615-.305.404-.463 1.075-.475 2.013v.29c0 1.054.156 1.81.466 2.267.317.457.815.686 1.494.686 1.201 0 1.802-.99 1.802-2.97 0-.968-.149-1.691-.448-2.172-.293-.486-.756-.73-1.389-.73Z"/>
</svg>
