<svg xmlns="http://www.w3.org/2000/svg" width="300" height="48" fill="none" viewBox="0 0 300 48">
  <rect width="300" height="48" fill="#0057FF" rx="8"/>
  <g clip-path="url(#a)">
    <path fill="#fff" d="M117 19h-7v-2h7v2Zm1.726 10c-.442 1.297-2.029 3-5.101 3-3.074 0-5.564-1.729-5.564-5.675 0-3.91 2.325-5.92 5.466-5.92 3.082 0 4.964 1.782 5.375 4.426.078.506.109 1.188.095 2.14h-8.027c.13 3.211 3.483 3.312 4.588 2.029h3.168Zm-7.686-4h4.965c-.105-1.547-1.136-2.219-2.477-2.219-1.466 0-2.277.768-2.488 2.219Zm-9.574 6.988H95V17.021h6.953c5.476.081 5.58 5.444 2.72 6.906 3.461 1.26 3.577 8.061-3.207 8.061ZM98 23h3.584c2.508 0 2.906-3-.312-3H98v3Zm3.391 3H98v3.016h3.341c3.055 0 2.868-3.016.05-3.016Z"/>
  </g>
  <path fill="#fff" d="M128.617 18.15h3.999c1.822 0 3.144.261 3.964.783.826.515 1.239 1.338 1.239 2.47 0 .767-.181 1.397-.545 1.889a2.143 2.143 0 0 1-1.432.888v.088c.814.181 1.4.521 1.758 1.02.363.497.545 1.16.545 1.985 0 1.172-.425 2.086-1.275 2.743-.844.656-1.992.984-3.445.984h-4.808V18.15Zm2.725 5.09h1.582c.738 0 1.271-.115 1.599-.343.334-.229.501-.607.501-1.134 0-.493-.181-.844-.545-1.055-.357-.217-.925-.325-1.705-.325h-1.432v2.856Zm0 2.161v3.349h1.775c.75 0 1.304-.144 1.661-.43.358-.288.536-.727.536-1.319 0-1.066-.761-1.6-2.285-1.6h-1.687Zm13.227-2.505c-.568 0-1.013.182-1.336.545-.322.358-.506.868-.553 1.53h3.761c-.011-.662-.184-1.172-.518-1.53-.334-.363-.785-.544-1.354-.544Zm.378 8.28c-1.582 0-2.818-.437-3.709-1.31-.89-.873-1.336-2.11-1.336-3.709 0-1.646.41-2.918 1.231-3.814.826-.903 1.966-1.354 3.419-1.354 1.388 0 2.469.396 3.243 1.187.773.79 1.16 1.884 1.16 3.278v1.3h-6.337c.029.763.255 1.357.677 1.785.422.428 1.014.642 1.775.642.592 0 1.152-.062 1.679-.185a8.4 8.4 0 0 0 1.652-.589v2.074a6.136 6.136 0 0 1-1.503.519c-.533.117-1.183.176-1.951.176ZM160.205 31h-2.681v-5.74c0-1.417-.527-2.126-1.582-2.126-.75 0-1.292.255-1.626.764-.334.51-.501 1.336-.501 2.479V31h-2.68V17.324h2.68v2.786c0 .217-.02.727-.061 1.53l-.062.79h.141c.598-.96 1.547-1.44 2.848-1.44 1.154 0 2.03.31 2.628.93.597.622.896 1.513.896 2.673V31Zm9 0-.518-1.336h-.071c-.451.568-.917.964-1.397 1.187-.475.216-1.096.325-1.864.325-.943 0-1.687-.27-2.232-.809-.539-.539-.809-1.306-.809-2.303 0-1.043.364-1.81 1.09-2.302.733-.498 1.834-.774 3.305-.826l1.705-.053v-.43c0-.997-.51-1.495-1.529-1.495-.785 0-1.708.237-2.769.712l-.887-1.81c1.13-.592 2.384-.888 3.761-.888 1.319 0 2.329.287 3.032.861.704.574 1.055 1.447 1.055 2.62V31h-1.872Zm-.791-4.553-1.037.035c-.779.024-1.359.165-1.74.422-.381.258-.572.65-.572 1.178 0 .756.434 1.134 1.301 1.134.621 0 1.116-.179 1.486-.536.375-.358.562-.832.562-1.424v-.809ZM182.916 31h-2.681v-5.74c0-.708-.126-1.239-.378-1.59-.252-.358-.653-.536-1.204-.536-.75 0-1.292.252-1.626.756-.334.498-.501 1.327-.501 2.487V31h-2.68v-9.826h2.048l.36 1.257h.149a2.81 2.81 0 0 1 1.231-1.073c.527-.246 1.125-.369 1.793-.369 1.142 0 2.01.31 2.601.932.592.615.888 1.506.888 2.672V31Zm6.75.176c-3.059 0-4.588-1.679-4.588-5.036 0-1.67.416-2.945 1.248-3.824.832-.884 2.025-1.327 3.577-1.327 1.137 0 2.157.223 3.059.668l-.791 2.074c-.422-.17-.815-.307-1.178-.413a3.696 3.696 0 0 0-1.09-.167c-1.394 0-2.091.99-2.091 2.971 0 1.922.697 2.883 2.091 2.883.516 0 .993-.067 1.433-.202a5.3 5.3 0 0 0 1.318-.65v2.293a4.308 4.308 0 0 1-1.318.572c-.44.105-.996.158-1.67.158Zm9.343-8.28c-.569 0-1.014.182-1.336.545-.322.358-.507.868-.554 1.53h3.762c-.012-.662-.185-1.172-.519-1.53-.334-.363-.785-.544-1.353-.544Zm.378 8.28c-1.582 0-2.819-.437-3.709-1.31-.891-.873-1.336-2.11-1.336-3.709 0-1.646.41-2.918 1.23-3.814.826-.903 1.966-1.354 3.419-1.354 1.389 0 2.47.396 3.243 1.187.774.79 1.161 1.884 1.161 3.278v1.3h-6.337c.029.763.254 1.357.676 1.785.422.428 1.014.642 1.776.642.592 0 1.151-.062 1.678-.185a8.384 8.384 0 0 0 1.653-.589v2.074c-.469.235-.97.408-1.503.519-.533.117-1.184.176-1.951.176Z"/>
  <defs>
    <clipPath id="a">
      <path fill="#fff" d="M95 12h24v24H95z"/>
    </clipPath>
  </defs>
</svg>
