<svg xmlns="http://www.w3.org/2000/svg" width="302" height="50" fill="none" viewBox="0 0 302 50">
  <rect width="301" height="49" x=".5" y=".5" fill="#F3F9FF" rx="8.5"/>
  <g clip-path="url(#a)">
    <g clip-path="url(#b)">
      <path fill="url(#c)" d="M119.5 13h-16a4 4 0 0 0-4 4v16a4 4 0 0 0 4 4h16a4 4 0 0 0 4-4V17a4 4 0 0 0-4-4Z"/>
    </g>
    <path fill="#000" d="M133.117 19.15h3.999c1.822 0 3.144.261 3.964.783.826.515 1.239 1.338 1.239 2.47 0 .767-.181 1.397-.545 1.889a2.143 2.143 0 0 1-1.432.888v.088c.814.181 1.4.521 1.758 1.02.363.497.545 1.16.545 1.985 0 1.172-.425 2.086-1.275 2.743-.844.656-1.992.984-3.445.984h-4.808V19.15Zm2.725 5.09h1.582c.738 0 1.271-.115 1.599-.343.334-.229.501-.607.501-1.134 0-.493-.181-.844-.545-1.055-.357-.217-.925-.325-1.705-.325h-1.432v2.856Zm0 2.161v3.349h1.775c.75 0 1.304-.144 1.661-.43.358-.288.536-.727.536-1.319 0-1.066-.761-1.6-2.285-1.6h-1.687ZM147.681 32H145V18.324h2.681V32Zm9.782 0-.36-1.257h-.141a2.853 2.853 0 0 1-1.222 1.064c-.527.246-1.128.369-1.802.369-1.154 0-2.024-.308-2.61-.923-.586-.621-.879-1.512-.879-2.672v-6.407h2.681v5.74c0 .708.126 1.241.378 1.599.252.351.653.527 1.204.527.75 0 1.292-.249 1.626-.747.334-.504.501-1.336.501-2.496v-4.623h2.681V32h-2.057Zm8.938-8.104c-.568 0-1.013.182-1.336.545-.322.358-.506.868-.553 1.53h3.761c-.011-.662-.184-1.172-.518-1.53-.334-.363-.785-.544-1.354-.544Zm.378 8.28c-1.582 0-2.818-.437-3.709-1.31-.89-.873-1.336-2.11-1.336-3.709 0-1.646.411-2.918 1.231-3.814.826-.903 1.966-1.354 3.419-1.354 1.388 0 2.47.396 3.243 1.187.773.79 1.16 1.884 1.16 3.278v1.3h-6.337c.029.763.255 1.357.677 1.785.422.428 1.014.642 1.775.642.592 0 1.152-.062 1.679-.185a8.4 8.4 0 0 0 1.652-.589v2.074a6.136 6.136 0 0 1-1.503.519c-.533.117-1.183.176-1.951.176Zm13.043-3.094c0 1.008-.351 1.775-1.054 2.303-.698.527-1.744.79-3.138.79-.715 0-1.324-.049-1.828-.149a6.724 6.724 0 0 1-1.415-.422V29.39c.498.234 1.057.43 1.678.588.627.159 1.178.238 1.653.238.972 0 1.459-.281 1.459-.844a.69.69 0 0 0-.194-.51c-.129-.134-.351-.284-.668-.448-.316-.17-.738-.366-1.265-.589-.756-.316-1.313-.61-1.67-.879a2.548 2.548 0 0 1-.774-.923c-.158-.351-.237-.782-.237-1.292 0-.873.337-1.546 1.011-2.021.68-.48 1.641-.72 2.883-.72 1.183 0 2.335.257 3.454.773l-.809 1.933a14.85 14.85 0 0 0-1.38-.518 4.33 4.33 0 0 0-1.309-.202c-.791 0-1.187.213-1.187.641 0 .24.126.448.378.624.258.176.818.437 1.679.782.767.311 1.33.601 1.687.87.358.27.621.58.791.932.17.352.255.77.255 1.257Zm4.667-2.426 1.169-1.494 2.751-2.988h3.024l-3.903 4.262L191.67 32h-3.094l-2.83-3.981-1.151.922V32h-2.681V18.324h2.681v6.1l-.141 2.232h.035Zm7.181-4.482h2.935l1.855 5.528a7.65 7.65 0 0 1 .325 1.705h.053c.064-.603.19-1.172.378-1.705l1.819-5.528h2.874l-4.157 11.083c-.381 1.025-.926 1.793-1.635 2.303-.703.51-1.526.764-2.47.764a6.2 6.2 0 0 1-1.362-.15v-2.126c.322.076.674.114 1.055.114a1.87 1.87 0 0 0 1.239-.44c.358-.287.636-.723.835-1.309l.158-.483-3.902-9.756Z"/>
  </g>
  <rect width="301" height="49" x=".5" y=".5" stroke="#212121" rx="8.5"/>
  <defs>
    <clipPath id="a">
      <path fill="#fff" d="M99.5 12h103v26h-103z"/>
    </clipPath>
    <clipPath id="b">
      <path fill="#fff" d="M99.5 13h24v24h-24z"/>
    </clipPath>
    <linearGradient id="c" x1="111.5" x2="111.5" y1="13" y2="37" gradientUnits="userSpaceOnUse">
      <stop stop-color="#06F"/>
      <stop offset="1" stop-color="#71C0FF"/>
    </linearGradient>
  </defs>
</svg>
