<svg xmlns="http://www.w3.org/2000/svg" width="300" height="48" fill="none" viewBox="0 0 300 48">
  <rect width="299" height="47" x=".5" y=".5" fill="#fff" rx="7.5"/>
  <g clip-path="url(#a)">
    <path fill="#E01E5A" d="M115.528 27.15a2.51 2.51 0 0 1-2.514 2.515 2.533 2.533 0 0 1-2.514-2.514 2.533 2.533 0 0 1 2.514-2.514h2.514v2.514Zm1.274 0a2.51 2.51 0 0 1 2.514-2.513 2.533 2.533 0 0 1 2.514 2.514v6.335A2.51 2.51 0 0 1 119.316 36a2.532 2.532 0 0 1-2.514-2.514V27.15Z"/>
    <path fill="#36C5F0" d="M119.316 17.028a2.51 2.51 0 0 1-2.514-2.514A2.532 2.532 0 0 1 119.316 12a2.533 2.533 0 0 1 2.514 2.514v2.514h-2.514Zm0 1.274a2.511 2.511 0 0 1 2.514 2.514 2.533 2.533 0 0 1-2.514 2.514h-6.302a2.51 2.51 0 0 1-2.514-2.514 2.532 2.532 0 0 1 2.514-2.514h6.302Z"/>
    <path fill="#2EB67D" d="M129.439 20.849a2.51 2.51 0 0 1 2.514-2.514 2.51 2.51 0 0 1 2.514 2.514 2.533 2.533 0 0 1-2.514 2.514h-2.514v-2.514Zm-1.274.001a2.51 2.51 0 0 1-2.514 2.513 2.51 2.51 0 0 1-2.514-2.514v-6.335A2.51 2.51 0 0 1 125.651 12a2.51 2.51 0 0 1 2.514 2.514v6.335Z"/>
    <path fill="#ECB22E" d="M125.651 30.939a2.51 2.51 0 0 1 2.514 2.513 2.51 2.51 0 0 1-2.514 2.514 2.51 2.51 0 0 1-2.514-2.514V30.94h2.514Zm0-1.241a2.51 2.51 0 0 1-2.514-2.514 2.533 2.533 0 0 1 2.514-2.514h6.335a2.51 2.51 0 0 1 2.514 2.514 2.532 2.532 0 0 1-2.514 2.514h-6.335Z"/>
    <path fill="#000" d="M151.702 27.432c0 1.16-.419 2.074-1.257 2.742-.832.668-1.992 1.002-3.48 1.002-1.371 0-2.584-.258-3.639-.774v-2.53c.867.386 1.6.658 2.197.817a6.573 6.573 0 0 0 1.653.237c.597 0 1.054-.114 1.371-.343.322-.228.483-.568.483-1.02 0-.252-.07-.474-.211-.668a2.258 2.258 0 0 0-.624-.57c-.269-.182-.823-.473-1.661-.87-.785-.37-1.374-.724-1.766-1.064a3.996 3.996 0 0 1-.941-1.187c-.234-.451-.351-.978-.351-1.582 0-1.137.383-2.03 1.151-2.68.773-.651 1.84-.976 3.199-.976.668 0 1.304.079 1.907.237.61.158 1.246.381 1.908.668l-.879 2.118c-.686-.281-1.254-.477-1.705-.589a5.43 5.43 0 0 0-1.319-.167c-.515 0-.911.12-1.186.36-.276.241-.413.555-.413.941 0 .24.055.451.167.633.111.176.287.349.527.518.246.165.823.463 1.731.897 1.202.574 2.025 1.151 2.47 1.732.445.574.668 1.28.668 2.118ZM156.501 31h-2.681V17.324h2.681V31Zm9.061 0-.518-1.336h-.07c-.452.568-.917.964-1.398 1.187-.474.216-1.096.325-1.863.325-.943 0-1.688-.27-2.233-.809-.539-.539-.808-1.306-.808-2.303 0-1.043.363-1.81 1.09-2.302.732-.498 1.834-.774 3.304-.826l1.705-.053v-.43c0-.997-.509-1.495-1.529-1.495-.785 0-1.708.237-2.768.712l-.888-1.81c1.131-.592 2.385-.888 3.762-.888 1.318 0 2.329.287 3.032.861.703.574 1.055 1.447 1.055 2.62V31h-1.873Zm-.791-4.553-1.037.035c-.779.024-1.359.165-1.74.422-.381.258-.571.65-.571 1.178 0 .756.433 1.134 1.301 1.134.621 0 1.116-.179 1.485-.536.375-.358.562-.832.562-1.424v-.809Zm9.422 4.729c-3.058 0-4.588-1.679-4.588-5.036 0-1.67.416-2.945 1.249-3.824.832-.884 2.024-1.327 3.577-1.327 1.136 0 2.156.223 3.058.668l-.791 2.074a12.53 12.53 0 0 0-1.177-.413 3.706 3.706 0 0 0-1.09-.167c-1.395 0-2.092.99-2.092 2.971 0 1.922.697 2.883 2.092 2.883.515 0 .993-.067 1.432-.202.44-.14.879-.358 1.319-.65v2.293a4.313 4.313 0 0 1-1.319.572c-.439.105-.996.158-1.67.158Zm7.849-5.52 1.169-1.494 2.751-2.988h3.023l-3.902 4.262 4.14 5.564h-3.094l-2.83-3.981-1.152.922V31h-2.68V17.324h2.68v6.1l-.14 2.232h.035Z"/>
  </g>
  <rect width="299" height="47" x=".5" y=".5" stroke="#212121" rx="7.5"/>
  <defs>
    <clipPath id="a">
      <path fill="#fff" d="M110.5 11h79v26h-79z"/>
    </clipPath>
  </defs>
</svg>
