<svg xmlns="http://www.w3.org/2000/svg" width="300" height="48" fill="none" viewBox="0 0 300 48">
  <rect width="300" height="48" fill="#FD0" rx="8"/>
  <g clip-path="url(#a)">
    <g clip-path="url(#b)">
      <path fill="#FBFBFB" fill-rule="evenodd" d="m65.206 16.655-.03.032.033-.029a.246.246 0 0 0 .032-.033c0-.007-.008 0-.035.03Zm15.143 0c0 .002.015.017.033.033l.032.03-.029-.033c-.027-.03-.036-.037-.036-.03Zm-8.276.075a.11.11 0 0 0 .04 0c.01-.003 0-.005-.023-.005-.022 0-.03.002-.017.005Zm3.964 5.779a.668.668 0 0 1-.11.01c-.186.01-.277.02-.445.047a5.167 5.167 0 0 0-.806.184 2.909 2.909 0 0 1-.23.067.071.071 0 0 1-.025.008c0-.002-.01.003-.023.01a.186.186 0 0 1-.04.015c-.01.002-.06.02-.112.04a7.13 7.13 0 0 1-.184.067 2.173 2.173 0 0 0-.12.042c-.047.02-.182.073-.271.106-.143.052-.216.08-.262.102-.025.01-.09.036-.147.055a2.07 2.07 0 0 0-.201.08 14.112 14.112 0 0 1-1.126.379 7.333 7.333 0 0 0-.08.019.391.391 0 0 0-.118.039c-.007.005-.015.007-.018.004a.43.43 0 0 0-.124.03.057.057 0 0 1-.021.005.414.414 0 0 0-.06.014.9.9 0 0 1-.144.03 1.393 1.393 0 0 0-.06.01 1.612 1.612 0 0 1-.105.02.385.385 0 0 0-.05.01.413.413 0 0 1-.055.01.93.93 0 0 0-.08.015.897.897 0 0 1-.075.014l-.14.02a4.037 4.037 0 0 1-.276.035c-.307.032-.904.04-1.315.016a7.531 7.531 0 0 1-.85-.116c-.023-.006-.045-.009-.049-.006-.002.003-.01.002-.016-.003a.14.14 0 0 0-.051-.015 1.76 1.76 0 0 1-.176-.031c-.025-.008-.03-.083.056.737a2615.96 2615.96 0 0 1 .3 2.885 6106.192 6106.192 0 0 1 .506 4.858c.057.552.088.756.159 1.026.22.839.809 1.27 1.886 1.38.31.032 2.82.053 3.142.027 1.169-.095 1.764-.283 2.09-.66.28-.324.36-.614.426-1.543.012-.163.043-.507.07-.766.028-.258.068-.65.09-.87l.08-.776a167.585 167.585 0 0 0 .14-1.365c.017-.154.053-.506.08-.78l.08-.781c.017-.154.046-.442.066-.64l.07-.69c.02-.182.053-.511.075-.731l.08-.776a219.976 219.976 0 0 0 .15-1.455c.019-.185.018-.192-.015-.199a.307.307 0 0 1-.049-.015.259.259 0 0 0-.055-.015.233.233 0 0 1-.052-.014.502.502 0 0 0-.114-.027 4.999 4.999 0 0 0-.86-.132 5.129 5.129 0 0 0-.436-.01Z" clip-rule="evenodd"/>
      <path fill="#0C0C24" fill-rule="evenodd" d="M71.605 12.003c-.003.002-.09.007-.195.01a14.18 14.18 0 0 0-.59.032 33.92 33.92 0 0 0-.851.075l-.372.035c-.141.01-.522.061-.774.105l-.215.036c-.15.023-.231.04-.445.096a4.963 4.963 0 0 0-.685.203c-.743.26-1.112.6-1.172 1.08-.03.24.024.49.133.62.013.015.023.033.023.04 0 .019.177.21.23.247l.095.074a2.455 2.455 0 0 0 .576.288c.194.078.212.085.25.093.02.004.088.025.154.046.142.046.32.093.431.113.044.008.143.029.22.046a7.452 7.452 0 0 0 .706.125c.428.066.816.11 1.23.14l.35.025a12.625 12.625 0 0 0 .41.025c.03.002.128.007.216.01l.235.01c.534.037 1.94.015 2.636-.04a120.906 120.906 0 0 1 .73-.056 19.419 19.419 0 0 0 1.001-.125c.16-.02.21-.032.27-.06a.892.892 0 0 0 .205-.164c0-.005.02-.038.044-.072.16-.23.153-.583-.014-.786a3.163 3.163 0 0 1-.057-.072c-.128-.166-.416-.232-.773-.177a12.449 12.449 0 0 1-1.166.121c-.627.086-2.52.093-3.662.014l-.44-.03a11.646 11.646 0 0 1-1.02-.12 6.2 6.2 0 0 1-.663-.119c-.055-.015-.083-.046-.082-.094 0-.078.04-.103.2-.126.035-.005.161-.027.28-.049.306-.057.474-.082.645-.097a10.694 10.694 0 0 0 .365-.04l.095-.009c.117-.012.391-.036.525-.045l.21-.015c1.182-.089 3.134-.05 4.193.085l.2.02c.159.012.466.062.98.16.547.105.787.175.907.266a.502.502 0 0 1 .155.139c.086.121.12.212.174.47.02.094.054.247.076.34.021.092.039.178.039.19 0 .012.031.159.07.326a10.825 10.825 0 0 1 .105.505c.075.319.073.352-.017.451-.045.05-.053.05-.648.124l-.406.05a4.827 4.827 0 0 1-.24.02 4.256 4.256 0 0 0-.195.015 28.908 28.908 0 0 1-1.246.1l-.334.02c-.124.007-.313.014-.42.015a56.265 56.265 0 0 1-2.456.01 29.633 29.633 0 0 1-2.247-.13 43.606 43.606 0 0 0-.42-.034c-.119-.009-.55-.06-.896-.105l-.36-.045a5.88 5.88 0 0 1-.3-.045 34.333 34.333 0 0 0-1.056-.17c-.298-.036-.672.025-.902.147a1.66 1.66 0 0 0-.212.123c-.43.31-.616.647-.751 1.36-.04.209-.08.406-.127.615-.123.559-.056 1.058.195 1.446l.058.09c.054.087.341.38.372.38.005 0 .033.018.06.039.06.045.188.121.204.121a.41.41 0 0 1 .074.029c.139.062.285.103.434.121.039.005.133.02.21.035.238.045.606.106.695.115.047.005.205.027.35.05l.416.06.183.026c.018.003.085.01.15.015.063.005.145.014.181.02l.246.03.29.034c.146.018.618.061.88.08.116.01.292.023.391.03.1.009.284.022.41.03l.31.02c.145.01.457.025.646.031.102.004.19.008.197.01.02.006.956.02 1.349.02a37.489 37.489 0 0 0 3.351-.145c.176-.013.74-.067.87-.084.05-.006.138-.011.196-.011h.106l.095.047a.46.46 0 0 1 .26.315l.022.082-.032.293c-.088.802-.102.935-.098.957.003.012-.004.103-.014.2-.01.097-.04.38-.064.627l-.085.825-.08.776c-.022.22-.055.549-.075.73l-.07.69-.065.64a88.92 88.92 0 0 0-.08.781 225.062 225.062 0 0 1-.145 1.416l-.076.73-.08.776c-.022.22-.062.612-.09.87a28.68 28.68 0 0 0-.07.766c-.065.93-.145 1.22-.426 1.544-.326.376-.921.564-2.09.659-.323.026-2.831.005-3.141-.027-1.078-.11-1.668-.541-1.887-1.38-.07-.27-.102-.474-.159-1.026a360.1 360.1 0 0 0-.135-1.296l-.37-3.562a382.062 382.062 0 0 1-.396-3.872 1396.715 1396.715 0 0 0-.05-.44 6.7 6.7 0 0 1-.02-.226 9.878 9.878 0 0 0-.024-.27l-.03-.28a1.216 1.216 0 0 0-.107-.428.752.752 0 0 0-.24-.272c-.343-.234-.9-.017-1.024.4-.024.08-.02.156.029.616l.06.58c.008.088.042.414.075.725a161.457 161.457 0 0 1 .116 1.116c.012.095.095.882.104.995.006.075.04.399.075.72.035.323.068.644.075.716.005.072.04.398.075.725.035.328.069.652.075.72.006.07.04.394.075.721a56.952 56.952 0 0 1 .106 1.03 53.49 53.49 0 0 1 .08.726c.018.152.029.26.034.345.006.096.028.31.086.826l.049.465c.034.379.045.48.067.609.013.078.038.191.055.25l.044.156a2.313 2.313 0 0 0 .309.613.264.264 0 0 0 .033.048c.01.01.042.049.072.085.05.06.204.222.233.245l.082.07c.038.033.09.073.116.09.026.016.069.046.095.065.026.02.068.047.094.061l.156.088c.061.034.122.065.135.068.013.004.067.026.119.05a2 2 0 0 0 .397.14c.133.041.344.09.46.107a14.32 14.32 0 0 0 1.646.148c.36.014 2.36.018 2.576.006a7.725 7.725 0 0 0 1.016-.127 4.011 4.011 0 0 0 .959-.322 1.664 1.664 0 0 0 .254-.149c.013 0 .092-.05.178-.112a2.94 2.94 0 0 0 .595-.577c.023-.032.054-.07.068-.085a.307.307 0 0 0 .043-.064.48.48 0 0 1 .04-.067 1.699 1.699 0 0 0 .168-.306c.102-.2.221-.6.246-.825l.025-.235c.015-.145.092-.865.1-.93l.02-.216c.02-.218.046-.478.086-.845a86.985 86.985 0 0 0 .074-.716c.008-.113.023-.276.036-.38l.04-.365.064-.6a39.483 39.483 0 0 1 .09-.907c.036-.33.07-.66.075-.734.005-.074.026-.281.046-.46a142.198 142.198 0 0 0 .1-.95c.005-.081.043-.448.1-.971l.035-.35a92.64 92.64 0 0 1 .145-1.391 7.7 7.7 0 0 0 .025-.28c.006-.086.012-.169.015-.185.003-.017.03-.26.06-.54l.06-.551a5.9 5.9 0 0 0 .014-.18c.043-.598.099-.735.345-.844a2.38 2.38 0 0 1 .298-.072 2.26 2.26 0 0 0 .493-.187 1.36 1.36 0 0 0 .118-.075.488.488 0 0 1 .076-.048c.026 0 .296-.287.337-.359.012-.02.04-.064.064-.098.23-.338.296-.92.166-1.489a5.926 5.926 0 0 1-.09-.445 4.765 4.765 0 0 0-.172-.68 3.322 3.322 0 0 0-.182-.362l-.07-.1a1.667 1.667 0 0 0-.256-.259.213.213 0 0 1-.056-.036c-.099-.078-.247-.143-.525-.229-.222-.069-.272-.094-.365-.186a.812.812 0 0 1-.188-.394 48.661 48.661 0 0 0-.075-.435 32.74 32.74 0 0 1-.082-.486l-.052-.3a11.614 11.614 0 0 1-.083-.475 2.495 2.495 0 0 0-.145-.509 1.33 1.33 0 0 0-.28-.415 1.929 1.929 0 0 0-.233-.19 1.185 1.185 0 0 1-.095-.06 2.901 2.901 0 0 0-.423-.204 7.36 7.36 0 0 0-.557-.179 2.52 2.52 0 0 1-.168-.04 7.05 7.05 0 0 0-.75-.159 10.407 10.407 0 0 0-1.026-.14 25.604 25.604 0 0 0-1.361-.107 87.592 87.592 0 0 0-2.176-.015Zm-4.865 5.57c.092.01.275.037.407.06.034.007.15.033.26.06.11.027.241.055.29.064.318.055 1.008.153 1.166.166.058.005.227.022.376.039.243.027.621.064.95.09.266.023 1.039.06 1.646.082.301.01 1.647.014 1.75.005.03-.003.15-.008.266-.011a45.895 45.895 0 0 0 1.536-.08 40.87 40.87 0 0 0 1.066-.105l.29-.03c.112-.012.205-.024.55-.076l.345-.05a11.4 11.4 0 0 0 .585-.094c.422-.077.508-.091.67-.11.466-.057.73.219.797.83.074.688-.161.95-.931 1.031-.053.006-.235.03-.406.055a20.935 20.935 0 0 1-1.22.15 23.458 23.458 0 0 1-1.366.125c-.11.01-.126.01-.465.035a34.949 34.949 0 0 1-5.18-.02c-.172-.015-.383-.03-.468-.035-.169-.01-.483-.04-.96-.095a31.117 31.117 0 0 0-.6-.064 11.013 11.013 0 0 1-.291-.035l-.54-.07c-1.076-.14-1.178-.163-1.295-.3-.089-.104-.1-.143-.12-.402-.007-.092.021-.34.059-.516.133-.624.29-.756.833-.699Z" clip-rule="evenodd"/>
    </g>
    <path fill="#000" d="M94.117 18.15h4c1.822 0 3.143.261 3.963.783.826.515 1.239 1.338 1.239 2.47 0 .767-.181 1.397-.545 1.889a2.143 2.143 0 0 1-1.432.888v.088c.814.181 1.4.521 1.758 1.02.363.497.545 1.16.545 1.985 0 1.172-.425 2.086-1.275 2.743-.844.656-1.992.984-3.445.984h-4.808V18.15Zm2.725 5.09h1.582c.738 0 1.271-.115 1.599-.343.334-.229.501-.607.501-1.134 0-.493-.181-.844-.544-1.055-.358-.217-.926-.325-1.706-.325h-1.432v2.856Zm0 2.161v3.349h1.775c.75 0 1.304-.144 1.661-.43.358-.288.536-.727.536-1.319 0-1.066-.761-1.6-2.285-1.6h-1.687ZM112.96 31l-.36-1.257h-.141a2.853 2.853 0 0 1-1.222 1.064c-.527.246-1.128.369-1.801.369-1.155 0-2.025-.308-2.611-.923-.586-.621-.879-1.512-.879-2.672v-6.407h2.681v5.74c0 .708.126 1.241.378 1.599.252.351.653.527 1.204.527.75 0 1.292-.249 1.626-.747.334-.504.501-1.336.501-2.496v-4.623h2.681V31h-2.057Zm3.463-9.826h2.935l1.855 5.528c.158.48.266 1.049.325 1.705h.053c.064-.603.19-1.172.378-1.705l1.819-5.528h2.874l-4.157 11.083c-.381 1.025-.926 1.793-1.635 2.303-.703.51-1.526.764-2.47.764-.463 0-.917-.05-1.362-.15v-2.126c.322.076.674.114 1.055.114.474 0 .887-.146 1.239-.44.357-.287.636-.723.835-1.309l.158-.483-3.902-9.756ZM138.405 31l-3.093-10.081h-.08c.112 2.05.167 3.419.167 4.104V31h-2.434V18.15h3.709l3.041 9.827h.053l3.225-9.827h3.709V31h-2.54v-6.082c0-.287.003-.618.009-.993.012-.375.053-1.371.123-2.989h-.079L140.901 31h-2.496Zm15.399-8.104c-.569 0-1.014.182-1.336.545-.322.358-.507.868-.554 1.53h3.762c-.012-.662-.185-1.172-.519-1.53-.334-.363-.785-.544-1.353-.544Zm.378 8.28c-1.582 0-2.819-.437-3.709-1.31-.891-.873-1.336-2.11-1.336-3.709 0-1.646.41-2.918 1.23-3.814.826-.903 1.966-1.354 3.419-1.354 1.389 0 2.47.396 3.243 1.187.774.79 1.16 1.884 1.16 3.278v1.3h-6.336c.029.763.254 1.357.676 1.785.422.428 1.014.642 1.776.642a7.37 7.37 0 0 0 1.678-.185 8.384 8.384 0 0 0 1.653-.589v2.074c-.469.235-.97.408-1.503.519-.533.117-1.184.176-1.951.176Zm18.94-.176-.932-3.059h-4.684L166.574 31h-2.935l4.535-12.902h3.331L176.058 31h-2.936Zm-1.582-5.344c-.861-2.771-1.348-4.339-1.459-4.702a14.4 14.4 0 0 1-.228-.861c-.194.75-.748 2.604-1.662 5.563h3.349Zm16.277-5.423c-1.025 0-1.819.387-2.381 1.16-.563.768-.844 1.84-.844 3.217 0 2.866 1.075 4.298 3.225 4.298.903 0 1.995-.225 3.279-.677v2.286c-1.055.44-2.233.659-3.534.659-1.869 0-3.298-.566-4.289-1.696-.99-1.137-1.485-2.766-1.485-4.887 0-1.336.243-2.505.73-3.507.486-1.008 1.183-1.778 2.091-2.312.914-.539 1.984-.808 3.208-.808 1.248 0 2.502.302 3.762.905l-.879 2.215a14.53 14.53 0 0 0-1.45-.598 4.326 4.326 0 0 0-1.433-.255Zm7.946 5.836c0 .973.158 1.708.474 2.206.323.498.844.748 1.565.748.715 0 1.227-.247 1.538-.739.316-.498.474-1.236.474-2.215 0-.972-.158-1.702-.474-2.188-.317-.486-.835-.73-1.556-.73-.715 0-1.23.244-1.547.73-.316.48-.474 1.21-.474 2.188Zm6.794 0c0 1.6-.422 2.85-1.266 3.753-.844.903-2.019 1.354-3.524 1.354-.944 0-1.776-.205-2.496-.615a4.152 4.152 0 0 1-1.662-1.785c-.386-.773-.58-1.675-.58-2.707 0-1.605.419-2.853 1.257-3.744.838-.89 2.016-1.336 3.533-1.336.944 0 1.776.205 2.496.616.721.41 1.275.998 1.662 1.766.386.768.58 1.667.58 2.698Zm7.646-2.883h-2.32V31h-2.681v-7.814h-1.476v-1.291l1.476-.721v-.72c0-1.12.276-1.937.826-2.453.551-.516 1.433-.774 2.646-.774.926 0 1.749.138 2.47.414l-.686 1.968a4.996 4.996 0 0 0-1.494-.255c-.381 0-.656.115-.826.343-.17.223-.255.51-.255.862v.615h2.32v2.012Zm6.97 0h-2.32V31h-2.681v-7.814h-1.477v-1.291l1.477-.721v-.72c0-1.12.275-1.937.826-2.453.551-.516 1.433-.774 2.646-.774.925 0 1.749.138 2.469.414l-.685 1.968a4.996 4.996 0 0 0-1.494-.255c-.381 0-.657.115-.827.343-.169.223-.254.51-.254.862v.615h2.32v2.012Zm5.607-.29c-.568 0-1.013.182-1.336.545-.322.358-.506.868-.553 1.53h3.761c-.011-.662-.184-1.172-.518-1.53-.334-.363-.785-.544-1.354-.544Zm.378 8.28c-1.582 0-2.818-.437-3.709-1.31-.89-.873-1.336-2.11-1.336-3.709 0-1.646.41-2.918 1.231-3.814.826-.903 1.966-1.354 3.419-1.354 1.388 0 2.469.396 3.243 1.187.773.79 1.16 1.884 1.16 3.278v1.3h-6.337c.029.763.255 1.357.677 1.785.422.428 1.014.642 1.775.642.592 0 1.152-.062 1.679-.185a8.4 8.4 0 0 0 1.652-.589v2.074a6.136 6.136 0 0 1-1.503.519c-.533.117-1.183.176-1.951.176Zm10.257-8.28c-.568 0-1.014.182-1.336.545-.322.358-.507.868-.554 1.53h3.762c-.012-.662-.184-1.172-.518-1.53-.334-.363-.786-.544-1.354-.544Zm.378 8.28c-1.582 0-2.818-.437-3.709-1.31s-1.336-2.11-1.336-3.709c0-1.646.41-2.918 1.231-3.814.826-.903 1.965-1.354 3.418-1.354 1.389 0 2.47.396 3.244 1.187.773.79 1.16 1.884 1.16 3.278v1.3h-6.337c.029.763.255 1.357.677 1.785.421.428 1.013.642 1.775.642.592 0 1.151-.062 1.679-.185a8.4 8.4 0 0 0 1.652-.589v2.074c-.469.235-.97.408-1.503.519-.533.117-1.183.176-1.951.176Z"/>
  </g>
  <defs>
    <clipPath id="a">
      <path fill="#fff" d="M60.5 11h179v26h-179z"/>
    </clipPath>
    <clipPath id="b">
      <path fill="#fff" d="M60.5 12h24v24h-24z"/>
    </clipPath>
  </defs>
</svg>
