<svg xmlns="http://www.w3.org/2000/svg" width="302" height="50" fill="none" viewBox="0 0 302 50">
  <rect width="301" height="49" x=".5" y=".5" fill="#292929" rx="8.5"/>
  <path fill="#fff" d="M105.178 31.786c-3.524 0-6.178-2.789-6.178-6.232 0-3.455 2.519-6.267 6.178-6.267 1.942 0 3.286.597 4.337 1.963l-1.694 1.412c-.712-.758-1.57-1.137-2.643-1.137-2.383 0-3.693 1.825-3.693 4.029 0 2.204 1.434 3.994 3.693 3.994 1.062 0 1.965-.379 2.677-1.136l1.671 1.469c-1.005 1.308-2.383 1.905-4.348 1.905Zm11.644-9.171h2.282v8.953h-2.282v-1.309c-.474.93-1.265 1.55-2.778 1.55-2.417 0-4.348-2.1-4.348-4.683 0-2.582 1.931-4.683 4.348-4.683 1.502 0 2.304.62 2.778 1.55v-1.378Zm.068 4.51c0-1.4-.96-2.559-2.473-2.559-1.457 0-2.406 1.171-2.406 2.56 0 1.354.949 2.56 2.406 2.56 1.502 0 2.473-1.171 2.473-2.56ZM120.719 19H123v12.556h-2.281V19Zm17.356 2.233c-1.025 0-1.819.387-2.382 1.16-.562.768-.843 1.84-.843 3.217 0 2.866 1.075 4.298 3.225 4.298.903 0 1.995-.225 3.279-.677v2.286c-1.055.44-2.233.659-3.534.659-1.869 0-3.299-.566-4.289-1.697-.99-1.136-1.485-2.765-1.485-4.886 0-1.336.243-2.505.729-3.507.487-1.008 1.184-1.778 2.092-2.312.914-.539 1.984-.808 3.208-.808 1.248 0 2.502.302 3.762.905l-.879 2.215a14.53 14.53 0 0 0-1.45-.598 4.33 4.33 0 0 0-1.433-.255ZM150.125 32l-.519-1.336h-.07c-.451.568-.917.964-1.397 1.187-.475.216-1.096.325-1.864.325-.943 0-1.687-.27-2.232-.809-.539-.539-.809-1.306-.809-2.303 0-1.043.364-1.81 1.09-2.302.733-.498 1.834-.774 3.305-.826l1.705-.053v-.43c0-.997-.51-1.495-1.529-1.495-.785 0-1.708.237-2.769.712l-.888-1.81c1.131-.592 2.385-.888 3.762-.888 1.319 0 2.329.287 3.032.861.704.574 1.055 1.447 1.055 2.62V32h-1.872Zm-.791-4.553-1.037.035c-.779.024-1.359.165-1.74.422-.381.258-.572.65-.572 1.178 0 .756.434 1.134 1.301 1.134.621 0 1.116-.179 1.485-.536.375-.358.563-.832.563-1.424v-.809ZM157.446 32h-2.68V18.324h2.68V32Zm2.444-1.257c0-.492.131-.864.395-1.116.264-.252.648-.378 1.152-.378.486 0 .861.129 1.125.387.269.258.404.627.404 1.107 0 .463-.135.83-.404 1.099-.27.264-.645.395-1.125.395-.493 0-.874-.129-1.143-.386-.27-.264-.404-.633-.404-1.108Zm9.501 1.433c-3.059 0-4.588-1.679-4.588-5.036 0-1.67.416-2.945 1.248-3.824.832-.884 2.024-1.327 3.577-1.327 1.137 0 2.156.223 3.059.668l-.791 2.074c-.422-.17-.815-.307-1.178-.413a3.706 3.706 0 0 0-1.09-.167c-1.395 0-2.092.99-2.092 2.971 0 1.922.697 2.883 2.092 2.883.516 0 .993-.067 1.433-.202.439-.14.878-.358 1.318-.65v2.293a4.318 4.318 0 0 1-1.318.572c-.44.105-.997.158-1.67.158Zm7.409-5.107c0 .973.158 1.708.474 2.206.323.498.844.748 1.565.748.715 0 1.227-.247 1.538-.739.316-.498.475-1.236.475-2.215 0-.972-.159-1.702-.475-2.188-.316-.486-.835-.73-1.556-.73-.715 0-1.23.244-1.547.73-.316.48-.474 1.21-.474 2.188Zm6.794 0c0 1.6-.422 2.85-1.266 3.753-.844.903-2.018 1.354-3.524 1.354-.944 0-1.776-.205-2.496-.616a4.152 4.152 0 0 1-1.662-1.784c-.386-.773-.58-1.675-.58-2.707 0-1.605.419-2.853 1.257-3.744.838-.89 2.016-1.336 3.533-1.336.944 0 1.776.205 2.497.616.72.41 1.274.998 1.661 1.766.386.768.58 1.667.58 2.698ZM194.606 32h-2.68v-5.74c0-.708-.12-1.239-.361-1.59-.234-.358-.606-.536-1.116-.536-.685 0-1.183.252-1.494.756-.31.504-.466 1.333-.466 2.487V32h-2.68v-9.826h2.047l.361 1.257h.149a2.699 2.699 0 0 1 1.143-1.055c.498-.258 1.069-.387 1.714-.387 1.47 0 2.466.48 2.988 1.442h.237a2.664 2.664 0 0 1 1.16-1.064c.516-.252 1.096-.378 1.741-.378 1.113 0 1.954.287 2.522.862.574.568.861 1.482.861 2.742V32h-2.689v-5.74c0-.708-.12-1.239-.36-1.59-.235-.358-.607-.536-1.117-.536-.656 0-1.148.234-1.476.703-.322.469-.484 1.213-.484 2.232V32Z"/>
  <rect width="301" height="49" x=".5" y=".5" stroke="#fff" rx="8.5"/>
</svg>
