<svg xmlns="http://www.w3.org/2000/svg" width="300" height="48" fill="none" viewBox="0 0 300 48">
  <rect width="300" height="48" fill="#006BFF" rx="8"/>
  <g clip-path="url(#a)">
    <path fill="#fff" d="M111.146 27.526c-.902.959-2.143 1.523-3.441 1.523h-1.072c-1.184 0-2.369-.451-3.215-1.297-.79-.847-1.241-1.919-1.185-3.047v-1.41c0-1.185.451-2.257 1.241-3.103a4.437 4.437 0 0 1 3.159-1.297h1.016c1.297 0 2.595.564 3.497 1.523.847.902 2.031 1.354 3.272 1.297.283 0 .565 0 .847-.056-.113-.282-.226-.564-.395-.79l-1.241-2.087a6.255 6.255 0 0 0-5.416-3.103h-2.426a6.255 6.255 0 0 0-5.416 3.103l-1.24 2.087a6.215 6.215 0 0 0 0 6.262l1.24 2.144a6.255 6.255 0 0 0 5.416 3.102h2.426a6.255 6.255 0 0 0 5.416-3.102l1.241-2.088c.169-.225.282-.507.395-.79-.282-.056-.564-.056-.847-.056-1.241-.17-2.425.282-3.272 1.185Z"/>
    <path fill="#fff" d="M107.649 20.192h-1.072a3.06 3.06 0 0 0-3.159 2.877v1.636c-.057 1.636 1.297 3.046 2.933 3.046h1.241c2.765 0 2.539-2.82 6.714-2.82.394 0 .789.056 1.184.113a6.818 6.818 0 0 0 0-2.144c-.395.056-.79.113-1.184.113-4.062 0-3.837-2.821-6.657-2.821Z"/>
    <path fill="#fff" d="M117.972 26.06a6.175 6.175 0 0 0-2.425-1.016c-.057.395-.17.846-.339 1.24.734.114 1.41.396 1.975.79-1.749 5.642-7.729 8.801-13.427 7.109-5.698-1.693-8.8-7.729-7.052-13.427 1.75-5.697 7.729-8.8 13.427-7.108a10.91 10.91 0 0 1 7.108 7.108c-.564.451-1.241.677-1.974.79.169.395.282.79.338 1.241.846-.113 1.692-.451 2.426-.902.508-.283.677-.903.451-1.41-1.974-6.32-8.688-9.873-15.006-7.955-6.318 1.974-9.872 8.688-7.954 15.006 1.918 6.318 8.688 9.872 15.006 7.954 3.78-1.184 6.769-4.118 7.954-7.954.169-.508 0-1.128-.508-1.467Z"/>
  </g>
  <path fill="#fff" d="M134.075 20.233c-1.025 0-1.819.387-2.382 1.16-.562.768-.843 1.84-.843 3.217 0 2.866 1.075 4.298 3.225 4.298.903 0 1.995-.225 3.279-.677v2.286c-1.055.44-2.233.659-3.534.659-1.869 0-3.299-.566-4.289-1.696-.99-1.137-1.485-2.766-1.485-4.887 0-1.336.243-2.505.729-3.507.487-1.008 1.184-1.778 2.092-2.312.914-.539 1.984-.808 3.208-.808 1.248 0 2.502.302 3.762.905l-.879 2.215a14.53 14.53 0 0 0-1.45-.598 4.33 4.33 0 0 0-1.433-.255ZM146.125 31l-.519-1.336h-.07c-.451.568-.917.964-1.397 1.187-.475.216-1.096.325-1.864.325-.943 0-1.687-.27-2.232-.809-.539-.539-.809-1.306-.809-2.303 0-1.043.364-1.81 1.09-2.302.733-.498 1.834-.774 3.305-.826l1.705-.053v-.43c0-.997-.51-1.495-1.529-1.495-.785 0-1.708.237-2.769.712l-.888-1.81c1.131-.592 2.385-.888 3.762-.888 1.319 0 2.329.287 3.032.861.704.574 1.055 1.447 1.055 2.62V31h-1.872Zm-.791-4.553-1.037.035c-.779.024-1.359.165-1.74.422-.381.258-.572.65-.572 1.178 0 .756.434 1.134 1.301 1.134.621 0 1.116-.179 1.485-.536.375-.358.563-.832.563-1.424v-.809ZM153.446 31h-2.68V17.324h2.68V31Zm6.891-8.104c-.568 0-1.014.182-1.336.545-.322.358-.507.868-.554 1.53h3.762c-.012-.662-.185-1.172-.519-1.53-.334-.363-.785-.544-1.353-.544Zm.378 8.28c-1.582 0-2.819-.437-3.709-1.31-.891-.873-1.336-2.11-1.336-3.709 0-1.646.41-2.918 1.23-3.814.827-.903 1.966-1.354 3.419-1.354 1.389 0 2.47.396 3.243 1.187.774.79 1.161 1.884 1.161 3.278v1.3h-6.337c.029.763.255 1.357.676 1.785.422.428 1.014.642 1.776.642.592 0 1.151-.062 1.679-.185a8.4 8.4 0 0 0 1.652-.589v2.074c-.469.235-.97.408-1.503.519-.533.117-1.184.176-1.951.176ZM175.973 31h-2.681v-5.74c0-.708-.126-1.239-.378-1.59-.252-.358-.653-.536-1.204-.536-.75 0-1.292.252-1.626.756-.334.498-.501 1.327-.501 2.487V31h-2.681v-9.826h2.048l.361 1.257h.149a2.812 2.812 0 0 1 1.23-1.073c.528-.246 1.125-.369 1.793-.369 1.143 0 2.01.31 2.602.932.592.615.888 1.506.888 2.672V31Zm5.871.176c-1.155 0-2.063-.448-2.725-1.345-.656-.896-.984-2.139-.984-3.726 0-1.612.334-2.866 1.002-3.762.674-.903 1.599-1.354 2.777-1.354 1.236 0 2.18.48 2.83 1.442h.088a10.937 10.937 0 0 1-.202-1.96v-3.147h2.689V31h-2.056l-.519-1.274h-.114c-.609.966-1.538 1.45-2.786 1.45Zm.94-2.136c.686 0 1.187-.2 1.503-.598.322-.398.498-1.075.527-2.03v-.29c0-1.055-.164-1.81-.492-2.267-.322-.457-.849-.686-1.582-.686-.597 0-1.063.255-1.397.765-.328.503-.492 1.239-.492 2.206 0 .966.167 1.693.501 2.18.334.48.811.72 1.432.72Zm10.02 1.96h-2.681V17.324h2.681V31Zm1.415-9.826h2.935l1.855 5.528c.158.48.266 1.049.325 1.705h.053c.064-.603.19-1.172.378-1.705l1.819-5.528h2.874l-4.157 11.083c-.381 1.025-.926 1.793-1.635 2.303-.703.51-1.526.764-2.47.764-.463 0-.917-.05-1.362-.15v-2.126c.322.076.674.114 1.055.114.474 0 .887-.146 1.239-.44.357-.287.636-.723.835-1.309l.158-.483-3.902-9.756Z"/>
  <defs>
    <clipPath id="a">
      <path fill="#fff" d="M95 12h24v24H95z"/>
    </clipPath>
  </defs>
</svg>
