<svg xmlns="http://www.w3.org/2000/svg" width="300" height="48" fill="none" viewBox="0 0 300 48">
  <rect width="300" height="48" fill="url(#a)" rx="8"/>
  <g clip-path="url(#b)">
    <mask id="d" width="24" height="24" x="92" y="12" maskUnits="userSpaceOnUse" style="mask-type:luminance">
      <path fill="#fff" d="M116 12H92v24h24V12Z"/>
    </mask>
    <g clip-path="url(#c)" mask="url(#d)">
      <path fill="#fff" d="M104.911 17.78c1.8 0 3.525.638 4.875 1.8.3.263.75.263 1.013-.037l1.387-1.425c.3-.262.3-.75 0-1.012l-.037-.038a10.882 10.882 0 0 0-3.75-2.1l.412-2.063a.734.734 0 0 0-.562-.862h-2.813a.722.722 0 0 0-.712.563l-.375 1.837c-3.6.188-6.638 1.95-6.638 5.625 0 3.15 2.513 4.5 5.175 5.475 2.513.938 3.863 1.275 3.863 2.588 0 1.312-1.35 2.137-3.3 2.137a7.13 7.13 0 0 1-5.138-2.025c-.3-.262-.75-.262-1.012 0l-1.5 1.463c-.3.262-.3.75 0 1.012a9.976 9.976 0 0 0 4.35 2.4l-.413 1.913c-.075.412.188.787.6.9h2.85a.723.723 0 0 0 .713-.563l.375-1.837c4.312-.263 6.937-2.588 6.937-6 0-3.113-2.625-4.463-5.812-5.513-1.838-.675-3.413-1.125-3.413-2.475s1.463-1.762 2.925-1.762Z"/>
    </g>
  </g>
  <path fill="#fff" d="M131.075 20.233c-1.025 0-1.819.387-2.382 1.16-.562.768-.843 1.84-.843 3.217 0 2.866 1.075 4.298 3.225 4.298.903 0 1.995-.225 3.279-.677v2.286c-1.055.44-2.233.659-3.534.659-1.869 0-3.299-.566-4.289-1.696-.99-1.137-1.485-2.766-1.485-4.887 0-1.336.243-2.505.729-3.507.487-1.008 1.184-1.778 2.092-2.312.914-.539 1.984-.808 3.208-.808 1.248 0 2.502.302 3.762.905l-.879 2.215a14.53 14.53 0 0 0-1.45-.598 4.33 4.33 0 0 0-1.433-.255ZM143.125 31l-.519-1.336h-.07c-.451.568-.917.964-1.397 1.187-.475.216-1.096.325-1.864.325-.943 0-1.687-.27-2.232-.809-.539-.539-.809-1.306-.809-2.303 0-1.043.364-1.81 1.09-2.302.733-.498 1.834-.774 3.305-.826l1.705-.053v-.43c0-.997-.51-1.495-1.529-1.495-.785 0-1.708.237-2.769.712l-.888-1.81c1.131-.592 2.385-.888 3.762-.888 1.319 0 2.329.287 3.032.861.704.574 1.055 1.447 1.055 2.62V31h-1.872Zm-.791-4.553-1.037.035c-.779.024-1.359.165-1.74.422-.381.258-.572.65-.572 1.178 0 .756.434 1.134 1.301 1.134.621 0 1.116-.179 1.485-.536.375-.358.563-.832.563-1.424v-.809Zm12.287 1.635c0 1.008-.351 1.775-1.055 2.303-.697.527-1.743.79-3.137.79-.715 0-1.325-.049-1.828-.149a6.724 6.724 0 0 1-1.415-.421V28.39c.498.234 1.057.43 1.678.588.627.159 1.178.238 1.653.238.972 0 1.459-.281 1.459-.844a.69.69 0 0 0-.194-.51c-.129-.134-.351-.284-.668-.448-.316-.17-.738-.366-1.265-.589-.756-.316-1.313-.61-1.67-.879a2.538 2.538 0 0 1-.774-.923c-.158-.351-.237-.782-.237-1.292 0-.873.337-1.546 1.011-2.021.679-.48 1.64-.72 2.883-.72 1.183 0 2.334.257 3.454.773l-.809 1.933a14.85 14.85 0 0 0-1.38-.518 4.334 4.334 0 0 0-1.309-.202c-.791 0-1.187.213-1.187.641 0 .24.126.448.378.624.258.176.817.437 1.679.782.767.311 1.33.601 1.687.87.358.27.621.58.791.932.17.352.255.77.255 1.257ZM165.783 31h-2.68v-5.74c0-1.417-.528-2.126-1.582-2.126-.75 0-1.292.255-1.626.764-.334.51-.501 1.336-.501 2.479V31h-2.681V17.324h2.681v2.786c0 .217-.021.727-.062 1.53l-.061.79h.14c.598-.96 1.547-1.44 2.848-1.44 1.154 0 2.03.31 2.628.93.597.622.896 1.513.896 2.673V31Zm15.513 0-.932-3.059h-4.684L174.748 31h-2.936l4.536-12.902h3.331L184.231 31h-2.935Zm-1.582-5.344c-.861-2.771-1.348-4.339-1.459-4.702a14.55 14.55 0 0 1-.229-.861c-.193.75-.747 2.604-1.661 5.563h3.349Zm11.329 5.52c-1.154 0-2.06-.42-2.716-1.257h-.14c.093.82.14 1.295.14 1.424v3.981h-2.681v-14.15h2.18l.378 1.274h.123c.627-.972 1.556-1.459 2.786-1.459 1.16 0 2.069.448 2.725 1.345.656.896.984 2.142.984 3.735 0 1.05-.155 1.96-.466 2.734-.304.773-.741 1.362-1.309 1.766-.568.405-1.236.607-2.004.607Zm-.791-8.042c-.662 0-1.146.205-1.45.615-.305.404-.463 1.075-.475 2.013v.29c0 1.054.155 1.81.466 2.267.316.457.814.686 1.494.686 1.201 0 1.802-.99 1.802-2.97 0-.968-.15-1.691-.448-2.172-.293-.486-.756-.73-1.389-.73Zm12.182 8.042c-1.155 0-2.06-.42-2.716-1.257h-.141c.094.82.141 1.295.141 1.424v3.981h-2.681v-14.15h2.18l.378 1.274h.123c.627-.972 1.555-1.459 2.786-1.459 1.16 0 2.068.448 2.725 1.345.656.896.984 2.142.984 3.735 0 1.05-.155 1.96-.466 2.734-.305.773-.741 1.362-1.309 1.766-.569.405-1.237.607-2.004.607Zm-.791-8.042c-.663 0-1.146.205-1.451.615-.304.404-.463 1.075-.474 2.013v.29c0 1.054.155 1.81.466 2.267.316.457.814.686 1.494.686 1.201 0 1.801-.99 1.801-2.97 0-.968-.149-1.691-.448-2.172-.293-.486-.756-.73-1.388-.73Z"/>
  <defs>
    <clipPath id="b">
      <path fill="#fff" d="M92 12h24v24H92z"/>
    </clipPath>
    <clipPath id="c">
      <path fill="#fff" d="M95.536 12.005h16.875v24H95.536z"/>
    </clipPath>
    <linearGradient id="a" x1="150" x2="150" y1="0" y2="48" gradientUnits="userSpaceOnUse">
      <stop stop-color="#00D64B"/>
      <stop offset="1" stop-color="#00C244"/>
    </linearGradient>
  </defs>
</svg>
