<svg xmlns="http://www.w3.org/2000/svg" width="302" height="50" fill="none" viewBox="0 0 302 50">
  <rect width="301" height="49" x=".5" y=".5" fill="#F1EFE3" rx="8.5"/>
  <g clip-path="url(#a)">
    <g clip-path="url(#b)">
      <path fill="#1F1F1A" d="M93.503 22.92c.323 1.07.714 2.074 1.138 3.042.73 1.734 1.223 2.651 1.904 3.789.833 1.359 1.751 2.906 3.263 3.908 1.104.73 2.447 1.104 3.738 1.104 1.819 0 3.382-.798 4.386-1.734.985-.917 2.26-2.685 2.26-6.135 0-1.189.527-2.21.917-3.024a.44.44 0 0 1 .051-.12c.153-.34.34-.78.34-1.222a1.82 1.82 0 0 0-.306-1.02c-.339-.577-.951-.78-1.513-.78-1.308 0-2.209.916-2.668 1.852l-.153.306c-.187-.272-.374-.56-.526-.816-.476-.832-.748-1.392-.986-2.107a14.543 14.543 0 0 1-.441-1.734c-.289-1.666-.765-2.21-1.548-2.414a2.266 2.266 0 0 0-1.751.289c-.338-.764-.915-1.104-1.681-1.104-1.087 0-2.074.713-2.074 1.92 0 .154.017.307.034.493a1.85 1.85 0 0 0-.442-.05c-1.171 0-2.04.815-2.04 1.92 0 .255.035.544.12.884-.102-.017-.204-.017-.306-.017-.578.034-1.104.254-1.48.713-.372.442-.524 1.121-.236 2.057Z"/>
      <path fill="#FFE450" d="M94.471 22.614c-.153-.493-.136-.866.051-1.104.187-.22.442-.323.748-.34.526-.017.73.357 1.036 1.325.187.612.56 1.496.781 1.989.289.594.697 1.393.883 1.666.153.238.29.306.442.306.272 0 .475-.153.475-.425 0-.153-.152-.407-.237-.56-.153-.29-.476-.867-.697-1.36a31.391 31.391 0 0 1-.73-1.835 22.587 22.587 0 0 1-.442-1.376c-.237-.781-.356-1.257-.356-1.615 0-.544.407-.9 1.019-.9.441 0 .73.22.917 1.019.153.73.425 1.92.815 2.855.255.611.629 1.428.85 1.836.136.238.288.442.288.526 0 .12-.22.306-.407.56-.12.154-.17.256-.17.375 0 .101.068.203.17.34.102.135.204.271.322.271.085 0 .136-.034.187-.102a5.863 5.863 0 0 1 1.768-1.496c.782-.442 1.582-.662 2.21-.798.306-.068.391-.136.391-.306 0-.204-.153-.323-.357-.34-.153-.017-.289 0-.527.017-.169.017-.254-.068-.356-.289-.306-.645-.901-1.734-1.257-3.127a13.346 13.346 0 0 1-.374-2.04c-.051-.373.017-.509.204-.679.238-.204.662-.289.985-.204.391.102.595.408.798 1.599.102.56.272 1.273.476 1.887.255.78.577 1.428 1.07 2.294.272.476.612.968.968 1.446-.068.203-.187.34-.577.662-.391.323-.782.662-1.138 1.29-.255.46-.374.969-.374 1.309 0 .322.068.39.272.39.356 0 .645-.068.662-.22.085-.612.187-1.003.527-1.463.204-.255.56-.577.849-.832.544-.442.73-.697.917-1.325.085-.289.187-.56.323-.815.323-.595.9-1.274 1.802-1.274.289 0 .527.085.679.322a.924.924 0 0 1 .119.46c0 .305-.221.73-.322.933-.374.799-.986 2.023-.986 3.433 0 3.076-1.087 4.606-1.937 5.387a5.465 5.465 0 0 1-3.688 1.463 5.885 5.885 0 0 1-3.178-.934c-1.308-.867-2.124-2.227-2.957-3.586-.662-1.104-1.12-1.972-1.836-3.653-.403-.975-.778-1.926-1.1-2.962Z"/>
      <path fill="#FFE450" d="M98.84 16.921c0-.645.594-.9 1.087-.9.526 0 .713.255.849.798.119.442.17.85.221 1.325.068.476.305 1.564.373 1.836.255.934.765 2.04 1.376 3.365a8.778 8.778 0 0 0-1.155.492c-.407.221-.492.221-.662-.102-.357-.662-.612-1.155-.833-1.734a12.651 12.651 0 0 1-.526-1.649c-.255-1.07-.289-1.376-.493-1.87-.118-.508-.237-1.136-.237-1.561Z"/>
      <path fill="#1F1F1A" d="M92.756 28.298c-.36.222-2.267 1.221-2.698 1.38-.307.115-.64.087-.837-.494-.24-.718.098-.887.58-1.074.426-.166 2.194-.805 2.605-.916.288-.077.489.02.628.367.153.382.048.535-.278.737Zm-1.572-4.048c-.513.015-2.642-.076-3.129-.124-.423-.042-.594-.229-.548-.842.05-.657.306-.698.721-.657.482.046 2.714.409 3.069.518.367.115.418.281.373.603-.057.416-.245.495-.486.503Zm.264-4.31c-.587-.186-2.329-1.24-2.783-1.512-.41-.247-.463-.47-.177-1.012.253-.478.534-.561.951-.345.483.251 2.19 1.58 2.515 1.842.315.253.272.384.107.71-.165.326-.32.41-.613.317Z"/>
    </g>
    <path fill="#000" d="M126.575 21.233c-1.025 0-1.819.387-2.382 1.16-.562.768-.843 1.84-.843 3.217 0 2.866 1.075 4.298 3.225 4.298.903 0 1.995-.225 3.279-.677v2.286c-1.055.44-2.233.659-3.534.659-1.869 0-3.299-.566-4.289-1.697-.99-1.136-1.485-2.765-1.485-4.886 0-1.336.243-2.505.729-3.507.487-1.008 1.184-1.778 2.092-2.312.914-.539 1.984-.808 3.208-.808 1.248 0 2.502.302 3.762.905l-.879 2.215a14.53 14.53 0 0 0-1.45-.598 4.33 4.33 0 0 0-1.433-.255ZM135.065 32h-2.68V18.324h2.68V32Zm9.783 0-.361-1.257h-.14a2.858 2.858 0 0 1-1.222 1.064c-.527.246-1.128.369-1.802.369-1.154 0-2.024-.308-2.61-.923-.586-.621-.879-1.512-.879-2.672v-6.407h2.681v5.74c0 .708.126 1.241.378 1.599.252.351.653.527 1.204.527.75 0 1.292-.249 1.626-.747.334-.504.501-1.336.501-2.496v-4.623h2.68V32h-2.056Zm10.336-10.01c1.16 0 2.068.453 2.724 1.362.656.902.985 2.141.985 3.717 0 1.623-.34 2.88-1.02 3.77-.674.892-1.594 1.337-2.76 1.337-1.154 0-2.059-.42-2.716-1.257h-.184L151.765 32h-2.048V18.324h2.68v3.182c0 .404-.035 1.052-.105 1.942h.105c.627-.972 1.556-1.459 2.787-1.459Zm-.862 2.144c-.662 0-1.145.205-1.45.615-.305.404-.463 1.075-.475 2.013v.29c0 1.054.156 1.81.466 2.267.317.457.815.686 1.494.686.551 0 .988-.252 1.31-.756.328-.51.492-1.248.492-2.215 0-.967-.164-1.69-.492-2.17-.328-.487-.776-.73-1.345-.73ZM170.178 32h-2.681v-5.74c0-1.417-.527-2.126-1.582-2.126-.75 0-1.292.255-1.626.764-.334.51-.501 1.336-.501 2.479V32h-2.681V18.324h2.681v2.786c0 .217-.02.727-.061 1.53l-.062.79h.141c.597-.96 1.547-1.44 2.847-1.44 1.155 0 2.031.31 2.628.93.598.622.897 1.513.897 2.673V32Zm4.895-4.93c0 .972.158 1.707.475 2.205.322.498.844.748 1.564.748.715 0 1.228-.247 1.538-.739.317-.498.475-1.236.475-2.215 0-.972-.158-1.702-.475-2.188-.316-.486-.835-.73-1.555-.73-.715 0-1.231.244-1.547.73-.317.48-.475 1.21-.475 2.188Zm6.794 0c0 1.599-.422 2.85-1.265 3.752-.844.903-2.019 1.354-3.525 1.354-.943 0-1.775-.205-2.496-.616a4.15 4.15 0 0 1-1.661-1.784c-.387-.773-.58-1.675-.58-2.707 0-1.605.419-2.853 1.257-3.744.838-.89 2.015-1.336 3.533-1.336.943 0 1.775.205 2.496.616.721.41 1.274.998 1.661 1.766s.58 1.667.58 2.698Zm9.176 4.93-.36-1.257h-.141a2.853 2.853 0 0 1-1.222 1.064c-.527.246-1.128.369-1.801.369-1.155 0-2.025-.308-2.611-.923-.586-.621-.879-1.512-.879-2.672v-6.407h2.681v5.74c0 .708.126 1.241.378 1.599.252.351.653.527 1.204.527.75 0 1.292-.249 1.626-.747.334-.504.501-1.336.501-2.496v-4.623h2.681V32h-2.057Zm11.725-2.918c0 1.008-.352 1.775-1.055 2.303-.697.527-1.743.79-3.138.79-.715 0-1.324-.049-1.828-.149a6.724 6.724 0 0 1-1.415-.422V29.39c.498.234 1.058.43 1.679.588.627.159 1.177.238 1.652.238.973 0 1.459-.281 1.459-.844a.689.689 0 0 0-.193-.51c-.129-.134-.352-.284-.668-.448-.317-.17-.739-.366-1.266-.589-.756-.316-1.312-.61-1.67-.879a2.545 2.545 0 0 1-.773-.923c-.158-.351-.238-.782-.238-1.292 0-.873.337-1.546 1.011-2.021.68-.48 1.641-.72 2.883-.72 1.184 0 2.335.257 3.454.773l-.808 1.933a15.08 15.08 0 0 0-1.38-.518 4.34 4.34 0 0 0-1.31-.202c-.791 0-1.186.213-1.186.641 0 .24.126.448.377.624.258.176.818.437 1.679.782.768.311 1.33.601 1.688.87.357.27.621.58.791.932.17.352.255.77.255 1.257Zm6.161-5.186c-.569 0-1.014.182-1.336.545-.322.358-.507.868-.554 1.53h3.762c-.012-.662-.185-1.172-.519-1.53-.334-.363-.785-.544-1.353-.544Zm.378 8.28c-1.582 0-2.819-.437-3.709-1.31-.891-.873-1.336-2.11-1.336-3.709 0-1.646.41-2.918 1.23-3.814.826-.903 1.966-1.354 3.419-1.354 1.389 0 2.47.396 3.243 1.187.774.79 1.16 1.884 1.16 3.278v1.3h-6.336c.029.763.254 1.357.676 1.785.422.428 1.014.642 1.776.642a7.37 7.37 0 0 0 1.678-.185 8.384 8.384 0 0 0 1.653-.589v2.074c-.469.235-.97.408-1.503.519-.533.117-1.184.176-1.951.176Z"/>
  </g>
  <rect width="301" height="49" x=".5" y=".5" stroke="#212121" rx="8.5"/>
  <defs>
    <clipPath id="a">
      <path fill="#fff" d="M87.5 12h127v26h-127z"/>
    </clipPath>
    <clipPath id="b">
      <path fill="#fff" d="M87.5 13h24v24h-24z"/>
    </clipPath>
  </defs>
</svg>
