<svg xmlns="http://www.w3.org/2000/svg" width="300" height="48" fill="none" viewBox="0 0 300 48">
  <rect width="300" height="48" fill="#2457F5" rx="8"/>
  <g clip-path="url(#a)">
    <g clip-path="url(#b)">
      <mask id="c" width="25" height="24" x="90" y="12" maskUnits="userSpaceOnUse" style="mask-type:luminance">
        <path fill="#fff" d="M114.5 12h-24v24h24V12Z"/>
      </mask>
      <g mask="url(#c)">
        <path fill="#fff" fill-rule="evenodd" d="M91.218 21.998a2.35 2.35 0 0 0 0 3.38 2.494 2.494 0 0 0 3.465 0l7.85-7.658 3.181 3.102a2.493 2.493 0 0 0 3.465 0 2.35 2.35 0 0 0 0-3.38l-4.851-4.734a2.473 2.473 0 0 0-1.616-.697 2.481 2.481 0 0 0-1.964.69l-9.53 9.297Zm22.564 4.004a2.35 2.35 0 0 0 0-3.38 2.493 2.493 0 0 0-3.465 0l-7.85 7.658-3.18-3.102a2.494 2.494 0 0 0-3.466 0 2.35 2.35 0 0 0 0 3.38l4.852 4.734c.449.438 1.028.67 1.615.697a2.48 2.48 0 0 0 1.964-.69l9.53-9.297Z" clip-rule="evenodd"/>
      </g>
    </g>
    <path fill="#fff" d="M124.117 31V18.15h2.725v10.6h5.212V31h-7.937Zm9.853-12.366c0-.873.486-1.31 1.459-1.31.972 0 1.459.437 1.459 1.31 0 .416-.123.741-.369.975-.241.229-.604.343-1.09.343-.973 0-1.459-.44-1.459-1.318ZM136.765 31h-2.681v-9.826h2.681V31Zm6.961-1.96c.468 0 1.031-.102 1.687-.308v1.995c-.668.3-1.488.449-2.461.449-1.072 0-1.854-.27-2.347-.809-.486-.545-.729-1.36-.729-2.443v-4.738h-1.283v-1.133l1.476-.897.774-2.074h1.714v2.092h2.751v2.012h-2.751v4.738c0 .38.105.662.316.844.217.181.501.272.853.272Zm7.822 0c.469 0 1.031-.102 1.687-.308v1.995c-.668.3-1.488.449-2.461.449-1.072 0-1.854-.27-2.346-.809-.487-.545-.73-1.36-.73-2.443v-4.738h-1.283v-1.133l1.477-.897.773-2.074h1.714v2.092h2.751v2.012h-2.751v4.738c0 .38.105.662.316.844.217.181.501.272.853.272Zm6.363 1.96h-2.681V17.324h2.681V31Zm6.891-8.104c-.569 0-1.014.182-1.336.545-.322.358-.507.868-.554 1.53h3.762c-.012-.662-.185-1.172-.519-1.53-.334-.363-.785-.544-1.353-.544Zm.378 8.28c-1.582 0-2.819-.437-3.709-1.31-.891-.873-1.336-2.11-1.336-3.709 0-1.646.41-2.918 1.23-3.814.826-.903 1.966-1.354 3.419-1.354 1.389 0 2.47.396 3.243 1.187.774.79 1.161 1.884 1.161 3.278v1.3h-6.337c.029.763.254 1.357.676 1.785.422.428 1.014.642 1.776.642.592 0 1.151-.062 1.678-.185a8.384 8.384 0 0 0 1.653-.589v2.074c-.469.235-.97.408-1.503.519-.533.117-1.184.176-1.951.176Zm6.398-.176V18.15h2.725v10.6h5.212V31h-7.937Zm9.853-12.366c0-.873.486-1.31 1.459-1.31.972 0 1.459.437 1.459 1.31 0 .416-.123.741-.37.975-.24.229-.603.343-1.089.343-.973 0-1.459-.44-1.459-1.318ZM184.226 31h-2.681v-9.826h2.681V31Zm11.891 0h-2.68v-5.74c0-.708-.126-1.239-.378-1.59-.252-.358-.654-.536-1.205-.536-.75 0-1.292.252-1.625.756-.334.498-.501 1.327-.501 2.487V31h-2.681v-9.826h2.048l.36 1.257h.149a2.81 2.81 0 0 1 1.231-1.073c.527-.246 1.125-.369 1.793-.369 1.143 0 2.01.31 2.601.932.592.615.888 1.506.888 2.672V31Zm5.335-5.344 1.169-1.494 2.751-2.988h3.024l-3.903 4.262 4.14 5.564h-3.094l-2.83-3.981-1.151.922V31h-2.681V17.324h2.681v6.1l-.141 2.232h.035Z"/>
  </g>
  <defs>
    <clipPath id="a">
      <path fill="#fff" d="M90.5 11h119v26h-119z"/>
    </clipPath>
    <clipPath id="b">
      <path fill="#fff" d="M90.5 12h24v24h-24z"/>
    </clipPath>
  </defs>
</svg>
