<svg xmlns="http://www.w3.org/2000/svg" width="300" height="48" fill="none" viewBox="0 0 300 48">
  <rect width="300" height="48" fill="#5865F2" rx="8"/>
  <path fill="#fff" d="M120.317 16.366a19.796 19.796 0 0 0-4.885-1.515.075.075 0 0 0-.079.037c-.211.376-.444.865-.608 1.25a18.27 18.27 0 0 0-5.487 0 12.687 12.687 0 0 0-.617-1.25.079.079 0 0 0-.079-.037 19.742 19.742 0 0 0-4.885 1.515.068.068 0 0 0-.032.028c-3.112 4.648-3.964 9.183-3.546 13.66a.082.082 0 0 0 .031.056 19.91 19.91 0 0 0 5.993 3.03.076.076 0 0 0 .084-.028 14.11 14.11 0 0 0 1.226-1.994.076.076 0 0 0-.041-.106 13.1 13.1 0 0 1-1.872-.892.077.077 0 0 1-.008-.128 9.85 9.85 0 0 0 .372-.291.075.075 0 0 1 .078-.01c3.927 1.793 8.18 1.793 12.061 0a.073.073 0 0 1 .078.01c.121.098.246.197.373.291.044.033.041.1-.006.128-.598.35-1.22.645-1.873.892a.076.076 0 0 0-.041.106c.36.698.772 1.363 1.225 1.993a.076.076 0 0 0 .084.029 19.824 19.824 0 0 0 6.002-3.03.078.078 0 0 0 .032-.055c.5-5.177-.839-9.674-3.549-13.66a.059.059 0 0 0-.031-.029ZM108.02 27.328c-1.183 0-2.157-1.086-2.157-2.42 0-1.332.956-2.418 2.157-2.418 1.211 0 2.176 1.095 2.157 2.419 0 1.333-.956 2.419-2.157 2.419Zm7.975 0c-1.183 0-2.157-1.086-2.157-2.42 0-1.332.955-2.418 2.157-2.418 1.211 0 2.176 1.095 2.157 2.419 0 1.333-.946 2.419-2.157 2.419Zm28.283-2.876c0 2.115-.603 3.735-1.81 4.86-1.201 1.125-2.939 1.688-5.212 1.688h-3.639V18.15h4.034c2.098 0 3.727.554 4.887 1.662 1.16 1.107 1.74 2.654 1.74 4.64Zm-2.83.07c0-2.76-1.219-4.14-3.656-4.14h-1.45v8.368h1.169c2.625 0 3.937-1.41 3.937-4.227Zm5.168-5.888c0-.873.487-1.31 1.459-1.31.973 0 1.459.437 1.459 1.31 0 .416-.123.741-.369.975-.24.229-.603.343-1.09.343-.972 0-1.459-.44-1.459-1.318ZM149.411 31h-2.681v-9.826h2.681V31Zm9.677-2.918c0 1.008-.352 1.775-1.055 2.303-.697.527-1.743.79-3.137.79-.715 0-1.325-.049-1.829-.149a6.742 6.742 0 0 1-1.415-.421V28.39c.498.234 1.058.43 1.679.588.627.159 1.178.238 1.652.238.973 0 1.459-.281 1.459-.844a.689.689 0 0 0-.193-.51c-.129-.134-.352-.284-.668-.448a15.41 15.41 0 0 0-1.266-.589c-.755-.316-1.312-.61-1.669-.879a2.538 2.538 0 0 1-.774-.923c-.158-.351-.237-.782-.237-1.292 0-.873.337-1.546 1.011-2.021.679-.48 1.64-.72 2.882-.72 1.184 0 2.335.257 3.454.773l-.808 1.933a14.85 14.85 0 0 0-1.38-.518 4.336 4.336 0 0 0-1.31-.202c-.791 0-1.186.213-1.186.641 0 .24.126.448.378.624.258.176.817.437 1.678.782.768.311 1.331.601 1.688.87.357.27.621.58.791.932.17.352.255.77.255 1.257Zm6.082 3.094c-3.059 0-4.588-1.679-4.588-5.036 0-1.67.416-2.945 1.248-3.824.832-.884 2.024-1.327 3.577-1.327 1.137 0 2.156.223 3.059.668l-.791 2.074c-.422-.17-.815-.307-1.178-.413a3.696 3.696 0 0 0-1.09-.167c-1.394 0-2.092.99-2.092 2.971 0 1.922.698 2.883 2.092 2.883.516 0 .993-.067 1.433-.202a5.3 5.3 0 0 0 1.318-.65v2.293a4.308 4.308 0 0 1-1.318.572c-.44.105-.996.158-1.67.158Zm7.409-5.107c0 .973.158 1.708.475 2.206.322.498.843.748 1.564.748.715 0 1.228-.247 1.538-.739.317-.498.475-1.236.475-2.215 0-.972-.158-1.702-.475-2.188-.316-.486-.835-.73-1.555-.73-.715 0-1.231.244-1.547.73-.317.48-.475 1.21-.475 2.188Zm6.794 0c0 1.6-.422 2.85-1.266 3.753-.843.903-2.018 1.354-3.524 1.354-.943 0-1.775-.205-2.496-.615a4.144 4.144 0 0 1-1.661-1.785c-.387-.773-.58-1.675-.58-2.707 0-1.605.419-2.853 1.257-3.744.837-.89 2.015-1.336 3.533-1.336.943 0 1.775.205 2.496.616.721.41 1.274.998 1.661 1.766s.58 1.667.58 2.698Zm7.699-5.08c.364 0 .665.027.906.08l-.203 2.513a3.064 3.064 0 0 0-.791-.088c-.855 0-1.523.22-2.004.66-.474.439-.711 1.054-.711 1.845V31h-2.681v-9.826h2.03l.396 1.652h.132a3.66 3.66 0 0 1 1.23-1.327 3.046 3.046 0 0 1 1.696-.51Zm5.801 10.187c-1.154 0-2.062-.448-2.725-1.345-.656-.896-.984-2.139-.984-3.726 0-1.612.334-2.866 1.002-3.762.674-.903 1.6-1.354 2.777-1.354 1.237 0 2.18.48 2.83 1.442h.088a11.03 11.03 0 0 1-.202-1.96v-3.147h2.69V31h-2.057l-.519-1.274h-.114c-.609.966-1.538 1.45-2.786 1.45Zm.94-2.136c.686 0 1.187-.2 1.503-.598.323-.398.498-1.075.528-2.03v-.29c0-1.055-.164-1.81-.492-2.267-.323-.457-.85-.686-1.582-.686-.598 0-1.064.255-1.398.765-.328.503-.492 1.239-.492 2.206 0 .966.167 1.693.501 2.18.334.48.811.72 1.432.72Z"/>
</svg>
