<svg xmlns="http://www.w3.org/2000/svg" width="300" height="48" fill="none" viewBox="0 0 300 48">
  <rect width="299" height="47" x=".5" y=".5" fill="#fff" rx="7.5"/>
  <g clip-path="url(#a)">
    <path fill="#EA4C89" d="M107 35.52c6.362 0 11.52-5.158 11.52-11.52 0-6.362-5.158-11.52-11.52-11.52-6.362 0-11.52 5.158-11.52 11.52 0 6.362 5.158 11.52 11.52 11.52Z"/>
    <path fill="#C32361" fill-rule="evenodd" d="M107 12c-6.625 0-12 5.375-12 12s5.375 12 12 12c6.612 0 12-5.375 12-12s-5.388-12-12-12Zm7.926 5.531a10.201 10.201 0 0 1 2.317 6.378c-.338-.065-3.722-.755-7.132-.325-.078-.17-.144-.352-.222-.534a30.465 30.465 0 0 0-.676-1.484c3.774-1.536 5.492-3.748 5.713-4.035ZM107 13.771c2.603 0 4.985.975 6.794 2.576-.182.26-1.731 2.33-5.375 3.696-1.679-3.084-3.54-5.61-3.827-6A10.426 10.426 0 0 1 107 13.77Zm-4.36.962c.273.365 2.095 2.903 3.8 5.922-4.789 1.276-9.02 1.25-9.475 1.25.664-3.176 2.812-5.818 5.675-7.172Zm-5.896 9.28v-.312c.443.013 5.414.078 10.529-1.458.3.573.573 1.158.833 1.744-.13.039-.273.078-.403.117-5.284 1.705-8.096 6.365-8.33 6.755a10.226 10.226 0 0 1-2.629-6.846ZM107 34.256a10.18 10.18 0 0 1-6.286-2.16c.182-.378 2.264-4.387 8.043-6.404.026-.013.039-.013.065-.026 1.445 3.735 2.031 6.872 2.187 7.77-1.237.534-2.59.82-4.009.82Zm5.714-1.757c-.104-.625-.651-3.618-1.992-7.302 3.215-.507 6.026.326 6.378.443-.443 2.85-2.083 5.31-4.386 6.859Z" clip-rule="evenodd"/>
  </g>
  <path fill="#000" d="M139.278 24.452c0 2.115-.603 3.735-1.81 4.86-1.201 1.125-2.939 1.688-5.212 1.688h-3.639V18.15h4.034c2.098 0 3.727.554 4.887 1.662 1.16 1.107 1.74 2.654 1.74 4.64Zm-2.83.07c0-2.76-1.219-4.14-3.656-4.14h-1.45v8.368h1.169c2.625 0 3.937-1.41 3.937-4.227Zm10.767-3.533c.363 0 .665.027.905.08l-.202 2.513a3.07 3.07 0 0 0-.791-.088c-.856 0-1.523.22-2.004.66-.475.439-.712 1.054-.712 1.845V31h-2.681v-9.826h2.031l.395 1.652h.132c.305-.55.715-.993 1.231-1.327a3.044 3.044 0 0 1 1.696-.51Zm2.575-2.355c0-.873.486-1.31 1.459-1.31.973 0 1.459.437 1.459 1.31 0 .416-.123.741-.369.975-.24.229-.604.343-1.09.343-.973 0-1.459-.44-1.459-1.318ZM152.585 31h-2.681v-9.826h2.681V31Zm8.288-10.01c1.16 0 2.068.453 2.725 1.362.656.902.984 2.141.984 3.717 0 1.623-.34 2.88-1.02 3.77-.673.892-1.593 1.337-2.759 1.337-1.155 0-2.06-.42-2.716-1.257h-.185L157.454 31h-2.048V17.324h2.681v3.182c0 .404-.035 1.052-.106 1.942h.106c.627-.972 1.556-1.459 2.786-1.459Zm-.861 2.144c-.662 0-1.146.205-1.45.615-.305.404-.463 1.075-.475 2.013v.29c0 1.054.155 1.81.466 2.267.316.457.814.686 1.494.686.551 0 .987-.252 1.309-.756.329-.51.493-1.248.493-2.215 0-.967-.164-1.69-.493-2.17-.328-.487-.776-.73-1.344-.73Zm12.252-2.145c1.16 0 2.068.454 2.724 1.363.657.902.985 2.141.985 3.717 0 1.623-.34 2.88-1.02 3.77-.674.892-1.594 1.337-2.76 1.337-1.154 0-2.059-.42-2.715-1.257h-.185L168.845 31h-2.048V17.324h2.681v3.182c0 .404-.036 1.052-.106 1.942h.106c.626-.972 1.555-1.459 2.786-1.459Zm-.862 2.145c-.662 0-1.145.205-1.45.615-.305.404-.463 1.075-.474 2.013v.29c0 1.054.155 1.81.465 2.267.317.457.815.686 1.495.686.55 0 .987-.252 1.309-.756.328-.51.492-1.248.492-2.215 0-.967-.164-1.69-.492-2.17-.328-.487-.776-.73-1.345-.73Zm12.252-2.145c1.16 0 2.069.454 2.725 1.363.656.902.984 2.141.984 3.717 0 1.623-.34 2.88-1.019 3.77-.674.892-1.594 1.337-2.76 1.337-1.154 0-2.06-.42-2.716-1.257h-.184L180.235 31h-2.047V17.324h2.68v3.182c0 .404-.035 1.052-.105 1.942h.105c.627-.972 1.556-1.459 2.786-1.459Zm-.861 2.145c-.662 0-1.146.205-1.45.615-.305.404-.463 1.075-.475 2.013v.29c0 1.054.155 1.81.466 2.267.316.457.814.686 1.494.686.551 0 .987-.252 1.31-.756.328-.51.492-1.248.492-2.215 0-.967-.164-1.69-.492-2.17-.328-.487-.777-.73-1.345-.73ZM192.259 31h-2.681V17.324h2.681V31Zm6.89-8.104c-.568 0-1.013.182-1.336.545-.322.358-.506.868-.553 1.53h3.761c-.011-.662-.184-1.172-.518-1.53-.334-.363-.785-.544-1.354-.544Zm.378 8.28c-1.582 0-2.818-.437-3.709-1.31-.89-.873-1.336-2.11-1.336-3.709 0-1.646.411-2.918 1.231-3.814.826-.903 1.966-1.354 3.419-1.354 1.389 0 2.47.396 3.243 1.187.773.79 1.16 1.884 1.16 3.278v1.3h-6.337c.03.763.255 1.357.677 1.785.422.428 1.014.642 1.775.642.592 0 1.152-.062 1.679-.185a8.4 8.4 0 0 0 1.652-.589v2.074a6.143 6.143 0 0 1-1.502.519c-.534.117-1.184.176-1.952.176Z"/>
  <rect width="299" height="47" x=".5" y=".5" stroke="#212121" rx="7.5"/>
  <defs>
    <clipPath id="a">
      <path fill="#fff" d="M95 12h24v24H95z"/>
    </clipPath>
  </defs>
</svg>
