<svg xmlns="http://www.w3.org/2000/svg" width="300" height="48" fill="none" viewBox="0 0 300 48">
  <rect width="300" height="48" fill="#F45800" rx="8"/>
  <g clip-path="url(#a)">
    <path fill="#fff" fill-rule="evenodd" d="M117 12a2 2 0 0 0-2 2v20a2 2 0 0 0 2 2h20a2 2 0 0 0 2-2V14a2 2 0 0 0-2-2h-20Zm7.72 11.523v-5.921c0-.247 0-.324.408-.325h5.035c.885 0 1.363.717 1.679 2.157l.323 1.124h.878c.085-3.203.162-4.558.162-4.558s-2.156.23-3.434.23h-6.406L120 16.163v.878l1.117.236c.808.162 1.046.324 1.046 1.04 0 0 .085 2.165.085 5.76 0 3.604-.085 5.767-.085 5.767 0 .64-.238.879-1.046 1.04L120 31.13V32l3.442-.077h5.767c1.279 0 4.32.077 4.32.077.077-.793.477-4.32.562-4.72h-.808l-.871 1.925c-.647 1.517-1.686 1.602-2.726 1.602h-3.364c-1.117 0-1.602-.409-1.602-1.364v-4.966s2.403 0 3.203.085c.64.077.963.24 1.202 1.04l.238 1.124h.963l-.085-2.88.162-2.81h-.955l-.323 1.285c-.162.879-.324.963-1.202 1.117-1.117.085-3.203.085-3.203.085Z" clip-rule="evenodd"/>
  </g>
  <path fill="#fff" d="M156.018 31h-7.401V18.15h7.401v2.233h-4.676v2.821h4.35v2.232h-4.35v3.314h4.676V31Zm6.618-1.96c.468 0 1.031-.102 1.687-.308v1.995c-.668.3-1.488.449-2.461.449-1.072 0-1.854-.27-2.346-.809-.487-.545-.73-1.36-.73-2.443v-4.738h-1.283v-1.133l1.476-.897.774-2.074h1.714v2.092h2.751v2.012h-2.751v4.738c0 .38.105.662.316.844.217.181.501.272.853.272Zm10.538-.958c0 1.008-.352 1.775-1.055 2.303-.697.527-1.743.79-3.138.79-.714 0-1.324-.049-1.828-.149a6.742 6.742 0 0 1-1.415-.421V28.39c.498.234 1.058.43 1.679.588.627.159 1.178.238 1.652.238.973 0 1.459-.281 1.459-.844a.689.689 0 0 0-.193-.51c-.129-.134-.352-.284-.668-.448a15.41 15.41 0 0 0-1.266-.589c-.755-.316-1.312-.61-1.67-.879a2.545 2.545 0 0 1-.773-.923c-.158-.351-.237-.782-.237-1.292 0-.873.337-1.546 1.01-2.021.68-.48 1.641-.72 2.883-.72 1.184 0 2.335.257 3.454.773l-.808 1.933a14.85 14.85 0 0 0-1.38-.518 4.336 4.336 0 0 0-1.31-.202c-.791 0-1.186.213-1.186.641 0 .24.126.448.378.624.258.176.817.437 1.678.782.768.311 1.331.601 1.688.87.357.27.621.58.791.932.17.352.255.77.255 1.257Zm.685-6.908h2.936l1.854 5.528c.159.48.267 1.049.326 1.705h.052a7.593 7.593 0 0 1 .378-1.705l1.82-5.528h2.874l-4.158 11.083c-.38 1.025-.925 1.793-1.634 2.303-.703.51-1.527.764-2.47.764-.463 0-.917-.05-1.362-.15v-2.126c.322.076.673.114 1.054.114.475 0 .888-.146 1.24-.44.357-.287.635-.723.835-1.309l.158-.483-3.903-9.756Z"/>
  <defs>
    <clipPath id="a">
      <path fill="#fff" d="M115 12h24v24h-24z"/>
    </clipPath>
  </defs>
</svg>
