<svg xmlns="http://www.w3.org/2000/svg" width="300" height="48" fill="none" viewBox="0 0 300 48">
  <rect width="300" height="48" fill="url(#a)" rx="8"/>
  <g clip-path="url(#b)">
    <path fill="#fff" fill-rule="evenodd" d="M48 23.64C48 16.952 53.24 12 60 12s12 4.952 12 11.64c0 6.688-5.24 11.64-12 11.64-1.214 0-2.38-.16-3.474-.461a.958.958 0 0 0-.64.047l-2.382 1.051a.96.96 0 0 1-1.348-.849l-.065-2.134a.959.959 0 0 0-.322-.684C49.434 30.162 48 27.139 48 23.64Zm8.32-2.188-3.526 5.592c-.338.537.322 1.142.827.758l3.786-2.874a.72.72 0 0 1 .868-.002l2.803 2.103a1.8 1.8 0 0 0 2.603-.48l3.525-5.593c.338-.537-.321-1.142-.827-.758l-3.786 2.874a.72.72 0 0 1-.868.002l-2.803-2.103a1.8 1.8 0 0 0-2.603.48Z" clip-rule="evenodd"/>
  </g>
  <path fill="#fff" d="M87.075 20.233c-1.025 0-1.82.387-2.382 1.16-.562.768-.843 1.84-.843 3.217 0 2.866 1.075 4.298 3.225 4.298.903 0 1.995-.225 3.278-.677v2.286c-1.054.44-2.232.659-3.533.659-1.869 0-3.298-.566-4.289-1.696-.99-1.137-1.485-2.766-1.485-4.887 0-1.336.243-2.505.73-3.507.486-1.008 1.183-1.778 2.091-2.312.914-.539 1.984-.808 3.208-.808 1.248 0 2.502.302 3.762.905l-.879 2.215c-.48-.229-.964-.428-1.45-.598a4.327 4.327 0 0 0-1.433-.255ZM101.955 31h-2.68v-5.74c0-1.417-.528-2.126-1.583-2.126-.75 0-1.292.255-1.626.764-.334.51-.5 1.336-.5 2.479V31h-2.681V17.324h2.68v2.786c0 .217-.02.727-.061 1.53l-.062.79h.141c.598-.96 1.547-1.44 2.848-1.44 1.154 0 2.03.31 2.628.93.597.622.896 1.513.896 2.673V31Zm9 0-.518-1.336h-.071c-.451.568-.917.964-1.397 1.187-.475.216-1.096.325-1.864.325-.943 0-1.687-.27-2.232-.809-.539-.539-.809-1.306-.809-2.303 0-1.043.364-1.81 1.09-2.302.733-.498 1.834-.774 3.305-.826l1.705-.053v-.43c0-.997-.51-1.495-1.529-1.495-.785 0-1.708.237-2.769.712l-.887-1.81c1.13-.592 2.384-.888 3.761-.888 1.319 0 2.329.287 3.032.861.704.574 1.055 1.447 1.055 2.62V31h-1.872Zm-.791-4.553-1.037.035c-.779.024-1.359.165-1.74.422-.381.258-.572.65-.572 1.178 0 .756.434 1.134 1.301 1.134.621 0 1.116-.179 1.486-.536.375-.358.562-.832.562-1.424v-.809Zm9.571 2.593c.469 0 1.032-.102 1.688-.308v1.995c-.668.3-1.488.449-2.461.449-1.072 0-1.855-.27-2.347-.809-.486-.545-.729-1.36-.729-2.443v-4.738h-1.283v-1.133l1.476-.897.774-2.074h1.713v2.092h2.751v2.012h-2.751v4.738c0 .38.106.662.317.844.217.181.501.272.852.272Zm10.494-2.97c0 .972.159 1.707.475 2.205.322.498.844.748 1.565.748.714 0 1.227-.247 1.538-.739.316-.498.474-1.236.474-2.215 0-.972-.158-1.702-.474-2.188-.317-.486-.835-.73-1.556-.73-.715 0-1.23.244-1.547.73-.316.48-.475 1.21-.475 2.188Zm6.794 0c0 1.599-.421 2.85-1.265 3.752-.844.903-2.019 1.354-3.525 1.354-.943 0-1.775-.205-2.496-.615a4.156 4.156 0 0 1-1.661-1.785c-.387-.773-.58-1.675-.58-2.707 0-1.605.419-2.853 1.257-3.744.838-.89 2.016-1.336 3.533-1.336.943 0 1.776.205 2.496.616a4.1 4.1 0 0 1 1.661 1.766c.387.768.58 1.667.58 2.698ZM148.309 31h-2.681v-5.74c0-.708-.126-1.239-.378-1.59-.252-.358-.653-.536-1.204-.536-.75 0-1.292.252-1.626.756-.334.498-.501 1.327-.501 2.487V31h-2.681v-9.826h2.048l.36 1.257h.15a2.812 2.812 0 0 1 1.23-1.073c.528-.246 1.125-.369 1.793-.369 1.143 0 2.01.31 2.602.932.592.615.888 1.506.888 2.672V31Zm13.087 0-3.094-10.081h-.079c.111 2.05.167 3.419.167 4.104V31h-2.435V18.15h3.709l3.041 9.827h.053l3.225-9.827h3.709V31h-2.54v-6.082c0-.287.003-.618.009-.993.012-.375.053-1.371.123-2.989h-.079L163.892 31h-2.496Zm15.398-8.104c-.568 0-1.014.182-1.336.545-.322.358-.507.868-.554 1.53h3.762c-.012-.662-.185-1.172-.519-1.53-.334-.363-.785-.544-1.353-.544Zm.378 8.28c-1.582 0-2.818-.437-3.709-1.31s-1.336-2.11-1.336-3.709c0-1.646.41-2.918 1.23-3.814.827-.903 1.966-1.354 3.419-1.354 1.389 0 2.47.396 3.244 1.187.773.79 1.16 1.884 1.16 3.278v1.3h-6.337c.029.763.255 1.357.677 1.785.421.428 1.013.642 1.775.642.592 0 1.151-.062 1.679-.185a8.4 8.4 0 0 0 1.652-.589v2.074c-.469.235-.97.408-1.503.519-.533.117-1.184.176-1.951.176Zm13.043-3.094c0 1.008-.352 1.775-1.055 2.303-.697.527-1.743.79-3.138.79-.714 0-1.324-.049-1.828-.149a6.742 6.742 0 0 1-1.415-.421V28.39c.498.234 1.058.43 1.679.588.627.159 1.178.238 1.652.238.973 0 1.459-.281 1.459-.844a.689.689 0 0 0-.193-.51c-.129-.134-.352-.284-.668-.448a15.41 15.41 0 0 0-1.266-.589c-.755-.316-1.312-.61-1.67-.879a2.545 2.545 0 0 1-.773-.923c-.158-.351-.237-.782-.237-1.292 0-.873.337-1.546 1.01-2.021.68-.48 1.641-.72 2.883-.72 1.184 0 2.335.257 3.454.773l-.808 1.933a14.85 14.85 0 0 0-1.38-.518 4.336 4.336 0 0 0-1.31-.202c-.791 0-1.186.213-1.186.641 0 .24.126.448.378.624.258.176.817.437 1.678.782.768.311 1.331.601 1.688.87.357.27.621.58.791.932.17.352.255.77.255 1.257Zm8.947 0c0 1.008-.351 1.775-1.055 2.303-.697.527-1.743.79-3.137.79-.715 0-1.324-.049-1.828-.149a6.724 6.724 0 0 1-1.415-.421V28.39c.498.234 1.057.43 1.678.588.627.159 1.178.238 1.653.238.972 0 1.459-.281 1.459-.844a.69.69 0 0 0-.194-.51c-.129-.134-.351-.284-.668-.448-.316-.17-.738-.366-1.265-.589-.756-.316-1.313-.61-1.67-.879a2.538 2.538 0 0 1-.774-.923c-.158-.351-.237-.782-.237-1.292 0-.873.337-1.546 1.011-2.021.679-.48 1.64-.72 2.883-.72 1.183 0 2.335.257 3.454.773l-.809 1.933a14.85 14.85 0 0 0-1.38-.518 4.334 4.334 0 0 0-1.309-.202c-.791 0-1.187.213-1.187.641 0 .24.126.448.378.624.258.176.817.437 1.679.782.767.311 1.33.601 1.687.87.358.27.621.58.791.932.17.352.255.77.255 1.257Zm6.161-5.186c-.568 0-1.013.182-1.336.545-.322.358-.507.868-.553 1.53h3.761c-.011-.662-.184-1.172-.518-1.53-.334-.363-.785-.544-1.354-.544Zm.378 8.28c-1.582 0-2.818-.437-3.709-1.31-.89-.873-1.336-2.11-1.336-3.709 0-1.646.41-2.918 1.231-3.814.826-.903 1.966-1.354 3.419-1.354 1.388 0 2.469.396 3.243 1.187.773.79 1.16 1.884 1.16 3.278v1.3h-6.337c.029.763.255 1.357.677 1.785.422.428 1.013.642 1.775.642.592 0 1.152-.062 1.679-.185a8.4 8.4 0 0 0 1.652-.589v2.074a6.136 6.136 0 0 1-1.503.519c-.533.117-1.183.176-1.951.176ZM220.959 31h-2.681v-5.74c0-.708-.126-1.239-.378-1.59-.252-.358-.653-.536-1.204-.536-.75 0-1.292.252-1.626.756-.334.498-.501 1.327-.501 2.487V31h-2.68v-9.826h2.048l.36 1.257h.149a2.81 2.81 0 0 1 1.231-1.073c.527-.246 1.125-.369 1.793-.369 1.142 0 2.009.31 2.601.932.592.615.888 1.506.888 2.672V31Zm11.312-9.826v1.362l-1.539.396c.282.44.422.931.422 1.476 0 1.055-.369 1.878-1.107 2.47-.733.586-1.752.879-3.059.879l-.483-.027-.396-.044c-.275.212-.413.446-.413.704 0 .386.492.58 1.477.58h1.67c1.078 0 1.898.231 2.461.694.568.463.852 1.143.852 2.04 0 1.148-.48 2.038-1.441 2.671-.955.633-2.329.95-4.122.95-1.371 0-2.42-.241-3.147-.722-.72-.474-1.081-1.142-1.081-2.003 0-.592.185-1.087.554-1.486.369-.398.911-.682 1.626-.852a1.81 1.81 0 0 1-.721-.572 1.386 1.386 0 0 1-.307-.852c0-.375.108-.686.325-.932.217-.252.53-.498.94-.738a2.66 2.66 0 0 1-1.23-1.072c-.299-.492-.448-1.073-.448-1.74 0-1.073.348-1.902 1.045-2.488.698-.586 1.694-.879 2.989-.879.275 0 .6.027.975.08.381.046.624.081.73.105h3.428Zm-7.585 11.215c0 .369.175.659.527.87.357.21.855.316 1.494.316.961 0 1.714-.132 2.259-.395.545-.264.817-.624.817-1.081 0-.37-.161-.624-.483-.765-.322-.14-.821-.211-1.494-.211h-1.389c-.492 0-.905.114-1.239.343-.328.234-.492.542-.492.923Zm.975-7.998c0 .533.12.955.36 1.265.247.31.619.466 1.117.466.504 0 .873-.155 1.107-.466.234-.31.352-.732.352-1.265 0-1.184-.487-1.776-1.459-1.776-.985 0-1.477.592-1.477 1.776Zm12.305-1.494c-.569 0-1.014.181-1.336.544-.322.358-.507.868-.554 1.53h3.762c-.012-.662-.185-1.172-.519-1.53-.334-.363-.785-.544-1.353-.544Zm.378 8.279c-1.582 0-2.819-.437-3.709-1.31-.891-.873-1.336-2.11-1.336-3.709 0-1.646.41-2.918 1.23-3.814.826-.903 1.966-1.354 3.419-1.354 1.389 0 2.47.396 3.243 1.187.774.79 1.161 1.884 1.161 3.278v1.3h-6.337c.029.763.255 1.357.676 1.785.422.428 1.014.642 1.776.642.592 0 1.151-.062 1.679-.185a8.4 8.4 0 0 0 1.652-.589v2.074c-.469.235-.97.408-1.503.519-.533.117-1.184.176-1.951.176Zm11.672-10.187c.363 0 .665.027.905.08l-.202 2.513a3.074 3.074 0 0 0-.791-.088c-.856 0-1.524.22-2.004.66-.475.439-.712 1.054-.712 1.845V31h-2.681v-9.826h2.031l.395 1.652h.132c.305-.55.715-.993 1.23-1.327a3.05 3.05 0 0 1 1.697-.51Z"/>
  <defs>
    <linearGradient id="a" x1="300" x2="285.023" y1="0" y2="93.604" gradientUnits="userSpaceOnUse">
      <stop stop-color="#FF7061"/>
      <stop offset=".505" stop-color="#A033FF"/>
      <stop offset="1" stop-color="#09F"/>
    </linearGradient>
    <clipPath id="b">
      <path fill="#fff" d="M48 12h24v24H48z"/>
    </clipPath>
  </defs>
</svg>
