<svg xmlns="http://www.w3.org/2000/svg" width="300" height="48" fill="none" viewBox="0 0 300 48">
  <rect width="300" height="48" fill="#1877F2" rx="8"/>
  <g clip-path="url(#a)">
    <path fill="#fff" d="M114.625 24c0-6.422-5.203-11.625-11.625-11.625S91.375 17.578 91.375 24c0 5.802 4.251 10.612 9.809 11.484V27.36h-2.953V24h2.953v-2.561c0-2.913 1.734-4.523 4.39-4.523 1.273 0 2.603.227 2.603.227v2.86h-1.466c-1.444 0-1.895.896-1.895 1.815V24h3.224l-.515 3.36h-2.709v8.124c5.558-.872 9.809-5.682 9.809-11.484Z"/>
  </g>
  <path fill="#fff" d="M127.298 31h-2.681V18.15h7.365v2.233h-4.684v3.313h4.359v2.224h-4.359V31Zm13.227 0-.518-1.336h-.07c-.452.568-.917.964-1.398 1.187-.475.216-1.096.325-1.863.325-.944 0-1.688-.27-2.233-.809-.539-.539-.808-1.306-.808-2.303 0-1.043.363-1.81 1.09-2.302.732-.498 1.834-.774 3.304-.826l1.705-.053v-.43c0-.997-.509-1.495-1.529-1.495-.785 0-1.708.237-2.768.712l-.888-1.81c1.131-.592 2.385-.888 3.762-.888 1.318 0 2.329.287 3.032.861.703.574 1.054 1.447 1.054 2.62V31h-1.872Zm-.791-4.553-1.037.035c-.779.024-1.359.165-1.74.422-.381.258-.571.65-.571 1.178 0 .756.433 1.134 1.301 1.134.621 0 1.116-.179 1.485-.536.375-.358.562-.832.562-1.424v-.809Zm9.422 4.729c-3.058 0-4.588-1.679-4.588-5.036 0-1.67.416-2.945 1.248-3.824.832-.884 2.025-1.327 3.578-1.327 1.136 0 2.156.223 3.058.668l-.791 2.074c-.422-.17-.814-.307-1.178-.413a3.695 3.695 0 0 0-1.089-.167c-1.395 0-2.092.99-2.092 2.971 0 1.922.697 2.883 2.092 2.883.515 0 .993-.067 1.432-.202.44-.14.879-.358 1.319-.65v2.293a4.323 4.323 0 0 1-1.319.572c-.439.105-.996.158-1.67.158Zm9.343-8.28c-.568 0-1.014.182-1.336.545-.322.358-.507.868-.554 1.53h3.762c-.012-.662-.184-1.172-.518-1.53-.334-.363-.786-.544-1.354-.544Zm.378 8.28c-1.582 0-2.818-.437-3.709-1.31s-1.336-2.11-1.336-3.709c0-1.646.41-2.918 1.23-3.814.827-.903 1.966-1.354 3.419-1.354 1.389 0 2.47.396 3.244 1.187.773.79 1.16 1.884 1.16 3.278v1.3h-6.337c.029.763.255 1.357.677 1.785.421.428 1.013.642 1.775.642.592 0 1.151-.062 1.679-.185a8.4 8.4 0 0 0 1.652-.589v2.074c-.469.235-.97.408-1.503.519-.533.117-1.183.176-1.951.176Zm11.654-10.187c1.16 0 2.069.454 2.725 1.363.656.902.984 2.141.984 3.717 0 1.623-.34 2.88-1.019 3.77-.674.892-1.594 1.337-2.76 1.337-1.154 0-2.06-.42-2.716-1.257h-.184L167.112 31h-2.048V17.324h2.681v3.182c0 .404-.035 1.052-.105 1.942h.105c.627-.972 1.556-1.459 2.786-1.459Zm-.861 2.145c-.662 0-1.146.205-1.45.615-.305.404-.463 1.075-.475 2.013v.29c0 1.054.155 1.81.466 2.267.316.457.814.686 1.494.686.551 0 .987-.252 1.31-.756.328-.51.492-1.248.492-2.215 0-.967-.164-1.69-.492-2.17-.328-.487-.777-.73-1.345-.73Zm8.921 2.935c0 .973.158 1.708.474 2.206.323.498.844.748 1.565.748.715 0 1.227-.247 1.538-.739.316-.498.475-1.236.475-2.215 0-.972-.159-1.702-.475-2.188-.316-.486-.835-.73-1.556-.73-.715 0-1.23.244-1.547.73-.316.48-.474 1.21-.474 2.188Zm6.794 0c0 1.6-.422 2.85-1.266 3.753-.844.903-2.018 1.354-3.524 1.354-.944 0-1.776-.205-2.496-.615a4.144 4.144 0 0 1-1.661-1.785c-.387-.773-.581-1.675-.581-2.707 0-1.605.419-2.853 1.257-3.744.838-.89 2.016-1.336 3.533-1.336.944 0 1.776.205 2.497.616.72.41 1.274.998 1.661 1.766.386.768.58 1.667.58 2.698Zm4.35 0c0 .973.159 1.708.475 2.206.322.498.844.748 1.564.748.715 0 1.228-.247 1.538-.739.317-.498.475-1.236.475-2.215 0-.972-.158-1.702-.475-2.188-.316-.486-.834-.73-1.555-.73-.715 0-1.231.244-1.547.73-.316.48-.475 1.21-.475 2.188Zm6.794 0c0 1.6-.422 2.85-1.265 3.753-.844.903-2.019 1.354-3.525 1.354-.943 0-1.775-.205-2.496-.615a4.15 4.15 0 0 1-1.661-1.785c-.387-.773-.58-1.675-.58-2.707 0-1.605.419-2.853 1.257-3.744.838-.89 2.015-1.336 3.533-1.336.943 0 1.775.205 2.496.616.721.41 1.274.998 1.661 1.766s.58 1.667.58 2.698Zm4.79-.413 1.169-1.494 2.751-2.988h3.024l-3.903 4.262L208.5 31h-3.094l-2.83-3.981-1.151.922V31h-2.681V17.324h2.681v6.1l-.141 2.232h.035Z"/>
  <defs>
    <clipPath id="a">
      <path fill="#fff" d="M91 12h24v24H91z"/>
    </clipPath>
  </defs>
</svg>
