<svg xmlns="http://www.w3.org/2000/svg" width="302" height="50" fill="none" viewBox="0 0 302 50">
  <rect width="301" height="49" x=".5" y=".5" fill="#000" rx="8.5"/>
  <g clip-path="url(#a)">
    <path fill="#0ACF83" d="M60.501 37c2.208 0 4-1.792 4-4v-4h-4c-2.208 0-4 1.792-4 4s1.792 4 4 4Z"/>
    <path fill="#A259FF" d="M56.502 25a4 4 0 0 1 4-4h4v8h-4a4 4 0 0 1-4-4Z"/>
    <path fill="#F24E1E" d="M56.502 17a4 4 0 0 1 4-4h4v8h-4a4 4 0 0 1-4-4Z"/>
    <path fill="#FF7262" d="M64.501 13h4a4 4 0 0 1 0 8h-4v-8Z"/>
    <path fill="#1ABCFE" d="M72.501 25a4 4 0 0 1-8 0 4 4 0 0 1 8 0Z"/>
    <path fill="#fff" d="M88.798 32h-2.68V19.15h7.364v2.233h-4.684v3.313h4.36v2.224h-4.36V32Zm6.873-12.366c0-.873.486-1.31 1.459-1.31.973 0 1.459.437 1.459 1.31 0 .416-.123.741-.37.975-.24.229-.603.343-1.09.343-.972 0-1.458-.44-1.458-1.318ZM98.466 32h-2.68v-9.826h2.68V32Zm11.373-9.826v1.362l-1.538.396c.281.44.422.931.422 1.476 0 1.055-.369 1.878-1.108 2.47-.732.586-1.752.879-3.058.879l-.484-.027-.395-.044c-.276.212-.413.446-.413.704 0 .386.492.58 1.476.58h1.67c1.078 0 1.899.231 2.461.694.568.463.853 1.143.853 2.04 0 1.148-.481 2.038-1.442 2.671-.955.633-2.329.95-4.122.95-1.371 0-2.42-.241-3.146-.722-.721-.474-1.081-1.142-1.081-2.003 0-.592.184-1.087.553-1.486.369-.398.911-.682 1.626-.852a1.807 1.807 0 0 1-.72-.572 1.387 1.387 0 0 1-.308-.852c0-.375.108-.686.325-.932.217-.252.53-.498.941-.738a2.663 2.663 0 0 1-1.231-1.072c-.299-.492-.448-1.073-.448-1.74 0-1.073.349-1.902 1.046-2.488.697-.586 1.693-.879 2.988-.879.275 0 .601.027.976.08.38.046.624.081.729.105h3.428Zm-7.585 11.215c0 .369.176.659.527.87.358.21.856.316 1.494.316.961 0 1.714-.132 2.259-.395.545-.264.818-.624.818-1.081 0-.37-.162-.624-.484-.765-.322-.14-.82-.211-1.494-.211h-1.389c-.492 0-.905.114-1.239.343-.328.234-.492.542-.492.923Zm.975-7.998c0 .533.121.955.361 1.265.246.31.618.466 1.116.466.504 0 .873-.155 1.107-.466.235-.31.352-.732.352-1.265 0-1.184-.486-1.776-1.459-1.776-.984 0-1.477.592-1.477 1.776ZM120.263 32h-2.681v-5.74c0-.708-.12-1.239-.36-1.59-.235-.358-.607-.536-1.117-.536-.685 0-1.183.252-1.494.756-.31.504-.465 1.333-.465 2.487V32h-2.681v-9.826h2.048l.36 1.257h.149a2.699 2.699 0 0 1 1.143-1.055c.498-.258 1.069-.387 1.714-.387 1.471 0 2.467.48 2.988 1.442h.237a2.661 2.661 0 0 1 1.161-1.064c.515-.252 1.095-.378 1.74-.378 1.113 0 1.954.287 2.522.862.575.568.862 1.482.862 2.742V32h-2.69v-5.74c0-.708-.12-1.239-.36-1.59-.235-.358-.607-.536-1.116-.536-.657 0-1.149.234-1.477.703-.322.469-.483 1.213-.483 2.232V32Zm15.126 0-.519-1.336h-.07c-.451.568-.917.964-1.398 1.187-.474.216-1.095.325-1.863.325-.943 0-1.687-.27-2.232-.809-.539-.539-.809-1.306-.809-2.303 0-1.043.363-1.81 1.09-2.302.732-.498 1.834-.774 3.305-.826l1.705-.053v-.43c0-.997-.51-1.495-1.53-1.495-.785 0-1.708.237-2.768.712l-.888-1.81c1.131-.592 2.385-.888 3.762-.888 1.318 0 2.329.287 3.032.861.703.574 1.055 1.447 1.055 2.62V32h-1.872Zm-.791-4.553-1.037.035c-.78.024-1.36.165-1.741.422-.381.258-.571.65-.571 1.178 0 .756.434 1.134 1.301 1.134.621 0 1.116-.179 1.485-.536.375-.358.563-.832.563-1.424v-.809Zm15.776-6.214c-1.025 0-1.819.387-2.382 1.16-.562.768-.844 1.84-.844 3.217 0 2.866 1.076 4.298 3.226 4.298.902 0 1.995-.225 3.278-.677v2.286c-1.054.44-2.232.659-3.533.659-1.869 0-3.299-.566-4.289-1.697-.99-1.136-1.485-2.765-1.485-4.886 0-1.336.243-2.505.729-3.507.487-1.008 1.184-1.778 2.092-2.312.914-.539 1.983-.808 3.208-.808 1.248 0 2.502.302 3.762.905l-.879 2.215a14.628 14.628 0 0 0-1.45-.598 4.33 4.33 0 0 0-1.433-.255Zm7.945 5.836c0 .973.159 1.708.475 2.206.322.498.844.748 1.564.748.715 0 1.228-.247 1.538-.739.317-.498.475-1.236.475-2.215 0-.972-.158-1.702-.475-2.188-.316-.486-.834-.73-1.555-.73-.715 0-1.231.244-1.547.73-.316.48-.475 1.21-.475 2.188Zm6.794 0c0 1.6-.422 2.85-1.265 3.753-.844.903-2.019 1.354-3.525 1.354-.943 0-1.775-.205-2.496-.616a4.15 4.15 0 0 1-1.661-1.784c-.387-.773-.58-1.675-.58-2.707 0-1.605.419-2.853 1.257-3.744.838-.89 2.015-1.336 3.533-1.336.943 0 1.775.205 2.496.616.721.41 1.274.998 1.661 1.766s.58 1.667.58 2.698ZM176.126 32h-2.681v-5.74c0-.708-.12-1.239-.36-1.59-.234-.358-.606-.536-1.116-.536-.686 0-1.184.252-1.494.756-.311.504-.466 1.333-.466 2.487V32h-2.681v-9.826h2.048l.36 1.257h.15a2.69 2.69 0 0 1 1.142-1.055c.498-.258 1.07-.387 1.714-.387 1.471 0 2.467.48 2.988 1.442h.238c.263-.457.65-.812 1.16-1.064.516-.252 1.096-.378 1.74-.378 1.113 0 1.954.287 2.523.862.574.568.861 1.482.861 2.742V32h-2.69v-5.74c0-.708-.12-1.239-.36-1.59-.234-.358-.606-.536-1.116-.536-.656 0-1.148.234-1.477.703-.322.469-.483 1.213-.483 2.232V32Zm17.684 0h-2.681v-5.74c0-.708-.12-1.239-.36-1.59-.235-.358-.607-.536-1.117-.536-.685 0-1.183.252-1.494.756-.31.504-.466 1.333-.466 2.487V32h-2.68v-9.826h2.048l.36 1.257h.149a2.699 2.699 0 0 1 1.143-1.055c.498-.258 1.069-.387 1.714-.387 1.47 0 2.467.48 2.988 1.442h.237a2.661 2.661 0 0 1 1.161-1.064c.515-.252 1.095-.378 1.74-.378 1.113 0 1.954.287 2.522.862.574.568.862 1.482.862 2.742V32h-2.69v-5.74c0-.708-.12-1.239-.36-1.59-.235-.358-.607-.536-1.116-.536-.657 0-1.149.234-1.477.703-.322.469-.483 1.213-.483 2.232V32Zm15.846 0-.36-1.257h-.141a2.856 2.856 0 0 1-1.221 1.064c-.528.246-1.128.369-1.802.369-1.154 0-2.025-.308-2.611-.923-.585-.621-.878-1.512-.878-2.672v-6.407h2.68v5.74c0 .708.126 1.241.378 1.599.252.351.653.527 1.204.527.75 0 1.292-.249 1.626-.747.334-.504.501-1.336.501-2.496v-4.623h2.681V32h-2.057Zm13.94 0h-2.681v-5.74c0-.708-.126-1.239-.378-1.59-.252-.358-.653-.536-1.204-.536-.75 0-1.292.252-1.626.756-.334.498-.501 1.327-.501 2.487V32h-2.681v-9.826h2.048l.361 1.257h.149a2.812 2.812 0 0 1 1.23-1.073c.528-.246 1.125-.369 1.793-.369 1.143 0 2.01.31 2.602.932.592.615.888 1.506.888 2.672V32Zm2.645-12.366c0-.873.487-1.31 1.459-1.31.973 0 1.459.437 1.459 1.31 0 .416-.123.741-.369.975-.24.229-.603.343-1.09.343-.972 0-1.459-.44-1.459-1.318ZM229.036 32h-2.681v-9.826h2.681V32Zm6.961-1.96c.469 0 1.031-.102 1.688-.308v1.995c-.668.3-1.489.449-2.461.449-1.073 0-1.855-.27-2.347-.809-.486-.545-.73-1.36-.73-2.443v-4.738h-1.283v-1.133l1.477-.897.773-2.074h1.714v2.092h2.751v2.012h-2.751v4.738c0 .38.106.662.317.844.216.181.501.272.852.272Zm2.276-7.866h2.936l1.854 5.528c.159.48.267 1.049.326 1.705h.052a7.593 7.593 0 0 1 .378-1.705l1.82-5.528h2.874l-4.158 11.083c-.38 1.025-.925 1.793-1.634 2.303-.703.51-1.527.764-2.47.764-.463 0-.917-.05-1.362-.15v-2.126c.322.076.673.114 1.054.114.475 0 .888-.146 1.24-.44.357-.287.635-.723.835-1.309l.158-.483-3.903-9.756Z"/>
  </g>
  <rect width="301" height="49" x=".5" y=".5" stroke="#fff" rx="8.5"/>
  <defs>
    <clipPath id="a">
      <path fill="#fff" d="M52.5 12h197v26h-197z"/>
    </clipPath>
  </defs>
</svg>
