<svg xmlns="http://www.w3.org/2000/svg" width="300" height="48" fill="none" viewBox="0 0 300 48">
  <rect width="300" height="48" fill="#1DBF73" rx="8"/>
  <g clip-path="url(#a)">
    <path fill="#fff" d="M118.923 36h-5.344V23.864H110.5v-4.528h3.079v-1.359c0-3.532 2.627-5.977 6.521-5.977h3.985v4.528h-3.17c-1.177 0-1.992.725-1.992 1.812v.996h10.505V36h-5.343V23.864h-5.162V36Zm24.875-5h-2.681V18.15h7.365v2.233h-4.684v3.313h4.359v2.224h-4.359V31Zm6.873-12.366c0-.873.486-1.31 1.459-1.31.973 0 1.459.437 1.459 1.31 0 .416-.123.741-.369.975-.241.229-.604.343-1.09.343-.973 0-1.459-.44-1.459-1.318ZM153.466 31h-2.681v-9.826h2.681V31Zm5.159 0-3.744-9.826h2.804l1.898 5.599c.211.708.343 1.38.396 2.012h.052c.03-.562.161-1.233.396-2.012l1.889-5.6h2.804L161.376 31h-2.751Zm11.979-8.104c-.568 0-1.013.182-1.335.545-.323.358-.507.868-.554 1.53h3.762c-.012-.662-.185-1.172-.519-1.53-.334-.363-.785-.544-1.354-.544Zm.378 8.28c-1.582 0-2.818-.437-3.709-1.31-.89-.873-1.335-2.11-1.335-3.709 0-1.646.41-2.918 1.23-3.814.826-.903 1.966-1.354 3.419-1.354 1.389 0 2.47.396 3.243 1.187.774.79 1.16 1.884 1.16 3.278v1.3h-6.337c.03.763.255 1.357.677 1.785.422.428 1.014.642 1.775.642.592 0 1.152-.062 1.679-.185a8.407 8.407 0 0 0 1.653-.589v2.074c-.469.235-.97.408-1.503.519-.534.117-1.184.176-1.952.176Zm11.672-10.187c.364 0 .665.027.906.08l-.203 2.513a3.064 3.064 0 0 0-.791-.088c-.855 0-1.523.22-2.004.66-.474.439-.711 1.054-.711 1.845V31h-2.681v-9.826h2.03l.396 1.652h.132a3.66 3.66 0 0 1 1.23-1.327 3.046 3.046 0 0 1 1.696-.51Zm8.174 0c.363 0 .665.027.905.08l-.202 2.513a3.07 3.07 0 0 0-.791-.088c-.855 0-1.523.22-2.004.66-.474.439-.712 1.054-.712 1.845V31h-2.68v-9.826h2.03l.396 1.652h.131c.305-.55.715-.993 1.231-1.327a3.046 3.046 0 0 1 1.696-.51Z"/>
  </g>
  <defs>
    <clipPath id="a">
      <path fill="#fff" d="M107.5 11h85v26h-85z"/>
    </clipPath>
  </defs>
</svg>
