<svg xmlns="http://www.w3.org/2000/svg" width="302" height="50" fill="none" viewBox="0 0 302 50">
  <rect width="301" height="49" x=".5" y=".5" fill="#000" rx="8.5"/>
  <g clip-path="url(#a)">
    <path fill="#ECECEB" d="M113.624 13h16.752A3.624 3.624 0 0 1 134 16.624v16.75a3.624 3.624 0 0 1-3.624 3.624h-16.752A3.624 3.624 0 0 1 110 33.374v-16.75A3.624 3.624 0 0 1 113.624 13Z"/>
    <path fill="url(#b)" fill-rule="evenodd" d="M126.51 13H114c-1.5 0-4 .76-4 3.934v11.933c.096 2.267.464.834 1.165-1.678.815-2.919 3.467-5.47 6.697-7.382 2.466-1.46 5.226-2.391 10.25-2.48 2.849-.05 2.597-3.604-1.602-4.327Z" clip-rule="evenodd"/>
    <path fill="#0059D4" d="M120.744 24.648c0 2.276-1.698 4.122-3.793 4.122s-3.793-1.846-3.793-4.122 1.698-4.121 3.793-4.121 3.793 1.845 3.793 4.121Z"/>
    <path fill="#DA1593" d="M130.446 24.594c0 2.246-1.747 4.067-3.902 4.067-2.156 0-3.903-1.821-3.903-4.067 0-2.246 1.747-4.067 3.903-4.067 2.155 0 3.902 1.821 3.902 4.067Z"/>
  </g>
  <path fill="#fff" d="M146.298 32h-2.681V19.15h7.365v2.233h-4.684v3.313h4.359v2.224h-4.359V32Zm9.668 0h-2.681V18.324h2.681V32Zm2.707-12.366c0-.873.486-1.31 1.459-1.31.972 0 1.459.437 1.459 1.31 0 .416-.123.741-.369.975-.241.229-.604.343-1.09.343-.973 0-1.459-.44-1.459-1.318ZM161.468 32h-2.681v-9.826h2.681V32Zm6.811.176c-3.058 0-4.588-1.679-4.588-5.036 0-1.67.416-2.945 1.248-3.824.832-.884 2.025-1.327 3.578-1.327 1.136 0 2.156.223 3.058.668l-.791 2.074c-.422-.17-.814-.307-1.178-.413a3.695 3.695 0 0 0-1.089-.167c-1.395 0-2.092.99-2.092 2.971 0 1.922.697 2.883 2.092 2.883.515 0 .993-.067 1.432-.202.44-.14.879-.358 1.319-.65v2.293a4.313 4.313 0 0 1-1.319.572c-.439.105-.996.158-1.67.158Zm7.849-5.52 1.169-1.494 2.751-2.988h3.023l-3.902 4.262 4.14 5.564h-3.094l-2.83-3.981-1.152.922V32h-2.68V18.324h2.68v6.1l-.14 2.232h.035Zm14.071-4.667c.363 0 .665.027.905.08l-.202 2.513a3.064 3.064 0 0 0-.791-.088c-.855 0-1.523.22-2.004.66-.474.439-.711 1.054-.711 1.845V32h-2.681v-9.826h2.03l.396 1.652h.131c.305-.55.715-.993 1.231-1.327a3.046 3.046 0 0 1 1.696-.51Z"/>
  <rect width="301" height="49" x=".5" y=".5" stroke="#fff" rx="8.5"/>
  <defs>
    <linearGradient id="b" x1="112.046" x2="114.99" y1="9.641" y2="18.444" gradientUnits="userSpaceOnUse">
      <stop stop-color="#fff"/>
      <stop offset="1" stop-color="#fff" stop-opacity="0"/>
    </linearGradient>
    <clipPath id="a">
      <path fill="#fff" d="M110 13h24v24h-24z"/>
    </clipPath>
  </defs>
</svg>
