<svg xmlns="http://www.w3.org/2000/svg" width="300" height="48" fill="none" viewBox="0 0 300 48">
  <rect width="300" height="48" fill="#2457F5" rx="8"/>
  <g clip-path="url(#a)">
    <g clip-path="url(#b)">
      <path fill="#fff" d="M91.1 36c-2.867 0-5.661-.639-8.383-1.917a25.42 25.42 0 0 1-7.234-5.066 25.42 25.42 0 0 1-5.066-7.234C69.139 19.061 68.5 16.267 68.5 13.4c0-.4.133-.733.4-1s.6-.4 1-.4h5.4c.311 0 .589.1.833.3.245.2.39.456.434.767l.866 4.666c.045.311.04.595-.016.85a1.365 1.365 0 0 1-.384.684l-3.2 3.266c.934 1.6 2.1 3.1 3.5 4.5s2.945 2.611 4.634 3.634l3.133-3.134c.2-.2.461-.35.783-.45.323-.1.64-.127.95-.083l4.6.933c.311.067.567.217.767.45.2.234.3.506.3.817v5.4c0 .4-.133.733-.4 1s-.6.4-1 .4Z"/>
    </g>
    <path fill="#fff" d="M106.995 23.784h5.098v6.662a14.03 14.03 0 0 1-2.338.563c-.727.111-1.471.167-2.233.167-1.939 0-3.421-.569-4.447-1.705-1.019-1.143-1.529-2.78-1.529-4.913 0-2.075.592-3.692 1.775-4.852 1.19-1.16 2.836-1.74 4.94-1.74 1.318 0 2.59.264 3.814.79l-.905 2.18a6.468 6.468 0 0 0-2.927-.703c-1.178 0-2.121.396-2.83 1.187-.709.79-1.063 1.854-1.063 3.19 0 1.395.284 2.461.852 3.2.574.732 1.406 1.098 2.496 1.098.569 0 1.146-.058 1.732-.176v-2.68h-2.435v-2.268Zm12.024-.887c-.569 0-1.014.181-1.336.544-.323.358-.507.868-.554 1.53h3.762c-.012-.662-.185-1.172-.519-1.53-.334-.363-.785-.544-1.353-.544Zm.377 8.279c-1.582 0-2.818-.437-3.708-1.31-.891-.873-1.336-2.11-1.336-3.709 0-1.646.41-2.918 1.23-3.814.826-.903 1.966-1.354 3.419-1.354 1.389 0 2.47.396 3.243 1.187.774.79 1.16 1.884 1.16 3.278v1.3h-6.337c.03.763.255 1.357.677 1.785.422.428 1.014.642 1.776.642a7.37 7.37 0 0 0 1.678-.185 8.407 8.407 0 0 0 1.653-.589v2.074c-.469.235-.97.408-1.503.519-.534.117-1.184.176-1.952.176ZM134.654 31h-2.68v-5.74c0-.708-.126-1.239-.378-1.59-.252-.358-.654-.536-1.204-.536-.75 0-1.292.252-1.626.756-.334.498-.501 1.327-.501 2.487V31h-2.681v-9.826h2.048l.36 1.257h.15a2.806 2.806 0 0 1 1.23-1.073c.527-.246 1.125-.369 1.793-.369 1.143 0 2.01.31 2.602.932.591.615.887 1.506.887 2.672V31Zm6.829-8.104c-.568 0-1.013.182-1.336.545-.322.358-.506.868-.553 1.53h3.761c-.011-.662-.184-1.172-.518-1.53-.334-.363-.785-.544-1.354-.544Zm.378 8.28c-1.582 0-2.818-.437-3.709-1.31-.89-.873-1.336-2.11-1.336-3.709 0-1.646.411-2.918 1.231-3.814.826-.903 1.966-1.354 3.419-1.354 1.388 0 2.47.396 3.243 1.187.773.79 1.16 1.884 1.16 3.278v1.3h-6.337c.03.763.255 1.357.677 1.785.422.428 1.014.642 1.775.642.592 0 1.152-.062 1.679-.185a8.4 8.4 0 0 0 1.652-.589v2.074a6.136 6.136 0 0 1-1.503.519c-.533.117-1.183.176-1.951.176Zm11.672-10.187c.363 0 .665.027.905.08l-.202 2.513a3.064 3.064 0 0 0-.791-.088c-.855 0-1.523.22-2.004.66-.474.439-.712 1.054-.712 1.845V31h-2.68v-9.826h2.03l.396 1.652h.131c.305-.55.715-.993 1.231-1.327a3.046 3.046 0 0 1 1.696-.51Zm2.575-2.355c0-.873.487-1.31 1.459-1.31.973 0 1.459.437 1.459 1.31 0 .416-.123.741-.369.975-.24.229-.603.343-1.09.343-.972 0-1.459-.44-1.459-1.318ZM158.903 31h-2.68v-9.826h2.68V31Zm6.812.176c-3.059 0-4.588-1.679-4.588-5.036 0-1.67.416-2.945 1.248-3.824.832-.884 2.024-1.327 3.577-1.327 1.137 0 2.156.223 3.059.668l-.791 2.074c-.422-.17-.815-.307-1.178-.413a3.701 3.701 0 0 0-1.09-.167c-1.394 0-2.092.99-2.092 2.971 0 1.922.698 2.883 2.092 2.883.516 0 .993-.067 1.433-.202a5.3 5.3 0 0 0 1.318-.65v2.293a4.308 4.308 0 0 1-1.318.572c-.44.105-.996.158-1.67.158Zm12.885-6.979h.896c.838 0 1.465-.164 1.881-.492.416-.334.624-.817.624-1.45 0-.639-.176-1.11-.527-1.415-.346-.305-.891-.457-1.635-.457H178.6v3.814Zm6.152-2.039c0 1.383-.434 2.44-1.301 3.173-.861.733-2.089 1.099-3.682 1.099H178.6V31h-2.725V18.15h4.104c1.559 0 2.743.337 3.551 1.011.815.668 1.222 1.667 1.222 2.997ZM196.037 31h-2.681v-5.74c0-1.417-.527-2.126-1.582-2.126-.75 0-1.292.255-1.626.764-.334.51-.501 1.336-.501 2.479V31h-2.68V17.324h2.68v2.786c0 .217-.02.727-.061 1.53l-.062.79h.141c.598-.96 1.547-1.44 2.848-1.44 1.154 0 2.03.31 2.628.93.597.622.896 1.513.896 2.673V31Zm4.896-4.93c0 .972.158 1.707.474 2.205.322.498.844.748 1.565.748.715 0 1.227-.247 1.538-.739.316-.498.474-1.236.474-2.215 0-.972-.158-1.702-.474-2.188-.317-.486-.835-.73-1.556-.73-.715 0-1.23.244-1.547.73-.316.48-.474 1.21-.474 2.188Zm6.794 0c0 1.599-.422 2.85-1.266 3.752-.844.903-2.019 1.354-3.524 1.354-.944 0-1.776-.205-2.497-.615a4.156 4.156 0 0 1-1.661-1.785c-.386-.773-.58-1.675-.58-2.707 0-1.605.419-2.853 1.257-3.744.838-.89 2.016-1.336 3.533-1.336.944 0 1.776.205 2.496.616a4.1 4.1 0 0 1 1.661 1.766c.387.768.581 1.667.581 2.698ZM219.012 31h-2.681v-5.74c0-.708-.126-1.239-.378-1.59-.252-.358-.653-.536-1.204-.536-.75 0-1.292.252-1.626.756-.334.498-.501 1.327-.501 2.487V31h-2.681v-9.826h2.048l.361 1.257h.149a2.812 2.812 0 0 1 1.23-1.073c.528-.246 1.125-.369 1.793-.369 1.143 0 2.01.31 2.602.932.592.615.888 1.506.888 2.672V31Zm6.829-8.104c-.569 0-1.014.182-1.336.545-.322.358-.507.868-.554 1.53h3.762c-.012-.662-.185-1.172-.519-1.53-.334-.363-.785-.544-1.353-.544Zm.378 8.28c-1.582 0-2.819-.437-3.709-1.31-.891-.873-1.336-2.11-1.336-3.709 0-1.646.41-2.918 1.23-3.814.826-.903 1.966-1.354 3.419-1.354 1.389 0 2.47.396 3.243 1.187.774.79 1.161 1.884 1.161 3.278v1.3h-6.337c.029.763.255 1.357.676 1.785.422.428 1.014.642 1.776.642.592 0 1.151-.062 1.679-.185a8.4 8.4 0 0 0 1.652-.589v2.074c-.469.235-.97.408-1.503.519-.533.117-1.184.176-1.951.176Z"/>
  </g>
  <defs>
    <clipPath id="a">
      <path fill="#fff" d="M68.5 11h163v26h-163z"/>
    </clipPath>
    <clipPath id="b">
      <path fill="#fff" d="M68.5 12h24v24h-24z"/>
    </clipPath>
  </defs>
</svg>
