<svg xmlns="http://www.w3.org/2000/svg" width="300" height="48" fill="none" viewBox="0 0 300 48">
  <rect width="300" height="48" fill="#2457F5" rx="8"/>
  <g clip-path="url(#a)">
    <g clip-path="url(#b)">
      <path fill="#fff" d="M84.167 30.667h6.666c.378 0 .695-.128.95-.384a1.29 1.29 0 0 0 .384-.95 1.29 1.29 0 0 0-.384-.95 1.29 1.29 0 0 0-.95-.383h-6.666a1.29 1.29 0 0 0-.95.383 1.29 1.29 0 0 0-.384.95c0 .378.128.695.384.95.255.256.572.384.95.384Zm0-5.334h10.666c.378 0 .695-.127.95-.383a1.29 1.29 0 0 0 .384-.95 1.29 1.29 0 0 0-.384-.95 1.29 1.29 0 0 0-.95-.383H84.167a1.29 1.29 0 0 0-.95.383 1.29 1.29 0 0 0-.384.95c0 .378.128.694.384.95.255.256.572.383.95.383Zm0-5.333h10.666c.378 0 .695-.128.95-.383a1.29 1.29 0 0 0 .384-.95 1.29 1.29 0 0 0-.384-.95 1.29 1.29 0 0 0-.95-.384H84.167a1.29 1.29 0 0 0-.95.384 1.29 1.29 0 0 0-.384.95c0 .377.128.694.384.95.255.255.572.383.95.383Zm-4 16a2.568 2.568 0 0 1-1.884-.783 2.568 2.568 0 0 1-.783-1.884V14.667c0-.734.261-1.361.783-1.884A2.568 2.568 0 0 1 80.167 12h18.666a2.57 2.57 0 0 1 1.884.783 2.57 2.57 0 0 1 .783 1.884v18.666a2.57 2.57 0 0 1-.783 1.884 2.57 2.57 0 0 1-1.884.783H80.167Z"/>
    </g>
    <path fill="#fff" d="M115.995 23.784h5.098v6.662a14.03 14.03 0 0 1-2.338.563c-.727.111-1.471.167-2.233.167-1.939 0-3.421-.569-4.447-1.705-1.019-1.143-1.529-2.78-1.529-4.913 0-2.075.592-3.692 1.775-4.852 1.19-1.16 2.836-1.74 4.94-1.74 1.318 0 2.59.264 3.814.79l-.905 2.18a6.468 6.468 0 0 0-2.927-.703c-1.178 0-2.121.396-2.83 1.187-.709.79-1.063 1.854-1.063 3.19 0 1.395.284 2.461.852 3.2.574.732 1.406 1.098 2.496 1.098.569 0 1.146-.058 1.732-.176v-2.68h-2.435v-2.268Zm12.024-.887c-.569 0-1.014.181-1.336.544-.323.358-.507.868-.554 1.53h3.762c-.012-.662-.185-1.172-.519-1.53-.334-.363-.785-.544-1.353-.544Zm.377 8.279c-1.582 0-2.818-.437-3.708-1.31-.891-.873-1.336-2.11-1.336-3.709 0-1.646.41-2.918 1.23-3.814.826-.903 1.966-1.354 3.419-1.354 1.389 0 2.47.396 3.243 1.187.774.79 1.16 1.884 1.16 3.278v1.3h-6.337c.03.763.255 1.357.677 1.785.422.428 1.014.642 1.776.642a7.37 7.37 0 0 0 1.678-.185 8.407 8.407 0 0 0 1.653-.589v2.074c-.469.235-.97.408-1.503.519-.534.117-1.184.176-1.952.176ZM143.654 31h-2.68v-5.74c0-.708-.126-1.239-.378-1.59-.252-.358-.654-.536-1.204-.536-.75 0-1.292.252-1.626.756-.334.498-.501 1.327-.501 2.487V31h-2.681v-9.826h2.048l.36 1.257h.15a2.806 2.806 0 0 1 1.23-1.073c.527-.246 1.125-.369 1.793-.369 1.143 0 2.01.31 2.602.932.591.615.887 1.506.887 2.672V31Zm6.829-8.104c-.568 0-1.013.182-1.336.545-.322.358-.506.868-.553 1.53h3.761c-.011-.662-.184-1.172-.518-1.53-.334-.363-.785-.544-1.354-.544Zm.378 8.28c-1.582 0-2.818-.437-3.709-1.31-.89-.873-1.336-2.11-1.336-3.709 0-1.646.411-2.918 1.231-3.814.826-.903 1.966-1.354 3.419-1.354 1.388 0 2.47.396 3.243 1.187.773.79 1.16 1.884 1.16 3.278v1.3h-6.337c.03.763.255 1.357.677 1.785.422.428 1.014.642 1.775.642.592 0 1.152-.062 1.679-.185a8.4 8.4 0 0 0 1.652-.589v2.074a6.136 6.136 0 0 1-1.503.519c-.533.117-1.183.176-1.951.176Zm11.672-10.187c.363 0 .665.027.905.08l-.202 2.513a3.064 3.064 0 0 0-.791-.088c-.855 0-1.523.22-2.004.66-.474.439-.712 1.054-.712 1.845V31h-2.68v-9.826h2.03l.396 1.652h.131c.305-.55.715-.993 1.231-1.327a3.046 3.046 0 0 1 1.696-.51Zm2.575-2.355c0-.873.487-1.31 1.459-1.31.973 0 1.459.437 1.459 1.31 0 .416-.123.741-.369.975-.24.229-.603.343-1.09.343-.972 0-1.459-.44-1.459-1.318ZM167.903 31h-2.68v-9.826h2.68V31Zm6.812.176c-3.059 0-4.588-1.679-4.588-5.036 0-1.67.416-2.945 1.248-3.824.832-.884 2.024-1.327 3.577-1.327 1.137 0 2.156.223 3.059.668l-.791 2.074c-.422-.17-.815-.307-1.178-.413a3.701 3.701 0 0 0-1.09-.167c-1.394 0-2.092.99-2.092 2.971 0 1.922.698 2.883 2.092 2.883.516 0 .993-.067 1.433-.202a5.3 5.3 0 0 0 1.318-.65v2.293a4.308 4.308 0 0 1-1.318.572c-.44.105-.996.158-1.67.158Zm10.16-13.026h3.999c1.822 0 3.144.261 3.964.783.826.515 1.239 1.338 1.239 2.47 0 .767-.181 1.397-.545 1.889a2.143 2.143 0 0 1-1.432.888v.088c.814.181 1.4.521 1.757 1.02.364.497.545 1.16.545 1.985 0 1.172-.424 2.086-1.274 2.743-.844.656-1.992.984-3.445.984h-4.808V18.15Zm2.725 5.09h1.582c.738 0 1.271-.115 1.599-.343.334-.229.501-.607.501-1.134 0-.493-.181-.844-.545-1.055-.357-.217-.925-.325-1.705-.325H187.6v2.856Zm0 2.161v3.349h1.775c.75 0 1.304-.144 1.661-.43.358-.288.536-.727.536-1.319 0-1.066-.761-1.6-2.285-1.6H187.6ZM199.438 31h-2.68V17.324h2.68V31Zm4.958-4.93c0 .972.158 1.707.474 2.205.322.498.844.748 1.565.748.714 0 1.227-.247 1.538-.739.316-.498.474-1.236.474-2.215 0-.972-.158-1.702-.474-2.188-.317-.486-.835-.73-1.556-.73-.715 0-1.23.244-1.547.73-.316.48-.474 1.21-.474 2.188Zm6.793 0c0 1.599-.421 2.85-1.265 3.752-.844.903-2.019 1.354-3.525 1.354-.943 0-1.775-.205-2.496-.615a4.156 4.156 0 0 1-1.661-1.785c-.387-.773-.58-1.675-.58-2.707 0-1.605.419-2.853 1.257-3.744.838-.89 2.016-1.336 3.533-1.336.944 0 1.776.205 2.496.616a4.1 4.1 0 0 1 1.661 1.766c.387.768.58 1.667.58 2.698Zm10.767-4.896v1.362l-1.538.396c.281.44.422.931.422 1.476 0 1.055-.369 1.878-1.108 2.47-.732.586-1.752.879-3.058.879l-.484-.027-.395-.044c-.275.212-.413.446-.413.704 0 .386.492.58 1.476.58h1.67c1.078 0 1.899.231 2.461.694.569.463.853 1.143.853 2.04 0 1.148-.481 2.038-1.442 2.671-.955.633-2.329.95-4.122.95-1.371 0-2.42-.241-3.146-.722-.721-.474-1.081-1.142-1.081-2.003 0-.592.184-1.087.553-1.486.37-.398.912-.682 1.626-.852a1.807 1.807 0 0 1-.72-.572 1.387 1.387 0 0 1-.308-.852c0-.375.109-.686.325-.932.217-.252.531-.498.941-.738a2.663 2.663 0 0 1-1.231-1.072c-.299-.492-.448-1.073-.448-1.74 0-1.073.349-1.902 1.046-2.488.697-.586 1.693-.879 2.988-.879.276 0 .601.027.976.08.381.046.624.081.729.105h3.428Zm-7.585 11.215c0 .369.176.659.527.87.358.21.856.316 1.495.316.961 0 1.713-.132 2.258-.395.545-.264.818-.624.818-1.081 0-.37-.161-.624-.484-.765-.322-.14-.82-.211-1.494-.211h-1.388c-.493 0-.906.114-1.24.343-.328.234-.492.542-.492.923Zm.976-7.998c0 .533.12.955.36 1.265.246.31.618.466 1.116.466.504 0 .873-.155 1.108-.466.234-.31.351-.732.351-1.265 0-1.184-.486-1.776-1.459-1.776-.984 0-1.476.592-1.476 1.776Z"/>
  </g>
  <defs>
    <clipPath id="a">
      <path fill="#fff" d="M77.5 11h145v26h-145z"/>
    </clipPath>
    <clipPath id="b">
      <path fill="#fff" d="M77.5 12h24v24h-24z"/>
    </clipPath>
  </defs>
</svg>
