<svg xmlns="http://www.w3.org/2000/svg" width="300" height="48" fill="none" viewBox="0 0 300 48">
  <rect width="300" height="48" fill="#2457F5" rx="8"/>
  <g clip-path="url(#a)">
    <g clip-path="url(#b)">
      <path fill="#fff" d="M85.7 23.8c.34 0 .625-.115.855-.345.23-.23.345-.515.345-.855 0-.34-.115-.625-.345-.855a1.161 1.161 0 0 0-.855-.345c-.34 0-.625.115-.855.345-.23.23-.345.515-.345.855 0 .34.115.625.345.855.23.23.515.345.855.345Zm4.8 0c.34 0 .625-.115.855-.345.23-.23.345-.515.345-.855 0-.34-.115-.625-.345-.855a1.161 1.161 0 0 0-.855-.345c-.34 0-.625.115-.855.345-.23.23-.345.515-.345.855 0 .34.115.625.345.855.23.23.515.345.855.345Zm4.8 0c.34 0 .625-.115.855-.345.23-.23.345-.515.345-.855 0-.34-.115-.625-.345-.855a1.161 1.161 0 0 0-.855-.345c-.34 0-.625.115-.855.345-.23.23-.345.515-.345.855 0 .34.115.625.345.855.23.23.515.345.855.345ZM78.5 34.09V15.4c0-.66.235-1.225.705-1.695A2.311 2.311 0 0 1 80.9 13h19.2c.66 0 1.225.235 1.695.705s.705 1.035.705 1.695v14.4c0 .66-.235 1.225-.705 1.695s-1.035.705-1.695.705H83.3l-2.76 2.76c-.38.38-.815.465-1.305.255-.49-.21-.735-.585-.735-1.125Z"/>
    </g>
    <path fill="#fff" d="M116.995 23.784h5.098v6.662a14.03 14.03 0 0 1-2.338.563c-.727.111-1.471.167-2.233.167-1.939 0-3.421-.569-4.447-1.705-1.019-1.143-1.529-2.78-1.529-4.913 0-2.075.592-3.692 1.775-4.852 1.19-1.16 2.836-1.74 4.94-1.74 1.318 0 2.59.264 3.814.79l-.905 2.18a6.468 6.468 0 0 0-2.927-.703c-1.178 0-2.121.396-2.83 1.187-.709.79-1.063 1.854-1.063 3.19 0 1.395.284 2.461.852 3.2.574.732 1.406 1.098 2.496 1.098.569 0 1.146-.058 1.732-.176v-2.68h-2.435v-2.268Zm12.024-.887c-.569 0-1.014.181-1.336.544-.323.358-.507.868-.554 1.53h3.762c-.012-.662-.185-1.172-.519-1.53-.334-.363-.785-.544-1.353-.544Zm.377 8.279c-1.582 0-2.818-.437-3.708-1.31-.891-.873-1.336-2.11-1.336-3.709 0-1.646.41-2.918 1.23-3.814.826-.903 1.966-1.354 3.419-1.354 1.389 0 2.47.396 3.243 1.187.774.79 1.16 1.884 1.16 3.278v1.3h-6.337c.03.763.255 1.357.677 1.785.422.428 1.014.642 1.776.642a7.37 7.37 0 0 0 1.678-.185 8.407 8.407 0 0 0 1.653-.589v2.074c-.469.235-.97.408-1.503.519-.534.117-1.184.176-1.952.176ZM144.654 31h-2.68v-5.74c0-.708-.126-1.239-.378-1.59-.252-.358-.654-.536-1.204-.536-.75 0-1.292.252-1.626.756-.334.498-.501 1.327-.501 2.487V31h-2.681v-9.826h2.048l.36 1.257h.15a2.806 2.806 0 0 1 1.23-1.073c.527-.246 1.125-.369 1.793-.369 1.143 0 2.01.31 2.602.932.591.615.887 1.506.887 2.672V31Zm6.829-8.104c-.568 0-1.013.182-1.336.545-.322.358-.506.868-.553 1.53h3.761c-.011-.662-.184-1.172-.518-1.53-.334-.363-.785-.544-1.354-.544Zm.378 8.28c-1.582 0-2.818-.437-3.709-1.31-.89-.873-1.336-2.11-1.336-3.709 0-1.646.411-2.918 1.231-3.814.826-.903 1.966-1.354 3.419-1.354 1.388 0 2.47.396 3.243 1.187.773.79 1.16 1.884 1.16 3.278v1.3h-6.337c.03.763.255 1.357.677 1.785.422.428 1.014.642 1.775.642.592 0 1.152-.062 1.679-.185a8.4 8.4 0 0 0 1.652-.589v2.074a6.136 6.136 0 0 1-1.503.519c-.533.117-1.183.176-1.951.176Zm11.672-10.187c.363 0 .665.027.905.08l-.202 2.513a3.064 3.064 0 0 0-.791-.088c-.855 0-1.523.22-2.004.66-.474.439-.712 1.054-.712 1.845V31h-2.68v-9.826h2.03l.396 1.652h.131c.305-.55.715-.993 1.231-1.327a3.046 3.046 0 0 1 1.696-.51Zm2.575-2.355c0-.873.487-1.31 1.459-1.31.973 0 1.459.437 1.459 1.31 0 .416-.123.741-.369.975-.24.229-.603.343-1.09.343-.972 0-1.459-.44-1.459-1.318ZM168.903 31h-2.68v-9.826h2.68V31Zm6.812.176c-3.059 0-4.588-1.679-4.588-5.036 0-1.67.416-2.945 1.248-3.824.832-.884 2.024-1.327 3.577-1.327 1.137 0 2.156.223 3.059.668l-.791 2.074c-.422-.17-.815-.307-1.178-.413a3.701 3.701 0 0 0-1.09-.167c-1.394 0-2.092.99-2.092 2.971 0 1.922.698 2.883 2.092 2.883.516 0 .993-.067 1.433-.202a5.3 5.3 0 0 0 1.318-.65v2.293a4.308 4.308 0 0 1-1.318.572c-.44.105-.996.158-1.67.158Zm17.745-3.744c0 1.16-.419 2.074-1.257 2.742-.832.668-1.992 1.002-3.48 1.002-1.371 0-2.584-.258-3.639-.774v-2.53c.867.386 1.6.658 2.197.817a6.573 6.573 0 0 0 1.653.237c.597 0 1.054-.114 1.371-.343.322-.228.483-.568.483-1.02 0-.252-.07-.474-.211-.668a2.258 2.258 0 0 0-.624-.57c-.269-.182-.823-.473-1.661-.87-.785-.37-1.374-.724-1.767-1.064a3.993 3.993 0 0 1-.94-1.187c-.234-.451-.352-.978-.352-1.582 0-1.137.384-2.03 1.152-2.68.773-.651 1.84-.976 3.199-.976.668 0 1.304.079 1.907.237.61.158 1.245.381 1.907.668l-.878 2.118c-.686-.281-1.254-.477-1.706-.589a5.415 5.415 0 0 0-1.318-.167c-.516 0-.911.12-1.186.36a1.19 1.19 0 0 0-.414.941c0 .24.056.451.167.633.112.176.288.349.528.518.246.165.823.463 1.731.897 1.201.574 2.025 1.151 2.47 1.732.445.574.668 1.28.668 2.118ZM201.229 31l-3.093-10.081h-.079c.111 2.05.167 3.419.167 4.104V31h-2.435V18.15h3.709l3.041 9.827h.053l3.225-9.827h3.709V31h-2.54v-6.082c0-.287.003-.618.009-.993.012-.375.053-1.371.123-2.989h-.079L203.726 31h-2.497Zm19.125-3.568c0 1.16-.418 2.074-1.256 2.742-.832.668-1.993 1.002-3.481 1.002-1.371 0-2.584-.258-3.638-.774v-2.53c.867.386 1.599.658 2.197.817a6.56 6.56 0 0 0 1.652.237c.598 0 1.055-.114 1.371-.343.322-.228.484-.568.484-1.02a1.11 1.11 0 0 0-.211-.668 2.287 2.287 0 0 0-.624-.57c-.27-.182-.824-.473-1.661-.87-.786-.37-1.375-.724-1.767-1.064a3.996 3.996 0 0 1-.941-1.187c-.234-.451-.351-.978-.351-1.582 0-1.137.384-2.03 1.151-2.68.774-.651 1.84-.976 3.2-.976a7.5 7.5 0 0 1 1.907.237c.609.158 1.245.381 1.907.668l-.879 2.118c-.685-.281-1.254-.477-1.705-.589a5.421 5.421 0 0 0-1.318-.167c-.516 0-.912.12-1.187.36a1.19 1.19 0 0 0-.413.941c0 .24.056.451.167.633.111.176.287.349.527.518.246.165.824.463 1.732.897 1.201.574 2.024 1.151 2.47 1.732.445.574.667 1.28.667 2.118Z"/>
  </g>
  <defs>
    <clipPath id="a">
      <path fill="#fff" d="M78.5 11h143v26h-143z"/>
    </clipPath>
    <clipPath id="b">
      <path fill="#fff" d="M78.5 12h24v24h-24z"/>
    </clipPath>
  </defs>
</svg>
