<svg xmlns="http://www.w3.org/2000/svg" width="300" height="48" fill="none" viewBox="0 0 300 48">
  <rect width="300" height="48" fill="#2457F5" rx="8"/>
  <path fill="#fff" d="M80.016 35.885a1.428 1.428 0 0 1-.847.086 1.423 1.423 0 0 1-.743-.397 1.423 1.423 0 0 1-.397-.743 1.428 1.428 0 0 1 .086-.847l9.402-21.154c.254-.553.68-.83 1.279-.83.6 0 1.025.277 1.279.83l9.402 21.154c.115.276.144.558.086.846a1.43 1.43 0 0 1-.397.744c-.208.207-.456.34-.744.397-.288.058-.57.029-.846-.086l-8.78-3.768-8.78 3.768Zm35.479-12.101h5.098v6.662a14.03 14.03 0 0 1-2.338.563c-.727.111-1.471.167-2.233.167-1.939 0-3.421-.569-4.447-1.705-1.019-1.143-1.529-2.78-1.529-4.913 0-2.075.592-3.692 1.775-4.852 1.19-1.16 2.836-1.74 4.94-1.74 1.318 0 2.59.264 3.814.79l-.905 2.18a6.468 6.468 0 0 0-2.927-.703c-1.178 0-2.121.396-2.83 1.187-.709.79-1.063 1.854-1.063 3.19 0 1.395.284 2.461.852 3.2.574.732 1.406 1.098 2.496 1.098.569 0 1.146-.058 1.732-.176v-2.68h-2.435v-2.268Zm12.024-.887c-.569 0-1.014.181-1.336.544-.323.358-.507.868-.554 1.53h3.762c-.012-.662-.185-1.172-.519-1.53-.334-.363-.785-.544-1.353-.544Zm.377 8.279c-1.582 0-2.818-.437-3.708-1.31-.891-.873-1.336-2.11-1.336-3.709 0-1.646.41-2.918 1.23-3.814.826-.903 1.966-1.354 3.419-1.354 1.389 0 2.47.396 3.243 1.187.774.79 1.16 1.884 1.16 3.278v1.3h-6.337c.03.763.255 1.357.677 1.785.422.428 1.014.642 1.776.642a7.37 7.37 0 0 0 1.678-.185 8.407 8.407 0 0 0 1.653-.589v2.074c-.469.235-.97.408-1.503.519-.534.117-1.184.176-1.952.176ZM143.154 31h-2.68v-5.74c0-.708-.126-1.239-.378-1.59-.252-.358-.654-.536-1.204-.536-.75 0-1.292.252-1.626.756-.334.498-.501 1.327-.501 2.487V31h-2.681v-9.826h2.048l.36 1.257h.15a2.806 2.806 0 0 1 1.23-1.073c.527-.246 1.125-.369 1.793-.369 1.143 0 2.01.31 2.602.932.591.615.887 1.506.887 2.672V31Zm6.829-8.104c-.568 0-1.013.182-1.336.545-.322.358-.506.868-.553 1.53h3.761c-.011-.662-.184-1.172-.518-1.53-.334-.363-.785-.544-1.354-.544Zm.378 8.28c-1.582 0-2.818-.437-3.709-1.31-.89-.873-1.336-2.11-1.336-3.709 0-1.646.411-2.918 1.231-3.814.826-.903 1.966-1.354 3.419-1.354 1.388 0 2.47.396 3.243 1.187.773.79 1.16 1.884 1.16 3.278v1.3h-6.337c.03.763.255 1.357.677 1.785.422.428 1.014.642 1.775.642.592 0 1.152-.062 1.679-.185a8.4 8.4 0 0 0 1.652-.589v2.074a6.136 6.136 0 0 1-1.503.519c-.533.117-1.183.176-1.951.176Zm11.672-10.187c.363 0 .665.027.905.08l-.202 2.513a3.064 3.064 0 0 0-.791-.088c-.855 0-1.523.22-2.004.66-.474.439-.712 1.054-.712 1.845V31h-2.68v-9.826h2.03l.396 1.652h.131c.305-.55.715-.993 1.231-1.327a3.046 3.046 0 0 1 1.696-.51Zm2.575-2.355c0-.873.487-1.31 1.459-1.31.973 0 1.459.437 1.459 1.31 0 .416-.123.741-.369.975-.24.229-.603.343-1.09.343-.972 0-1.459-.44-1.459-1.318ZM167.403 31h-2.68v-9.826h2.68V31Zm6.812.176c-3.059 0-4.588-1.679-4.588-5.036 0-1.67.416-2.945 1.248-3.824.832-.884 2.024-1.327 3.577-1.327 1.137 0 2.156.223 3.059.668l-.791 2.074c-.422-.17-.815-.307-1.178-.413a3.701 3.701 0 0 0-1.09-.167c-1.394 0-2.092.99-2.092 2.971 0 1.922.698 2.883 2.092 2.883.516 0 .993-.067 1.433-.202a5.3 5.3 0 0 0 1.318-.65v2.293a4.308 4.308 0 0 1-1.318.572c-.44.105-.996.158-1.67.158Zm15.6-.176-3.093-10.081h-.079c.111 2.05.167 3.419.167 4.104V31h-2.435V18.15h3.709l3.041 9.827h.053l3.225-9.827h3.709V31h-2.54v-6.082c0-.287.003-.618.009-.993.012-.375.053-1.371.123-2.989h-.079L192.312 31h-2.497Zm17.57 0-.519-1.336h-.07c-.451.568-.917.964-1.398 1.187-.474.216-1.095.325-1.863.325-.943 0-1.687-.27-2.232-.809-.539-.539-.809-1.306-.809-2.303 0-1.043.363-1.81 1.09-2.302.732-.498 1.834-.774 3.305-.826l1.705-.053v-.43c0-.997-.51-1.495-1.53-1.495-.785 0-1.708.237-2.768.712l-.888-1.81c1.131-.592 2.385-.888 3.762-.888 1.318 0 2.329.287 3.032.861.703.574 1.055 1.447 1.055 2.62V31h-1.872Zm-.791-4.553-1.037.035c-.78.024-1.36.165-1.741.422-.38.258-.571.65-.571 1.178 0 .756.434 1.134 1.301 1.134.621 0 1.116-.179 1.485-.536.375-.358.563-.832.563-1.424v-.809Zm10.828 4.729c-1.154 0-2.06-.42-2.716-1.257h-.141c.094.82.141 1.295.141 1.424v3.981h-2.681v-14.15h2.18l.378 1.274h.123c.627-.972 1.556-1.459 2.786-1.459 1.16 0 2.069.448 2.725 1.345.656.896.984 2.142.984 3.735 0 1.05-.155 1.96-.466 2.734-.304.773-.741 1.362-1.309 1.766-.569.405-1.237.607-2.004.607Zm-.791-8.042c-.662 0-1.146.205-1.45.615-.305.404-.463 1.075-.475 2.013v.29c0 1.054.155 1.81.466 2.267.316.457.814.686 1.494.686 1.201 0 1.802-.99 1.802-2.97 0-.968-.15-1.691-.448-2.172-.293-.486-.756-.73-1.389-.73Z"/>
</svg>
