<svg xmlns="http://www.w3.org/2000/svg" width="300" height="48" fill="none" viewBox="0 0 300 48">
  <rect width="300" height="48" fill="#2457F5" rx="8"/>
  <g clip-path="url(#a)">
    <path fill="#fff" d="M84 36c-1.64 0-3.19-.315-4.65-.945a12.172 12.172 0 0 1-3.825-2.58 12.172 12.172 0 0 1-2.58-3.825C72.315 27.19 72 25.64 72 24c0-1.66.315-3.215.945-4.665a12.22 12.22 0 0 1 2.58-3.81 12.172 12.172 0 0 1 3.825-2.58C80.81 12.315 82.36 12 84 12c1.66 0 3.215.315 4.665.945 1.45.63 2.72 1.49 3.81 2.58a12.22 12.22 0 0 1 2.58 3.81c.63 1.45.945 3.005.945 4.665v1.74c0 1.18-.405 2.185-1.215 3.015-.81.83-1.805 1.245-2.985 1.245-.72 0-1.39-.16-2.01-.48-.62-.32-1.13-.74-1.53-1.26-.54.54-1.175.965-1.905 1.275-.73.31-1.515.465-2.355.465-1.66 0-3.075-.585-4.245-1.755S78 25.66 78 24c0-1.66.585-3.075 1.755-4.245S82.34 18 84 18c1.66 0 3.075.585 4.245 1.755S90 22.34 90 24v1.74c0 .58.18 1.035.54 1.365.36.33.78.495 1.26.495s.9-.165 1.26-.495c.36-.33.54-.785.54-1.365V24c0-2.62-.945-4.875-2.835-6.765C88.875 15.345 86.62 14.4 84 14.4s-4.875.945-6.765 2.835C75.345 19.125 74.4 21.38 74.4 24s.945 4.875 2.835 6.765C79.125 32.655 81.38 33.6 84 33.6h4.8c.34 0 .625.115.855.345.23.23.345.515.345.855 0 .34-.115.625-.345.855-.23.23-.515.345-.855.345H84Zm0-8.4c1 0 1.85-.35 2.55-1.05.7-.7 1.05-1.55 1.05-2.55 0-1-.35-1.85-1.05-2.55-.7-.7-1.55-1.05-2.55-1.05-1 0-1.85.35-2.55 1.05-.7.7-1.05 1.55-1.05 2.55 0 1 .35 1.85 1.05 2.55.7.7 1.55 1.05 2.55 1.05Z"/>
  </g>
  <path fill="#fff" d="M110.495 23.784h5.098v6.662a14.03 14.03 0 0 1-2.338.563c-.727.111-1.471.167-2.233.167-1.939 0-3.421-.569-4.447-1.705-1.019-1.143-1.529-2.78-1.529-4.913 0-2.075.592-3.692 1.775-4.852 1.19-1.16 2.836-1.74 4.94-1.74 1.318 0 2.59.264 3.814.79l-.905 2.18a6.468 6.468 0 0 0-2.927-.703c-1.178 0-2.121.396-2.83 1.187-.709.79-1.063 1.854-1.063 3.19 0 1.395.284 2.461.852 3.2.574.732 1.406 1.098 2.496 1.098.569 0 1.146-.058 1.732-.176v-2.68h-2.435v-2.268Zm12.024-.887c-.569 0-1.014.181-1.336.544-.323.358-.507.868-.554 1.53h3.762c-.012-.662-.185-1.172-.519-1.53-.334-.363-.785-.544-1.353-.544Zm.377 8.279c-1.582 0-2.818-.437-3.708-1.31-.891-.873-1.336-2.11-1.336-3.709 0-1.646.41-2.918 1.23-3.814.826-.903 1.966-1.354 3.419-1.354 1.389 0 2.47.396 3.243 1.187.774.79 1.16 1.884 1.16 3.278v1.3h-6.337c.03.763.255 1.357.677 1.785.422.428 1.014.642 1.776.642a7.37 7.37 0 0 0 1.678-.185 8.407 8.407 0 0 0 1.653-.589v2.074c-.469.235-.97.408-1.503.519-.534.117-1.184.176-1.952.176ZM138.154 31h-2.68v-5.74c0-.708-.126-1.239-.378-1.59-.252-.358-.654-.536-1.204-.536-.75 0-1.292.252-1.626.756-.334.498-.501 1.327-.501 2.487V31h-2.681v-9.826h2.048l.36 1.257h.15a2.806 2.806 0 0 1 1.23-1.073c.527-.246 1.125-.369 1.793-.369 1.143 0 2.01.31 2.602.932.591.615.887 1.506.887 2.672V31Zm6.829-8.104c-.568 0-1.013.182-1.336.545-.322.358-.506.868-.553 1.53h3.761c-.011-.662-.184-1.172-.518-1.53-.334-.363-.785-.544-1.354-.544Zm.378 8.28c-1.582 0-2.818-.437-3.709-1.31-.89-.873-1.336-2.11-1.336-3.709 0-1.646.411-2.918 1.231-3.814.826-.903 1.966-1.354 3.419-1.354 1.388 0 2.47.396 3.243 1.187.773.79 1.16 1.884 1.16 3.278v1.3h-6.337c.03.763.255 1.357.677 1.785.422.428 1.014.642 1.775.642.592 0 1.152-.062 1.679-.185a8.4 8.4 0 0 0 1.652-.589v2.074a6.136 6.136 0 0 1-1.503.519c-.533.117-1.183.176-1.951.176Zm11.672-10.187c.363 0 .665.027.905.08l-.202 2.513a3.064 3.064 0 0 0-.791-.088c-.855 0-1.523.22-2.004.66-.474.439-.712 1.054-.712 1.845V31h-2.68v-9.826h2.03l.396 1.652h.131c.305-.55.715-.993 1.231-1.327a3.046 3.046 0 0 1 1.696-.51Zm2.575-2.355c0-.873.487-1.31 1.459-1.31.973 0 1.459.437 1.459 1.31 0 .416-.123.741-.369.975-.24.229-.603.343-1.09.343-.972 0-1.459-.44-1.459-1.318ZM162.403 31h-2.68v-9.826h2.68V31Zm6.812.176c-3.059 0-4.588-1.679-4.588-5.036 0-1.67.416-2.945 1.248-3.824.832-.884 2.024-1.327 3.577-1.327 1.137 0 2.156.223 3.059.668l-.791 2.074c-.422-.17-.815-.307-1.178-.413a3.701 3.701 0 0 0-1.09-.167c-1.394 0-2.092.99-2.092 2.971 0 1.922.698 2.883 2.092 2.883.516 0 .993-.067 1.433-.202a5.3 5.3 0 0 0 1.318-.65v2.293a4.308 4.308 0 0 1-1.318.572c-.44.105-.996.158-1.67.158Zm17.56-.176h-7.4V18.15h7.4v2.233H182.1v2.821h4.35v2.232h-4.35v3.314h4.675V31Zm11.277 0h-2.681v-5.74c0-.708-.12-1.239-.36-1.59-.235-.358-.607-.536-1.116-.536-.686 0-1.184.252-1.495.756-.31.504-.465 1.333-.465 2.487V31h-2.681v-9.826h2.048l.36 1.257h.15a2.69 2.69 0 0 1 1.142-1.055c.498-.258 1.069-.387 1.714-.387 1.471 0 2.467.48 2.988 1.442h.238c.263-.457.65-.812 1.16-1.064.515-.252 1.095-.378 1.74-.378 1.113 0 1.954.287 2.522.862.575.568.862 1.482.862 2.742V31h-2.69v-5.74c0-.708-.12-1.239-.36-1.59-.234-.358-.607-.536-1.116-.536-.657 0-1.149.234-1.477.703-.322.469-.483 1.213-.483 2.232V31Zm15.126 0-.519-1.336h-.07c-.451.568-.917.964-1.398 1.187-.474.216-1.095.325-1.863.325-.943 0-1.687-.27-2.232-.809-.539-.539-.809-1.306-.809-2.303 0-1.043.363-1.81 1.09-2.302.732-.498 1.834-.774 3.305-.826l1.705-.053v-.43c0-.997-.51-1.495-1.53-1.495-.785 0-1.708.237-2.768.712l-.888-1.81c1.131-.592 2.385-.888 3.762-.888 1.318 0 2.329.287 3.032.861.703.574 1.055 1.447 1.055 2.62V31h-1.872Zm-.791-4.553-1.037.035c-.78.024-1.36.165-1.741.422-.38.258-.571.65-.571 1.178 0 .756.434 1.134 1.301 1.134.621 0 1.116-.179 1.485-.536.375-.358.563-.832.563-1.424v-.809Zm5.317-7.813c0-.873.486-1.31 1.459-1.31.973 0 1.459.437 1.459 1.31 0 .416-.123.741-.369.975-.24.229-.604.343-1.09.343-.973 0-1.459-.44-1.459-1.318ZM220.499 31h-2.681v-9.826h2.681V31Zm5.502 0h-2.681V17.324h2.681V31Z"/>
  <defs>
    <clipPath id="a">
      <path fill="#fff" d="M72 12h24v24H72z"/>
    </clipPath>
  </defs>
</svg>
