<svg xmlns="http://www.w3.org/2000/svg" width="300" height="48" fill="none" viewBox="0 0 300 48">
  <rect width="300" height="48" fill="#2457F5" rx="8"/>
  <g clip-path="url(#a)">
    <path fill="#fff" d="M40.786 36a2.201 2.201 0 0 1-1.615-.671 2.201 2.201 0 0 1-.671-1.615V20a2.2 2.2 0 0 1 .671-1.614 2.201 2.201 0 0 1 1.615-.672h2.285c0-1.58.558-2.928 1.672-4.043C45.857 12.557 47.205 12 48.786 12c1.58 0 2.928.557 4.043 1.671 1.114 1.115 1.671 2.462 1.671 4.043h2.286a2.2 2.2 0 0 1 1.614.672c.448.447.671.985.671 1.614v13.714a2.2 2.2 0 0 1-.671 1.615 2.201 2.201 0 0 1-1.614.671h-16Zm8-9.143c1.58 0 2.928-.557 4.043-1.671 1.114-1.115 1.671-2.462 1.671-4.043h-2.286c0 .952-.333 1.762-1 2.428-.666.667-1.476 1-2.428 1-.953 0-1.762-.333-2.429-1-.666-.666-1-1.476-1-2.428h-2.286c0 1.58.558 2.928 1.672 4.043 1.114 1.114 2.462 1.671 4.043 1.671Zm-3.429-9.143h6.857c0-.952-.333-1.762-1-2.428-.666-.667-1.476-1-2.428-1-.953 0-1.762.333-2.429 1-.666.666-1 1.476-1 2.428Zm29.638 6.07h5.098v6.662a14.02 14.02 0 0 1-2.338.563c-.727.111-1.47.167-2.233.167-1.939 0-3.421-.569-4.447-1.705-1.02-1.143-1.53-2.78-1.53-4.913 0-2.075.593-3.692 1.776-4.852 1.19-1.16 2.836-1.74 4.94-1.74a9.55 9.55 0 0 1 3.814.79l-.905 2.18a6.466 6.466 0 0 0-2.927-.703c-1.178 0-2.12.396-2.83 1.187-.709.79-1.063 1.854-1.063 3.19 0 1.395.284 2.461.852 3.2.574.732 1.406 1.098 2.496 1.098.569 0 1.146-.058 1.732-.176v-2.68h-2.435v-2.268Zm12.024-.887c-.569 0-1.014.181-1.336.544-.323.358-.507.868-.554 1.53h3.762c-.012-.662-.185-1.172-.519-1.53-.334-.363-.785-.544-1.353-.544Zm.377 8.279c-1.582 0-2.818-.437-3.709-1.31-.89-.873-1.335-2.11-1.335-3.709 0-1.646.41-2.918 1.23-3.814.826-.903 1.966-1.354 3.419-1.354 1.389 0 2.47.396 3.243 1.187.774.79 1.16 1.884 1.16 3.278v1.3h-6.337c.03.763.255 1.357.677 1.785.422.428 1.014.642 1.775.642.592 0 1.152-.062 1.68-.185a8.398 8.398 0 0 0 1.652-.589v2.074c-.47.235-.97.408-1.503.519-.534.117-1.184.176-1.951.176ZM102.654 31h-2.68v-5.74c0-.708-.126-1.239-.378-1.59-.252-.358-.654-.536-1.204-.536-.75 0-1.292.252-1.626.756-.334.498-.501 1.327-.501 2.487V31h-2.681v-9.826h2.048l.36 1.257h.15a2.81 2.81 0 0 1 1.23-1.073c.527-.246 1.125-.369 1.793-.369 1.143 0 2.01.31 2.602.932.591.615.887 1.506.887 2.672V31Zm6.829-8.104c-.568 0-1.013.182-1.336.545-.322.358-.506.868-.553 1.53h3.761c-.011-.662-.184-1.172-.518-1.53-.334-.363-.785-.544-1.354-.544Zm.378 8.28c-1.582 0-2.818-.437-3.709-1.31-.89-.873-1.336-2.11-1.336-3.709 0-1.646.411-2.918 1.231-3.814.826-.903 1.966-1.354 3.419-1.354 1.388 0 2.47.396 3.243 1.187.773.79 1.16 1.884 1.16 3.278v1.3h-6.337c.03.763.255 1.357.677 1.785.422.428 1.014.642 1.775.642.592 0 1.152-.062 1.679-.185a8.4 8.4 0 0 0 1.652-.589v2.074a6.136 6.136 0 0 1-1.503.519c-.533.117-1.183.176-1.951.176Zm11.672-10.187c.363 0 .665.027.905.08l-.202 2.513a3.064 3.064 0 0 0-.791-.088c-.855 0-1.523.22-2.004.66-.474.439-.712 1.054-.712 1.845V31h-2.68v-9.826h2.03l.396 1.652h.131c.305-.55.715-.993 1.231-1.327a3.046 3.046 0 0 1 1.696-.51Zm2.575-2.355c0-.873.487-1.31 1.459-1.31.973 0 1.459.437 1.459 1.31 0 .416-.123.741-.369.975-.24.229-.603.343-1.09.343-.972 0-1.459-.44-1.459-1.318ZM126.903 31h-2.68v-9.826h2.68V31Zm6.812.176c-3.059 0-4.588-1.679-4.588-5.036 0-1.67.416-2.945 1.248-3.824.832-.884 2.024-1.327 3.577-1.327 1.137 0 2.156.223 3.059.668l-.791 2.074c-.422-.17-.815-.307-1.178-.413a3.701 3.701 0 0 0-1.09-.167c-1.394 0-2.092.99-2.092 2.971 0 1.922.698 2.883 2.092 2.883.516 0 .993-.067 1.433-.202a5.3 5.3 0 0 0 1.318-.65v2.293a4.308 4.308 0 0 1-1.318.572c-.44.105-.996.158-1.67.158Zm17.745-3.744c0 1.16-.419 2.074-1.257 2.742-.832.668-1.992 1.002-3.48 1.002-1.371 0-2.584-.258-3.639-.774v-2.53c.867.386 1.6.658 2.197.817a6.573 6.573 0 0 0 1.653.237c.597 0 1.054-.114 1.371-.343.322-.228.483-.568.483-1.02 0-.252-.07-.474-.211-.668a2.258 2.258 0 0 0-.624-.57c-.269-.182-.823-.473-1.661-.87-.785-.37-1.374-.724-1.767-1.064a3.993 3.993 0 0 1-.94-1.187c-.234-.451-.352-.978-.352-1.582 0-1.137.384-2.03 1.152-2.68.773-.651 1.84-.976 3.199-.976.668 0 1.304.079 1.907.237.61.158 1.245.381 1.907.668l-.878 2.118c-.686-.281-1.254-.477-1.706-.589a5.415 5.415 0 0 0-1.318-.167c-.516 0-.911.12-1.186.36a1.19 1.19 0 0 0-.414.941c0 .24.056.451.167.633.112.176.288.349.528.518.246.165.823.463 1.731.897 1.201.574 2.025 1.151 2.47 1.732.445.574.668 1.28.668 2.118ZM162.648 31h-2.68v-5.74c0-1.417-.528-2.126-1.582-2.126-.75 0-1.292.255-1.626.764-.334.51-.501 1.336-.501 2.479V31h-2.681V17.324h2.681v2.786c0 .217-.021.727-.062 1.53l-.061.79h.14c.598-.96 1.547-1.44 2.848-1.44 1.154 0 2.03.31 2.628.93.598.622.896 1.513.896 2.673V31Zm4.896-4.93c0 .972.158 1.707.475 2.205.322.498.843.748 1.564.748.715 0 1.228-.247 1.538-.739.317-.498.475-1.236.475-2.215 0-.972-.158-1.702-.475-2.188-.316-.486-.835-.73-1.556-.73-.714 0-1.23.244-1.546.73-.317.48-.475 1.21-.475 2.188Zm6.794 0c0 1.599-.422 2.85-1.266 3.752-.843.903-2.018 1.354-3.524 1.354-.944 0-1.776-.205-2.496-.615a4.144 4.144 0 0 1-1.661-1.785c-.387-.773-.58-1.675-.58-2.707 0-1.605.418-2.853 1.256-3.744.838-.89 2.016-1.336 3.534-1.336.943 0 1.775.205 2.496.616.72.41 1.274.998 1.661 1.766s.58 1.667.58 2.698Zm7.611 5.106c-1.154 0-2.059-.42-2.716-1.257h-.14c.094.82.14 1.295.14 1.424v3.981h-2.68v-14.15h2.179l.378 1.274h.123c.627-.972 1.556-1.459 2.787-1.459 1.16 0 2.068.448 2.724 1.345.656.896.985 2.142.985 3.735 0 1.05-.156 1.96-.466 2.734-.305.773-.742 1.362-1.31 1.766-.568.405-1.236.607-2.004.607Zm-.791-8.042c-.662 0-1.145.205-1.45.615-.305.404-.463 1.075-.475 2.013v.29c0 1.054.156 1.81.466 2.267.317.457.815.686 1.494.686 1.202 0 1.802-.99 1.802-2.97 0-.968-.149-1.691-.448-2.172-.293-.486-.756-.73-1.389-.73Zm12.182 8.042c-1.154 0-2.06-.42-2.716-1.257h-.141c.094.82.141 1.295.141 1.424v3.981h-2.681v-14.15h2.18l.378 1.274h.123c.627-.972 1.556-1.459 2.786-1.459 1.16 0 2.069.448 2.725 1.345.656.896.984 2.142.984 3.735 0 1.05-.155 1.96-.466 2.734-.304.773-.741 1.362-1.309 1.766-.569.405-1.237.607-2.004.607Zm-.791-8.042c-.662 0-1.146.205-1.45.615-.305.404-.463 1.075-.475 2.013v.29c0 1.054.155 1.81.466 2.267.316.457.814.686 1.494.686 1.201 0 1.802-.99 1.802-2.97 0-.968-.15-1.691-.448-2.172-.293-.486-.756-.73-1.389-.73Zm6.671-4.5c0-.873.486-1.31 1.459-1.31.972 0 1.459.437 1.459 1.31 0 .416-.123.741-.369.975-.241.229-.604.343-1.09.343-.973 0-1.459-.44-1.459-1.318ZM202.015 31h-2.681v-9.826h2.681V31Zm11.891 0h-2.68v-5.74c0-.708-.126-1.239-.378-1.59-.252-.358-.654-.536-1.204-.536-.75 0-1.292.252-1.626.756-.334.498-.501 1.327-.501 2.487V31h-2.681v-9.826h2.048l.36 1.257h.15a2.806 2.806 0 0 1 1.23-1.073c.527-.246 1.125-.369 1.793-.369 1.143 0 2.01.31 2.602.932.591.615.887 1.506.887 2.672V31Zm11.312-9.826v1.362l-1.538.396c.281.44.422.931.422 1.476 0 1.055-.37 1.878-1.108 2.47-.732.586-1.752.879-3.058.879l-.484-.027-.395-.044c-.276.212-.413.446-.413.704 0 .386.492.58 1.476.58h1.67c1.078 0 1.898.231 2.461.694.568.463.853 1.143.853 2.04 0 1.148-.481 2.038-1.442 2.671-.955.633-2.329.95-4.122.95-1.371 0-2.42-.241-3.146-.722-.721-.474-1.082-1.142-1.082-2.003 0-.592.185-1.087.554-1.486.369-.398.911-.682 1.626-.852a1.817 1.817 0 0 1-.721-.572 1.386 1.386 0 0 1-.307-.852c0-.375.108-.686.325-.932.217-.252.53-.498.94-.738a2.666 2.666 0 0 1-1.23-1.072c-.299-.492-.448-1.073-.448-1.74 0-1.073.348-1.902 1.046-2.488.697-.586 1.693-.879 2.988-.879.275 0 .601.027.976.08.38.046.624.081.729.105h3.428Zm-7.585 11.215c0 .369.176.659.527.87.358.21.856.316 1.494.316.961 0 1.714-.132 2.259-.395.545-.264.817-.624.817-1.081 0-.37-.161-.624-.483-.765-.322-.14-.82-.211-1.494-.211h-1.389c-.492 0-.905.114-1.239.343-.328.234-.492.542-.492.923Zm.975-7.998c0 .533.121.955.361 1.265.246.31.618.466 1.116.466.504 0 .873-.155 1.107-.466.235-.31.352-.732.352-1.265 0-1.184-.486-1.776-1.459-1.776-.984 0-1.477.592-1.477 1.776Zm13.122-6.24h3.999c1.823 0 3.144.26 3.964.782.827.515 1.24 1.338 1.24 2.47 0 .767-.182 1.397-.545 1.889a2.145 2.145 0 0 1-1.433.888v.088c.815.181 1.4.521 1.758 1.02.363.497.545 1.16.545 1.985 0 1.172-.425 2.086-1.275 2.743-.843.656-1.992.984-3.445.984h-4.808V18.15Zm2.725 5.088h1.582c.738 0 1.272-.114 1.6-.343.334-.228.501-.606.501-1.133 0-.493-.182-.844-.545-1.055-.358-.217-.926-.325-1.705-.325h-1.433v2.856Zm0 2.162v3.349h1.775c.75 0 1.304-.144 1.662-.43.357-.288.536-.727.536-1.319 0-1.066-.762-1.6-2.285-1.6h-1.688ZM249.854 31l-.519-1.336h-.07c-.452.568-.917.964-1.398 1.187-.474.216-1.096.325-1.863.325-.943 0-1.688-.27-2.233-.809-.539-.539-.808-1.306-.808-2.303 0-1.043.363-1.81 1.09-2.302.732-.498 1.834-.774 3.304-.826l1.705-.053v-.43c0-.997-.509-1.495-1.529-1.495-.785 0-1.708.237-2.768.712l-.888-1.81c1.131-.592 2.385-.888 3.762-.888 1.318 0 2.329.287 3.032.861.703.574 1.055 1.447 1.055 2.62V31h-1.872Zm-.792-4.553-1.037.035c-.779.024-1.359.165-1.74.422-.381.258-.571.65-.571 1.178 0 .756.433 1.134 1.301 1.134.621 0 1.116-.179 1.485-.536.375-.358.562-.832.562-1.424v-.809Zm13.984-5.273v1.362l-1.538.396c.281.44.422.931.422 1.476 0 1.055-.369 1.878-1.108 2.47-.732.586-1.752.879-3.058.879l-.484-.027-.395-.044c-.276.212-.413.446-.413.704 0 .386.492.58 1.476.58h1.67c1.078 0 1.899.231 2.461.694.568.463.853 1.143.853 2.04 0 1.148-.481 2.038-1.442 2.671-.955.633-2.329.95-4.122.95-1.371 0-2.42-.241-3.146-.722-.721-.474-1.081-1.142-1.081-2.003 0-.592.184-1.087.553-1.486.369-.398.911-.682 1.626-.852a1.807 1.807 0 0 1-.72-.572 1.387 1.387 0 0 1-.308-.852c0-.375.108-.686.325-.932.217-.252.53-.498.941-.738a2.663 2.663 0 0 1-1.231-1.072c-.299-.492-.448-1.073-.448-1.74 0-1.073.349-1.902 1.046-2.488.697-.586 1.693-.879 2.988-.879.275 0 .601.027.976.08.381.046.624.081.729.105h3.428Zm-7.585 11.215c0 .369.176.659.527.87.358.21.856.316 1.494.316.961 0 1.714-.132 2.259-.395.545-.264.818-.624.818-1.081 0-.37-.162-.624-.484-.765-.322-.14-.82-.211-1.494-.211h-1.389c-.492 0-.905.114-1.239.343-.328.234-.492.542-.492.923Zm.976-7.998c0 .533.12.955.36 1.265.246.31.618.466 1.116.466.504 0 .873-.155 1.108-.466.234-.31.351-.732.351-1.265 0-1.184-.486-1.776-1.459-1.776-.984 0-1.476.592-1.476 1.776Z"/>
  </g>
  <defs>
    <clipPath id="a">
      <path fill="#fff" d="M36.5 11h227v26h-227z"/>
    </clipPath>
  </defs>
</svg>
