<svg xmlns="http://www.w3.org/2000/svg" width="300" height="48" fill="none" viewBox="0 0 300 48">
  <rect width="300" height="48" fill="#2457F5" rx="8"/>
  <g clip-path="url(#a)">
    <g clip-path="url(#b)">
      <path fill="#fff" d="M74.7 27.4h7.8c.34 0 .625-.115.855-.345.23-.23.345-.515.345-.855 0-.34-.115-.625-.345-.855A1.161 1.161 0 0 0 82.5 25h-5.4l-2.4 2.4Zm-4.8 0h1.86c.16 0 .31-.03.45-.09s.27-.15.39-.27l6.72-6.66a.61.61 0 0 0 .18-.45.61.61 0 0 0-.18-.45l-2.1-2.1a.61.61 0 0 0-.45-.18.61.61 0 0 0-.45.18l-6.66 6.72c-.12.12-.21.25-.27.39-.06.14-.09.29-.09.45v1.86c0 .16.06.3.18.42s.26.18.42.18Zm-5.4 6.69V15.4c0-.66.235-1.225.705-1.695A2.311 2.311 0 0 1 66.9 13h19.2c.66 0 1.225.235 1.695.705s.705 1.035.705 1.695v14.4c0 .66-.235 1.225-.705 1.695s-1.035.705-1.695.705H69.3l-2.76 2.76c-.38.38-.815.465-1.305.255-.49-.21-.735-.585-.735-1.125Z"/>
    </g>
    <path fill="#fff" d="M102.995 23.784h5.098v6.662a14.03 14.03 0 0 1-2.338.563c-.727.111-1.471.167-2.233.167-1.939 0-3.421-.569-4.447-1.705-1.02-1.143-1.53-2.78-1.53-4.913 0-2.075.593-3.692 1.776-4.852 1.19-1.16 2.836-1.74 4.94-1.74 1.318 0 2.59.264 3.814.79l-.905 2.18a6.468 6.468 0 0 0-2.927-.703c-1.178 0-2.121.396-2.83 1.187-.709.79-1.063 1.854-1.063 3.19 0 1.395.284 2.461.852 3.2.574.732 1.406 1.098 2.496 1.098.569 0 1.146-.058 1.732-.176v-2.68h-2.435v-2.268Zm12.024-.887c-.569 0-1.014.181-1.336.544-.323.358-.507.868-.554 1.53h3.762c-.012-.662-.185-1.172-.519-1.53-.334-.363-.785-.544-1.353-.544Zm.377 8.279c-1.582 0-2.818-.437-3.708-1.31-.891-.873-1.336-2.11-1.336-3.709 0-1.646.41-2.918 1.23-3.814.826-.903 1.966-1.354 3.419-1.354 1.389 0 2.47.396 3.243 1.187.774.79 1.16 1.884 1.16 3.278v1.3h-6.337c.03.763.255 1.357.677 1.785.422.428 1.014.642 1.776.642a7.37 7.37 0 0 0 1.678-.185 8.407 8.407 0 0 0 1.653-.589v2.074c-.469.235-.97.408-1.503.519-.534.117-1.184.176-1.952.176ZM130.654 31h-2.68v-5.74c0-.708-.126-1.239-.378-1.59-.252-.358-.654-.536-1.204-.536-.75 0-1.292.252-1.626.756-.334.498-.501 1.327-.501 2.487V31h-2.681v-9.826h2.048l.36 1.257h.15a2.806 2.806 0 0 1 1.23-1.073c.527-.246 1.125-.369 1.793-.369 1.143 0 2.01.31 2.602.932.591.615.887 1.506.887 2.672V31Zm6.829-8.104c-.568 0-1.013.182-1.336.545-.322.358-.506.868-.553 1.53h3.761c-.011-.662-.184-1.172-.518-1.53-.334-.363-.785-.544-1.354-.544Zm.378 8.28c-1.582 0-2.818-.437-3.709-1.31-.89-.873-1.336-2.11-1.336-3.709 0-1.646.411-2.918 1.231-3.814.826-.903 1.966-1.354 3.419-1.354 1.388 0 2.47.396 3.243 1.187.773.79 1.16 1.884 1.16 3.278v1.3h-6.337c.03.763.255 1.357.677 1.785.422.428 1.014.642 1.775.642.592 0 1.152-.062 1.679-.185a8.4 8.4 0 0 0 1.652-.589v2.074a6.136 6.136 0 0 1-1.503.519c-.533.117-1.183.176-1.951.176Zm11.672-10.187c.363 0 .665.027.905.08l-.202 2.513a3.064 3.064 0 0 0-.791-.088c-.855 0-1.523.22-2.004.66-.474.439-.712 1.054-.712 1.845V31h-2.68v-9.826h2.03l.396 1.652h.131c.305-.55.715-.993 1.231-1.327a3.046 3.046 0 0 1 1.696-.51Zm2.575-2.355c0-.873.487-1.31 1.459-1.31.973 0 1.459.437 1.459 1.31 0 .416-.123.741-.369.975-.24.229-.603.343-1.09.343-.972 0-1.459-.44-1.459-1.318ZM154.903 31h-2.68v-9.826h2.68V31Zm6.812.176c-3.059 0-4.588-1.679-4.588-5.036 0-1.67.416-2.945 1.248-3.824.832-.884 2.024-1.327 3.577-1.327 1.137 0 2.156.223 3.059.668l-.791 2.074c-.422-.17-.815-.307-1.178-.413a3.701 3.701 0 0 0-1.09-.167c-1.394 0-2.092.99-2.092 2.971 0 1.922.698 2.883 2.092 2.883.516 0 .993-.067 1.433-.202a5.3 5.3 0 0 0 1.318-.65v2.293a4.308 4.308 0 0 1-1.318.572c-.44.105-.996.158-1.67.158Zm12.885-7.321h.879c.861 0 1.497-.144 1.907-.431.41-.287.615-.738.615-1.354 0-.61-.211-1.043-.633-1.3-.416-.258-1.063-.387-1.942-.387h-.826v3.472Zm0 2.214V31h-2.725V18.15h3.744c1.746 0 3.038.32 3.876.958.838.633 1.257 1.597 1.257 2.892a3.43 3.43 0 0 1-.624 2.021c-.416.586-1.005 1.046-1.767 1.38a521.606 521.606 0 0 0 3.78 5.599h-3.024l-3.067-4.93h-1.45Zm13.016-3.172c-.568 0-1.013.181-1.336.544-.322.358-.507.868-.553 1.53h3.761c-.011-.662-.184-1.172-.518-1.53-.334-.363-.785-.544-1.354-.544Zm.378 8.279c-1.582 0-2.818-.437-3.709-1.31-.89-.873-1.336-2.11-1.336-3.709 0-1.646.41-2.918 1.231-3.814.826-.903 1.966-1.354 3.419-1.354 1.388 0 2.469.396 3.243 1.187.773.79 1.16 1.884 1.16 3.278v1.3h-6.337c.029.763.255 1.357.677 1.785.422.428 1.013.642 1.775.642.592 0 1.152-.062 1.679-.185a8.4 8.4 0 0 0 1.652-.589v2.074a6.15 6.15 0 0 1-1.503.519c-.533.117-1.183.176-1.951.176ZM196.52 31l-3.745-9.826h2.804l1.899 5.599c.21.708.342 1.38.395 2.012h.053c.029-.562.161-1.233.395-2.012l1.89-5.6h2.804L199.271 31h-2.751Zm7.795-12.366c0-.873.487-1.31 1.459-1.31.973 0 1.459.437 1.459 1.31 0 .416-.123.741-.369.975-.24.229-.603.343-1.09.343-.972 0-1.459-.44-1.459-1.318ZM207.11 31h-2.68v-9.826h2.68V31Zm6.891-8.104c-.568 0-1.014.182-1.336.545-.322.358-.507.868-.554 1.53h3.762c-.012-.662-.185-1.172-.519-1.53-.333-.363-.785-.544-1.353-.544Zm.378 8.28c-1.582 0-2.818-.437-3.709-1.31s-1.336-2.11-1.336-3.709c0-1.646.41-2.918 1.23-3.814.827-.903 1.966-1.354 3.419-1.354 1.389 0 2.47.396 3.244 1.187.773.79 1.16 1.884 1.16 3.278v1.3h-6.337c.029.763.255 1.357.677 1.785.421.428 1.013.642 1.775.642.592 0 1.151-.062 1.679-.185a8.4 8.4 0 0 0 1.652-.589v2.074c-.469.235-.97.408-1.503.519-.533.117-1.184.176-1.951.176ZM228.644 31l-.756-3.436-1.02-4.342h-.061L225.014 31h-2.883l-2.795-9.826h2.672l1.134 4.35c.181.78.366 1.855.553 3.226h.053c.023-.445.126-1.151.308-2.118l.14-.747 1.213-4.711h2.953l1.152 4.71.105.572c.053.252.103.521.15.809.046.28.087.56.123.835.041.27.064.486.07.65h.053c.052-.422.146-.999.281-1.731.135-.739.231-1.237.29-1.495l1.178-4.35h2.628L231.562 31h-2.918Z"/>
  </g>
  <defs>
    <clipPath id="a">
      <path fill="#fff" d="M64.5 11h171v26h-171z"/>
    </clipPath>
    <clipPath id="b">
      <path fill="#fff" d="M64.5 12h24v24h-24z"/>
    </clipPath>
  </defs>
</svg>
