<svg xmlns="http://www.w3.org/2000/svg" width="300" height="48" fill="none" viewBox="0 0 300 48">
  <rect width="300" height="48" fill="#2457F5" rx="8"/>
  <path fill="#fff" d="M55.273 30.364c-.6 0-1.114-.214-1.541-.641a2.1 2.1 0 0 1-.641-1.54v-12c0-.6.213-1.115.64-1.542.428-.427.942-.64 1.542-.64h17.454a2.1 2.1 0 0 1 1.541.64c.427.427.641.941.641 1.541v12a2.1 2.1 0 0 1-.64 1.541c-.428.427-.942.64-1.542.64H55.273Zm-2.182 3.273c-.31 0-.568-.105-.777-.314a1.056 1.056 0 0 1-.314-.777c0-.31.105-.569.314-.778.209-.209.468-.313.777-.313h21.818c.31 0 .568.104.777.313.21.21.314.469.314.778 0 .309-.105.568-.314.777-.209.21-.468.314-.777.314H53.091Zm37.404-9.853h5.098v6.662a14.02 14.02 0 0 1-2.338.563c-.727.111-1.47.167-2.233.167-1.939 0-3.421-.569-4.447-1.705-1.02-1.143-1.53-2.78-1.53-4.913 0-2.075.593-3.692 1.776-4.852 1.19-1.16 2.836-1.74 4.94-1.74a9.55 9.55 0 0 1 3.814.79l-.905 2.18a6.466 6.466 0 0 0-2.927-.703c-1.178 0-2.12.396-2.83 1.187-.709.79-1.063 1.854-1.063 3.19 0 1.395.284 2.461.852 3.2.574.732 1.406 1.098 2.496 1.098.569 0 1.146-.058 1.732-.176v-2.68h-2.435v-2.268Zm12.024-.887c-.569 0-1.014.181-1.336.544-.323.358-.507.868-.554 1.53h3.762c-.012-.662-.185-1.172-.519-1.53-.334-.363-.785-.544-1.353-.544Zm.377 8.279c-1.582 0-2.818-.437-3.709-1.31-.89-.873-1.335-2.11-1.335-3.709 0-1.646.41-2.918 1.23-3.814.826-.903 1.966-1.354 3.419-1.354 1.389 0 2.47.396 3.243 1.187.774.79 1.16 1.884 1.16 3.278v1.3h-6.337c.03.763.255 1.357.677 1.785.422.428 1.014.642 1.776.642a7.37 7.37 0 0 0 1.678-.185 8.407 8.407 0 0 0 1.653-.589v2.074c-.469.235-.97.408-1.503.519-.534.117-1.184.176-1.952.176ZM118.154 31h-2.68v-5.74c0-.708-.126-1.239-.378-1.59-.252-.358-.654-.536-1.204-.536-.75 0-1.292.252-1.626.756-.334.498-.501 1.327-.501 2.487V31h-2.681v-9.826h2.048l.36 1.257h.15a2.806 2.806 0 0 1 1.23-1.073c.527-.246 1.125-.369 1.793-.369 1.143 0 2.01.31 2.602.932.591.615.887 1.506.887 2.672V31Zm6.829-8.104c-.568 0-1.013.182-1.336.545-.322.358-.506.868-.553 1.53h3.761c-.011-.662-.184-1.172-.518-1.53-.334-.363-.785-.544-1.354-.544Zm.378 8.28c-1.582 0-2.818-.437-3.709-1.31-.89-.873-1.336-2.11-1.336-3.709 0-1.646.411-2.918 1.231-3.814.826-.903 1.966-1.354 3.419-1.354 1.388 0 2.47.396 3.243 1.187.773.79 1.16 1.884 1.16 3.278v1.3h-6.337c.03.763.255 1.357.677 1.785.422.428 1.014.642 1.775.642.592 0 1.152-.062 1.679-.185a8.4 8.4 0 0 0 1.652-.589v2.074a6.136 6.136 0 0 1-1.503.519c-.533.117-1.183.176-1.951.176Zm11.672-10.187c.363 0 .665.027.905.08l-.202 2.513a3.064 3.064 0 0 0-.791-.088c-.855 0-1.523.22-2.004.66-.474.439-.712 1.054-.712 1.845V31h-2.68v-9.826h2.03l.396 1.652h.131c.305-.55.715-.993 1.231-1.327a3.046 3.046 0 0 1 1.696-.51Zm2.575-2.355c0-.873.487-1.31 1.459-1.31.973 0 1.459.437 1.459 1.31 0 .416-.123.741-.369.975-.24.229-.603.343-1.09.343-.972 0-1.459-.44-1.459-1.318ZM142.403 31h-2.68v-9.826h2.68V31Zm6.812.176c-3.059 0-4.588-1.679-4.588-5.036 0-1.67.416-2.945 1.248-3.824.832-.884 2.024-1.327 3.577-1.327 1.137 0 2.156.223 3.059.668l-.791 2.074c-.422-.17-.815-.307-1.178-.413a3.701 3.701 0 0 0-1.09-.167c-1.394 0-2.092.99-2.092 2.971 0 1.922.698 2.883 2.092 2.883.516 0 .993-.067 1.433-.202a5.3 5.3 0 0 0 1.318-.65v2.293a4.308 4.308 0 0 1-1.318.572c-.44.105-.996.158-1.67.158Zm15.618-10.943c-1.025 0-1.819.387-2.382 1.16-.562.768-.844 1.84-.844 3.217 0 2.866 1.076 4.298 3.226 4.298.902 0 1.995-.225 3.278-.677v2.286c-1.054.44-2.232.659-3.533.659-1.869 0-3.299-.566-4.289-1.696-.99-1.137-1.485-2.766-1.485-4.887 0-1.336.243-2.505.729-3.507.487-1.008 1.184-1.778 2.092-2.312.914-.539 1.983-.808 3.208-.808 1.248 0 2.502.302 3.762.905l-.879 2.215a14.628 14.628 0 0 0-1.45-.598 4.33 4.33 0 0 0-1.433-.255Zm7.945 5.836c0 .973.159 1.708.475 2.206.322.498.844.748 1.564.748.715 0 1.228-.247 1.538-.739.317-.498.475-1.236.475-2.215 0-.972-.158-1.702-.475-2.188-.316-.486-.834-.73-1.555-.73-.715 0-1.231.244-1.547.73-.316.48-.475 1.21-.475 2.188Zm6.794 0c0 1.6-.422 2.85-1.265 3.753-.844.903-2.019 1.354-3.525 1.354-.943 0-1.775-.205-2.496-.615a4.15 4.15 0 0 1-1.661-1.785c-.387-.773-.58-1.675-.58-2.707 0-1.605.419-2.853 1.257-3.744.838-.89 2.015-1.336 3.533-1.336.943 0 1.775.205 2.496.616.721.41 1.274.998 1.661 1.766s.58 1.667.58 2.698ZM190.585 31h-2.681v-5.74c0-.708-.12-1.239-.36-1.59-.234-.358-.606-.536-1.116-.536-.686 0-1.184.252-1.494.756-.311.504-.466 1.333-.466 2.487V31h-2.681v-9.826h2.048l.36 1.257h.15a2.69 2.69 0 0 1 1.142-1.055c.498-.258 1.07-.387 1.714-.387 1.471 0 2.467.48 2.988 1.442h.238c.263-.457.65-.812 1.16-1.064.516-.252 1.096-.378 1.74-.378 1.113 0 1.954.287 2.523.862.574.568.861 1.482.861 2.742V31h-2.69v-5.74c0-.708-.12-1.239-.36-1.59-.234-.358-.606-.536-1.116-.536-.656 0-1.149.234-1.477.703-.322.469-.483 1.213-.483 2.232V31Zm14.282.176c-1.154 0-2.059-.42-2.716-1.257h-.14c.093.82.14 1.295.14 1.424v3.981h-2.68v-14.15h2.179l.378 1.274h.123c.627-.972 1.556-1.459 2.787-1.459 1.16 0 2.068.448 2.724 1.345.656.896.984 2.142.984 3.735 0 1.05-.155 1.96-.465 2.734-.305.773-.742 1.362-1.31 1.766-.568.405-1.236.607-2.004.607Zm-.791-8.042c-.662 0-1.145.205-1.45.615-.305.404-.463 1.075-.475 2.013v.29c0 1.054.156 1.81.466 2.267.317.457.815.686 1.494.686 1.201 0 1.802-.99 1.802-2.97 0-.968-.149-1.691-.448-2.172-.293-.486-.756-.73-1.389-.73ZM217.822 31l-.36-1.257h-.141a2.856 2.856 0 0 1-1.221 1.064c-.528.246-1.128.369-1.802.369-1.154 0-2.025-.308-2.61-.923-.586-.621-.879-1.512-.879-2.672v-6.407h2.68v5.74c0 .708.126 1.241.378 1.599.252.351.654.527 1.204.527.75 0 1.292-.249 1.626-.747.334-.504.501-1.336.501-2.496v-4.623h2.681V31h-2.057Zm9.009-1.96c.469 0 1.031-.102 1.688-.308v1.995c-.668.3-1.489.449-2.461.449-1.073 0-1.855-.27-2.347-.809-.486-.545-.73-1.36-.73-2.443v-4.738h-1.283v-1.133l1.477-.897.773-2.074h1.714v2.092h2.751v2.012h-2.751v4.738c0 .38.106.662.317.844.216.181.5.272.852.272Zm7.752-6.143c-.568 0-1.014.181-1.336.544-.322.358-.507.868-.554 1.53h3.762c-.012-.662-.184-1.172-.518-1.53-.334-.363-.786-.544-1.354-.544Zm.378 8.279c-1.582 0-2.818-.437-3.709-1.31s-1.336-2.11-1.336-3.709c0-1.646.41-2.918 1.23-3.814.827-.903 1.966-1.354 3.419-1.354 1.389 0 2.47.396 3.244 1.187.773.79 1.16 1.884 1.16 3.278v1.3h-6.337c.029.763.255 1.357.677 1.785.421.428 1.013.642 1.775.642.592 0 1.151-.062 1.679-.185a8.4 8.4 0 0 0 1.652-.589v2.074c-.469.235-.97.408-1.503.519-.533.117-1.183.176-1.951.176Zm11.672-10.187c.363 0 .665.027.905.08l-.202 2.513a3.074 3.074 0 0 0-.791-.088c-.856 0-1.524.22-2.004.66-.475.439-.712 1.054-.712 1.845V31h-2.681v-9.826h2.031l.395 1.652h.132c.305-.55.715-.993 1.231-1.327a3.044 3.044 0 0 1 1.696-.51Z"/>
</svg>
