<svg xmlns="http://www.w3.org/2000/svg" width="300" height="48" fill="none" viewBox="0 0 300 48">
  <rect width="300" height="48" fill="#2457F5" rx="8"/>
  <g clip-path="url(#a)">
    <path fill="#fff" d="M59.9 36c-.66 0-1.225-.235-1.695-.705A2.311 2.311 0 0 1 57.5 33.6V16.8c0-.66.235-1.225.705-1.695A2.311 2.311 0 0 1 59.9 14.4h1.2v-1.2c0-.34.115-.625.345-.855.23-.23.515-.345.855-.345.34 0 .625.115.855.345.23.23.345.515.345.855v1.2h9.6v-1.2c0-.34.115-.625.345-.855.23-.23.515-.345.855-.345.34 0 .625.115.855.345.23.23.345.515.345.855v1.2h1.2c.66 0 1.225.235 1.695.705s.705 1.035.705 1.695v16.8c0 .66-.235 1.225-.705 1.695S77.36 36 76.7 36H59.9Zm0-2.4h16.8v-12H59.9v12Zm8.4-7.2c-.34 0-.625-.115-.855-.345a1.161 1.161 0 0 1-.345-.855c0-.34.115-.625.345-.855.23-.23.515-.345.855-.345.34 0 .625.115.855.345.23.23.345.515.345.855 0 .34-.115.625-.345.855-.23.23-.515.345-.855.345Zm-4.8 0c-.34 0-.625-.115-.855-.345a1.161 1.161 0 0 1-.345-.855c0-.34.115-.625.345-.855.23-.23.515-.345.855-.345.34 0 .625.115.855.345.23.23.345.515.345.855 0 .34-.115.625-.345.855-.23.23-.515.345-.855.345Zm9.6 0c-.34 0-.625-.115-.855-.345a1.161 1.161 0 0 1-.345-.855c0-.34.115-.625.345-.855.23-.23.515-.345.855-.345.34 0 .625.115.855.345.23.23.345.515.345.855 0 .34-.115.625-.345.855-.23.23-.515.345-.855.345Zm-4.8 4.8c-.34 0-.625-.115-.855-.345A1.161 1.161 0 0 1 67.1 30c0-.34.115-.625.345-.855.23-.23.515-.345.855-.345.34 0 .625.115.855.345.23.23.345.515.345.855 0 .34-.115.625-.345.855-.23.23-.515.345-.855.345Zm-4.8 0c-.34 0-.625-.115-.855-.345A1.161 1.161 0 0 1 62.3 30c0-.34.115-.625.345-.855.23-.23.515-.345.855-.345.34 0 .625.115.855.345.23.23.345.515.345.855 0 .34-.115.625-.345.855-.23.23-.515.345-.855.345Zm9.6 0c-.34 0-.625-.115-.855-.345A1.161 1.161 0 0 1 71.9 30c0-.34.115-.625.345-.855.23-.23.515-.345.855-.345.34 0 .625.115.855.345.23.23.345.515.345.855 0 .34-.115.625-.345.855-.23.23-.515.345-.855.345Zm21.895-7.416h5.098v6.662a14.03 14.03 0 0 1-2.338.563c-.727.111-1.47.167-2.233.167-1.939 0-3.421-.569-4.447-1.705-1.02-1.143-1.53-2.78-1.53-4.913 0-2.075.593-3.692 1.776-4.852 1.19-1.16 2.836-1.74 4.94-1.74 1.318 0 2.59.264 3.814.79l-.905 2.18a6.466 6.466 0 0 0-2.927-.703c-1.178 0-2.12.396-2.83 1.187-.709.79-1.063 1.854-1.063 3.19 0 1.395.284 2.461.852 3.2.574.732 1.406 1.098 2.496 1.098.569 0 1.146-.058 1.732-.176v-2.68h-2.435v-2.268Zm12.024-.887c-.569 0-1.014.181-1.336.544-.323.358-.507.868-.554 1.53h3.762c-.012-.662-.185-1.172-.519-1.53-.334-.363-.785-.544-1.353-.544Zm.377 8.279c-1.582 0-2.818-.437-3.708-1.31-.891-.873-1.336-2.11-1.336-3.709 0-1.646.41-2.918 1.23-3.814.826-.903 1.966-1.354 3.419-1.354 1.389 0 2.47.396 3.243 1.187.774.79 1.16 1.884 1.16 3.278v1.3h-6.337c.03.763.255 1.357.677 1.785.422.428 1.014.642 1.776.642a7.37 7.37 0 0 0 1.678-.185 8.407 8.407 0 0 0 1.653-.589v2.074c-.469.235-.97.408-1.503.519-.534.117-1.184.176-1.952.176ZM122.654 31h-2.68v-5.74c0-.708-.126-1.239-.378-1.59-.252-.358-.654-.536-1.204-.536-.75 0-1.292.252-1.626.756-.334.498-.501 1.327-.501 2.487V31h-2.681v-9.826h2.048l.36 1.257h.15a2.806 2.806 0 0 1 1.23-1.073c.527-.246 1.125-.369 1.793-.369 1.143 0 2.01.31 2.602.932.591.615.887 1.506.887 2.672V31Zm6.829-8.104c-.568 0-1.013.182-1.336.545-.322.358-.506.868-.553 1.53h3.761c-.011-.662-.184-1.172-.518-1.53-.334-.363-.785-.544-1.354-.544Zm.378 8.28c-1.582 0-2.818-.437-3.709-1.31-.89-.873-1.336-2.11-1.336-3.709 0-1.646.411-2.918 1.231-3.814.826-.903 1.966-1.354 3.419-1.354 1.388 0 2.47.396 3.243 1.187.773.79 1.16 1.884 1.16 3.278v1.3h-6.337c.03.763.255 1.357.677 1.785.422.428 1.014.642 1.775.642.592 0 1.152-.062 1.679-.185a8.4 8.4 0 0 0 1.652-.589v2.074a6.136 6.136 0 0 1-1.503.519c-.533.117-1.183.176-1.951.176Zm11.672-10.187c.363 0 .665.027.905.08l-.202 2.513a3.064 3.064 0 0 0-.791-.088c-.855 0-1.523.22-2.004.66-.474.439-.712 1.054-.712 1.845V31h-2.68v-9.826h2.03l.396 1.652h.131c.305-.55.715-.993 1.231-1.327a3.046 3.046 0 0 1 1.696-.51Zm2.575-2.355c0-.873.487-1.31 1.459-1.31.973 0 1.459.437 1.459 1.31 0 .416-.123.741-.369.975-.24.229-.603.343-1.09.343-.972 0-1.459-.44-1.459-1.318ZM146.903 31h-2.68v-9.826h2.68V31Zm6.812.176c-3.059 0-4.588-1.679-4.588-5.036 0-1.67.416-2.945 1.248-3.824.832-.884 2.024-1.327 3.577-1.327 1.137 0 2.156.223 3.059.668l-.791 2.074c-.422-.17-.815-.307-1.178-.413a3.701 3.701 0 0 0-1.09-.167c-1.394 0-2.092.99-2.092 2.971 0 1.922.698 2.883 2.092 2.883.516 0 .993-.067 1.433-.202a5.3 5.3 0 0 0 1.318-.65v2.293a4.308 4.308 0 0 1-1.318.572c-.44.105-.996.158-1.67.158Zm15.618-10.943c-1.025 0-1.819.387-2.382 1.16-.562.768-.844 1.84-.844 3.217 0 2.866 1.076 4.298 3.226 4.298.902 0 1.995-.225 3.278-.677v2.286c-1.054.44-2.232.659-3.533.659-1.869 0-3.299-.566-4.289-1.696-.99-1.137-1.485-2.766-1.485-4.887 0-1.336.243-2.505.729-3.507.487-1.008 1.184-1.778 2.092-2.312.914-.539 1.983-.808 3.208-.808 1.248 0 2.502.302 3.762.905l-.879 2.215a14.628 14.628 0 0 0-1.45-.598 4.33 4.33 0 0 0-1.433-.255ZM181.383 31l-.519-1.336h-.07c-.451.568-.917.964-1.398 1.187-.474.216-1.095.325-1.863.325-.943 0-1.687-.27-2.232-.809-.539-.539-.809-1.306-.809-2.303 0-1.043.363-1.81 1.09-2.302.732-.498 1.834-.774 3.305-.826l1.705-.053v-.43c0-.997-.51-1.495-1.53-1.495-.785 0-1.708.237-2.768.712l-.888-1.81c1.131-.592 2.385-.888 3.762-.888 1.318 0 2.329.287 3.032.861.703.574 1.055 1.447 1.055 2.62V31h-1.872Zm-.791-4.553-1.037.035c-.78.024-1.36.165-1.741.422-.38.258-.571.65-.571 1.178 0 .756.434 1.134 1.301 1.134.621 0 1.116-.179 1.485-.536.375-.358.563-.832.563-1.424v-.809ZM188.704 31h-2.681V17.324h2.681V31Zm6.891-8.104c-.569 0-1.014.182-1.336.545-.322.358-.507.868-.554 1.53h3.762c-.012-.662-.185-1.172-.519-1.53-.334-.363-.785-.544-1.353-.544Zm.378 8.28c-1.582 0-2.819-.437-3.709-1.31-.891-.873-1.336-2.11-1.336-3.709 0-1.646.41-2.918 1.23-3.814.826-.903 1.966-1.354 3.419-1.354 1.389 0 2.47.396 3.243 1.187.774.79 1.16 1.884 1.16 3.278v1.3h-6.336c.029.763.254 1.357.676 1.785.422.428 1.014.642 1.776.642.592 0 1.151-.062 1.678-.185a8.384 8.384 0 0 0 1.653-.589v2.074c-.469.235-.97.408-1.503.519-.533.117-1.184.176-1.951.176ZM211.23 31h-2.68v-5.74c0-.708-.126-1.239-.378-1.59-.252-.358-.653-.536-1.204-.536-.75 0-1.292.252-1.626.756-.334.498-.501 1.327-.501 2.487V31h-2.681v-9.826h2.048l.36 1.257h.15a2.812 2.812 0 0 1 1.23-1.073c.528-.246 1.125-.369 1.793-.369 1.143 0 2.01.31 2.602.932.592.615.887 1.506.887 2.672V31Zm5.872.176c-1.155 0-2.063-.448-2.725-1.345-.656-.896-.984-2.139-.984-3.726 0-1.612.334-2.866 1.002-3.762.673-.903 1.599-1.354 2.777-1.354 1.236 0 2.18.48 2.83 1.442h.088a10.937 10.937 0 0 1-.202-1.96v-3.147h2.689V31h-2.056l-.519-1.274h-.114c-.61.966-1.538 1.45-2.786 1.45Zm.94-2.136c.686 0 1.187-.2 1.503-.598.322-.398.498-1.075.527-2.03v-.29c0-1.055-.164-1.81-.492-2.267-.322-.457-.85-.686-1.582-.686-.598 0-1.063.255-1.397.765-.329.503-.493 1.239-.493 2.206 0 .966.167 1.693.501 2.18.334.48.812.72 1.433.72ZM231.621 31l-.518-1.336h-.071c-.451.568-.917.964-1.397 1.187-.475.216-1.096.325-1.864.325-.943 0-1.687-.27-2.232-.809-.539-.539-.809-1.306-.809-2.303 0-1.043.364-1.81 1.09-2.302.733-.498 1.834-.774 3.305-.826l1.705-.053v-.43c0-.997-.51-1.495-1.529-1.495-.785 0-1.708.237-2.769.712l-.887-1.81c1.13-.592 2.384-.888 3.761-.888 1.319 0 2.329.287 3.032.861.704.574 1.055 1.447 1.055 2.62V31h-1.872Zm-.791-4.553-1.037.035c-.779.024-1.359.165-1.74.422-.381.258-.572.65-.572 1.178 0 .756.434 1.134 1.301 1.134.621 0 1.116-.179 1.486-.536.375-.358.562-.832.562-1.424v-.809Zm10.916-5.458c.363 0 .665.027.905.08l-.202 2.513a3.07 3.07 0 0 0-.791-.088c-.855 0-1.523.22-2.004.66-.474.439-.712 1.054-.712 1.845V31h-2.68v-9.826h2.03l.396 1.652h.131c.305-.55.715-.993 1.231-1.327a3.046 3.046 0 0 1 1.696-.51Z"/>
  </g>
  <defs>
    <clipPath id="a">
      <path fill="#fff" d="M56.5 11h187v26h-187z"/>
    </clipPath>
  </defs>
</svg>
