<svg xmlns="http://www.w3.org/2000/svg" width="302" height="50" fill="none" viewBox="0 0 302 50">
  <rect width="301" height="49" x=".5" y=".5" fill="#000" rx="8.5"/>
  <g clip-path="url(#a)">
    <path fill="#fff" d="M111.027 32.02c0 .095-.111.17-.251.17-.16.015-.271-.061-.271-.17 0-.096.111-.172.251-.172.146-.014.271.062.271.172Zm-1.504-.215c-.034.096.062.205.208.234.125.047.271 0 .3-.096.029-.095-.063-.204-.208-.247-.126-.033-.267.014-.3.11Zm2.138-.08c-.14.033-.237.123-.222.233.014.095.14.157.285.123.141-.033.237-.123.223-.218-.015-.09-.145-.153-.286-.138Zm3.184-18.225C108.134 13.5 103 18.508 103 25.105a11.94 11.94 0 0 0 8.202 11.376c.619.109.837-.267.837-.576 0-.295-.015-1.921-.015-2.92 0 0-3.387.713-4.098-1.417 0 0-.552-1.384-1.345-1.74 0 0-1.108-.748.077-.733 0 0 1.205.095 1.868 1.227 1.059 1.835 2.835 1.308 3.527.994.112-.761.426-1.29.774-1.603-2.704-.295-5.433-.68-5.433-5.255 0-1.308.367-1.964 1.141-2.802-.125-.309-.537-1.583.126-3.229 1.012-.309 3.339 1.284 3.339 1.284a11.557 11.557 0 0 1 3.039-.404c1.03 0 2.071.138 3.038.404 0 0 2.328-1.598 3.339-1.284.663 1.65.252 2.92.126 3.23.774.841 1.248 1.497 1.248 2.8 0 4.59-2.85 4.956-5.555 5.256.446.376.823 1.089.823 2.207 0 1.602-.014 3.586-.014 3.976 0 .309.222.684.837.575C123.719 34.892 127 30.38 127 25.105c0-6.597-5.444-11.605-12.155-11.605Zm-7.142 16.403c-.063.048-.048.157.034.248.078.076.189.109.252.047.063-.047.048-.157-.034-.247-.078-.076-.189-.11-.252-.048Zm-.522-.385c-.034.062.014.138.111.185.077.048.174.034.208-.033.034-.062-.015-.138-.111-.185-.097-.029-.174-.015-.208.033Zm1.567 1.693c-.077.062-.048.205.063.295.112.11.252.124.315.047.063-.061.034-.204-.063-.294-.107-.11-.252-.124-.315-.048Zm-.551-.7c-.078.049-.078.172 0 .282.077.109.208.157.271.109.077-.062.077-.186 0-.295-.068-.11-.194-.157-.271-.095Z"/>
  </g>
  <path fill="#fff" d="M141.495 24.784h5.098v6.662a14.03 14.03 0 0 1-2.338.563c-.727.111-1.471.167-2.233.167-1.939 0-3.421-.569-4.447-1.705-1.019-1.143-1.529-2.78-1.529-4.913 0-2.075.592-3.692 1.775-4.852 1.19-1.16 2.836-1.74 4.94-1.74 1.318 0 2.59.264 3.814.79l-.905 2.18a6.468 6.468 0 0 0-2.927-.703c-1.178 0-2.121.396-2.83 1.187-.709.79-1.063 1.854-1.063 3.19 0 1.395.284 2.461.852 3.2.574.732 1.406 1.098 2.496 1.098.569 0 1.146-.058 1.732-.176v-2.68h-2.435v-2.268Zm7.84-5.15c0-.873.486-1.31 1.459-1.31.973 0 1.459.437 1.459 1.31 0 .416-.123.741-.369.975-.24.229-.604.343-1.09.343-.973 0-1.459-.44-1.459-1.318ZM152.13 32h-2.681v-9.826h2.681V32Zm6.961-1.96c.469 0 1.031-.102 1.687-.308v1.995c-.668.3-1.488.449-2.461.449-1.072 0-1.854-.27-2.346-.809-.487-.545-.73-1.36-.73-2.443v-4.738h-1.283v-1.133l1.477-.897.773-2.074h1.714v2.092h2.751v2.012h-2.751v4.738c0 .38.105.662.316.844.217.181.501.272.853.272ZM173.514 32h-2.716v-5.546h-5.089V32h-2.725V19.15h2.725v5.037h5.089V19.15h2.716V32Zm10.002 0-.361-1.257h-.14a2.858 2.858 0 0 1-1.222 1.064c-.527.246-1.128.369-1.802.369-1.154 0-2.024-.308-2.61-.923-.586-.621-.879-1.512-.879-2.672v-6.407h2.681v5.74c0 .708.126 1.241.378 1.599.251.351.653.527 1.204.527.75 0 1.292-.249 1.626-.747.334-.504.501-1.336.501-2.496v-4.623h2.68V32h-2.056Zm10.336-10.01c1.16 0 2.068.453 2.724 1.362.656.902.985 2.141.985 3.717 0 1.623-.34 2.88-1.02 3.77-.674.892-1.594 1.337-2.76 1.337-1.154 0-2.059-.42-2.716-1.257h-.184L190.433 32h-2.048V18.324h2.68v3.182c0 .404-.035 1.052-.105 1.942h.105c.627-.972 1.556-1.459 2.787-1.459Zm-.862 2.144c-.662 0-1.145.205-1.45.615-.305.404-.463 1.075-.475 2.013v.29c0 1.054.156 1.81.466 2.267.317.457.815.686 1.494.686.551 0 .988-.252 1.31-.756.328-.51.492-1.248.492-2.215 0-.967-.164-1.69-.492-2.17-.328-.487-.776-.73-1.345-.73Z"/>
  <rect width="301" height="49" x=".5" y=".5" stroke="#fff" rx="8.5"/>
  <defs>
    <clipPath id="a">
      <path fill="#fff" d="M103 13h24v24h-24z"/>
    </clipPath>
  </defs>
</svg>
