<svg xmlns="http://www.w3.org/2000/svg" width="300" height="48" fill="none" viewBox="0 0 300 48">
  <rect width="300" height="48" fill="#6151B2" rx="8"/>
  <g clip-path="url(#a)">
    <g clip-path="url(#b)">
      <path fill="#E24329" d="m116.499 35.105 4.422-13.6h-8.837l4.415 13.6Z"/>
      <path fill="#FCA326" d="m105.891 21.505-1.346 4.132c-.122.375.01.79.331 1.023l11.623 8.445-10.608-13.6Z"/>
      <path fill="#E24329" d="M105.891 21.505h6.193l-2.665-8.19c-.136-.42-.731-.42-.872 0l-2.656 8.19Z"/>
      <path fill="#FCA326" d="m127.113 21.505 1.342 4.132a.916.916 0 0 1-.331 1.023l-11.625 8.445 10.614-13.6Z"/>
      <path fill="#E24329" d="M127.114 21.505h-6.193l2.66-8.19c.136-.42.731-.42.872 0l2.661 8.19Z"/>
      <path fill="#FC6D26" d="m116.499 35.105 4.421-13.6h6.193l-10.614 13.6Zm0 0-10.608-13.6h6.193l4.415 13.6Z"/>
    </g>
    <path fill="#fff" d="M142.995 23.784h5.098v6.662a14.03 14.03 0 0 1-2.338.563c-.727.111-1.471.167-2.233.167-1.939 0-3.421-.569-4.447-1.705-1.019-1.143-1.529-2.78-1.529-4.913 0-2.075.592-3.692 1.775-4.852 1.19-1.16 2.836-1.74 4.94-1.74 1.318 0 2.59.264 3.814.79l-.905 2.18a6.468 6.468 0 0 0-2.927-.703c-1.178 0-2.121.396-2.83 1.187-.709.79-1.063 1.854-1.063 3.19 0 1.395.284 2.461.852 3.2.574.732 1.406 1.098 2.496 1.098.569 0 1.146-.058 1.732-.176v-2.68h-2.435v-2.268Zm7.84-5.15c0-.873.486-1.31 1.459-1.31.973 0 1.459.437 1.459 1.31 0 .416-.123.741-.369.975-.24.229-.604.343-1.09.343-.973 0-1.459-.44-1.459-1.318ZM153.63 31h-2.681v-9.826h2.681V31Zm6.961-1.96c.469 0 1.031-.102 1.687-.308v1.995c-.668.3-1.488.449-2.461.449-1.072 0-1.854-.27-2.346-.809-.487-.545-.73-1.36-.73-2.443v-4.738h-1.283v-1.133l1.477-.897.773-2.074h1.714v2.092h2.751v2.012h-2.751v4.738c0 .38.105.662.316.844.217.181.501.272.853.272Zm3.893 1.96V18.15h2.725v10.6h5.212V31h-7.937Zm16.207 0-.518-1.336h-.07c-.452.568-.917.964-1.398 1.187-.475.216-1.096.325-1.863.325-.944 0-1.688-.27-2.233-.809-.539-.539-.808-1.306-.808-2.303 0-1.043.363-1.81 1.09-2.302.732-.498 1.834-.774 3.304-.826l1.705-.053v-.43c0-.997-.509-1.495-1.529-1.495-.785 0-1.708.237-2.768.712l-.888-1.81c1.131-.592 2.385-.888 3.762-.888 1.318 0 2.329.287 3.032.861.703.574 1.054 1.447 1.054 2.62V31h-1.872Zm-.791-4.553-1.037.035c-.779.024-1.359.165-1.74.422-.381.258-.571.65-.571 1.178 0 .756.433 1.134 1.301 1.134.621 0 1.116-.179 1.485-.536.375-.358.562-.832.562-1.424v-.809Zm10.899-5.458c1.16 0 2.068.454 2.724 1.363.657.902.985 2.141.985 3.717 0 1.623-.34 2.88-1.02 3.77-.674.892-1.593 1.337-2.759 1.337-1.155 0-2.06-.42-2.716-1.257h-.185L187.38 31h-2.048V17.324h2.681v3.182c0 .404-.035 1.052-.106 1.942h.106c.627-.972 1.555-1.459 2.786-1.459Zm-.861 2.145c-.663 0-1.146.205-1.451.615-.304.404-.463 1.075-.474 2.013v.29c0 1.054.155 1.81.466 2.267.316.457.814.686 1.494.686.55 0 .987-.252 1.309-.756.328-.51.492-1.248.492-2.215 0-.967-.164-1.69-.492-2.17-.328-.487-.776-.73-1.344-.73Z"/>
  </g>
  <defs>
    <clipPath id="a">
      <path fill="#fff" d="M104.5 11h91v26h-91z"/>
    </clipPath>
    <clipPath id="b">
      <path fill="#fff" d="M104.5 12h24v24h-24z"/>
    </clipPath>
  </defs>
</svg>
