<svg xmlns="http://www.w3.org/2000/svg" width="300" height="48" fill="none" viewBox="0 0 300 48">
  <rect width="300" height="48" fill="#02A95C" rx="8"/>
  <g clip-path="url(#a)">
    <g clip-path="url(#b)">
      <path fill="#fff" d="M105.632 30.404a9.394 9.394 0 0 0-8.14-4.707 9.399 9.399 0 0 0-8.153 4.707h16.293Zm3.417-9.21a1.567 1.567 0 0 0-2.2 0l-2.332 2.332a1.566 1.566 0 0 0-.058 2.141l.058.059a1.567 1.567 0 0 0 2.2 0l2.332-2.332a1.567 1.567 0 0 0 0-2.2Zm-20.899 0a1.566 1.566 0 0 0-2.14-.058l-.059.058a1.567 1.567 0 0 0 0 2.2l2.332 2.332a1.567 1.567 0 0 0 2.2 0 1.567 1.567 0 0 0 0-2.2l-2.332-2.332ZM97.537 17h-.074c-.85 0-1.54.69-1.554 1.555v3.3c0 .85.704 1.554 1.554 1.554.85 0 1.555-.704 1.555-1.555v-3.3A1.55 1.55 0 0 0 97.537 17Z"/>
    </g>
    <path fill="#fff" d="M123.995 23.784h5.098v6.662a14.03 14.03 0 0 1-2.338.563c-.727.111-1.471.167-2.233.167-1.939 0-3.421-.569-4.447-1.705-1.019-1.143-1.529-2.78-1.529-4.913 0-2.075.592-3.692 1.775-4.852 1.19-1.16 2.836-1.74 4.94-1.74 1.318 0 2.59.264 3.814.79l-.905 2.18a6.468 6.468 0 0 0-2.927-.703c-1.178 0-2.121.396-2.83 1.187-.709.79-1.063 1.854-1.063 3.19 0 1.395.284 2.461.852 3.2.574.732 1.406 1.098 2.496 1.098.569 0 1.146-.058 1.732-.176v-2.68h-2.435v-2.268Zm10.09 2.285c0 .973.158 1.708.475 2.206.322.498.843.748 1.564.748.715 0 1.228-.247 1.538-.739.317-.498.475-1.236.475-2.215 0-.972-.158-1.702-.475-2.188-.316-.486-.835-.73-1.556-.73-.714 0-1.23.244-1.546.73-.317.48-.475 1.21-.475 2.188Zm6.794 0c0 1.6-.422 2.85-1.266 3.753-.843.903-2.018 1.354-3.524 1.354-.943 0-1.776-.205-2.496-.615a4.144 4.144 0 0 1-1.661-1.785c-.387-.773-.58-1.675-.58-2.707 0-1.605.419-2.853 1.256-3.744.838-.89 2.016-1.336 3.534-1.336.943 0 1.775.205 2.496.616.72.41 1.274.998 1.661 1.766s.58 1.667.58 2.698ZM145.985 31h-2.68V18.15h7.365v2.233h-4.685v3.313h4.36v2.224h-4.36V31Zm13.949 0-.361-1.257h-.14a2.858 2.858 0 0 1-1.222 1.064c-.527.246-1.128.369-1.802.369-1.154 0-2.024-.308-2.61-.923-.586-.621-.879-1.512-.879-2.672v-6.407h2.681v5.74c0 .708.126 1.241.378 1.599.251.351.653.527 1.204.527.75 0 1.292-.249 1.626-.747.334-.504.501-1.336.501-2.496v-4.623h2.68V31h-2.056Zm13.939 0h-2.681v-5.74c0-.708-.126-1.239-.378-1.59-.252-.358-.653-.536-1.204-.536-.75 0-1.292.252-1.626.756-.334.498-.501 1.327-.501 2.487V31h-2.68v-9.826h2.048l.36 1.257h.149a2.81 2.81 0 0 1 1.231-1.073c.527-.246 1.125-.369 1.793-.369 1.142 0 2.01.31 2.601.932.592.615.888 1.506.888 2.672V31Zm5.871.176c-1.154 0-2.062-.448-2.724-1.345-.657-.896-.985-2.139-.985-3.726 0-1.612.334-2.866 1.002-3.762.674-.903 1.6-1.354 2.777-1.354 1.237 0 2.18.48 2.831 1.442h.087a11.03 11.03 0 0 1-.202-1.96v-3.147h2.69V31h-2.057l-.518-1.274h-.115c-.609.966-1.538 1.45-2.786 1.45Zm.941-2.136c.685 0 1.186-.2 1.503-.598.322-.398.498-1.075.527-2.03v-.29c0-1.055-.164-1.81-.492-2.267-.323-.457-.85-.686-1.582-.686-.598 0-1.064.255-1.398.765-.328.503-.492 1.239-.492 2.206 0 .966.167 1.693.501 2.18.334.48.811.72 1.433.72Zm12.99 1.96-3.094-10.081h-.079c.111 2.05.167 3.419.167 4.104V31h-2.435V18.15h3.709l3.041 9.827h.053l3.226-9.827h3.709V31h-2.54v-6.082c0-.287.003-.618.008-.993.012-.375.053-1.371.123-2.989h-.079L196.171 31h-2.496Zm15.398-8.104c-.568 0-1.013.182-1.336.545-.322.358-.507.868-.553 1.53h3.761c-.011-.662-.184-1.172-.518-1.53-.334-.363-.785-.544-1.354-.544Zm.378 8.28c-1.582 0-2.818-.437-3.709-1.31-.89-.873-1.336-2.11-1.336-3.709 0-1.646.41-2.918 1.231-3.814.826-.903 1.966-1.354 3.419-1.354 1.388 0 2.469.396 3.243 1.187.773.79 1.16 1.884 1.16 3.278v1.3h-6.337c.029.763.255 1.357.677 1.785.422.428 1.013.642 1.775.642.592 0 1.152-.062 1.679-.185a8.4 8.4 0 0 0 1.652-.589v2.074a6.136 6.136 0 0 1-1.503.519c-.533.117-1.183.176-1.951.176Z"/>
  </g>
  <defs>
    <clipPath id="a">
      <path fill="#fff" d="M85.5 11h129v26h-129z"/>
    </clipPath>
    <clipPath id="b">
      <path fill="#fff" d="M85.5 12h24v24h-24z"/>
    </clipPath>
  </defs>
</svg>
