<svg xmlns="http://www.w3.org/2000/svg" width="300" height="48" fill="none" viewBox="0 0 300 48">
  <rect width="299" height="47" x=".5" y=".5" fill="#F3F1E6" rx="7.5"/>
  <g clip-path="url(#a)">
    <g clip-path="url(#b)">
      <path fill="#E8E4CA" d="M101.566 20.529c.273 1.998-.252 4.232-1.923 5.394-1.195.831-2.829.756-3.793.306-1.987-.927-2.652-3.14-2.507-5.208.23-3.262 2.191-4.709 4.034-4.687 2.512-.011 3.846 1.703 4.189 4.195ZM109.5 15v18c0 1.655-1.345 3-3 3h-18c-1.655 0-3-1.345-3-3V15c0-1.655 1.345-3 3-3h18c1.655 0 3 1.345 3 3Zm-6.321 12.064s-.006-1.821-.006-11.641h-1.553v2.159c-.043.016-.065-.027-.086-.064-.514-1.109-1.923-2.481-4.071-2.464-2.781.021-4.672 1.671-5.39 4.167-.23.799-.31 1.613-.294 2.443.091 4.173 2.416 6.311 6.021 6.172 1.548-.059 2.92-.911 3.696-2.422.027-.053.059-.101.091-.155.011.005.022.005.033.011.016.203.01 1.644.005 1.848-.011.793-.107 1.58-.386 2.33-.418 1.125-1.194 1.859-2.384 2.116-.953.209-1.907.204-2.85-.064-1.151-.327-1.955-1.018-2.201-2.239-.017-.086-.07-.07-.124-.07h-1.435c.042.568.171 1.088.455 1.564 1.296 2.17 4.43 2.599 6.868 2.004 2.673-.659 3.605-2.941 3.611-5.695Z"/>
      <path fill="#553B08" fill-rule="evenodd" d="M101.588 20.5c.274 1.999-.251 4.233-1.923 5.395-1.194.83-2.828.755-3.793.305-1.987-.926-2.651-3.139-2.507-5.207.231-3.262 2.191-4.709 4.034-4.687 2.513-.011 3.847 1.703 4.189 4.194Zm1.613 6.536s-.005-1.821-.005-11.641h-1.554v2.159c-.043.016-.064-.027-.086-.064-.514-1.109-1.923-2.481-4.071-2.465-2.78.022-4.672 1.672-5.389 4.168-.231.799-.311 1.613-.295 2.443.091 4.173 2.416 6.311 6.021 6.172 1.549-.059 2.92-.911 3.697-2.422.027-.053.059-.102.091-.155.011.005.021.005.032.011.016.203.011 1.644.005 1.848-.01.793-.107 1.58-.385 2.33-.418 1.125-1.195 1.859-2.384 2.116-.954.209-1.907.204-2.85-.064-1.152-.327-1.956-1.018-2.202-2.239-.016-.086-.07-.07-.123-.07h-1.436c.043.568.171 1.087.455 1.564 1.297 2.17 4.431 2.598 6.868 2.004 2.673-.659 3.606-2.941 3.611-5.695Z" clip-rule="evenodd"/>
    </g>
    <path fill="#000" d="M123.995 23.784h5.098v6.662a14.03 14.03 0 0 1-2.338.563c-.727.111-1.471.167-2.233.167-1.939 0-3.421-.569-4.447-1.705-1.019-1.143-1.529-2.78-1.529-4.913 0-2.075.592-3.692 1.775-4.852 1.19-1.16 2.836-1.74 4.94-1.74 1.318 0 2.59.264 3.814.79l-.905 2.18a6.468 6.468 0 0 0-2.927-.703c-1.178 0-2.121.396-2.83 1.187-.709.79-1.063 1.854-1.063 3.19 0 1.395.284 2.461.852 3.2.574.732 1.406 1.098 2.496 1.098.569 0 1.146-.058 1.732-.176v-2.68h-2.435v-2.268Zm10.09 2.285c0 .973.158 1.708.475 2.206.322.498.843.748 1.564.748.715 0 1.228-.247 1.538-.739.317-.498.475-1.236.475-2.215 0-.972-.158-1.702-.475-2.188-.316-.486-.835-.73-1.556-.73-.714 0-1.23.244-1.546.73-.317.48-.475 1.21-.475 2.188Zm6.794 0c0 1.6-.422 2.85-1.266 3.753-.843.903-2.018 1.354-3.524 1.354-.943 0-1.776-.205-2.496-.615a4.144 4.144 0 0 1-1.661-1.785c-.387-.773-.58-1.675-.58-2.707 0-1.605.419-2.853 1.256-3.744.838-.89 2.016-1.336 3.534-1.336.943 0 1.775.205 2.496.616.72.41 1.274.998 1.661 1.766s.58 1.667.58 2.698Zm4.35 0c0 .973.159 1.708.475 2.206.322.498.844.748 1.565.748.714 0 1.227-.247 1.538-.739.316-.498.474-1.236.474-2.215 0-.972-.158-1.702-.474-2.188-.317-.486-.835-.73-1.556-.73-.715 0-1.23.244-1.547.73-.316.48-.475 1.21-.475 2.188Zm6.794 0c0 1.6-.421 2.85-1.265 3.753-.844.903-2.019 1.354-3.525 1.354-.943 0-1.775-.205-2.496-.615a4.156 4.156 0 0 1-1.661-1.785c-.387-.773-.58-1.675-.58-2.707 0-1.605.419-2.853 1.257-3.744.838-.89 2.016-1.336 3.533-1.336.943 0 1.776.205 2.496.616a4.1 4.1 0 0 1 1.661 1.766c.387.768.58 1.667.58 2.698Zm5.327 5.107c-1.155 0-2.063-.448-2.725-1.345-.656-.896-.984-2.139-.984-3.726 0-1.612.334-2.866 1.002-3.762.673-.903 1.599-1.354 2.777-1.354 1.236 0 2.18.48 2.83 1.442h.088a10.937 10.937 0 0 1-.202-1.96v-3.147h2.689V31h-2.056l-.519-1.274h-.114c-.61.966-1.538 1.45-2.786 1.45Zm.94-2.136c.686 0 1.187-.2 1.503-.598.322-.398.498-1.075.527-2.03v-.29c0-1.055-.164-1.81-.492-2.267-.322-.457-.849-.686-1.582-.686-.598 0-1.063.255-1.397.765-.328.503-.493 1.239-.493 2.206 0 .966.167 1.693.501 2.18.334.48.812.72 1.433.72Zm12.823-8.05c.364 0 .665.026.906.078l-.203 2.514a3.064 3.064 0 0 0-.791-.088c-.855 0-1.523.22-2.004.66-.474.439-.711 1.054-.711 1.845V31h-2.681v-9.826h2.03l.396 1.652h.132a3.66 3.66 0 0 1 1.23-1.327 3.046 3.046 0 0 1 1.696-.51Zm6.759 1.907c-.568 0-1.014.181-1.336.544-.322.358-.507.868-.554 1.53h3.762c-.012-.662-.184-1.172-.518-1.53-.334-.363-.786-.544-1.354-.544Zm.378 8.279c-1.582 0-2.818-.437-3.709-1.31s-1.336-2.11-1.336-3.709c0-1.646.41-2.918 1.231-3.814.826-.903 1.965-1.354 3.418-1.354 1.389 0 2.47.396 3.244 1.187.773.79 1.16 1.884 1.16 3.278v1.3h-6.337c.029.763.255 1.357.677 1.785.422.428 1.013.642 1.775.642.592 0 1.151-.062 1.679-.185a8.4 8.4 0 0 0 1.652-.589v2.074c-.469.235-.97.408-1.503.519-.533.117-1.183.176-1.951.176ZM190.678 31l-.519-1.336h-.07c-.451.568-.917.964-1.398 1.187-.474.216-1.095.325-1.863.325-.943 0-1.687-.27-2.232-.809-.539-.539-.809-1.306-.809-2.303 0-1.043.363-1.81 1.09-2.302.732-.498 1.834-.774 3.305-.826l1.705-.053v-.43c0-.997-.51-1.495-1.53-1.495-.785 0-1.708.237-2.768.712l-.888-1.81c1.131-.592 2.385-.888 3.762-.888 1.318 0 2.329.287 3.032.861.703.574 1.055 1.447 1.055 2.62V31h-1.872Zm-.791-4.553-1.037.035c-.78.024-1.36.165-1.741.422-.38.258-.571.65-.571 1.178 0 .756.434 1.134 1.301 1.134.621 0 1.116-.179 1.485-.536.375-.358.563-.832.563-1.424v-.809Zm8.543 4.729c-1.155 0-2.063-.448-2.725-1.345-.656-.896-.984-2.139-.984-3.726 0-1.612.334-2.866 1.002-3.762.673-.903 1.599-1.354 2.777-1.354 1.236 0 2.18.48 2.83 1.442h.088a10.937 10.937 0 0 1-.202-1.96v-3.147h2.689V31h-2.056l-.519-1.274h-.114c-.61.966-1.538 1.45-2.786 1.45Zm.94-2.136c.686 0 1.187-.2 1.503-.598.322-.398.498-1.075.527-2.03v-.29c0-1.055-.164-1.81-.492-2.267-.322-.457-.849-.686-1.582-.686-.597 0-1.063.255-1.397.765-.328.503-.492 1.239-.492 2.206 0 .966.167 1.693.501 2.18.333.48.811.72 1.432.72Zm14.194-.958c0 1.008-.351 1.775-1.054 2.303-.698.527-1.743.79-3.138.79-.715 0-1.324-.049-1.828-.149a6.724 6.724 0 0 1-1.415-.421V28.39c.498.234 1.058.43 1.679.588.627.159 1.177.238 1.652.238.973 0 1.459-.281 1.459-.844a.693.693 0 0 0-.193-.51c-.129-.134-.352-.284-.668-.448-.317-.17-.739-.366-1.266-.589-.756-.316-1.313-.61-1.67-.879a2.545 2.545 0 0 1-.773-.923c-.159-.351-.238-.782-.238-1.292 0-.873.337-1.546 1.011-2.021.68-.48 1.641-.72 2.883-.72 1.183 0 2.335.257 3.454.773l-.809 1.933c-.492-.21-.952-.384-1.379-.518a4.34 4.34 0 0 0-1.31-.202c-.791 0-1.187.213-1.187.641 0 .24.126.448.378.624.258.176.818.437 1.679.782.768.311 1.33.601 1.688.87.357.27.621.58.791.932.169.352.254.77.254 1.257Z"/>
  </g>
  <rect width="299" height="47" x=".5" y=".5" stroke="#292929" rx="7.5"/>
  <defs>
    <clipPath id="a">
      <path fill="#fff" d="M85.5 11h129v26h-129z"/>
    </clipPath>
    <clipPath id="b">
      <path fill="#fff" d="M85.5 12h24v24h-24z"/>
    </clipPath>
  </defs>
</svg>
