<svg xmlns="http://www.w3.org/2000/svg" width="302" height="50" fill="none" viewBox="0 0 302 50">
  <rect width="301" height="49" x=".5" y=".5" fill="#fff" rx="8.5"/>
  <g clip-path="url(#a)">
    <g clip-path="url(#b)">
      <path fill="#000" d="M62.956 24.18v1.64-1.64Z"/>
      <path stroke="#0066D9" stroke-linecap="round" stroke-width="2.91" d="M62.956 24.18v1.64"/>
      <path fill="#000" d="M84.044 24.18v1.64-1.64Z"/>
      <path stroke="#4285F4" stroke-linecap="round" stroke-width="2.91" d="M84.044 24.18v1.64"/>
      <path fill="#000" d="M68.228 19.256v5.368-5.368Zm0 9.847v1.64-1.64Z"/>
      <path stroke="#EA4335" stroke-linecap="round" stroke-width="2.91" d="M68.228 19.256v5.368m0 4.479v1.64"/>
      <path fill="#000" d="M78.772 25.376v5.367-5.367Zm0-6.12v1.64-1.64Z"/>
      <path stroke="#34A853" stroke-linecap="round" stroke-width="2.91" d="M78.772 25.376v5.367m0-11.487v1.64"/>
      <path fill="#000" d="M73.5 20.624v8.752-8.752Zm0-6.169v1.641-1.64Zm0 19.448v1.641-1.641Z"/>
      <path stroke="#FAB908" stroke-linecap="round" stroke-width="2.91" d="M73.5 20.624v8.752m0-14.92v1.64m0 17.807v1.641"/>
    </g>
    <path fill="#000" d="M99.995 24.784h5.098v6.662a14.03 14.03 0 0 1-2.338.563c-.727.111-1.471.167-2.233.167-1.939 0-3.421-.569-4.447-1.705-1.02-1.143-1.53-2.78-1.53-4.913 0-2.075.593-3.692 1.776-4.852 1.19-1.16 2.836-1.74 4.94-1.74 1.318 0 2.59.264 3.814.79l-.905 2.18a6.468 6.468 0 0 0-2.927-.703c-1.178 0-2.12.396-2.83 1.187-.709.79-1.063 1.854-1.063 3.19 0 1.395.284 2.461.852 3.2.574.732 1.406 1.098 2.496 1.098.569 0 1.146-.058 1.732-.176v-2.68h-2.435v-2.268Zm10.09 2.285c0 .973.158 1.708.475 2.206.322.498.843.748 1.564.748.715 0 1.228-.247 1.538-.739.317-.498.475-1.236.475-2.215 0-.972-.158-1.702-.475-2.188-.316-.486-.835-.73-1.556-.73-.714 0-1.23.244-1.546.73-.317.48-.475 1.21-.475 2.188Zm6.794 0c0 1.6-.422 2.85-1.266 3.753-.843.903-2.018 1.354-3.524 1.354-.943 0-1.776-.205-2.496-.616a4.144 4.144 0 0 1-1.661-1.784c-.387-.773-.58-1.675-.58-2.707 0-1.605.419-2.853 1.256-3.744.838-.89 2.016-1.336 3.534-1.336.943 0 1.775.205 2.496.616.72.41 1.274.998 1.661 1.766s.58 1.667.58 2.698Zm4.35 0c0 .973.159 1.708.475 2.206.322.498.844.748 1.565.748.714 0 1.227-.247 1.538-.739.316-.498.474-1.236.474-2.215 0-.972-.158-1.702-.474-2.188-.317-.486-.835-.73-1.556-.73-.715 0-1.23.244-1.547.73-.316.48-.475 1.21-.475 2.188Zm6.794 0c0 1.6-.421 2.85-1.265 3.753-.844.903-2.019 1.354-3.525 1.354-.943 0-1.775-.205-2.496-.616a4.156 4.156 0 0 1-1.661-1.784c-.387-.773-.58-1.675-.58-2.707 0-1.605.419-2.853 1.257-3.744.838-.89 2.016-1.336 3.533-1.336.943 0 1.776.205 2.496.616a4.1 4.1 0 0 1 1.661 1.766c.387.768.58 1.667.58 2.698Zm10.767-4.895v1.362l-1.538.396c.281.44.422.931.422 1.476 0 1.055-.369 1.878-1.108 2.47-.732.586-1.752.879-3.058.879l-.484-.027-.395-.044c-.275.212-.413.446-.413.704 0 .386.492.58 1.476.58h1.67c1.078 0 1.899.231 2.461.694.569.463.853 1.143.853 2.04 0 1.148-.481 2.038-1.442 2.671-.955.633-2.329.95-4.122.95-1.371 0-2.42-.241-3.146-.722-.721-.474-1.081-1.142-1.081-2.003 0-.592.184-1.087.553-1.486.37-.398.912-.682 1.626-.852a1.807 1.807 0 0 1-.72-.572 1.387 1.387 0 0 1-.308-.852c0-.375.109-.686.325-.932.217-.252.531-.498.941-.738a2.663 2.663 0 0 1-1.231-1.072c-.299-.492-.448-1.073-.448-1.74 0-1.073.349-1.902 1.046-2.488.697-.586 1.693-.879 2.988-.879.276 0 .601.027.976.08.381.046.624.081.729.105h3.428Zm-7.585 11.215c0 .369.176.659.527.87.358.21.856.316 1.495.316.961 0 1.713-.132 2.258-.395.545-.264.818-.624.818-1.081 0-.37-.161-.624-.484-.765-.322-.14-.82-.211-1.494-.211h-1.388c-.493 0-.906.114-1.24.343-.328.234-.492.542-.492.923Zm.976-7.998c0 .533.12.955.36 1.265.246.31.618.466 1.116.466.504 0 .873-.155 1.108-.466.234-.31.351-.732.351-1.265 0-1.184-.486-1.776-1.459-1.776-.984 0-1.476.592-1.476 1.776ZM143.097 32h-2.681V18.324h2.681V32Zm6.89-8.104c-.568 0-1.013.182-1.336.545-.322.358-.506.868-.553 1.53h3.761c-.011-.662-.184-1.172-.518-1.53-.334-.363-.785-.544-1.354-.544Zm.378 8.28c-1.582 0-2.818-.437-3.709-1.31-.89-.873-1.336-2.11-1.336-3.709 0-1.646.41-2.918 1.231-3.814.826-.903 1.966-1.354 3.419-1.354 1.388 0 2.469.396 3.243 1.187.773.79 1.16 1.884 1.16 3.278v1.3h-6.337c.029.763.255 1.357.677 1.785.422.428 1.014.642 1.775.642.592 0 1.152-.062 1.679-.185a8.4 8.4 0 0 0 1.652-.589v2.074a6.136 6.136 0 0 1-1.503.519c-.533.117-1.183.176-1.951.176Zm13.799-6.979h.897c.837 0 1.464-.164 1.88-.492.416-.334.624-.817.624-1.45 0-.639-.175-1.11-.527-1.415-.346-.305-.891-.457-1.635-.457h-1.239v3.814Zm6.152-2.039c0 1.383-.433 2.44-1.3 3.173-.862.733-2.089 1.099-3.683 1.099h-1.169V32h-2.725V19.15h4.105c1.559 0 2.742.337 3.551 1.011.814.668 1.221 1.667 1.221 2.997Zm4.351 3.911c0 .973.158 1.708.475 2.206.322.498.843.748 1.564.748.715 0 1.228-.247 1.538-.739.317-.498.475-1.236.475-2.215 0-.972-.158-1.702-.475-2.188-.316-.486-.835-.73-1.556-.73-.714 0-1.23.244-1.546.73-.317.48-.475 1.21-.475 2.188Zm6.794 0c0 1.6-.422 2.85-1.266 3.753-.843.903-2.018 1.354-3.524 1.354-.943 0-1.775-.205-2.496-.616a4.144 4.144 0 0 1-1.661-1.784c-.387-.773-.58-1.675-.58-2.707 0-1.605.419-2.853 1.256-3.744.838-.89 2.016-1.336 3.534-1.336.943 0 1.775.205 2.496.616.72.41 1.274.998 1.661 1.766s.58 1.667.58 2.698Zm5.326 5.107c-1.154 0-2.062-.449-2.725-1.345-.656-.896-.984-2.139-.984-3.726 0-1.612.334-2.866 1.002-3.762.674-.903 1.6-1.354 2.777-1.354 1.237 0 2.18.48 2.831 1.442h.087a11.03 11.03 0 0 1-.202-1.96v-3.147h2.69V32h-2.057l-.518-1.274h-.115c-.609.966-1.538 1.45-2.786 1.45Zm.941-2.136c.685 0 1.186-.2 1.502-.598.323-.398.499-1.075.528-2.03v-.29c0-1.055-.164-1.81-.492-2.267-.323-.457-.85-.686-1.582-.686-.598 0-1.064.255-1.398.765-.328.503-.492 1.239-.492 2.206 0 .966.167 1.693.501 2.18.334.48.811.72 1.433.72Zm11.329 2.136c-3.059 0-4.588-1.679-4.588-5.036 0-1.67.416-2.945 1.248-3.824.832-.884 2.024-1.327 3.577-1.327 1.137 0 2.156.223 3.059.668l-.791 2.074c-.422-.17-.815-.307-1.178-.413a3.701 3.701 0 0 0-1.09-.167c-1.395 0-2.092.99-2.092 2.971 0 1.922.697 2.883 2.092 2.883.516 0 .993-.067 1.433-.202.439-.14.878-.358 1.318-.65v2.293a4.318 4.318 0 0 1-1.318.572c-.44.105-.997.158-1.67.158ZM210.57 32l-.518-1.336h-.071c-.451.568-.917.964-1.397 1.187-.475.216-1.096.325-1.863.325-.944 0-1.688-.27-2.233-.809-.539-.539-.808-1.306-.808-2.303 0-1.043.363-1.81 1.09-2.302.732-.498 1.834-.774 3.304-.826l1.705-.053v-.43c0-.997-.509-1.495-1.529-1.495-.785 0-1.708.237-2.769.712l-.887-1.81c1.131-.592 2.385-.888 3.761-.888 1.319 0 2.33.287 3.033.861.703.574 1.054 1.447 1.054 2.62V32h-1.872Zm-.791-4.553-1.037.035c-.779.024-1.359.165-1.74.422-.381.258-.571.65-.571 1.178 0 .756.433 1.134 1.3 1.134.622 0 1.117-.179 1.486-.536.375-.358.562-.832.562-1.424v-.809Zm12.287 1.635c0 1.008-.351 1.775-1.054 2.303-.698.527-1.743.79-3.138.79-.715 0-1.324-.049-1.828-.149a6.724 6.724 0 0 1-1.415-.422V29.39a9.35 9.35 0 0 0 1.679.588c.627.159 1.177.238 1.652.238.973 0 1.459-.281 1.459-.844a.693.693 0 0 0-.193-.51c-.129-.134-.352-.284-.668-.448-.317-.17-.739-.366-1.266-.589-.756-.316-1.313-.61-1.67-.879a2.535 2.535 0 0 1-.773-.923c-.159-.351-.238-.782-.238-1.292 0-.873.337-1.546 1.011-2.021.68-.48 1.641-.72 2.883-.72 1.183 0 2.335.257 3.454.773l-.809 1.933a14.85 14.85 0 0 0-1.38-.518 4.33 4.33 0 0 0-1.309-.202c-.791 0-1.187.213-1.187.641 0 .24.126.448.378.624.258.176.818.437 1.679.782.768.311 1.33.601 1.688.87.357.27.621.58.791.932.169.352.254.77.254 1.257Zm6.232.958c.469 0 1.031-.102 1.687-.308v1.995c-.668.3-1.488.449-2.461.449-1.072 0-1.854-.27-2.346-.809-.487-.545-.73-1.36-.73-2.443v-4.738h-1.283v-1.133l1.477-.897.773-2.074h1.714v2.092h2.751v2.012h-2.751v4.738c0 .38.105.662.316.844.217.181.501.272.853.272Zm10.538-.958c0 1.008-.352 1.775-1.055 2.303-.697.527-1.743.79-3.137.79-.715 0-1.325-.049-1.829-.149a6.76 6.76 0 0 1-1.415-.422V29.39c.498.234 1.058.43 1.679.588.627.159 1.178.238 1.652.238.973 0 1.459-.281 1.459-.844a.689.689 0 0 0-.193-.51c-.129-.134-.351-.284-.668-.448a15.41 15.41 0 0 0-1.266-.589c-.755-.316-1.312-.61-1.669-.879a2.538 2.538 0 0 1-.774-.923c-.158-.351-.237-.782-.237-1.292 0-.873.337-1.546 1.011-2.021.679-.48 1.64-.72 2.882-.72 1.184 0 2.335.257 3.454.773l-.808 1.933a14.85 14.85 0 0 0-1.38-.518 4.336 4.336 0 0 0-1.31-.202c-.791 0-1.186.213-1.186.641 0 .24.126.448.378.624.258.176.817.437 1.679.782.767.311 1.33.601 1.687.87.357.27.621.58.791.932.17.352.255.77.255 1.257Z"/>
  </g>
  <rect width="301" height="49" x=".5" y=".5" stroke="#212121" rx="8.5"/>
  <defs>
    <clipPath id="a">
      <path fill="#fff" d="M61.5 12h179v26h-179z"/>
    </clipPath>
    <clipPath id="b">
      <path fill="#fff" d="M61.5 13h24v24h-24z"/>
    </clipPath>
  </defs>
</svg>
