<svg xmlns="http://www.w3.org/2000/svg" width="302" height="50" fill="none" viewBox="0 0 302 50">
  <rect width="301" height="49" x=".5" y=".5" fill="#000" rx="8.5"/>
  <g clip-path="url(#a)">
    <g clip-path="url(#b)">
      <path fill="#0066DA" d="m78.964 32.656 1.059 1.829c.22.385.536.687.907.907l3.78-6.543h-7.56c0 .426.11.852.33 1.237l1.484 2.57Z"/>
      <path fill="#00AC47" d="m89.15 21.151-3.78-6.543c-.371.22-.688.522-.907.907L77.48 27.612a2.49 2.49 0 0 0-.33 1.237h7.56l4.44-7.698Z"/>
      <path fill="#EA4335" d="M97.37 35.392c.37-.22.687-.523.907-.907l.44-.756 2.103-3.643c.22-.385.33-.811.33-1.237h-7.56l1.608 3.161 2.172 3.382Z"/>
      <path fill="#00832D" d="m89.15 21.151 3.78-6.543a2.417 2.417 0 0 0-1.237-.33h-5.086c-.44 0-.866.124-1.237.33l3.78 6.543Z"/>
      <path fill="#2684FC" d="M93.59 28.849h-8.88l-3.78 6.543c.371.22.797.33 1.237.33h13.966c.44 0 .866-.124 1.237-.33l-3.78-6.543Z"/>
      <path fill="#FFBA00" d="m97.329 21.564-3.492-6.049a2.496 2.496 0 0 0-.907-.907l-3.78 6.543 4.44 7.698h7.546c0-.426-.11-.852-.33-1.237l-3.477-6.048Z"/>
    </g>
    <path fill="#fff" d="M115.995 24.784h5.098v6.662a14.03 14.03 0 0 1-2.338.563c-.727.111-1.471.167-2.233.167-1.939 0-3.421-.569-4.447-1.705-1.019-1.143-1.529-2.78-1.529-4.913 0-2.075.592-3.692 1.775-4.852 1.19-1.16 2.836-1.74 4.94-1.74 1.318 0 2.59.264 3.814.79l-.905 2.18a6.468 6.468 0 0 0-2.927-.703c-1.178 0-2.121.396-2.83 1.187-.709.79-1.063 1.854-1.063 3.19 0 1.395.284 2.461.852 3.2.574.732 1.406 1.098 2.496 1.098.569 0 1.146-.058 1.732-.176v-2.68h-2.435v-2.268Zm10.09 2.285c0 .973.158 1.708.475 2.206.322.498.843.748 1.564.748.715 0 1.228-.247 1.538-.739.317-.498.475-1.236.475-2.215 0-.972-.158-1.702-.475-2.188-.316-.486-.835-.73-1.556-.73-.714 0-1.23.244-1.546.73-.317.48-.475 1.21-.475 2.188Zm6.794 0c0 1.6-.422 2.85-1.266 3.753-.843.903-2.018 1.354-3.524 1.354-.943 0-1.776-.205-2.496-.616a4.144 4.144 0 0 1-1.661-1.784c-.387-.773-.58-1.675-.58-2.707 0-1.605.419-2.853 1.256-3.744.838-.89 2.016-1.336 3.534-1.336.943 0 1.775.205 2.496.616.72.41 1.274.998 1.661 1.766s.58 1.667.58 2.698Zm4.35 0c0 .973.159 1.708.475 2.206.322.498.844.748 1.565.748.714 0 1.227-.247 1.538-.739.316-.498.474-1.236.474-2.215 0-.972-.158-1.702-.474-2.188-.317-.486-.835-.73-1.556-.73-.715 0-1.23.244-1.547.73-.316.48-.475 1.21-.475 2.188Zm6.794 0c0 1.6-.421 2.85-1.265 3.753-.844.903-2.019 1.354-3.525 1.354-.943 0-1.775-.205-2.496-.616a4.156 4.156 0 0 1-1.661-1.784c-.387-.773-.58-1.675-.58-2.707 0-1.605.419-2.853 1.257-3.744.838-.89 2.016-1.336 3.533-1.336.943 0 1.776.205 2.496.616a4.1 4.1 0 0 1 1.661 1.766c.387.768.58 1.667.58 2.698Zm10.767-4.895v1.362l-1.538.396c.281.44.422.931.422 1.476 0 1.055-.369 1.878-1.108 2.47-.732.586-1.752.879-3.058.879l-.484-.027-.395-.044c-.275.212-.413.446-.413.704 0 .386.492.58 1.476.58h1.67c1.078 0 1.899.231 2.461.694.569.463.853 1.143.853 2.04 0 1.148-.481 2.038-1.442 2.671-.955.633-2.329.95-4.122.95-1.371 0-2.42-.241-3.146-.722-.721-.474-1.081-1.142-1.081-2.003 0-.592.184-1.087.553-1.486.37-.398.912-.682 1.626-.852a1.807 1.807 0 0 1-.72-.572 1.387 1.387 0 0 1-.308-.852c0-.375.109-.686.325-.932.217-.252.531-.498.941-.738a2.663 2.663 0 0 1-1.231-1.072c-.299-.492-.448-1.073-.448-1.74 0-1.073.349-1.902 1.046-2.488.697-.586 1.693-.879 2.988-.879.276 0 .601.027.976.08.381.046.624.081.729.105h3.428Zm-7.585 11.215c0 .369.176.659.527.87.358.21.856.316 1.495.316.961 0 1.713-.132 2.258-.395.545-.264.818-.624.818-1.081 0-.37-.161-.624-.484-.765-.322-.14-.82-.211-1.494-.211h-1.388c-.493 0-.906.114-1.24.343-.328.234-.492.542-.492.923Zm.976-7.998c0 .533.12.955.36 1.265.246.31.618.466 1.116.466.504 0 .873-.155 1.108-.466.234-.31.351-.732.351-1.265 0-1.184-.486-1.776-1.459-1.776-.984 0-1.476.592-1.476 1.776ZM159.097 32h-2.681V18.324h2.681V32Zm6.89-8.104c-.568 0-1.013.182-1.336.545-.322.358-.506.868-.553 1.53h3.761c-.011-.662-.184-1.172-.518-1.53-.334-.363-.785-.544-1.354-.544Zm.378 8.28c-1.582 0-2.818-.437-3.709-1.31-.89-.873-1.336-2.11-1.336-3.709 0-1.646.41-2.918 1.231-3.814.826-.903 1.966-1.354 3.419-1.354 1.388 0 2.469.396 3.243 1.187.773.79 1.16 1.884 1.16 3.278v1.3h-6.337c.029.763.255 1.357.677 1.785.422.428 1.014.642 1.775.642.592 0 1.152-.062 1.679-.185a8.4 8.4 0 0 0 1.652-.589v2.074a6.136 6.136 0 0 1-1.503.519c-.533.117-1.183.176-1.951.176Zm21.736-6.724c0 2.115-.604 3.735-1.811 4.86-1.201 1.125-2.938 1.688-5.212 1.688h-3.639V19.15h4.035c2.097 0 3.726.554 4.886 1.662 1.161 1.107 1.741 2.654 1.741 4.64Zm-2.83.07c0-2.76-1.219-4.14-3.657-4.14h-1.45v8.368h1.169c2.625 0 3.938-1.41 3.938-4.227Zm10.766-3.533c.363 0 .665.027.905.08l-.202 2.513a3.07 3.07 0 0 0-.791-.088c-.855 0-1.523.22-2.004.66-.474.439-.712 1.054-.712 1.845V32h-2.68v-9.826h2.03l.396 1.652h.131c.305-.55.715-.993 1.231-1.327a3.046 3.046 0 0 1 1.696-.51Zm2.575-2.355c0-.873.487-1.31 1.459-1.31.973 0 1.459.437 1.459 1.31 0 .416-.123.741-.369.975-.24.229-.603.343-1.09.343-.972 0-1.459-.44-1.459-1.318ZM201.407 32h-2.68v-9.826h2.68V32Zm5.159 0-3.744-9.826h2.804l1.898 5.599c.211.708.343 1.38.396 2.012h.053c.029-.562.161-1.233.395-2.012l1.89-5.6h2.804L209.317 32h-2.751Zm11.98-8.104c-.568 0-1.014.182-1.336.545-.322.358-.507.868-.554 1.53h3.762c-.012-.662-.185-1.172-.519-1.53-.334-.363-.785-.544-1.353-.544Zm.378 8.28c-1.582 0-2.819-.437-3.709-1.31-.891-.873-1.336-2.11-1.336-3.709 0-1.646.41-2.918 1.23-3.814.827-.903 1.966-1.354 3.419-1.354 1.389 0 2.47.396 3.243 1.187.774.79 1.161 1.884 1.161 3.278v1.3h-6.337c.029.763.255 1.357.676 1.785.422.428 1.014.642 1.776.642.592 0 1.151-.062 1.679-.185a8.4 8.4 0 0 0 1.652-.589v2.074c-.469.235-.97.408-1.503.519-.533.117-1.184.176-1.951.176Z"/>
  </g>
  <rect width="301" height="49" x=".5" y=".5" stroke="#fff" rx="8.5"/>
  <defs>
    <clipPath id="a">
      <path fill="#fff" d="M77.5 12h147v26h-147z"/>
    </clipPath>
    <clipPath id="b">
      <path fill="#fff" d="M77.5 13h24v24h-24z"/>
    </clipPath>
  </defs>
</svg>
