<svg xmlns="http://www.w3.org/2000/svg" width="302" height="50" fill="none" viewBox="0 0 302 50">
  <rect width="301" height="49" x=".5" y=".5" fill="#000" rx="8.5"/>
  <g clip-path="url(#a)">
    <path fill="#EA4335" d="m67.795 24.463-9.942 10.549a2.686 2.686 0 0 0 3.958 1.615l.028-.02 11.183-6.45-5.236-5.703.009.01Z"/>
    <path fill="#FBBC04" d="M77.849 22.67h-.01l-4.826-2.809-5.442 4.845 5.461 5.46 4.807-2.772a2.689 2.689 0 0 0 1.41-2.361c0-1.018-.56-1.905-1.4-2.353v-.01Z"/>
    <path fill="#4285F4" d="M57.853 14.998a2.798 2.798 0 0 0-.093.69v18.633c0 .242.028.467.093.69l10.278-10.277-10.278-9.736Z"/>
    <path fill="#34A853" d="m67.87 25.005 5.143-5.144-11.174-6.478a2.696 2.696 0 0 0-3.986 1.606L67.87 24.994v.01Z"/>
    <path fill="#fff" d="M94.995 24.784h5.098v6.662a14.03 14.03 0 0 1-2.338.563c-.727.111-1.47.167-2.233.167-1.939 0-3.421-.569-4.447-1.705-1.02-1.143-1.53-2.78-1.53-4.913 0-2.075.593-3.692 1.776-4.852 1.19-1.16 2.836-1.74 4.94-1.74 1.318 0 2.59.264 3.814.79l-.905 2.18a6.466 6.466 0 0 0-2.927-.703c-1.178 0-2.12.396-2.83 1.187-.709.79-1.063 1.854-1.063 3.19 0 1.395.284 2.461.852 3.2.574.732 1.406 1.098 2.496 1.098.569 0 1.146-.058 1.732-.176v-2.68h-2.435v-2.268Zm10.09 2.285c0 .973.158 1.708.475 2.206.322.498.843.748 1.564.748.715 0 1.228-.247 1.538-.739.317-.498.475-1.236.475-2.215 0-.972-.158-1.702-.475-2.188-.316-.486-.835-.73-1.556-.73-.714 0-1.23.244-1.546.73-.317.48-.475 1.21-.475 2.188Zm6.794 0c0 1.6-.422 2.85-1.266 3.753-.843.903-2.018 1.354-3.524 1.354-.943 0-1.776-.205-2.496-.616a4.144 4.144 0 0 1-1.661-1.784c-.387-.773-.58-1.675-.58-2.707 0-1.605.419-2.853 1.256-3.744.838-.89 2.016-1.336 3.534-1.336.943 0 1.775.205 2.496.616.72.41 1.274.998 1.661 1.766s.58 1.667.58 2.698Zm4.35 0c0 .973.159 1.708.475 2.206.322.498.844.748 1.565.748.714 0 1.227-.247 1.538-.739.316-.498.474-1.236.474-2.215 0-.972-.158-1.702-.474-2.188-.317-.486-.835-.73-1.556-.73-.715 0-1.23.244-1.547.73-.316.48-.475 1.21-.475 2.188Zm6.794 0c0 1.6-.421 2.85-1.265 3.753-.844.903-2.019 1.354-3.525 1.354-.943 0-1.775-.205-2.496-.616a4.156 4.156 0 0 1-1.661-1.784c-.387-.773-.58-1.675-.58-2.707 0-1.605.419-2.853 1.257-3.744.838-.89 2.016-1.336 3.533-1.336.943 0 1.776.205 2.496.616a4.1 4.1 0 0 1 1.661 1.766c.387.768.58 1.667.58 2.698Zm10.767-4.895v1.362l-1.538.396c.281.44.422.931.422 1.476 0 1.055-.369 1.878-1.108 2.47-.732.586-1.752.879-3.058.879l-.484-.027-.395-.044c-.275.212-.413.446-.413.704 0 .386.492.58 1.476.58h1.67c1.078 0 1.899.231 2.461.694.569.463.853 1.143.853 2.04 0 1.148-.481 2.038-1.442 2.671-.955.633-2.329.95-4.122.95-1.371 0-2.42-.241-3.146-.722-.721-.474-1.081-1.142-1.081-2.003 0-.592.184-1.087.553-1.486.37-.398.912-.682 1.626-.852a1.807 1.807 0 0 1-.72-.572 1.387 1.387 0 0 1-.308-.852c0-.375.109-.686.325-.932.217-.252.531-.498.941-.738a2.663 2.663 0 0 1-1.231-1.072c-.299-.492-.448-1.073-.448-1.74 0-1.073.349-1.902 1.046-2.488.697-.586 1.693-.879 2.988-.879.276 0 .601.027.976.08.381.046.624.081.729.105h3.428Zm-7.585 11.215c0 .369.176.659.527.87.358.21.856.316 1.495.316.961 0 1.713-.132 2.258-.395.545-.264.818-.624.818-1.081 0-.37-.161-.624-.484-.765-.322-.14-.82-.211-1.494-.211h-1.388c-.493 0-.906.114-1.24.343-.328.234-.492.542-.492.923Zm.976-7.998c0 .533.12.955.36 1.265.246.31.618.466 1.116.466.504 0 .873-.155 1.108-.466.234-.31.351-.732.351-1.265 0-1.184-.486-1.776-1.459-1.776-.984 0-1.476.592-1.476 1.776ZM138.097 32h-2.681V18.324h2.681V32Zm6.89-8.104c-.568 0-1.013.182-1.336.545-.322.358-.506.868-.553 1.53h3.761c-.011-.662-.184-1.172-.518-1.53-.334-.363-.785-.544-1.354-.544Zm.378 8.28c-1.582 0-2.818-.437-3.709-1.31-.89-.873-1.336-2.11-1.336-3.709 0-1.646.41-2.918 1.231-3.814.826-.903 1.966-1.354 3.419-1.354 1.388 0 2.469.396 3.243 1.187.773.79 1.16 1.884 1.16 3.278v1.3h-6.337c.029.763.255 1.357.677 1.785.422.428 1.014.642 1.775.642.592 0 1.152-.062 1.679-.185a8.4 8.4 0 0 0 1.652-.589v2.074a6.136 6.136 0 0 1-1.503.519c-.533.117-1.183.176-1.951.176Zm13.799-6.979h.897c.837 0 1.464-.164 1.88-.492.416-.334.624-.817.624-1.45 0-.639-.175-1.11-.527-1.415-.346-.305-.891-.457-1.635-.457h-1.239v3.814Zm6.152-2.039c0 1.383-.433 2.44-1.3 3.173-.862.733-2.089 1.099-3.683 1.099h-1.169V32h-2.725V19.15h4.105c1.559 0 2.742.337 3.551 1.011.814.668 1.221 1.667 1.221 2.997ZM170.212 32h-2.681V18.324h2.681V32Zm9.061 0-.518-1.336h-.07c-.452.568-.917.964-1.398 1.187-.475.216-1.096.325-1.863.325-.944 0-1.688-.27-2.233-.809-.539-.539-.808-1.306-.808-2.303 0-1.043.363-1.81 1.09-2.302.732-.498 1.834-.774 3.304-.826l1.705-.053v-.43c0-.997-.509-1.495-1.529-1.495-.785 0-1.708.237-2.768.712l-.888-1.81c1.131-.592 2.385-.888 3.762-.888 1.318 0 2.329.287 3.032.861.703.574 1.055 1.447 1.055 2.62V32h-1.873Zm-.791-4.553-1.037.035c-.779.024-1.359.165-1.74.422-.381.258-.571.65-.571 1.178 0 .756.433 1.134 1.301 1.134.621 0 1.116-.179 1.485-.536.375-.358.562-.832.562-1.424v-.809Zm4.026-5.273h2.935l1.855 5.528c.158.48.266 1.049.325 1.705h.053c.064-.603.19-1.172.378-1.705l1.819-5.528h2.874l-4.157 11.083c-.381 1.025-.926 1.793-1.635 2.303-.703.51-1.526.764-2.47.764-.463 0-.917-.05-1.362-.15v-2.126c.322.076.674.114 1.055.114.474 0 .887-.146 1.239-.44.357-.287.636-.723.835-1.309l.158-.483-3.902-9.756Zm24.126 6.258c0 1.16-.419 2.074-1.257 2.742-.832.668-1.992 1.002-3.481 1.002-1.371 0-2.584-.258-3.638-.774v-2.53c.867.386 1.599.658 2.197.817a6.566 6.566 0 0 0 1.652.237c.598 0 1.055-.114 1.372-.343.322-.228.483-.568.483-1.02 0-.252-.07-.474-.211-.668a2.287 2.287 0 0 0-.624-.57c-.27-.182-.823-.473-1.661-.87-.785-.37-1.374-.724-1.767-1.064a3.993 3.993 0 0 1-.94-1.187c-.235-.451-.352-.978-.352-1.582 0-1.137.384-2.03 1.152-2.68.773-.651 1.839-.976 3.199-.976.668 0 1.304.079 1.907.237.609.158 1.245.381 1.907.668l-.879 2.118c-.685-.281-1.254-.477-1.705-.589a5.415 5.415 0 0 0-1.318-.167c-.516 0-.911.12-1.187.36a1.19 1.19 0 0 0-.413.941c0 .24.056.451.167.633.112.176.287.349.528.518.246.165.823.463 1.731.897 1.201.574 2.025 1.151 2.47 1.732.445.574.668 1.28.668 2.118Zm6.258 1.608c.468 0 1.031-.102 1.687-.308v1.995c-.668.3-1.488.449-2.461.449-1.072 0-1.854-.27-2.347-.809-.486-.545-.729-1.36-.729-2.443v-4.738h-1.283v-1.133l1.476-.897.774-2.074h1.714v2.092h2.751v2.012h-2.751v4.738c0 .38.105.662.316.844.217.181.501.272.853.272Zm5.818-2.97c0 .972.158 1.707.475 2.205.322.498.843.748 1.564.748.715 0 1.228-.247 1.538-.739.317-.498.475-1.236.475-2.215 0-.972-.158-1.702-.475-2.188-.316-.486-.835-.73-1.556-.73-.714 0-1.23.244-1.546.73-.317.48-.475 1.21-.475 2.188Zm6.794 0c0 1.599-.422 2.85-1.266 3.752-.843.903-2.018 1.354-3.524 1.354-.943 0-1.776-.205-2.496-.616a4.144 4.144 0 0 1-1.661-1.784c-.387-.773-.58-1.675-.58-2.707 0-1.605.419-2.853 1.256-3.744.838-.89 2.016-1.336 3.534-1.336.943 0 1.775.205 2.496.616.72.41 1.274.998 1.661 1.766s.58 1.667.58 2.698Zm7.699-5.08c.363 0 .665.026.905.078l-.202 2.514a3.07 3.07 0 0 0-.791-.088c-.855 0-1.523.22-2.004.66-.474.439-.712 1.054-.712 1.845V32h-2.68v-9.826h2.03l.396 1.652h.131c.305-.55.715-.993 1.231-1.327a3.046 3.046 0 0 1 1.696-.51Zm6.759 1.907c-.568 0-1.014.181-1.336.544-.322.358-.507.868-.554 1.53h3.762c-.012-.662-.185-1.172-.519-1.53-.334-.363-.785-.544-1.353-.544Zm.378 8.279c-1.582 0-2.819-.437-3.709-1.31-.891-.873-1.336-2.11-1.336-3.709 0-1.646.41-2.918 1.23-3.814.827-.903 1.966-1.354 3.419-1.354 1.389 0 2.47.396 3.244 1.187.773.79 1.16 1.884 1.16 3.278v1.3h-6.337c.029.763.255 1.357.677 1.785.421.428 1.013.642 1.775.642.592 0 1.151-.062 1.679-.185a8.4 8.4 0 0 0 1.652-.589v2.074c-.469.235-.97.408-1.503.519-.533.117-1.184.176-1.951.176Z"/>
  </g>
  <rect width="301" height="49" x=".5" y=".5" stroke="#fff" rx="8.5"/>
  <defs>
    <clipPath id="a">
      <path fill="#fff" d="M56.5 12h189v26h-189z"/>
    </clipPath>
  </defs>
</svg>
