<svg xmlns="http://www.w3.org/2000/svg" width="302" height="50" fill="none" viewBox="0 0 302 50">
  <rect width="301" height="49" x=".5" y=".5" fill="#fff" rx="8.5"/>
  <g clip-path="url(#a)">
    <path fill="#4285F4" d="M80 32.271 68 22.5 80 13v19.271Z"/>
    <path fill="#356AC3" d="M80 32.271 92 22.5 80 13v19.271Z"/>
    <path fill="#A0C3FF" d="M80 37a7 7 0 1 0 0-14 7 7 0 0 0 0 14Z"/>
    <path fill="#76A7FA" d="M73.674 27a7 7 0 0 1 12.652 0H73.674Z"/>
  </g>
  <path fill="#000" d="M106.495 24.784h5.098v6.662a14.03 14.03 0 0 1-2.338.563c-.727.111-1.471.167-2.233.167-1.939 0-3.421-.569-4.447-1.705-1.019-1.143-1.529-2.78-1.529-4.913 0-2.075.592-3.692 1.775-4.852 1.19-1.16 2.836-1.74 4.94-1.74 1.318 0 2.59.264 3.814.79l-.905 2.18a6.468 6.468 0 0 0-2.927-.703c-1.178 0-2.121.396-2.83 1.187-.709.79-1.063 1.854-1.063 3.19 0 1.395.284 2.461.852 3.2.574.732 1.406 1.098 2.496 1.098.569 0 1.146-.058 1.732-.176v-2.68h-2.435v-2.268Zm10.09 2.285c0 .973.158 1.708.475 2.206.322.498.843.748 1.564.748.715 0 1.228-.247 1.538-.739.317-.498.475-1.236.475-2.215 0-.972-.158-1.702-.475-2.188-.316-.486-.835-.73-1.556-.73-.714 0-1.23.244-1.546.73-.317.48-.475 1.21-.475 2.188Zm6.794 0c0 1.6-.422 2.85-1.266 3.753-.843.903-2.018 1.354-3.524 1.354-.943 0-1.776-.205-2.496-.616a4.144 4.144 0 0 1-1.661-1.784c-.387-.773-.58-1.675-.58-2.707 0-1.605.419-2.853 1.256-3.744.838-.89 2.016-1.336 3.534-1.336.943 0 1.775.205 2.496.616.72.41 1.274.998 1.661 1.766s.58 1.667.58 2.698Zm4.35 0c0 .973.159 1.708.475 2.206.322.498.844.748 1.565.748.714 0 1.227-.247 1.538-.739.316-.498.474-1.236.474-2.215 0-.972-.158-1.702-.474-2.188-.317-.486-.835-.73-1.556-.73-.715 0-1.23.244-1.547.73-.316.48-.475 1.21-.475 2.188Zm6.794 0c0 1.6-.421 2.85-1.265 3.753-.844.903-2.019 1.354-3.525 1.354-.943 0-1.775-.205-2.496-.616a4.156 4.156 0 0 1-1.661-1.784c-.387-.773-.58-1.675-.58-2.707 0-1.605.419-2.853 1.257-3.744.838-.89 2.016-1.336 3.533-1.336.943 0 1.776.205 2.496.616a4.1 4.1 0 0 1 1.661 1.766c.387.768.58 1.667.58 2.698Zm10.767-4.895v1.362l-1.538.396c.281.44.422.931.422 1.476 0 1.055-.369 1.878-1.108 2.47-.732.586-1.752.879-3.058.879l-.484-.027-.395-.044c-.275.212-.413.446-.413.704 0 .386.492.58 1.476.58h1.67c1.078 0 1.899.231 2.461.694.569.463.853 1.143.853 2.04 0 1.148-.481 2.038-1.442 2.671-.955.633-2.329.95-4.122.95-1.371 0-2.42-.241-3.146-.722-.721-.474-1.081-1.142-1.081-2.003 0-.592.184-1.087.553-1.486.37-.398.912-.682 1.626-.852a1.807 1.807 0 0 1-.72-.572 1.387 1.387 0 0 1-.308-.852c0-.375.109-.686.325-.932.217-.252.531-.498.941-.738a2.663 2.663 0 0 1-1.231-1.072c-.299-.492-.448-1.073-.448-1.74 0-1.073.349-1.902 1.046-2.488.697-.586 1.693-.879 2.988-.879.276 0 .601.027.976.08.381.046.624.081.729.105h3.428Zm-7.585 11.215c0 .369.176.659.527.87.358.21.856.316 1.495.316.961 0 1.713-.132 2.258-.395.545-.264.818-.624.818-1.081 0-.37-.161-.624-.484-.765-.322-.14-.82-.211-1.494-.211h-1.388c-.493 0-.906.114-1.24.343-.328.234-.492.542-.492.923Zm.976-7.998c0 .533.12.955.36 1.265.246.31.618.466 1.116.466.504 0 .873-.155 1.108-.466.234-.31.351-.732.351-1.265 0-1.184-.486-1.776-1.459-1.776-.984 0-1.476.592-1.476 1.776ZM149.597 32h-2.681V18.324h2.681V32Zm6.89-8.104c-.568 0-1.013.182-1.336.545-.322.358-.506.868-.553 1.53h3.761c-.011-.662-.184-1.172-.518-1.53-.334-.363-.785-.544-1.354-.544Zm.378 8.28c-1.582 0-2.818-.437-3.709-1.31-.89-.873-1.336-2.11-1.336-3.709 0-1.646.41-2.918 1.231-3.814.826-.903 1.966-1.354 3.419-1.354 1.388 0 2.469.396 3.243 1.187.773.79 1.16 1.884 1.16 3.278v1.3h-6.337c.029.763.255 1.357.677 1.785.422.428 1.014.642 1.775.642.592 0 1.152-.062 1.679-.185a8.4 8.4 0 0 0 1.652-.589v2.074a6.136 6.136 0 0 1-1.503.519c-.533.117-1.183.176-1.951.176Zm18.659-3.744c0 1.16-.419 2.074-1.256 2.742-.832.668-1.993 1.002-3.481 1.002-1.371 0-2.584-.258-3.639-.774v-2.53c.868.386 1.6.658 2.198.817a6.56 6.56 0 0 0 1.652.237c.598 0 1.055-.114 1.371-.343.322-.228.484-.568.484-1.02a1.11 1.11 0 0 0-.211-.668 2.287 2.287 0 0 0-.624-.57c-.27-.182-.824-.473-1.662-.87-.785-.37-1.374-.724-1.766-1.064a3.996 3.996 0 0 1-.941-1.187c-.234-.451-.351-.978-.351-1.582 0-1.137.384-2.03 1.151-2.68.774-.651 1.84-.976 3.199-.976.668 0 1.304.079 1.908.237.609.158 1.245.381 1.907.668l-.879 2.118c-.686-.281-1.254-.477-1.705-.589a5.421 5.421 0 0 0-1.318-.167c-.516 0-.912.12-1.187.36a1.19 1.19 0 0 0-.413.941c0 .24.056.451.167.633.111.176.287.349.527.518.246.165.824.463 1.732.897 1.201.574 2.024 1.151 2.469 1.732.446.574.668 1.28.668 2.118Zm6.109 3.744c-3.059 0-4.588-1.679-4.588-5.036 0-1.67.416-2.945 1.248-3.824.832-.884 2.024-1.327 3.577-1.327 1.137 0 2.156.223 3.059.668l-.791 2.074c-.422-.17-.815-.307-1.178-.413a3.701 3.701 0 0 0-1.09-.167c-1.394 0-2.092.99-2.092 2.971 0 1.922.698 2.883 2.092 2.883.516 0 .993-.067 1.433-.202a5.3 5.3 0 0 0 1.318-.65v2.293a4.308 4.308 0 0 1-1.318.572c-.44.105-.996.158-1.67.158ZM195.977 32h-2.681v-5.74c0-1.417-.527-2.126-1.582-2.126-.75 0-1.292.255-1.626.764-.334.51-.501 1.336-.501 2.479V32h-2.681V18.324h2.681v2.786c0 .217-.021.727-.062 1.53l-.061.79h.14c.598-.96 1.547-1.44 2.848-1.44 1.154 0 2.03.31 2.628.93.598.622.897 1.513.897 2.673V32Zm4.895-4.93c0 .972.158 1.707.475 2.205.322.498.843.748 1.564.748.715 0 1.228-.247 1.538-.739.317-.498.475-1.236.475-2.215 0-.972-.158-1.702-.475-2.188-.316-.486-.835-.73-1.555-.73-.715 0-1.231.244-1.547.73-.317.48-.475 1.21-.475 2.188Zm6.794 0c0 1.599-.422 2.85-1.266 3.752-.843.903-2.018 1.354-3.524 1.354-.943 0-1.775-.205-2.496-.616a4.144 4.144 0 0 1-1.661-1.784c-.387-.773-.58-1.675-.58-2.707 0-1.605.419-2.853 1.257-3.744.837-.89 2.015-1.336 3.533-1.336.943 0 1.775.205 2.496.616.721.41 1.274.998 1.661 1.766s.58 1.667.58 2.698Zm4.896 4.93h-2.681V18.324h2.681V32Zm9.061 0-.519-1.336h-.07c-.451.568-.917.964-1.397 1.187-.475.216-1.096.325-1.864.325-.943 0-1.687-.27-2.232-.809-.539-.539-.809-1.306-.809-2.303 0-1.043.364-1.81 1.09-2.302.733-.498 1.834-.774 3.305-.826l1.705-.053v-.43c0-.997-.51-1.495-1.529-1.495-.785 0-1.708.237-2.769.712l-.888-1.81c1.131-.592 2.385-.888 3.762-.888 1.319 0 2.329.287 3.032.861.704.574 1.055 1.447 1.055 2.62V32h-1.872Zm-.791-4.553-1.037.035c-.779.024-1.359.165-1.74.422-.381.258-.572.65-.572 1.178 0 .756.434 1.134 1.301 1.134.621 0 1.116-.179 1.486-.536.375-.358.562-.832.562-1.424v-.809Zm10.916-5.458c.363 0 .665.027.905.08l-.202 2.513a3.07 3.07 0 0 0-.791-.088c-.855 0-1.523.22-2.004.66-.474.439-.712 1.054-.712 1.845V32h-2.68v-9.826h2.03l.395 1.652h.132c.305-.55.715-.993 1.231-1.327a3.046 3.046 0 0 1 1.696-.51Z"/>
  <rect width="301" height="49" x=".5" y=".5" stroke="#212121" rx="8.5"/>
  <defs>
    <clipPath id="a">
      <path fill="#fff" d="M68 13h24v24H68z"/>
    </clipPath>
  </defs>
</svg>
