<svg xmlns="http://www.w3.org/2000/svg" width="300" height="48" fill="none" viewBox="0 0 300 48">
  <rect width="300" height="48" fill="#F5C400" rx="8"/>
  <g clip-path="url(#a)">
    <path fill="#111820" d="M105.778 24.545c-1.461-2.944-1.481-5.79-1.481-5.79h18.383A34.22 34.22 0 0 0 123 14H99c0 5.647 1.214 9.847 2.374 12.16 1.81 3.61 4.552 6.809 9.65 8.84h.045a17.106 17.106 0 0 0 7.686-5.659c1.417-1.855 2.904-4.768 3.605-7.971h-14.213c.227 1.992 1.213 3.716 2.466 4.755h4.845c-.93 1.542-2.635 2.974-4.4 3.8-1.708-.726-3.778-2.546-5.28-5.38Z"/>
  </g>
  <path fill="#000" d="M137.495 23.784h5.098v6.662a14.03 14.03 0 0 1-2.338.563c-.727.111-1.471.167-2.233.167-1.939 0-3.421-.569-4.447-1.705-1.019-1.143-1.529-2.78-1.529-4.913 0-2.075.592-3.692 1.775-4.852 1.19-1.16 2.836-1.74 4.94-1.74 1.318 0 2.59.264 3.814.79l-.905 2.18a6.468 6.468 0 0 0-2.927-.703c-1.178 0-2.121.396-2.83 1.187-.709.79-1.063 1.854-1.063 3.19 0 1.395.284 2.461.852 3.2.574.732 1.406 1.098 2.496 1.098.569 0 1.146-.058 1.732-.176v-2.68h-2.435v-2.268ZM152.41 31l-.36-1.257h-.141a2.856 2.856 0 0 1-1.221 1.064c-.528.246-1.128.369-1.802.369-1.155 0-2.025-.308-2.611-.923-.586-.621-.879-1.512-.879-2.672v-6.407h2.681v5.74c0 .708.126 1.241.378 1.599.252.351.653.527 1.204.527.75 0 1.292-.249 1.626-.747.334-.504.501-1.336.501-2.496v-4.623h2.681V31h-2.057Zm4.755-12.366c0-.873.486-1.31 1.459-1.31.973 0 1.459.437 1.459 1.31 0 .416-.123.741-.369.975-.24.229-.604.343-1.09.343-.973 0-1.459-.44-1.459-1.318ZM159.96 31h-2.681v-9.826h2.681V31Zm5.502 0h-2.681V17.324h2.681V31Zm5.933.176c-1.155 0-2.063-.448-2.725-1.345-.656-.896-.984-2.139-.984-3.726 0-1.612.334-2.866 1.002-3.762.673-.903 1.599-1.354 2.777-1.354 1.236 0 2.18.48 2.83 1.442h.088a10.937 10.937 0 0 1-.202-1.96v-3.147h2.689V31h-2.057l-.518-1.274h-.114c-.61.966-1.538 1.45-2.786 1.45Zm.94-2.136c.686 0 1.186-.2 1.503-.598.322-.398.498-1.075.527-2.03v-.29c0-1.055-.164-1.81-.492-2.267-.322-.457-.85-.686-1.582-.686-.598 0-1.063.255-1.397.765-.329.503-.493 1.239-.493 2.206 0 .966.167 1.693.501 2.18.334.48.812.72 1.433.72Zm11.408-6.143c-.568 0-1.014.181-1.336.544-.322.358-.507.868-.553 1.53h3.761c-.011-.662-.184-1.172-.518-1.53-.334-.363-.785-.544-1.354-.544Zm.378 8.279c-1.582 0-2.818-.437-3.709-1.31s-1.336-2.11-1.336-3.709c0-1.646.41-2.918 1.231-3.814.826-.903 1.965-1.354 3.419-1.354 1.388 0 2.469.396 3.243 1.187.773.79 1.16 1.884 1.16 3.278v1.3h-6.337c.029.763.255 1.357.677 1.785.422.428 1.013.642 1.775.642.592 0 1.152-.062 1.679-.185a8.4 8.4 0 0 0 1.652-.589v2.074c-.469.235-.97.408-1.503.519-.533.117-1.183.176-1.951.176Zm9.299 0c-1.154 0-2.063-.448-2.725-1.345-.656-.896-.984-2.139-.984-3.726 0-1.612.334-2.866 1.002-3.762.674-.903 1.599-1.354 2.777-1.354 1.237 0 2.18.48 2.83 1.442h.088a10.937 10.937 0 0 1-.202-1.96v-3.147h2.69V31h-2.057l-.519-1.274h-.114c-.609.966-1.538 1.45-2.786 1.45Zm.94-2.136c.686 0 1.187-.2 1.503-.598.323-.398.498-1.075.528-2.03v-.29c0-1.055-.164-1.81-.493-2.267-.322-.457-.849-.686-1.582-.686-.597 0-1.063.255-1.397.765-.328.503-.492 1.239-.492 2.206 0 .966.167 1.693.501 2.18.334.48.811.72 1.432.72Z"/>
  <defs>
    <clipPath id="a">
      <path fill="#fff" d="M99 12h24v24H99z"/>
    </clipPath>
  </defs>
</svg>
