<svg xmlns="http://www.w3.org/2000/svg" width="300" height="48" fill="none" viewBox="0 0 300 48">
  <rect width="300" height="48" fill="url(#a)" rx="8"/>
  <g clip-path="url(#b)">
    <g clip-path="url(#c)">
      <path fill="#fff" d="M99.5 12c-3.26 0-3.667.015-4.947.072-1.278.06-2.148.261-2.913.558a5.876 5.876 0 0 0-2.126 1.384 5.855 5.855 0 0 0-1.384 2.126c-.297.765-.499 1.635-.558 2.913-.06 1.28-.072 1.687-.072 4.947s.015 3.667.072 4.947c.06 1.277.261 2.148.558 2.913a5.885 5.885 0 0 0 1.384 2.126 5.868 5.868 0 0 0 2.126 1.384c.766.296 1.636.499 2.913.558 1.28.06 1.687.072 4.947.072s3.667-.015 4.947-.072c1.277-.06 2.148-.262 2.913-.558a5.898 5.898 0 0 0 2.126-1.384 5.86 5.86 0 0 0 1.384-2.126c.296-.765.499-1.636.558-2.913.06-1.28.072-1.687.072-4.947s-.015-3.667-.072-4.947c-.06-1.277-.262-2.149-.558-2.913a5.89 5.89 0 0 0-1.384-2.126 5.847 5.847 0 0 0-2.126-1.384c-.765-.297-1.636-.499-2.913-.558-1.28-.06-1.687-.072-4.947-.072Zm0 2.16c3.203 0 3.585.016 4.85.071 1.17.055 1.805.249 2.227.415.562.217.96.477 1.382.896.419.42.679.819.896 1.381.164.422.36 1.057.413 2.227.057 1.266.07 1.646.07 4.85 0 3.204-.015 3.585-.074 4.85-.061 1.17-.256 1.805-.421 2.227a3.81 3.81 0 0 1-.899 1.382 3.744 3.744 0 0 1-1.38.896c-.42.164-1.065.36-2.235.413-1.274.057-1.649.07-4.859.07-3.211 0-3.586-.015-4.859-.074-1.171-.061-1.816-.256-2.236-.421a3.716 3.716 0 0 1-1.379-.899 3.644 3.644 0 0 1-.9-1.38c-.165-.42-.359-1.065-.42-2.235-.045-1.26-.061-1.649-.061-4.844 0-3.196.016-3.586.061-4.861.061-1.17.255-1.814.42-2.234.21-.57.479-.96.9-1.381.419-.419.81-.689 1.379-.898.42-.166 1.051-.361 2.221-.421 1.275-.045 1.65-.06 4.859-.06l.045.03Zm0 3.678a6.162 6.162 0 1 0 0 12.324 6.162 6.162 0 1 0 0-12.324ZM99.5 28c-2.21 0-4-1.79-4-4s1.79-4 4-4 4 1.79 4 4-1.79 4-4 4Zm7.846-10.405a1.441 1.441 0 0 1-2.88 0 1.44 1.44 0 0 1 2.88 0Z"/>
    </g>
    <path fill="#fff" d="M121.117 31V18.15h2.725V31h-2.725Zm14.819 0h-2.681v-5.74c0-.708-.126-1.239-.378-1.59-.252-.358-.653-.536-1.204-.536-.75 0-1.292.252-1.626.756-.334.498-.501 1.327-.501 2.487V31h-2.681v-9.826h2.048l.36 1.257h.15a2.812 2.812 0 0 1 1.23-1.073c.528-.246 1.125-.369 1.793-.369 1.143 0 2.01.31 2.602.932.592.615.888 1.506.888 2.672V31Zm9.615-2.918c0 1.008-.352 1.775-1.055 2.303-.697.527-1.743.79-3.138.79-.714 0-1.324-.049-1.828-.149a6.742 6.742 0 0 1-1.415-.421V28.39c.498.234 1.058.43 1.679.588.627.159 1.178.238 1.652.238.973 0 1.459-.281 1.459-.844a.689.689 0 0 0-.193-.51c-.129-.134-.352-.284-.668-.448a15.41 15.41 0 0 0-1.266-.589c-.756-.316-1.312-.61-1.67-.879a2.545 2.545 0 0 1-.773-.923c-.158-.351-.237-.782-.237-1.292 0-.873.337-1.546 1.01-2.021.68-.48 1.641-.72 2.883-.72 1.184 0 2.335.257 3.454.773l-.808 1.933a14.85 14.85 0 0 0-1.38-.518 4.336 4.336 0 0 0-1.31-.202c-.791 0-1.186.213-1.186.641 0 .24.126.448.378.624.257.176.817.437 1.678.782.768.311 1.33.601 1.688.87.357.27.621.58.791.932.17.352.255.77.255 1.257Zm6.231.958c.469 0 1.031-.102 1.688-.308v1.995c-.668.3-1.489.449-2.461.449-1.072 0-1.855-.27-2.347-.809-.486-.545-.729-1.36-.729-2.443v-4.738h-1.284v-1.133l1.477-.897.773-2.074h1.714v2.092h2.751v2.012h-2.751v4.738c0 .38.106.662.317.844.216.181.501.272.852.272Zm9.923 1.96-.518-1.336h-.071c-.451.568-.917.964-1.397 1.187-.475.216-1.096.325-1.864.325-.943 0-1.687-.27-2.232-.809-.539-.539-.809-1.306-.809-2.303 0-1.043.364-1.81 1.09-2.302.733-.498 1.834-.774 3.305-.826l1.705-.053v-.43c0-.997-.51-1.495-1.529-1.495-.785 0-1.708.237-2.769.712l-.887-1.81c1.13-.592 2.384-.888 3.761-.888 1.319 0 2.329.287 3.032.861.704.574 1.055 1.447 1.055 2.62V31h-1.872Zm-.791-4.553-1.037.035c-.779.024-1.359.165-1.74.422-.381.258-.572.65-.572 1.178 0 .756.434 1.134 1.301 1.134.621 0 1.116-.179 1.486-.536.375-.358.562-.832.562-1.424v-.809Zm13.983-5.273v1.362l-1.538.396c.282.44.422.931.422 1.476 0 1.055-.369 1.878-1.107 2.47-.733.586-1.752.879-3.059.879l-.483-.027-.396-.044c-.275.212-.413.446-.413.704 0 .386.492.58 1.477.58h1.67c1.078 0 1.898.231 2.461.694.568.463.852 1.143.852 2.04 0 1.148-.48 2.038-1.441 2.671-.955.633-2.329.95-4.122.95-1.371 0-2.42-.241-3.147-.722-.72-.474-1.081-1.142-1.081-2.003 0-.592.185-1.087.554-1.486.369-.398.911-.682 1.626-.852a1.803 1.803 0 0 1-.721-.572 1.386 1.386 0 0 1-.307-.852c0-.375.108-.686.325-.932.217-.252.53-.498.94-.738a2.66 2.66 0 0 1-1.23-1.072c-.299-.492-.449-1.073-.449-1.74 0-1.073.349-1.902 1.046-2.488.698-.586 1.694-.879 2.989-.879.275 0 .6.027.975.08.381.046.624.081.73.105h3.427Zm-7.585 11.215c0 .369.176.659.528.87.357.21.855.316 1.494.316.961 0 1.714-.132 2.259-.395.545-.264.817-.624.817-1.081 0-.37-.161-.624-.483-.765-.323-.14-.821-.211-1.494-.211h-1.389c-.492 0-.905.114-1.239.343-.328.234-.493.542-.493.923Zm.976-7.998c0 .533.12.955.36 1.265.247.31.619.466 1.117.466.504 0 .873-.155 1.107-.466.234-.31.352-.732.352-1.265 0-1.184-.487-1.776-1.459-1.776-.985 0-1.477.592-1.477 1.776Zm13.72-3.402c.363 0 .665.027.905.08l-.202 2.513a3.074 3.074 0 0 0-.791-.088c-.856 0-1.524.22-2.004.66-.475.439-.712 1.054-.712 1.845V31h-2.681v-9.826h2.031l.395 1.652h.132c.305-.55.715-.993 1.231-1.327a3.044 3.044 0 0 1 1.696-.51ZM190.938 31l-.519-1.336h-.07c-.452.568-.917.964-1.398 1.187-.474.216-1.096.325-1.863.325-.943 0-1.688-.27-2.233-.809-.539-.539-.808-1.306-.808-2.303 0-1.043.363-1.81 1.09-2.302.732-.498 1.834-.774 3.304-.826l1.705-.053v-.43c0-.997-.509-1.495-1.529-1.495-.785 0-1.708.237-2.768.712l-.888-1.81c1.131-.592 2.385-.888 3.762-.888 1.318 0 2.329.287 3.032.861.703.574 1.055 1.447 1.055 2.62V31h-1.872Zm-.792-4.553-1.037.035c-.779.024-1.359.165-1.74.422-.381.258-.571.65-.571 1.178 0 .756.433 1.134 1.301 1.134.621 0 1.116-.179 1.485-.536.375-.358.562-.832.562-1.424v-.809ZM204.376 31h-2.681v-5.74c0-.708-.12-1.239-.36-1.59-.234-.358-.606-.536-1.116-.536-.686 0-1.184.252-1.494.756-.311.504-.466 1.333-.466 2.487V31h-2.681v-9.826h2.048l.36 1.257h.15a2.69 2.69 0 0 1 1.142-1.055c.498-.258 1.07-.387 1.714-.387 1.471 0 2.467.48 2.988 1.442h.238c.263-.457.65-.812 1.16-1.064.516-.252 1.096-.378 1.74-.378 1.113 0 1.954.287 2.523.862.574.568.861 1.482.861 2.742V31h-2.69v-5.74c0-.708-.12-1.239-.36-1.59-.234-.358-.606-.536-1.116-.536-.656 0-1.148.234-1.477.703-.322.469-.483 1.213-.483 2.232V31Z"/>
  </g>
  <defs>
    <clipPath id="b">
      <path fill="#fff" d="M87.5 11h125v26h-125z"/>
    </clipPath>
    <clipPath id="c">
      <path fill="#fff" d="M87.5 12h24v24h-24z"/>
    </clipPath>
    <linearGradient id="a" x1="300" x2="285.023" y1="0" y2="93.604" gradientUnits="userSpaceOnUse">
      <stop stop-color="#1400C8"/>
      <stop offset=".505" stop-color="#B900B4"/>
      <stop offset="1" stop-color="#F50000"/>
    </linearGradient>
  </defs>
</svg>
