<svg xmlns="http://www.w3.org/2000/svg" width="300" height="48" fill="none" viewBox="0 0 300 48">
  <rect width="300" height="48" fill="#05CE78" rx="8"/>
  <g clip-path="url(#a)">
    <g clip-path="url(#b)">
      <mask id="c" width="25" height="24" x="83" y="12" maskUnits="userSpaceOnUse" style="mask-type:luminance">
        <path fill="#fff" d="M107.5 12h-24v24h24V12Z"/>
      </mask>
      <g mask="url(#c)">
        <path fill="#fff" d="m102.25 24.006 2.182-2.164a5.747 5.747 0 0 0 1.255-6.281 5.748 5.748 0 0 0-1.255-1.868 5.838 5.838 0 0 0-8.203 0l-.794.79a5.796 5.796 0 0 0-4.768-2.48c-3.2 0-5.797 2.58-5.797 5.759v12.48c0 3.18 2.597 5.759 5.797 5.759a5.795 5.795 0 0 0 4.768-2.48l.794.79a5.836 5.836 0 0 0 8.203 0 5.748 5.748 0 0 0 1.696-4.074 5.744 5.744 0 0 0-1.696-4.074l-2.182-2.16v.003Z"/>
      </g>
    </g>
    <path fill="#fff" d="M127.453 31h-3.094l-3.366-5.414-1.151.826V31h-2.725V18.15h2.725v5.88l1.072-1.511 3.481-4.369h3.023l-4.482 5.687L127.453 31Zm1.292-12.366c0-.873.486-1.31 1.459-1.31.973 0 1.459.437 1.459 1.31 0 .416-.123.741-.369.975-.24.229-.604.343-1.09.343-.973 0-1.459-.44-1.459-1.318ZM131.54 31h-2.681v-9.826h2.681V31Zm6.812.176c-3.059 0-4.588-1.679-4.588-5.036 0-1.67.416-2.945 1.248-3.824.832-.884 2.024-1.327 3.577-1.327 1.137 0 2.156.223 3.058.668l-.791 2.074c-.421-.17-.814-.307-1.177-.413a3.706 3.706 0 0 0-1.09-.167c-1.395 0-2.092.99-2.092 2.971 0 1.922.697 2.883 2.092 2.883.515 0 .993-.067 1.432-.202.44-.14.879-.358 1.319-.65v2.293a4.313 4.313 0 0 1-1.319.572c-.439.105-.996.158-1.669.158Zm7.848-5.52 1.169-1.494 2.751-2.988h3.024l-3.903 4.262 4.14 5.564h-3.094l-2.83-3.981-1.151.922V31h-2.681V17.324h2.681v6.1l-.141 2.232h.035Zm15.443 2.426c0 1.008-.352 1.775-1.055 2.303-.697.527-1.743.79-3.138.79-.715 0-1.324-.049-1.828-.149a6.724 6.724 0 0 1-1.415-.421V28.39c.498.234 1.058.43 1.679.588.627.159 1.177.238 1.652.238.973 0 1.459-.281 1.459-.844a.689.689 0 0 0-.193-.51c-.129-.134-.352-.284-.668-.448-.317-.17-.739-.366-1.266-.589-.756-.316-1.312-.61-1.67-.879a2.545 2.545 0 0 1-.773-.923c-.158-.351-.238-.782-.238-1.292 0-.873.337-1.546 1.011-2.021.68-.48 1.641-.72 2.883-.72 1.184 0 2.335.257 3.454.773l-.808 1.933a15.08 15.08 0 0 0-1.38-.518 4.34 4.34 0 0 0-1.31-.202c-.791 0-1.186.213-1.186.641 0 .24.126.448.377.624.258.176.818.437 1.679.782.768.311 1.33.601 1.688.87.357.27.621.58.791.932.17.352.255.77.255 1.257Zm6.231.958c.469 0 1.031-.102 1.688-.308v1.995c-.668.3-1.489.449-2.461.449-1.073 0-1.855-.27-2.347-.809-.486-.545-.73-1.36-.73-2.443v-4.738h-1.283v-1.133l1.477-.897.773-2.074h1.714v2.092h2.751v2.012h-2.751v4.738c0 .38.106.662.316.844.217.181.501.272.853.272Zm9.923 1.96-.519-1.336h-.07c-.451.568-.917.964-1.397 1.187-.475.216-1.096.325-1.864.325-.943 0-1.687-.27-2.232-.809-.539-.539-.809-1.306-.809-2.303 0-1.043.364-1.81 1.09-2.302.733-.498 1.834-.774 3.305-.826l1.705-.053v-.43c0-.997-.51-1.495-1.529-1.495-.786 0-1.708.237-2.769.712l-.888-1.81c1.131-.592 2.385-.888 3.762-.888 1.318 0 2.329.287 3.032.861.703.574 1.055 1.447 1.055 2.62V31h-1.872Zm-.791-4.553-1.037.035c-.78.024-1.36.165-1.74.422-.381.258-.572.65-.572 1.178 0 .756.434 1.134 1.301 1.134.621 0 1.116-.179 1.485-.536.375-.358.563-.832.563-1.424v-.809Zm10.916-5.458c.363 0 .665.027.905.08l-.202 2.513a3.07 3.07 0 0 0-.791-.088c-.855 0-1.523.22-2.004.66-.475.439-.712 1.054-.712 1.845V31h-2.68v-9.826h2.03l.395 1.652h.132c.305-.55.715-.993 1.231-1.327a3.044 3.044 0 0 1 1.696-.51Zm6.829 8.051c.469 0 1.031-.102 1.687-.308v1.995c-.667.3-1.488.449-2.46.449-1.073 0-1.855-.27-2.347-.809-.486-.545-.73-1.36-.73-2.443v-4.738h-1.283v-1.133l1.477-.897.773-2.074h1.714v2.092h2.751v2.012h-2.751v4.738c0 .38.106.662.316.844.217.181.501.272.853.272Zm7.752-6.143c-.568 0-1.014.181-1.336.544-.322.358-.507.868-.554 1.53h3.762c-.012-.662-.185-1.172-.519-1.53-.334-.363-.785-.544-1.353-.544Zm.378 8.279c-1.582 0-2.819-.437-3.709-1.31-.891-.873-1.336-2.11-1.336-3.709 0-1.646.41-2.918 1.23-3.814.827-.903 1.966-1.354 3.419-1.354 1.389 0 2.47.396 3.244 1.187.773.79 1.16 1.884 1.16 3.278v1.3h-6.337c.029.763.255 1.357.677 1.785.421.428 1.013.642 1.775.642.592 0 1.151-.062 1.679-.185a8.4 8.4 0 0 0 1.652-.589v2.074c-.469.235-.97.408-1.503.519-.533.117-1.184.176-1.951.176Zm11.672-10.187c.363 0 .665.027.905.08l-.202 2.513a3.074 3.074 0 0 0-.791-.088c-.856 0-1.524.22-2.004.66-.475.439-.712 1.054-.712 1.845V31h-2.681v-9.826h2.031l.395 1.652h.132c.305-.55.715-.993 1.23-1.327a3.05 3.05 0 0 1 1.697-.51Z"/>
  </g>
  <defs>
    <clipPath id="a">
      <path fill="#fff" d="M83.5 11h133v26h-133z"/>
    </clipPath>
    <clipPath id="b">
      <path fill="#fff" d="M83.5 12h24v24h-24z"/>
    </clipPath>
  </defs>
</svg>
