<svg xmlns="http://www.w3.org/2000/svg" width="302" height="50" fill="none" viewBox="0 0 302 50">
  <rect width="301" height="49" x=".5" y=".5" fill="#000" rx="8.5"/>
  <g clip-path="url(#a)">
    <path fill="#fff" fill-rule="evenodd" d="m123.392 13.546-.01.004a1.578 1.578 0 0 0-.842.86c-.079.192-.12.4-.121.61v19.954V15.02a1.634 1.634 0 0 1 .459-1.127 1.53 1.53 0 0 1 .504-.343l.01-.004Zm9.663 9.313v.011l9.09-9.277a1.959 1.959 0 0 1 1.394-.588c.521 0 1.021.21 1.393.588a2 2 0 0 1 .432.655 2.063 2.063 0 0 1 0 1.553c-.1.246-.248.469-.432.655l-8.377 8.546 8.379 8.543v.001a2.044 2.044 0 0 1 .431 2.208 2.01 2.01 0 0 1-.43.654 1.95 1.95 0 0 1-1.394.592 1.952 1.952 0 0 1-1.396-.593l-8.39-8.555-8.388 8.553a1.942 1.942 0 0 1-1.394.585 1.906 1.906 0 0 1-.75-.148 1.95 1.95 0 0 1-.64-.435 2.022 2.022 0 0 1-.43-.656 2.077 2.077 0 0 1-.153-.775V15.017a2.06 2.06 0 0 1 .583-1.431 1.96 1.96 0 0 1 .641-.436 1.94 1.94 0 0 1 2.142.436c.37.378.581.893.584 1.43v15.096l7.105-7.253Z" clip-rule="evenodd"/>
  </g>
  <path fill="#fff" d="M165.953 32h-3.094l-3.366-5.414-1.151.826V32h-2.725V19.15h2.725v5.88l1.072-1.511 3.481-4.369h3.023l-4.482 5.687L165.953 32Zm1.292-12.366c0-.873.486-1.31 1.459-1.31.973 0 1.459.437 1.459 1.31 0 .416-.123.741-.369.975-.24.229-.604.343-1.09.343-.973 0-1.459-.44-1.459-1.318ZM170.04 32h-2.681v-9.826h2.681V32Zm6.961-1.96c.469 0 1.031-.102 1.687-.308v1.995c-.667.3-1.488.449-2.46.449-1.073 0-1.855-.27-2.347-.809-.486-.545-.73-1.36-.73-2.443v-4.738h-1.283v-1.133l1.477-.897.773-2.074h1.714v2.092h2.751v2.012h-2.751v4.738c0 .38.106.662.316.844.217.181.501.272.853.272Z"/>
  <rect width="301" height="49" x=".5" y=".5" stroke="#fff" rx="8.5"/>
  <defs>
    <clipPath id="a">
      <path fill="#fff" d="M122 13h24v24h-24z"/>
    </clipPath>
  </defs>
</svg>
