<svg xmlns="http://www.w3.org/2000/svg" width="300" height="48" fill="none" viewBox="0 0 300 48">
  <rect width="300" height="48" fill="#13C3FF" rx="8"/>
  <path fill="#fff" d="M132.631 16.511c2.072.575 3.585 2.022 4.127 3.946.641 2.31-.008 4.57-1.767 6.075-.946.806-2.672 1.406-4.078 1.406h-.625l-.065.592c-.157 1.595-.938 2.672-2.22 3.041-.238.074-2.072.1-6.577.1l-6.247.007-.494-.23c-.789-.37-1.389-1.044-1.619-1.825-.033-.131-.066-3.009-.066-6.396 0-6.634 0-6.626.427-6.798.116-.041 3.996-.074 9.397-.074 9.002-.008 9.224-.009 9.807.156Z"/>
  <path fill="#13C3FF" d="M130.346 22.183v2.795h.723c1.275 0 2.056-.435 2.565-1.43.272-.543.288-.608.288-1.439 0-.789-.025-.912-.23-1.34-.247-.51-.707-.953-1.25-1.216-.271-.132-.509-.165-1.216-.165h-.88v2.795Z"/>
  <path fill="#FF5F5F" d="M123.267 20.08c-.6.197-.79.304-1.258.69l-.387.32-.353-.287c-1.167-.954-2.877-1.06-3.839-.238-.477.41-.674.846-.724 1.594a3.62 3.62 0 0 0 .411 1.908c.091.18.486.657.872 1.068 1.208 1.258 3.486 3.346 3.65 3.346.099 0 .995-.83 2.244-2.08 1.883-1.874 2.113-2.129 2.351-2.639.337-.715.411-1.545.206-2.17-.403-1.2-1.924-1.923-3.173-1.512Z"/>
  <path fill="#fff" d="M156.953 31h-3.094l-3.366-5.414-1.151.826V31h-2.725V18.15h2.725v5.88l1.072-1.511 3.481-4.369h3.023l-4.482 5.687L156.953 31Zm3.542-4.93c0 .972.158 1.707.475 2.205.322.498.843.748 1.564.748.715 0 1.228-.247 1.538-.739.317-.498.475-1.236.475-2.215 0-.972-.158-1.702-.475-2.188-.316-.486-.835-.73-1.555-.73-.715 0-1.231.244-1.547.73-.317.48-.475 1.21-.475 2.188Zm6.794 0c0 1.599-.422 2.85-1.266 3.752-.843.903-2.018 1.354-3.524 1.354-.943 0-1.775-.205-2.496-.615a4.15 4.15 0 0 1-1.661-1.785c-.387-.773-.58-1.675-.58-2.707 0-1.605.419-2.853 1.257-3.744.837-.89 2.015-1.336 3.533-1.336.943 0 1.775.205 2.496.616.721.41 1.274.998 1.661 1.766s.58 1.667.58 2.698Zm1.345 1.203v-2.197h4.72v2.197h-4.72Zm12.102-4.087h-2.32V31h-2.681v-7.814h-1.476v-1.291l1.476-.721v-.72c0-1.12.276-1.937.827-2.453.55-.516 1.432-.774 2.645-.774.926 0 1.749.138 2.47.414l-.686 1.968a4.996 4.996 0 0 0-1.494-.255c-.381 0-.656.115-.826.343-.17.223-.255.51-.255.862v.615h2.32v2.012Zm1.424-4.552c0-.873.486-1.31 1.459-1.31.973 0 1.459.437 1.459 1.31 0 .416-.123.741-.369.975-.24.229-.604.343-1.09.343-.973 0-1.459-.44-1.459-1.318ZM184.955 31h-2.681v-9.826h2.681V31Z"/>
</svg>
