<svg xmlns="http://www.w3.org/2000/svg" width="300" height="48" fill="none" viewBox="0 0 300 48">
  <rect width="300" height="48" fill="#D51007" rx="8"/>
  <path fill="#fff" d="m109.704 26.485.88 2.391s-1.485 1.457-4.591 1.457c-3.849 0-5.993-2.254-5.993-6.433 0-4.343 2.144-6.9 6.186-6.9 3.656 0 5.498 1.32 6.653 4.893l.907 2.75c.66 2.006 1.814 3.463 4.591 3.463 1.869 0 2.859-.412 2.859-1.429 0-.797-.467-1.375-1.869-1.705l-1.87-.44c-2.282-.55-3.189-1.731-3.189-3.6 0-2.997 2.419-3.932 4.893-3.932 2.805 0 4.509 1.017 4.729 3.491l-2.749.33c-.11-1.182-.825-1.677-2.144-1.677-1.21 0-1.952.55-1.952 1.485 0 .825.357 1.32 1.567 1.595l1.759.384c2.364.55 3.629 1.705 3.629 3.932 0 2.749-2.309 3.793-5.718 3.793-4.756 0-6.406-2.144-7.285-4.81l-.88-2.75c-.66-2.007-1.43-3.574-3.849-3.574-1.677 0-3.381 1.21-3.381 4.591 0 2.64 1.347 4.29 3.244 4.29 2.144 0 3.573-1.595 3.573-1.595ZM133.617 31V18.15h2.725v10.6h5.212V31h-7.937Zm16.207 0-.518-1.336h-.071c-.451.568-.917.964-1.397 1.187-.475.216-1.096.325-1.863.325-.944 0-1.688-.27-2.233-.809-.539-.539-.808-1.306-.808-2.303 0-1.043.363-1.81 1.089-2.302.733-.498 1.834-.774 3.305-.826l1.705-.053v-.43c0-.997-.51-1.495-1.529-1.495-.785 0-1.708.237-2.769.712l-.887-1.81c1.131-.592 2.384-.888 3.761-.888 1.319 0 2.329.287 3.033.861.703.574 1.054 1.447 1.054 2.62V31h-1.872Zm-.791-4.553-1.037.035c-.779.024-1.359.165-1.74.422-.381.258-.571.65-.571 1.178 0 .756.433 1.134 1.3 1.134.621 0 1.117-.179 1.486-.536.375-.358.562-.832.562-1.424v-.809Zm12.287 1.635c0 1.008-.351 1.775-1.054 2.303-.698.527-1.744.79-3.138.79-.715 0-1.324-.049-1.828-.149a6.724 6.724 0 0 1-1.415-.421V28.39c.498.234 1.057.43 1.678.588.627.159 1.178.238 1.653.238.972 0 1.459-.281 1.459-.844a.69.69 0 0 0-.194-.51c-.128-.134-.351-.284-.668-.448-.316-.17-.738-.366-1.265-.589-.756-.316-1.313-.61-1.67-.879a2.548 2.548 0 0 1-.774-.923c-.158-.351-.237-.782-.237-1.292 0-.873.337-1.546 1.011-2.021.68-.48 1.641-.72 2.883-.72 1.183 0 2.335.257 3.454.773l-.809 1.933a14.85 14.85 0 0 0-1.38-.518 4.33 4.33 0 0 0-1.309-.202c-.791 0-1.187.213-1.187.641 0 .24.126.448.378.624.258.176.818.437 1.679.782.767.311 1.33.601 1.687.87.358.27.622.58.791.932.17.352.255.77.255 1.257Zm6.232.958c.469 0 1.031-.102 1.687-.308v1.995c-.668.3-1.488.449-2.461.449-1.072 0-1.854-.27-2.346-.809-.487-.545-.73-1.36-.73-2.443v-4.738h-1.283v-1.133l1.477-.897.773-2.074h1.714v2.092h2.751v2.012h-2.751v4.738c0 .38.105.662.316.844.217.181.501.272.853.272Zm3.304.703c0-.492.132-.864.396-1.116.264-.252.647-.378 1.151-.378.487 0 .862.129 1.125.387.27.258.405.627.405 1.107 0 .463-.135.83-.405 1.099-.269.264-.644.395-1.125.395-.492 0-.873-.129-1.142-.386-.27-.264-.405-.633-.405-1.108Zm10.943-6.556h-2.32V31h-2.681v-7.814h-1.477v-1.291l1.477-.721v-.72c0-1.12.275-1.937.826-2.453.551-.516 1.433-.774 2.646-.774.925 0 1.749.138 2.469.414l-.685 1.968a4.996 4.996 0 0 0-1.494-.255c-.381 0-.657.115-.827.343-.17.223-.254.51-.254.862v.615h2.32v2.012ZM192.144 31h-2.681v-5.74c0-.708-.12-1.239-.36-1.59-.235-.358-.607-.536-1.117-.536-.685 0-1.183.252-1.494.756-.31.504-.466 1.333-.466 2.487V31h-2.68v-9.826h2.048l.36 1.257h.149a2.699 2.699 0 0 1 1.143-1.055c.498-.258 1.069-.387 1.714-.387 1.47 0 2.467.48 2.988 1.442h.237a2.661 2.661 0 0 1 1.161-1.064c.515-.252 1.095-.378 1.74-.378 1.113 0 1.954.287 2.522.862.574.568.862 1.482.862 2.742V31h-2.69v-5.74c0-.708-.12-1.239-.36-1.59-.235-.358-.607-.536-1.116-.536-.657 0-1.149.234-1.477.703-.322.469-.483 1.213-.483 2.232V31Z"/>
</svg>
