<svg xmlns="http://www.w3.org/2000/svg" width="302" height="50" fill="none" viewBox="0 0 302 50">
  <rect width="301" height="49" x=".5" y=".5" fill="#2C3440" rx="8.5"/>
  <path fill="#FF8000" d="M85 24.571a4.571 4.571 0 1 1 9.143 0 4.571 4.571 0 0 1-9.143 0Z"/>
  <path fill="#00E054" d="M92.428 24.571a4.571 4.571 0 1 1 9.143 0 4.571 4.571 0 0 1-9.142 0Z"/>
  <path fill="#fff" d="M93.286 27.237c.54-.75.857-1.671.857-2.666a4.55 4.55 0 0 0-.857-2.665 4.55 4.55 0 0 0-.858 2.665c0 .995.318 1.915.858 2.666Z"/>
  <path fill="#40BCF4" d="M99.857 24.571a4.572 4.572 0 1 1 9.143 0 4.572 4.572 0 0 1-9.143 0Z"/>
  <path fill="#fff" d="M100.714 27.237c.54-.75.857-1.671.857-2.666 0-.994-.317-1.915-.857-2.665a4.553 4.553 0 0 0-.857 2.665c0 .995.318 1.915.857 2.666ZM118.617 32V19.15h2.725v10.6h5.212V32h-7.937Zm14.036-8.104c-.568 0-1.013.182-1.336.545-.322.358-.506.868-.553 1.53h3.761c-.011-.662-.184-1.172-.518-1.53-.334-.363-.785-.544-1.354-.544Zm.378 8.28c-1.582 0-2.818-.437-3.709-1.31-.89-.873-1.336-2.11-1.336-3.709 0-1.646.41-2.918 1.231-3.814.826-.903 1.966-1.354 3.419-1.354 1.388 0 2.469.396 3.243 1.187.773.79 1.16 1.884 1.16 3.278v1.3h-6.337c.029.763.255 1.357.677 1.785.422.428 1.014.642 1.775.642.592 0 1.152-.062 1.679-.185a8.4 8.4 0 0 0 1.652-.589v2.074a6.136 6.136 0 0 1-1.503.519c-.533.117-1.183.176-1.951.176Zm10.327-2.136c.469 0 1.032-.102 1.688-.308v1.995c-.668.3-1.488.449-2.461.449-1.072 0-1.855-.27-2.347-.809-.486-.545-.729-1.36-.729-2.443v-4.738h-1.283v-1.133l1.476-.897.774-2.074h1.713v2.092h2.751v2.012h-2.751v4.738c0 .38.106.662.317.844.217.181.501.272.852.272Zm7.823 0c.468 0 1.031-.102 1.687-.308v1.995c-.668.3-1.488.449-2.461.449-1.072 0-1.854-.27-2.346-.809-.487-.545-.73-1.36-.73-2.443v-4.738h-1.283v-1.133l1.476-.897.774-2.074h1.714v2.092h2.751v2.012h-2.751v4.738c0 .38.105.662.316.844.217.181.501.272.853.272Zm7.752-6.143c-.569 0-1.014.181-1.336.544-.323.358-.507.868-.554 1.53h3.762c-.012-.662-.185-1.172-.519-1.53-.334-.363-.785-.544-1.353-.544Zm.378 8.279c-1.582 0-2.819-.437-3.709-1.31-.891-.873-1.336-2.11-1.336-3.709 0-1.646.41-2.918 1.23-3.814.826-.903 1.966-1.354 3.419-1.354 1.389 0 2.47.396 3.243 1.187.774.79 1.16 1.884 1.16 3.278v1.3h-6.337c.03.763.255 1.357.677 1.785.422.428 1.014.642 1.776.642a7.37 7.37 0 0 0 1.678-.185 8.407 8.407 0 0 0 1.653-.589v2.074c-.469.235-.97.408-1.503.519-.533.117-1.184.176-1.951.176Zm11.671-10.187c.364 0 .665.027.906.08l-.202 2.513a3.074 3.074 0 0 0-.791-.088c-.856 0-1.524.22-2.004.66-.475.439-.712 1.054-.712 1.845V32h-2.681v-9.826h2.03l.396 1.652h.132a3.67 3.67 0 0 1 1.23-1.327 3.049 3.049 0 0 1 1.696-.51Zm8.157 0c1.16 0 2.068.454 2.724 1.363.657.902.985 2.141.985 3.717 0 1.623-.34 2.88-1.02 3.77-.674.892-1.594 1.337-2.76 1.337-1.154 0-2.059-.42-2.715-1.257h-.185L175.72 32h-2.048V18.324h2.681v3.182c0 .404-.036 1.052-.106 1.942h.106c.626-.972 1.555-1.459 2.786-1.459Zm-.862 2.145c-.662 0-1.145.205-1.45.615-.305.404-.463 1.075-.474 2.013v.29c0 1.054.155 1.81.465 2.267.317.457.815.686 1.494.686.551 0 .988-.252 1.31-.756.328-.51.492-1.248.492-2.215 0-.967-.164-1.69-.492-2.17-.328-.487-.776-.73-1.345-.73Zm8.921 2.935c0 .973.158 1.708.475 2.206.322.498.844.748 1.564.748.715 0 1.228-.247 1.538-.739.317-.498.475-1.236.475-2.215 0-.972-.158-1.702-.475-2.188-.316-.486-.835-.73-1.555-.73-.715 0-1.231.244-1.547.73-.317.48-.475 1.21-.475 2.188Zm6.794 0c0 1.6-.422 2.85-1.265 3.753-.844.903-2.019 1.354-3.525 1.354-.943 0-1.775-.205-2.496-.616a4.15 4.15 0 0 1-1.661-1.784c-.387-.773-.58-1.675-.58-2.707 0-1.605.419-2.853 1.257-3.744.838-.89 2.015-1.336 3.533-1.336.943 0 1.775.205 2.496.616.721.41 1.274.998 1.661 1.766s.58 1.667.58 2.698Zm4.228-.088-3.164-4.807h3.041l1.907 3.129 1.925-3.13h3.041l-3.199 4.808L205.119 32h-3.05l-2.065-3.366L197.93 32h-3.041l3.331-5.019Zm11.505 5.195c-1.155 0-2.063-.449-2.725-1.345-.656-.896-.984-2.139-.984-3.726 0-1.612.334-2.866 1.002-3.762.673-.903 1.599-1.354 2.777-1.354 1.236 0 2.18.48 2.83 1.442h.088a10.937 10.937 0 0 1-.202-1.96v-3.147h2.689V32h-2.056l-.519-1.274h-.114c-.61.966-1.538 1.45-2.786 1.45Zm.94-2.136c.686 0 1.187-.2 1.503-.598.322-.398.498-1.075.527-2.03v-.29c0-1.055-.164-1.81-.492-2.267-.322-.457-.849-.686-1.582-.686-.598 0-1.063.255-1.397.765-.328.503-.493 1.239-.493 2.206 0 .966.167 1.693.501 2.18.334.48.812.72 1.433.72Z"/>
  <rect width="301" height="49" x=".5" y=".5" stroke="#fff" rx="8.5"/>
</svg>
