<svg xmlns="http://www.w3.org/2000/svg" width="302" height="50" fill="none" viewBox="0 0 302 50">
  <rect width="301" height="49" x=".5" y=".5" fill="#06C755" rx="8.5"/>
  <g clip-path="url(#a)">
    <g clip-path="url(#b)">
      <path fill="#fff" fill-rule="evenodd" d="M139.5 23.738c0-5.37-5.383-9.738-12-9.738s-12 4.369-12 9.738c0 4.814 4.274 8.846 10.035 9.608.391.084.923.257 1.057.591.122.304.08.78.04 1.086l-.171 1.027-.005.025c-.057.325-.203 1.147 1.044.622 1.281-.538 6.91-4.069 9.428-6.967 1.739-1.907 2.572-3.846 2.572-5.992Zm-3.993 3.101h-3.374a.224.224 0 0 1-.225-.225v-5.236a.226.226 0 0 1 .225-.225h3.374a.224.224 0 0 1 .225.225v.852a.226.226 0 0 1-.225.225h-2.291v.883h2.291a.224.224 0 0 1 .225.225v.859a.226.226 0 0 1-.225.225h-2.291v.884h2.291a.224.224 0 0 1 .225.225v.85a.224.224 0 0 1-.137.215.227.227 0 0 1-.088.018Zm-12.311-.066a.224.224 0 0 1-.159.066l.003-.003h-3.374a.224.224 0 0 1-.225-.225v-5.234a.226.226 0 0 1 .225-.225h.855a.224.224 0 0 1 .225.225v4.162h2.291a.224.224 0 0 1 .225.225v.85c0 .06-.024.117-.066.16Zm1.87-5.63h-.85a.23.23 0 0 0-.23.23v5.237c0 .126.103.23.23.23h.85a.229.229 0 0 0 .229-.23v-5.237a.229.229 0 0 0-.229-.23Zm4.943 0h.851a.225.225 0 0 1 .225.23v5.223a.226.226 0 0 1-.225.225h-.846a.276.276 0 0 1-.061-.008h-.035l-.011-.005h-.007l-.013-.01a.231.231 0 0 1-.059-.058l-2.399-3.24v3.142a.226.226 0 0 1-.225.225h-.851a.224.224 0 0 1-.225-.225v-5.237a.226.226 0 0 1 .225-.225h.952l.013.007h.007l.012.01h.007l.012.01.014.013a.178.178 0 0 1 .019.023l2.395 3.236v-3.11a.226.226 0 0 1 .225-.226Z" clip-rule="evenodd"/>
    </g>
    <path fill="#fff" d="M149.117 32V19.15h2.725v10.6h5.212V32h-7.937Zm9.853-12.366c0-.873.486-1.31 1.459-1.31.972 0 1.459.437 1.459 1.31 0 .416-.123.741-.369.975-.241.229-.604.343-1.09.343-.973 0-1.459-.44-1.459-1.318ZM161.765 32h-2.681v-9.826h2.681V32Zm11.891 0h-2.68v-5.74c0-.708-.126-1.239-.378-1.59-.252-.358-.654-.536-1.204-.536-.75 0-1.292.252-1.626.756-.334.498-.501 1.327-.501 2.487V32h-2.681v-9.826h2.048l.36 1.257h.15a2.806 2.806 0 0 1 1.23-1.073c.527-.246 1.125-.369 1.793-.369 1.143 0 2.01.31 2.602.932.591.615.887 1.506.887 2.672V32Zm6.829-8.104c-.568 0-1.013.182-1.336.545-.322.358-.506.868-.553 1.53h3.761c-.011-.662-.184-1.172-.518-1.53-.334-.363-.785-.544-1.354-.544Zm.378 8.28c-1.582 0-2.818-.437-3.709-1.31-.89-.873-1.336-2.11-1.336-3.709 0-1.646.411-2.918 1.231-3.814.826-.903 1.966-1.354 3.419-1.354 1.388 0 2.47.396 3.243 1.187.773.79 1.16 1.884 1.16 3.278v1.3h-6.337c.029.763.255 1.357.677 1.785.422.428 1.014.642 1.775.642.592 0 1.152-.062 1.679-.185a8.4 8.4 0 0 0 1.652-.589v2.074a6.136 6.136 0 0 1-1.503.519c-.533.117-1.183.176-1.951.176Z"/>
  </g>
  <rect width="301" height="49" x=".5" y=".5" stroke="#fff" rx="8.5"/>
  <defs>
    <clipPath id="a">
      <path fill="#fff" d="M115.5 12h71v26h-71z"/>
    </clipPath>
    <clipPath id="b">
      <path fill="#fff" d="M115.5 13h24v24h-24z"/>
    </clipPath>
  </defs>
</svg>
