<svg xmlns="http://www.w3.org/2000/svg" width="300" height="48" fill="none" viewBox="0 0 300 48">
  <rect width="300" height="48" fill="#2867B2" rx="8"/>
  <g clip-path="url(#a)">
    <g clip-path="url(#b)">
      <path fill="#fff" d="M116.786 12H96.209c-.943 0-1.709.777-1.709 1.73v20.54c0 .953.766 1.73 1.709 1.73h20.577c.943 0 1.714-.777 1.714-1.73V13.73c0-.953-.771-1.73-1.714-1.73Zm-15.032 20.571h-3.558V21.118h3.563V32.57h-.005Zm-1.779-13.017a2.063 2.063 0 0 1 0-4.125c1.136 0 2.062.926 2.062 2.062a2.06 2.06 0 0 1-2.062 2.063Zm15.112 13.017h-3.557V27c0-1.329-.026-3.038-1.848-3.038-1.853 0-2.137 1.447-2.137 2.942v5.667h-3.557V21.118h3.412v1.564h.048c.477-.9 1.64-1.848 3.37-1.848 3.6 0 4.269 2.373 4.269 5.459v6.278Z"/>
    </g>
    <path fill="#fff" d="M128.117 31V18.15h2.725v10.6h5.212V31h-7.937Zm9.853-12.366c0-.873.486-1.31 1.459-1.31.972 0 1.459.437 1.459 1.31 0 .416-.123.741-.369.975-.241.229-.604.343-1.09.343-.973 0-1.459-.44-1.459-1.318ZM140.765 31h-2.681v-9.826h2.681V31Zm11.891 0h-2.68v-5.74c0-.708-.126-1.239-.378-1.59-.252-.358-.654-.536-1.204-.536-.75 0-1.292.252-1.626.756-.334.498-.501 1.327-.501 2.487V31h-2.681v-9.826h2.048l.36 1.257h.15a2.806 2.806 0 0 1 1.23-1.073c.527-.246 1.125-.369 1.793-.369 1.143 0 2.01.31 2.602.932.591.615.887 1.506.887 2.672V31Zm5.335-5.344 1.169-1.494 2.751-2.988h3.024l-3.903 4.262 4.14 5.564h-3.094l-2.83-3.981-1.151.922V31h-2.681V17.324h2.681v6.1l-.141 2.232h.035Zm12.656-2.76c-.568 0-1.013.182-1.335.545-.323.358-.507.868-.554 1.53h3.762c-.012-.662-.185-1.172-.519-1.53-.334-.363-.785-.544-1.354-.544Zm.378 8.28c-1.582 0-2.818-.437-3.709-1.31-.89-.873-1.336-2.11-1.336-3.709 0-1.646.411-2.918 1.231-3.814.826-.903 1.966-1.354 3.419-1.354 1.389 0 2.47.396 3.243 1.187.773.79 1.16 1.884 1.16 3.278v1.3h-6.337c.03.763.255 1.357.677 1.785.422.428 1.014.642 1.775.642.592 0 1.152-.062 1.679-.185a8.4 8.4 0 0 0 1.652-.589v2.074a6.143 6.143 0 0 1-1.502.519c-.534.117-1.184.176-1.952.176Zm9.299 0c-1.154 0-2.062-.448-2.724-1.345-.657-.896-.985-2.139-.985-3.726 0-1.612.334-2.866 1.002-3.762.674-.903 1.6-1.354 2.778-1.354 1.236 0 2.179.48 2.83 1.442h.087a11.03 11.03 0 0 1-.202-1.96v-3.147h2.69V31h-2.057l-.518-1.274h-.115c-.609.966-1.538 1.45-2.786 1.45Zm.941-2.136c.685 0 1.186-.2 1.503-.598.322-.398.498-1.075.527-2.03v-.29c0-1.055-.164-1.81-.492-2.267-.323-.457-.85-.686-1.582-.686-.598 0-1.064.255-1.398.765-.328.503-.492 1.239-.492 2.206 0 .966.167 1.693.501 2.18.334.48.812.72 1.433.72Zm7.549 1.96V18.15h2.725V31h-2.725Zm14.819 0h-2.681v-5.74c0-.708-.126-1.239-.378-1.59-.252-.358-.653-.536-1.204-.536-.75 0-1.292.252-1.626.756-.334.498-.501 1.327-.501 2.487V31h-2.681v-9.826h2.048l.361 1.257h.149a2.81 2.81 0 0 1 1.231-1.073c.527-.246 1.125-.369 1.793-.369 1.142 0 2.009.31 2.601.932.592.615.888 1.506.888 2.672V31Z"/>
  </g>
  <defs>
    <clipPath id="a">
      <path fill="#fff" d="M94.5 11h111v26h-111z"/>
    </clipPath>
    <clipPath id="b">
      <path fill="#fff" d="M94.5 12h24v24h-24z"/>
    </clipPath>
  </defs>
</svg>
