<svg xmlns="http://www.w3.org/2000/svg" width="300" height="48" fill="none" viewBox="0 0 300 48">
  <rect width="300" height="48" fill="#FFE01B" rx="8"/>
  <g clip-path="url(#a)">
    <g clip-path="url(#b)">
      <path fill="#000" d="M104.5 23.314h.49c.104-.223.104-.55 0-.921-.104-.55-.267-.92-.594-.876-.326.06-.326.49-.222 1.04.044.326.163.593.326.757Zm-2.881.49c.223.104.387.163.431.104.06-.06 0-.104-.059-.223-.104-.223-.386-.386-.594-.49-.55-.223-1.144-.163-1.634.223-.163.104-.327.267-.267.386 0 .06.06.06.104.06.104 0 .594-.224 1.143-.268.327-.015.654.104.876.208Zm-.49.267c-.326.06-.49.163-.594.267-.104.104-.163.164-.163.223v.06h.059c.06 0 .223-.06.223-.06.431-.163.713-.163.98-.104.164 0 .223.06.268 0v-.104c-.015-.163-.342-.326-.773-.282Z"/>
      <path fill="#000" d="M101.293 24.457c.104-.222.104-.713 0-1.084-.104-.55-.268-.876-.654-.876-.327.06-.327.49-.223 1.084.06.386.223.594.268.758.282.445.445.326.609.118Zm2.227.594c.223.104.431.06.55-.104.059-.163-.06-.386-.268-.49-.222-.104-.43-.06-.549.104-.119.164.044.386.267.49Zm1.352-1.188c-.164 0-.327.164-.327.43 0 .224.104.432.327.432.163 0 .326-.164.326-.431-.044-.223-.163-.43-.326-.43Zm-11.509 4.233c-.06-.06-.104-.06-.164 0h-.163c-.104 0-.223-.06-.267-.164-.045-.104-.06-.267 0-.49l.059-.104c.163-.327.386-.817.104-1.307-.223-.386-.49-.594-.876-.653a1.05 1.05 0 0 0-.98.386c-.386.43-.431.98-.386 1.188 0 .06.059.104.103.104.06 0 .164-.06.223-.223v-.06c0-.103.06-.222.164-.385.104-.164.267-.268.43-.268.164-.059.386 0 .55.104.267.164.386.49.267.817-.163.163-.223.43-.223.713.06.49.386.713.654.757.267 0 .49-.163.49-.267.06-.09.015-.09.015-.148Z"/>
      <path fill="#000" d="M109.163 27.175c0-.06-.059-.268-.163-.594l-.223-.49c.386-.55.386-1.084.327-1.352-.059-.326-.223-.653-.49-.98-.267-.326-.921-.653-1.738-.876l-.43-.104s0-1.04-.06-1.47c0-.327-.059-.817-.222-1.307-.164-.653-.49-1.247-.921-1.633 1.084-1.144 1.797-2.45 1.797-3.535 0-2.064-2.555-2.717-5.762-1.41l-.654.267s-1.188-1.188-1.247-1.188c-3.52-3.149-14.761 9.4-11.182 12.444l.757.654c-.223.55-.267 1.143-.223 1.797.104.816.55 1.633 1.188 2.287.654.594 1.515.98 2.391.98 1.411 3.267 4.619 5.212 8.361 5.33 4.024.105 7.44-1.796 8.851-5.167.104-.223.49-1.307.49-2.287.089-.995-.461-1.366-.847-1.366ZM92.65 29.729c-.104 0-.268.06-.386 0-1.188-.06-2.555-1.143-2.659-2.45-.104-1.411.594-2.495 1.901-2.777.164-.06.327-.06.55-.06.713.06 1.797.594 2.064 2.168.208 1.486-.104 2.896-1.47 3.12Zm-1.352-6.088c-.816.163-1.514.594-1.96 1.247-.267-.223-.757-.654-.817-.817-.713-1.307.758-3.905 1.797-5.331 2.495-3.58 6.46-6.297 8.257-5.821.327.103 1.307 1.247 1.307 1.247s-1.842 1.04-3.535 2.45c-2.286 1.693-4.024 4.247-5.049 7.024Zm12.816 5.539.06-.06c0-.06-.06-.06-.06-.06s-1.901.268-3.698-.385c.223-.654.713-.43 1.515-.327 1.411.104 2.718-.104 3.639-.386.816-.223 1.9-.713 2.717-1.352.267.595.386 1.307.386 1.307s.223-.059.386.06c.164.104.268.326.223.876-.163 1.084-.653 1.9-1.351 2.717-.431.49-1.04.921-1.678 1.248a6.36 6.36 0 0 1-1.084.43c-2.941.921-5.866-.059-6.787-2.286-.06-.164-.163-.327-.163-.55-.386-1.47-.06-3.207 1.04-4.291a.396.396 0 0 0 .103-.268c0-.104-.06-.163-.104-.223-.386-.55-1.678-1.47-1.41-3.267.163-1.306 1.306-2.168 2.331-2.123h.267c.431 0 .876.104 1.188.104.594 0 1.188-.06 1.842-.594.222-.164.386-.327.712-.387.06 0 .104-.059.268 0 .163 0 .326.06.43.164.55.386.594 1.188.654 1.841 0 .387.059 1.248.059 1.47.06.55.164.654.49.758.164.06.327.104.55.163.713.223 1.143.386 1.411.654.163.163.222.326.267.49.104.594-.49 1.351-1.96 2.064-1.634.757-3.535.92-4.886.757l-.49-.06c-1.084-.163-1.678 1.248-1.04 2.169.431.594 1.574 1.04 2.658 1.04 2.614 0 4.619-1.085 5.332-2.065l.059-.104c.06-.059 0-.104-.059-.059-.594.43-3.312 2.064-6.193 1.574 0 0-.327-.06-.653-.163-.268-.104-.758-.327-.876-.876 2.435.712 3.905 0 3.905 0Zm-8.153-10.425c.877-1.04 2.005-1.96 2.985-2.45.06 0 .06 0 .06.059-.06.163-.223.43-.268.653 0 .06.06.06.06.06.594-.431 1.678-.877 2.613-.921.06 0 .06.06.06.06-.164.103-.267.267-.431.43 0 0 0 .06.06.06.653 0 1.574.222 2.168.593.059 0 0 .104-.06.104a8.591 8.591 0 0 0-3.965 0c-1.41.327-2.45.877-3.207 1.411-.075-.015-.12-.015-.075-.06Z"/>
    </g>
    <path fill="#000" d="m125.558 31-3.094-10.081h-.079c.111 2.05.167 3.419.167 4.104V31h-2.435V18.15h3.709l3.041 9.827h.053l3.226-9.827h3.708V31h-2.54v-6.082c0-.287.003-.618.009-.993.012-.375.053-1.371.123-2.989h-.079L128.054 31h-2.496Zm17.569 0-.519-1.336h-.07c-.451.568-.917.964-1.397 1.187-.475.216-1.096.325-1.864.325-.943 0-1.687-.27-2.232-.809-.539-.539-.809-1.306-.809-2.303 0-1.043.364-1.81 1.09-2.302.733-.498 1.834-.774 3.305-.826l1.705-.053v-.43c0-.997-.51-1.495-1.529-1.495-.786 0-1.708.237-2.769.712l-.888-1.81c1.131-.592 2.385-.888 3.762-.888 1.318 0 2.329.287 3.032.861.703.574 1.055 1.447 1.055 2.62V31h-1.872Zm-.791-4.553-1.037.035c-.779.024-1.36.165-1.74.422-.381.258-.572.65-.572 1.178 0 .756.434 1.134 1.301 1.134.621 0 1.116-.179 1.485-.536.375-.358.563-.832.563-1.424v-.809Zm5.317-7.813c0-.873.487-1.31 1.459-1.31.973 0 1.459.437 1.459 1.31 0 .416-.123.741-.369.975-.24.229-.603.343-1.09.343-.972 0-1.459-.44-1.459-1.318ZM150.448 31h-2.68v-9.826h2.68V31Zm5.502 0h-2.68V17.324h2.68V31Zm6.812.176c-3.059 0-4.588-1.679-4.588-5.036 0-1.67.416-2.945 1.248-3.824.832-.884 2.024-1.327 3.577-1.327 1.137 0 2.156.223 3.059.668l-.791 2.074c-.422-.17-.815-.307-1.178-.413a3.701 3.701 0 0 0-1.09-.167c-1.395 0-2.092.99-2.092 2.971 0 1.922.697 2.883 2.092 2.883.516 0 .993-.067 1.433-.202a5.3 5.3 0 0 0 1.318-.65v2.293a4.318 4.318 0 0 1-1.318.572c-.44.105-.996.158-1.67.158ZM177.105 31h-2.68v-5.74c0-1.417-.528-2.126-1.582-2.126-.75 0-1.292.255-1.626.764-.334.51-.501 1.336-.501 2.479V31h-2.681V17.324h2.681v2.786c0 .217-.021.727-.062 1.53l-.061.79h.14c.598-.96 1.547-1.44 2.848-1.44 1.154 0 2.03.31 2.628.93.598.622.896 1.513.896 2.673V31Zm2.646-12.366c0-.873.486-1.31 1.459-1.31.973 0 1.459.437 1.459 1.31 0 .416-.123.741-.369.975-.24.229-.604.343-1.09.343-.973 0-1.459-.44-1.459-1.318ZM182.546 31h-2.681v-9.826h2.681V31Zm11.619 0h-2.681v-5.74c0-.708-.12-1.239-.36-1.59-.234-.358-.606-.536-1.116-.536-.686 0-1.184.252-1.494.756-.311.504-.466 1.333-.466 2.487V31h-2.681v-9.826h2.048l.36 1.257h.15a2.69 2.69 0 0 1 1.142-1.055c.498-.258 1.07-.387 1.714-.387 1.471 0 2.467.48 2.989 1.442h.237a2.66 2.66 0 0 1 1.16-1.064c.516-.252 1.096-.378 1.74-.378 1.114 0 1.954.287 2.523.862.574.568.861 1.482.861 2.742V31h-2.689v-5.74c0-.708-.121-1.239-.361-1.59-.234-.358-.606-.536-1.116-.536-.656 0-1.148.234-1.477.703-.322.469-.483 1.213-.483 2.232V31Zm14.282.176c-1.154 0-2.059-.42-2.716-1.257h-.14c.094.82.14 1.295.14 1.424v3.981h-2.68v-14.15h2.179l.378 1.274h.123c.627-.972 1.556-1.459 2.787-1.459 1.16 0 2.068.448 2.724 1.345.656.896.985 2.142.985 3.735 0 1.05-.156 1.96-.466 2.734-.305.773-.741 1.362-1.31 1.766-.568.405-1.236.607-2.004.607Zm-.791-8.042c-.662 0-1.145.205-1.45.615-.305.404-.463 1.075-.475 2.013v.29c0 1.054.156 1.81.466 2.267.317.457.815.686 1.494.686 1.202 0 1.802-.99 1.802-2.97 0-.968-.149-1.691-.448-2.172-.293-.486-.756-.73-1.389-.73Z"/>
  </g>
  <defs>
    <clipPath id="a">
      <path fill="#fff" d="M86.5 11h127v26h-127z"/>
    </clipPath>
    <clipPath id="b">
      <path fill="#fff" d="M86.5 12h24v24h-24z"/>
    </clipPath>
  </defs>
</svg>
