<svg xmlns="http://www.w3.org/2000/svg" width="302" height="50" fill="none" viewBox="0 0 302 50">
  <rect width="301" height="49" x=".5" y=".5" fill="#17063B" rx="8.5"/>
  <g clip-path="url(#a)">
    <g clip-path="url(#b)">
      <path fill="url(#c)" d="M112.672 18.313c-.347-2.578-2.594-4.61-5.258-5.004-.45-.067-2.153-.309-6.098-.309h-.03c-3.946 0-4.792.242-5.242.309-2.59.383-4.955 2.209-5.53 4.818-.275 1.285-.305 2.71-.253 4.016.073 1.874.087 3.745.257 5.611.118 1.24.323 2.47.614 3.68.546 2.237 2.754 4.098 4.918 4.857a13.19 13.19 0 0 0 7.194.38c.262-.061.522-.132.778-.213.58-.184 1.26-.39 1.759-.753a.053.053 0 0 0 .023-.044v-1.808a.06.06 0 0 0-.005-.023.053.053 0 0 0-.037-.028.051.051 0 0 0-.023 0 19.938 19.938 0 0 1-4.669.545c-2.705 0-3.433-1.284-3.641-1.818a5.635 5.635 0 0 1-.317-1.433.05.05 0 0 1 .005-.024.05.05 0 0 1 .014-.02.05.05 0 0 1 .022-.01.051.051 0 0 1 .025 0 19.51 19.51 0 0 0 4.592.545c.372 0 .743 0 1.115-.01 1.556-.043 3.195-.123 4.726-.421.038-.008.076-.015.109-.024 2.415-.464 4.712-1.92 4.946-5.604.008-.145.03-1.52.03-1.67.001-.512.165-3.63-.024-5.545Z"/>
      <path fill="#fff" d="M108.847 21.21v6.407h-2.539v-6.218c0-1.309-.545-1.977-1.655-1.977-1.219 0-1.83.79-1.83 2.35v3.404h-2.524v-3.404c0-1.56-.612-2.35-1.832-2.35-1.103 0-1.654.668-1.654 1.977v6.218h-2.537V21.21c0-1.309.334-2.349 1.002-3.12.69-.768 1.594-1.163 2.717-1.163 1.3 0 2.281.5 2.936 1.497l.631 1.06.633-1.06c.655-.998 1.637-1.497 2.934-1.497 1.122 0 2.026.395 2.718 1.164.667.77 1.001 1.81 1 3.12Z"/>
    </g>
    <path fill="#fff" d="m128.558 32-3.094-10.081h-.079c.111 2.05.167 3.419.167 4.104V32h-2.435V19.15h3.709l3.041 9.827h.053l3.226-9.827h3.708V32h-2.54v-6.082c0-.287.003-.618.009-.993.012-.375.053-1.371.123-2.989h-.079L131.054 32h-2.496Zm17.569 0-.519-1.336h-.07c-.451.568-.917.964-1.397 1.187-.475.216-1.096.325-1.864.325-.943 0-1.687-.27-2.232-.809-.539-.539-.809-1.306-.809-2.303 0-1.043.364-1.81 1.09-2.302.733-.498 1.834-.774 3.305-.826l1.705-.053v-.43c0-.997-.51-1.495-1.529-1.495-.786 0-1.708.237-2.769.712l-.888-1.81c1.131-.592 2.385-.888 3.762-.888 1.318 0 2.329.287 3.032.861.703.574 1.055 1.447 1.055 2.62V32h-1.872Zm-.791-4.553-1.037.035c-.779.024-1.36.165-1.74.422-.381.258-.572.65-.572 1.178 0 .756.434 1.134 1.301 1.134.621 0 1.116-.179 1.485-.536.375-.358.563-.832.563-1.424v-.809Zm12.287 1.635c0 1.008-.352 1.775-1.055 2.303-.697.527-1.743.79-3.137.79-.715 0-1.325-.049-1.828-.149a6.724 6.724 0 0 1-1.415-.422V29.39c.498.234 1.057.43 1.678.588.627.159 1.178.238 1.653.238.972 0 1.459-.281 1.459-.844a.69.69 0 0 0-.194-.51c-.129-.134-.351-.284-.668-.448-.316-.17-.738-.366-1.265-.589-.756-.316-1.313-.61-1.67-.879a2.538 2.538 0 0 1-.774-.923c-.158-.351-.237-.782-.237-1.292 0-.873.337-1.546 1.011-2.021.679-.48 1.64-.72 2.882-.72a8.17 8.17 0 0 1 3.455.773l-.809 1.933a14.85 14.85 0 0 0-1.38-.518 4.334 4.334 0 0 0-1.309-.202c-.791 0-1.187.213-1.187.641 0 .24.126.448.378.624.258.176.817.437 1.679.782.767.311 1.33.601 1.687.87.358.27.621.58.791.932.17.352.255.77.255 1.257Zm6.231.958c.469 0 1.032-.102 1.688-.308v1.995c-.668.3-1.488.449-2.461.449-1.072 0-1.854-.27-2.347-.809-.486-.545-.729-1.36-.729-2.443v-4.738h-1.283v-1.133l1.476-.897.774-2.074h1.714v2.092h2.751v2.012h-2.751v4.738c0 .38.105.662.316.844.217.181.501.272.852.272Zm5.819-2.97c0 .972.158 1.707.474 2.205.323.498.844.748 1.565.748.715 0 1.227-.247 1.538-.739.316-.498.475-1.236.475-2.215 0-.972-.159-1.702-.475-2.188-.316-.486-.835-.73-1.556-.73-.715 0-1.23.244-1.547.73-.316.48-.474 1.21-.474 2.188Zm6.794 0c0 1.599-.422 2.85-1.266 3.752-.844.903-2.018 1.354-3.524 1.354-.944 0-1.776-.205-2.496-.616a4.144 4.144 0 0 1-1.661-1.784c-.387-.773-.581-1.675-.581-2.707 0-1.605.419-2.853 1.257-3.744.838-.89 2.016-1.336 3.533-1.336.944 0 1.776.205 2.497.616.72.41 1.274.998 1.661 1.766.386.768.58 1.667.58 2.698Zm5.326 5.106c-1.154 0-2.063-.449-2.725-1.345-.656-.896-.984-2.139-.984-3.726 0-1.612.334-2.866 1.002-3.762.674-.903 1.6-1.354 2.777-1.354 1.237 0 2.18.48 2.83 1.442h.088a10.937 10.937 0 0 1-.202-1.96v-3.147h2.69V32h-2.057l-.519-1.274h-.114c-.609.966-1.538 1.45-2.786 1.45Zm.94-2.136c.686 0 1.187-.2 1.503-.598.323-.398.498-1.075.528-2.03v-.29c0-1.055-.164-1.81-.493-2.267-.322-.457-.849-.686-1.582-.686-.597 0-1.063.255-1.397.765-.328.503-.492 1.239-.492 2.206 0 .966.167 1.693.501 2.18.334.48.811.72 1.432.72Zm9.475-2.97c0 .972.158 1.707.475 2.205.322.498.843.748 1.564.748.715 0 1.228-.247 1.538-.739.317-.498.475-1.236.475-2.215 0-.972-.158-1.702-.475-2.188-.316-.486-.835-.73-1.556-.73-.714 0-1.23.244-1.546.73-.317.48-.475 1.21-.475 2.188Zm6.794 0c0 1.599-.422 2.85-1.266 3.752-.843.903-2.018 1.354-3.524 1.354-.943 0-1.775-.205-2.496-.616a4.144 4.144 0 0 1-1.661-1.784c-.387-.773-.58-1.675-.58-2.707 0-1.605.419-2.853 1.256-3.744.838-.89 2.016-1.336 3.534-1.336.943 0 1.775.205 2.496.616.72.41 1.274.998 1.661 1.766s.58 1.667.58 2.698ZM210.287 32h-2.681v-5.74c0-.708-.126-1.239-.377-1.59-.252-.358-.654-.536-1.205-.536-.75 0-1.292.252-1.626.756-.334.498-.501 1.327-.501 2.487V32h-2.68v-9.826h2.048l.36 1.257h.149a2.81 2.81 0 0 1 1.231-1.073c.527-.246 1.125-.369 1.793-.369 1.142 0 2.01.31 2.601.932.592.615.888 1.506.888 2.672V32Z"/>
  </g>
  <rect width="301" height="49" x=".5" y=".5" stroke="#fff" rx="8.5"/>
  <defs>
    <clipPath id="a">
      <path fill="#fff" d="M89.5 12h123v26h-123z"/>
    </clipPath>
    <clipPath id="b">
      <path fill="#fff" d="M89.5 13h24v24h-24z"/>
    </clipPath>
    <linearGradient id="c" x1="101.502" x2="101.502" y1="13" y2="37" gradientUnits="userSpaceOnUse">
      <stop stop-color="#6364FF"/>
      <stop offset="1" stop-color="#563ACC"/>
    </linearGradient>
  </defs>
</svg>
