<svg xmlns="http://www.w3.org/2000/svg" width="302" height="50" fill="none" viewBox="0 0 302 50">
  <rect width="301" height="49" x=".5" y=".5" fill="#000" rx="8.5"/>
  <g clip-path="url(#a)">
    <g clip-path="url(#b)">
      <path fill="#fff" d="M111.037 25c0 3.866-3.03 7-6.768 7S97.5 28.866 97.5 25s3.03-7 6.769-7c3.738 0 6.768 3.134 6.768 7Zm7.426 0c0 3.64-1.515 6.59-3.385 6.59-1.869 0-3.384-2.95-3.384-6.59 0-3.639 1.515-6.59 3.384-6.59s3.385 2.95 3.385 6.59m3.037 0c0 3.26-.533 5.904-1.19 5.904-.658 0-1.19-2.643-1.19-5.904 0-3.26.533-5.903 1.19-5.903.657 0 1.19 2.643 1.19 5.903Z"/>
    </g>
    <path fill="#fff" d="m136.558 32-3.094-10.081h-.079c.111 2.05.167 3.419.167 4.104V32h-2.435V19.15h3.709l3.041 9.827h.053l3.226-9.827h3.708V32h-2.54v-6.082c0-.287.003-.618.009-.993.012-.375.053-1.371.123-2.989h-.079L139.054 32h-2.496Zm15.398-8.104c-.568 0-1.014.182-1.336.545-.322.358-.507.868-.554 1.53h3.762c-.012-.662-.184-1.172-.518-1.53-.334-.363-.786-.544-1.354-.544Zm.378 8.28c-1.582 0-2.818-.437-3.709-1.31s-1.336-2.11-1.336-3.709c0-1.646.41-2.918 1.231-3.814.826-.903 1.965-1.354 3.418-1.354 1.389 0 2.47.396 3.244 1.187.773.79 1.16 1.884 1.16 3.278v1.3h-6.337c.029.763.255 1.357.677 1.785.422.428 1.013.642 1.775.642.592 0 1.151-.062 1.679-.185a8.4 8.4 0 0 0 1.652-.589v2.074c-.469.235-.97.408-1.503.519-.533.117-1.183.176-1.951.176Zm9.299 0c-1.154 0-2.063-.449-2.725-1.345-.656-.896-.984-2.139-.984-3.726 0-1.612.334-2.866 1.002-3.762.674-.903 1.599-1.354 2.777-1.354 1.236 0 2.18.48 2.83 1.442h.088a10.937 10.937 0 0 1-.202-1.96v-3.147h2.689V32h-2.056l-.519-1.274h-.114c-.609.966-1.538 1.45-2.786 1.45Zm.94-2.136c.686 0 1.187-.2 1.503-.598.322-.398.498-1.075.528-2.03v-.29c0-1.055-.165-1.81-.493-2.267-.322-.457-.849-.686-1.582-.686-.597 0-1.063.255-1.397.765-.328.503-.492 1.239-.492 2.206 0 .966.167 1.693.501 2.18.334.48.811.72 1.432.72Zm7.225-10.406c0-.873.486-1.31 1.459-1.31.972 0 1.459.437 1.459 1.31 0 .416-.123.741-.369.975-.241.229-.604.343-1.09.343-.973 0-1.459-.44-1.459-1.318ZM172.593 32h-2.681v-9.826h2.681V32Zm9.782 0-.36-1.257h-.141a2.853 2.853 0 0 1-1.222 1.064c-.527.246-1.128.369-1.801.369-1.155 0-2.025-.308-2.611-.923-.586-.621-.879-1.512-.879-2.672v-6.407h2.681v5.74c0 .708.126 1.241.378 1.599.252.351.653.527 1.204.527.75 0 1.292-.249 1.626-.747.334-.504.501-1.336.501-2.496v-4.623h2.681V32h-2.057Zm13.667 0h-2.681v-5.74c0-.708-.12-1.239-.36-1.59-.234-.358-.606-.536-1.116-.536-.686 0-1.184.252-1.494.756-.311.504-.466 1.333-.466 2.487V32h-2.681v-9.826h2.048l.36 1.257h.15a2.69 2.69 0 0 1 1.142-1.055c.498-.258 1.07-.387 1.714-.387 1.471 0 2.467.48 2.988 1.442h.238c.263-.457.65-.812 1.16-1.064.516-.252 1.096-.378 1.74-.378 1.113 0 1.954.287 2.523.862.574.568.861 1.482.861 2.742V32h-2.689v-5.74c0-.708-.121-1.239-.361-1.59-.234-.358-.606-.536-1.116-.536-.656 0-1.148.234-1.477.703-.322.469-.483 1.213-.483 2.232V32Z"/>
  </g>
  <rect width="301" height="49" x=".5" y=".5" stroke="#fff" rx="8.5"/>
  <defs>
    <clipPath id="a">
      <path fill="#fff" d="M97.5 12h107v26h-107z"/>
    </clipPath>
    <clipPath id="b">
      <path fill="#fff" d="M97.5 13h24v24h-24z"/>
    </clipPath>
  </defs>
</svg>
