<svg xmlns="http://www.w3.org/2000/svg" width="300" height="48" fill="none" viewBox="0 0 300 48">
  <rect width="300" height="48" fill="#00AEEF" rx="8"/>
  <path fill="#fff" d="M100 16a8 8 0 1 0 0 16.001A8 8 0 0 0 100 16Zm0 10.4a2.4 2.4 0 1 1 0-4.8 2.4 2.4 0 0 1 0 4.8Z" opacity=".8"/>
  <path fill="#fff" d="M108.992 22c2.032.585 4.432 0 4.432 0-.696 3.04-2.904 4.943-6.088 5.175A7.979 7.979 0 0 1 100 32l2.4-7.628c2.469-7.84 3.731-8.372 9.583-8.372H116c-.672 2.96-2.988 5.221-7.008 6Zm28.288 2.558c0 2.127-.527 3.761-1.582 4.904-1.054 1.143-2.566 1.714-4.535 1.714-1.969 0-3.48-.571-4.535-1.714-1.055-1.143-1.582-2.783-1.582-4.922s.527-3.77 1.582-4.895c1.06-1.131 2.578-1.697 4.553-1.697 1.974 0 3.483.569 4.526 1.705 1.049 1.137 1.573 2.772 1.573 4.905Zm-9.378 0c0 1.435.273 2.516.818 3.243.545.726 1.359 1.09 2.443 1.09 2.174 0 3.261-1.445 3.261-4.333 0-2.895-1.081-4.342-3.243-4.342-1.084 0-1.902.366-2.452 1.098-.551.727-.827 1.808-.827 3.244ZM148.803 31h-2.681v-5.74c0-.708-.126-1.239-.378-1.59-.252-.358-.653-.536-1.204-.536-.75 0-1.292.252-1.626.756-.334.498-.501 1.327-.501 2.487V31h-2.681v-9.826h2.048l.361 1.257h.149a2.81 2.81 0 0 1 1.231-1.073c.527-.246 1.125-.369 1.792-.369 1.143 0 2.01.31 2.602.932.592.615.888 1.506.888 2.672V31Zm5.44 0h-2.681V17.324h2.681V31Zm1.415-9.826h2.936l1.854 5.528a7.65 7.65 0 0 1 .325 1.705h.053a7.593 7.593 0 0 1 .378-1.705l1.819-5.528h2.874l-4.157 11.083c-.381 1.025-.926 1.793-1.635 2.303-.703.51-1.526.764-2.469.764-.463 0-.917-.05-1.363-.15v-2.126c.323.076.674.114 1.055.114.475 0 .888-.146 1.239-.44.358-.287.636-.723.835-1.309l.159-.483-3.903-9.756ZM170.204 31h-2.681V18.15h7.366v2.233h-4.685v3.313h4.359v2.224h-4.359V31Zm13.228 0-.519-1.336h-.07c-.451.568-.917.964-1.398 1.187-.474.216-1.095.325-1.863.325-.943 0-1.687-.27-2.232-.809-.539-.539-.809-1.306-.809-2.303 0-1.043.363-1.81 1.09-2.302.732-.498 1.834-.774 3.305-.826l1.705-.053v-.43c0-.997-.51-1.495-1.53-1.495-.785 0-1.708.237-2.768.712l-.888-1.81c1.131-.592 2.385-.888 3.762-.888 1.318 0 2.329.287 3.032.861.703.574 1.055 1.447 1.055 2.62V31h-1.872Zm-.791-4.553-1.037.035c-.78.024-1.36.165-1.741.422-.381.258-.571.65-.571 1.178 0 .756.434 1.134 1.301 1.134.621 0 1.116-.179 1.485-.536.375-.358.563-.832.563-1.424v-.809ZM197.143 31h-2.681v-5.74c0-.708-.126-1.239-.378-1.59-.252-.358-.653-.536-1.204-.536-.75 0-1.292.252-1.626.756-.334.498-.501 1.327-.501 2.487V31h-2.681v-9.826h2.048l.36 1.257h.15a2.812 2.812 0 0 1 1.23-1.073c.528-.246 1.125-.369 1.793-.369 1.143 0 2.01.31 2.602.932.592.615.888 1.506.888 2.672V31Zm9.615-2.918c0 1.008-.352 1.775-1.055 2.303-.697.527-1.743.79-3.138.79-.714 0-1.324-.049-1.828-.149a6.742 6.742 0 0 1-1.415-.421V28.39c.498.234 1.058.43 1.679.588.627.159 1.178.238 1.652.238.973 0 1.459-.281 1.459-.844a.689.689 0 0 0-.193-.51c-.129-.134-.352-.284-.668-.448a15.41 15.41 0 0 0-1.266-.589c-.756-.316-1.312-.61-1.67-.879a2.545 2.545 0 0 1-.773-.923c-.158-.351-.237-.782-.237-1.292 0-.873.337-1.546 1.01-2.021.68-.48 1.641-.72 2.883-.72 1.184 0 2.335.257 3.454.773l-.808 1.933a14.85 14.85 0 0 0-1.38-.518 4.336 4.336 0 0 0-1.31-.202c-.791 0-1.186.213-1.186.641 0 .24.126.448.378.624.258.176.817.437 1.678.782.768.311 1.33.601 1.688.87.357.27.621.58.791.932.17.352.255.77.255 1.257Z"/>
</svg>
