<svg xmlns="http://www.w3.org/2000/svg" width="300" height="48" fill="none" viewBox="0 0 300 48">
  <rect width="300" height="48" fill="#003087" rx="8"/>
  <g clip-path="url(#a)">
    <path fill="#fff" d="M123.829 18.098c.293-1.867-.002-3.138-1.011-4.288-1.112-1.267-3.121-1.81-5.691-1.81h-7.459c-.525 0-.972.382-1.054.9l-3.106 19.697a.64.64 0 0 0 .632.74h4.606l-.318 2.016a.56.56 0 0 0 .553.647h3.881c.46 0 .851-.334.922-.788l.039-.197.731-4.637.047-.256a.934.934 0 0 1 .922-.788h.581c3.76 0 6.705-1.528 7.565-5.946.36-1.846.174-3.388-.777-4.47a3.706 3.706 0 0 0-1.063-.82Z" opacity=".68"/>
    <path fill="#fff" d="M123.829 18.098c.293-1.867-.002-3.138-1.011-4.288-1.112-1.267-3.121-1.81-5.691-1.81h-7.459c-.525 0-.972.382-1.054.9l-3.106 19.697a.64.64 0 0 0 .632.74h4.606l1.156-7.335-.036.23c.082-.519.526-.9 1.051-.9h2.189c4.298 0 7.664-1.747 8.647-6.798.029-.15.054-.294.076-.436Z" opacity=".7"/>
    <path fill="#fff" d="M113.145 18.122a.932.932 0 0 1 .922-.788h5.847c.693 0 1.339.045 1.929.14a7.375 7.375 0 0 1 1.178.281c.29.097.56.21.809.342.292-1.867-.002-3.137-1.012-4.288-1.112-1.266-3.121-1.809-5.691-1.809h-7.459c-.525 0-.972.382-1.054.9l-3.106 19.697a.64.64 0 0 0 .632.74h4.606l1.156-7.335 1.243-7.88Zm26.697 6.075h.896c.838 0 1.465-.164 1.881-.492.416-.334.624-.817.624-1.45 0-.639-.176-1.11-.527-1.415-.346-.305-.891-.457-1.635-.457h-1.239v3.814Zm6.152-2.039c0 1.383-.433 2.44-1.301 3.173-.861.733-2.089 1.099-3.682 1.099h-1.169V31h-2.725V18.15h4.105c1.558 0 2.742.337 3.55 1.011.815.668 1.222 1.667 1.222 2.997ZM154.449 31l-.518-1.336h-.071c-.451.568-.917.964-1.397 1.187-.475.216-1.096.325-1.863.325-.944 0-1.688-.27-2.233-.809-.539-.539-.808-1.306-.808-2.303 0-1.043.363-1.81 1.089-2.302.733-.498 1.834-.774 3.305-.826l1.705-.053v-.43c0-.997-.51-1.495-1.529-1.495-.785 0-1.708.237-2.769.712l-.887-1.81c1.131-.592 2.384-.888 3.761-.888 1.319 0 2.329.287 3.033.861.703.574 1.054 1.447 1.054 2.62V31h-1.872Zm-.791-4.553-1.037.035c-.779.024-1.359.165-1.74.422-.381.258-.571.65-.571 1.178 0 .756.433 1.134 1.3 1.134.621 0 1.117-.179 1.486-.536.375-.358.562-.832.562-1.424v-.809Zm4.026-5.273h2.935l1.855 5.528c.158.48.266 1.049.325 1.705h.053a7.54 7.54 0 0 1 .377-1.705l1.82-5.528h2.874l-4.157 11.083c-.381 1.025-.926 1.793-1.635 2.303-.703.51-1.527.764-2.47.764-.463 0-.917-.05-1.362-.15v-2.126c.322.076.674.114 1.055.114.474 0 .887-.146 1.239-.44.357-.287.636-.723.835-1.309l.158-.483-3.902-9.756Zm14.589 3.023h.897c.838 0 1.465-.164 1.881-.492.416-.334.624-.817.624-1.45 0-.639-.176-1.11-.528-1.415-.345-.305-.89-.457-1.634-.457h-1.24v3.814Zm6.153-2.039c0 1.383-.434 2.44-1.301 3.173-.861.733-2.089 1.099-3.683 1.099h-1.169V31h-2.724V18.15h4.104c1.559 0 2.743.337 3.551 1.011.815.668 1.222 1.667 1.222 2.997ZM186.881 31l-.519-1.336h-.07c-.451.568-.917.964-1.397 1.187-.475.216-1.096.325-1.864.325-.943 0-1.687-.27-2.232-.809-.539-.539-.809-1.306-.809-2.303 0-1.043.364-1.81 1.09-2.302.732-.498 1.834-.774 3.305-.826l1.705-.053v-.43c0-.997-.51-1.495-1.529-1.495-.786 0-1.708.237-2.769.712l-.888-1.81c1.131-.592 2.385-.888 3.762-.888 1.318 0 2.329.287 3.032.861.703.574 1.055 1.447 1.055 2.62V31h-1.872Zm-.791-4.553-1.037.035c-.78.024-1.36.165-1.741.422-.38.258-.571.65-.571 1.178 0 .756.434 1.134 1.301 1.134.621 0 1.116-.179 1.485-.536.375-.358.563-.832.563-1.424v-.809ZM194.202 31h-2.681V17.324h2.681V31Z"/>
  </g>
  <defs>
    <clipPath id="a">
      <path fill="#fff" d="M103.5 11h93v26h-93z"/>
    </clipPath>
  </defs>
</svg>
