<svg xmlns="http://www.w3.org/2000/svg" width="302" height="50" fill="none" viewBox="0 0 302 50">
  <rect width="301" height="49" x=".5" y=".5" fill="#FFE2EB" rx="8.5"/>
  <g clip-path="url(#a)">
    <g clip-path="url(#b)">
      <path fill="#fff" d="M105.5 37c6.627 0 12-5.373 12-12s-5.373-12-12-12-12 5.373-12 12 5.373 12 12 12Z"/>
      <path fill="#E60023" d="M105.5 13c-6.627 0-12 5.373-12 12 0 5.086 3.16 9.432 7.625 11.18-.109-.948-.198-2.41.039-3.447.217-.938 1.403-5.965 1.403-5.965s-.356-.721-.356-1.778c0-1.669.968-2.913 2.173-2.913 1.027 0 1.521.77 1.521 1.688 0 1.028-.652 2.568-.998 4-.286 1.195.603 2.173 1.778 2.173 2.133 0 3.773-2.252 3.773-5.491 0-2.874-2.064-4.88-5.017-4.88-3.418 0-5.422 2.559-5.422 5.206 0 1.027.395 2.133.888 2.736a.356.356 0 0 1 .079.345c-.088.376-.296 1.195-.335 1.363-.05.218-.178.267-.405.158-1.502-.7-2.44-2.884-2.44-4.651 0-3.783 2.746-7.26 7.931-7.26 4.158 0 7.398 2.963 7.398 6.934 0 4.138-2.608 7.466-6.223 7.466-1.214 0-2.36-.632-2.745-1.383l-.751 2.855c-.267 1.047-.997 2.35-1.491 3.15 1.126.346 2.311.534 3.555.534 6.627 0 12-5.373 12-12C117.5 18.373 112.127 13 105.5 13Z"/>
    </g>
    <path fill="#000" d="M129.842 25.197h.896c.838 0 1.465-.164 1.881-.492.416-.334.624-.817.624-1.45 0-.639-.176-1.11-.527-1.415-.346-.305-.891-.457-1.635-.457h-1.239v3.814Zm6.152-2.039c0 1.383-.433 2.44-1.301 3.173-.861.733-2.089 1.099-3.682 1.099h-1.169V32h-2.725V19.15h4.105c1.558 0 2.742.337 3.55 1.011.815.668 1.222 1.667 1.222 2.997Zm2.101-3.524c0-.873.486-1.31 1.459-1.31.972 0 1.459.437 1.459 1.31 0 .416-.123.741-.369.975-.241.229-.604.343-1.09.343-.973 0-1.459-.44-1.459-1.318ZM140.89 32h-2.681v-9.826h2.681V32Zm11.891 0h-2.68v-5.74c0-.708-.126-1.239-.378-1.59-.252-.358-.654-.536-1.204-.536-.75 0-1.292.252-1.626.756-.334.498-.501 1.327-.501 2.487V32h-2.681v-9.826h2.048l.36 1.257h.15a2.806 2.806 0 0 1 1.23-1.073c.527-.246 1.125-.369 1.793-.369 1.143 0 2.01.31 2.602.932.591.615.887 1.506.887 2.672V32Zm6.9-1.96c.468 0 1.031-.102 1.687-.308v1.995c-.668.3-1.488.449-2.461.449-1.072 0-1.854-.27-2.346-.809-.487-.545-.73-1.36-.73-2.443v-4.738h-1.283v-1.133l1.476-.897.774-2.074h1.714v2.092h2.751v2.012h-2.751v4.738c0 .38.105.662.316.844.217.181.501.272.853.272Zm7.752-6.143c-.569 0-1.014.181-1.336.544-.323.358-.507.868-.554 1.53h3.762c-.012-.662-.185-1.172-.519-1.53-.334-.363-.785-.544-1.353-.544Zm.378 8.279c-1.582 0-2.819-.437-3.709-1.31-.891-.873-1.336-2.11-1.336-3.709 0-1.646.41-2.918 1.23-3.814.826-.903 1.966-1.354 3.419-1.354 1.389 0 2.47.396 3.243 1.187.774.79 1.16 1.884 1.16 3.278v1.3h-6.337c.03.763.255 1.357.677 1.785.422.428 1.014.642 1.776.642a7.37 7.37 0 0 0 1.678-.185 8.407 8.407 0 0 0 1.653-.589v2.074c-.469.235-.97.408-1.503.519-.533.117-1.184.176-1.951.176Zm11.671-10.187c.364 0 .665.027.906.08l-.202 2.513a3.074 3.074 0 0 0-.791-.088c-.856 0-1.524.22-2.004.66-.475.439-.712 1.054-.712 1.845V32h-2.681v-9.826h2.03l.396 1.652h.132a3.67 3.67 0 0 1 1.23-1.327 3.049 3.049 0 0 1 1.696-.51Zm6.759 1.907c-.568 0-1.013.182-1.336.545-.322.358-.507.868-.553 1.53h3.761c-.011-.662-.184-1.172-.518-1.53-.334-.363-.785-.544-1.354-.544Zm.378 8.28c-1.582 0-2.818-.437-3.709-1.31-.89-.873-1.336-2.11-1.336-3.709 0-1.646.41-2.918 1.231-3.814.826-.903 1.966-1.354 3.419-1.354 1.388 0 2.469.396 3.243 1.187.773.79 1.16 1.884 1.16 3.278v1.3h-6.337c.029.763.255 1.357.677 1.785.422.428 1.013.642 1.775.642.592 0 1.152-.062 1.679-.185a8.4 8.4 0 0 0 1.652-.589v2.074a6.15 6.15 0 0 1-1.503.519c-.533.117-1.183.176-1.951.176Zm13.043-3.094c0 1.008-.351 1.775-1.055 2.303-.697.527-1.743.79-3.137.79-.715 0-1.324-.049-1.828-.149a6.724 6.724 0 0 1-1.415-.422V29.39c.498.234 1.057.43 1.678.588.627.159 1.178.238 1.653.238.972 0 1.459-.281 1.459-.844a.69.69 0 0 0-.194-.51c-.129-.134-.351-.284-.668-.448-.316-.17-.738-.366-1.265-.589-.756-.316-1.313-.61-1.67-.879a2.538 2.538 0 0 1-.774-.923c-.158-.351-.237-.782-.237-1.292 0-.873.337-1.546 1.011-2.021.679-.48 1.64-.72 2.883-.72 1.183 0 2.335.257 3.454.773l-.809 1.933a14.85 14.85 0 0 0-1.38-.518 4.334 4.334 0 0 0-1.309-.202c-.791 0-1.187.213-1.187.641 0 .24.126.448.378.624.258.176.817.437 1.679.782.767.311 1.33.601 1.687.87.358.27.621.58.791.932.17.352.255.77.255 1.257Zm6.232.958c.468 0 1.031-.102 1.687-.308v1.995c-.668.3-1.488.449-2.461.449-1.072 0-1.854-.27-2.347-.809-.486-.545-.729-1.36-.729-2.443v-4.738h-1.283v-1.133l1.476-.897.774-2.074h1.714v2.092h2.751v2.012h-2.751v4.738c0 .38.105.662.316.844.217.181.501.272.853.272Z"/>
  </g>
  <rect width="301" height="49" x=".5" y=".5" stroke="#212121" rx="8.5"/>
  <defs>
    <clipPath id="a">
      <path fill="#fff" d="M93.5 12h115v26h-115z"/>
    </clipPath>
    <clipPath id="b">
      <path fill="#fff" d="M93.5 13h24v24h-24z"/>
    </clipPath>
  </defs>
</svg>
