<svg xmlns="http://www.w3.org/2000/svg" width="300" height="48" fill="none" viewBox="0 0 300 48">
  <rect width="300" height="48" fill="#678BFF" rx="8"/>
  <path fill="#fff" fill-rule="evenodd" d="M91 12a2 2 0 0 0-2 2v21a1 1 0 0 0 1 1h.12a1 1 0 0 0 .664-.253L95 32h14a2 2 0 0 0 2-2V14a2 2 0 0 0-2-2H91Z" clip-rule="evenodd"/>
  <path fill="#678BFF" fill-rule="evenodd" d="M94 28.614v-.207l.424-.144c.283-.083.466-.206.551-.371.1-.165.149-.385.149-.66V16.423c0-.275-.05-.495-.149-.66-.099-.165-.29-.296-.572-.392L94 15.206V15h5.151c2.106 0 3.625.378 4.558 1.134.947.743 1.42 1.726 1.42 2.95 0 .784-.197 1.506-.593 2.166-.382.646-1.018 1.162-1.908 1.547-.89.385-2.092.577-3.604.577h-.72v3.796c0 .536.275.887.826 1.052l.636.185v.207H94Zm4.303-5.652h.806c.692 0 1.258-.11 1.696-.33.438-.22.763-.605.975-1.155.212-.55.318-1.314.318-2.29 0-.99-.12-1.76-.36-2.31-.227-.55-.566-.928-1.018-1.134-.452-.22-1.017-.33-1.696-.33h-.72v7.549Z" clip-rule="evenodd"/>
  <path fill="#678BFF" d="M102.884 27.778c.353.344.784.516 1.293.516.509 0 .94-.172 1.293-.516.353-.344.53-.756.53-1.237 0-.482-.177-.901-.53-1.259a1.748 1.748 0 0 0-1.293-.536c-.509 0-.94.179-1.293.536a1.73 1.73 0 0 0-.53 1.259c0 .48.176.893.53 1.237Z"/>
  <path fill="#fff" d="M124.342 24.197h.896c.838 0 1.465-.164 1.881-.492.416-.334.624-.817.624-1.45 0-.639-.176-1.11-.527-1.415-.346-.305-.891-.457-1.635-.457h-1.239v3.814Zm6.152-2.039c0 1.383-.433 2.44-1.301 3.173-.861.733-2.089 1.099-3.682 1.099h-1.169V31h-2.725V18.15h4.105c1.558 0 2.742.337 3.55 1.011.815.668 1.222 1.667 1.222 2.997Zm4.351 3.911c0 .973.158 1.708.474 2.206.323.498.844.748 1.565.748.715 0 1.227-.247 1.538-.739.316-.498.474-1.236.474-2.215 0-.972-.158-1.702-.474-2.188-.317-.486-.835-.73-1.556-.73-.715 0-1.23.244-1.547.73-.316.48-.474 1.21-.474 2.188Zm6.794 0c0 1.6-.422 2.85-1.266 3.753-.844.903-2.019 1.354-3.524 1.354-.944 0-1.776-.205-2.496-.615a4.152 4.152 0 0 1-1.662-1.785c-.386-.773-.58-1.675-.58-2.707 0-1.605.419-2.853 1.257-3.744.838-.89 2.016-1.336 3.533-1.336.944 0 1.776.205 2.496.616.721.41 1.275.998 1.662 1.766.386.768.58 1.667.58 2.698Zm9.07 2.013c0 1.008-.352 1.775-1.055 2.303-.697.527-1.743.79-3.137.79-.715 0-1.325-.049-1.829-.149a6.76 6.76 0 0 1-1.415-.421V28.39c.498.234 1.058.43 1.679.588.627.159 1.178.238 1.652.238.973 0 1.459-.281 1.459-.844a.689.689 0 0 0-.193-.51c-.129-.134-.351-.284-.668-.448-.316-.17-.738-.366-1.265-.589-.756-.316-1.313-.61-1.67-.879a2.538 2.538 0 0 1-.774-.923c-.158-.351-.237-.782-.237-1.292 0-.873.337-1.546 1.011-2.021.679-.48 1.64-.72 2.882-.72a8.17 8.17 0 0 1 3.455.773l-.809 1.933a14.85 14.85 0 0 0-1.38-.518 4.336 4.336 0 0 0-1.31-.202c-.791 0-1.186.213-1.186.641 0 .24.126.448.378.624.258.176.817.437 1.679.782.767.311 1.33.601 1.687.87.358.27.621.58.791.932.17.352.255.77.255 1.257Zm6.231.958c.469 0 1.032-.102 1.688-.308v1.995c-.668.3-1.488.449-2.461.449-1.072 0-1.855-.27-2.347-.809-.486-.545-.729-1.36-.729-2.443v-4.738h-1.283v-1.133l1.476-.897.774-2.074h1.713v2.092h2.751v2.012h-2.751v4.738c0 .38.106.662.317.844.217.181.501.272.852.272Zm3.305.703c0-.492.132-.864.396-1.116.263-.252.647-.378 1.151-.378.486 0 .861.129 1.125.387.27.258.404.627.404 1.107 0 .463-.134.83-.404 1.099-.27.264-.645.395-1.125.395-.492 0-.873-.129-1.143-.386-.269-.264-.404-.633-.404-1.108ZM174.826 31h-2.68v-5.74c0-.708-.126-1.239-.378-1.59-.252-.358-.654-.536-1.205-.536-.75 0-1.292.252-1.625.756-.334.498-.501 1.327-.501 2.487V31h-2.681v-9.826h2.048l.36 1.257h.149a2.81 2.81 0 0 1 1.231-1.073c.527-.246 1.125-.369 1.793-.369 1.142 0 2.01.31 2.601.932.592.615.888 1.506.888 2.672V31Zm6.829-8.104c-.568 0-1.013.182-1.336.545-.322.358-.507.868-.553 1.53h3.761c-.011-.662-.184-1.172-.518-1.53-.334-.363-.785-.544-1.354-.544Zm.378 8.28c-1.582 0-2.818-.437-3.709-1.31-.89-.873-1.336-2.11-1.336-3.709 0-1.646.41-2.918 1.231-3.814.826-.903 1.966-1.354 3.419-1.354 1.388 0 2.469.396 3.243 1.187.773.79 1.16 1.884 1.16 3.278v1.3h-6.337c.029.763.255 1.357.677 1.785.422.428 1.014.642 1.775.642.592 0 1.152-.062 1.679-.185a8.4 8.4 0 0 0 1.652-.589v2.074a6.136 6.136 0 0 1-1.503.519c-.533.117-1.183.176-1.951.176ZM196.298 31l-.756-3.436-1.02-4.342h-.061L192.668 31h-2.883l-2.795-9.826h2.672l1.134 4.35c.182.78.366 1.855.554 3.226h.052c.024-.445.126-1.151.308-2.118l.141-.747 1.212-4.711h2.954l1.151 4.71.105.572a21.564 21.564 0 0 1 .273 1.643c.041.27.064.487.07.651h.053c.053-.422.146-.999.281-1.731.135-.739.232-1.237.29-1.495l1.178-4.35h2.628L199.216 31h-2.918Zm14.194-2.918c0 1.008-.351 1.775-1.054 2.303-.698.527-1.744.79-3.138.79-.715 0-1.324-.049-1.828-.149a6.724 6.724 0 0 1-1.415-.421V28.39c.498.234 1.057.43 1.678.588.627.159 1.178.238 1.653.238.972 0 1.459-.281 1.459-.844a.69.69 0 0 0-.194-.51c-.129-.134-.351-.284-.668-.448-.316-.17-.738-.366-1.265-.589-.756-.316-1.313-.61-1.67-.879a2.538 2.538 0 0 1-.774-.923c-.158-.351-.237-.782-.237-1.292 0-.873.337-1.546 1.011-2.021.679-.48 1.64-.72 2.883-.72 1.183 0 2.335.257 3.454.773l-.809 1.933a14.85 14.85 0 0 0-1.38-.518 4.33 4.33 0 0 0-1.309-.202c-.791 0-1.187.213-1.187.641 0 .24.126.448.378.624.258.176.817.437 1.679.782.767.311 1.33.601 1.687.87.358.27.621.58.791.932.17.352.255.77.255 1.257Z"/>
</svg>
