<svg xmlns="http://www.w3.org/2000/svg" width="302" height="50" fill="none" viewBox="0 0 302 50">
  <rect width="301" height="49" x=".5" y=".5" fill="#fff" rx="8.5"/>
  <g clip-path="url(#a)">
    <g clip-path="url(#b)">
      <path fill="#FF6154" d="M98.503 25c0 6.63-5.37 12-12 12s-12-5.37-12-12 5.37-12 12-12c6.629 0 12 5.37 12 12"/>
      <path fill="#fff" d="M88.103 25h-3.4v-3.59h3.4c.99 0 1.8.81 1.8 1.8 0 .991-.81 1.801-1.8 1.801v-.01Zm0-5.989h-5.801v12h2.4v-3.6h3.4a4.2 4.2 0 1 0 0-8.4Z"/>
    </g>
    <path fill="#000" d="M110.842 25.197h.896c.838 0 1.465-.164 1.881-.492.416-.334.624-.817.624-1.45 0-.639-.176-1.11-.527-1.415-.346-.305-.891-.457-1.635-.457h-1.239v3.814Zm6.152-2.039c0 1.383-.433 2.44-1.301 3.173-.861.733-2.089 1.099-3.682 1.099h-1.169V32h-2.725V19.15h4.105c1.558 0 2.742.337 3.55 1.011.815.668 1.222 1.667 1.222 2.997Zm7.699-1.169c.364 0 .665.027.906.08l-.203 2.513a3.064 3.064 0 0 0-.791-.088c-.855 0-1.523.22-2.003.66-.475.439-.712 1.054-.712 1.845V32h-2.681v-9.826h2.03l.396 1.652h.132a3.66 3.66 0 0 1 1.23-1.327 3.049 3.049 0 0 1 1.696-.51Zm4.826 5.08c0 .973.158 1.708.474 2.206.322.498.844.748 1.565.748.714 0 1.227-.247 1.538-.739.316-.498.474-1.236.474-2.215 0-.972-.158-1.702-.474-2.188-.317-.486-.835-.73-1.556-.73-.715 0-1.23.244-1.547.73-.316.48-.474 1.21-.474 2.188Zm6.793 0c0 1.6-.421 2.85-1.265 3.753-.844.903-2.019 1.354-3.525 1.354-.943 0-1.775-.205-2.496-.616a4.156 4.156 0 0 1-1.661-1.784c-.386-.773-.58-1.675-.58-2.707 0-1.605.419-2.853 1.257-3.744.838-.89 2.016-1.336 3.533-1.336.944 0 1.776.205 2.496.616a4.1 4.1 0 0 1 1.661 1.766c.387.768.58 1.667.58 2.698Zm5.327 5.107c-1.155 0-2.063-.449-2.725-1.345-.656-.896-.984-2.139-.984-3.726 0-1.612.334-2.866 1.002-3.762.673-.903 1.599-1.354 2.777-1.354 1.236 0 2.18.48 2.83 1.442h.088a10.937 10.937 0 0 1-.202-1.96v-3.147h2.689V32h-2.056l-.519-1.274h-.114c-.61.966-1.538 1.45-2.786 1.45Zm.94-2.136c.686 0 1.187-.2 1.503-.598.322-.398.498-1.075.527-2.03v-.29c0-1.055-.164-1.81-.492-2.267-.322-.457-.849-.686-1.582-.686-.597 0-1.063.255-1.397.765-.328.503-.492 1.239-.492 2.206 0 .966.166 1.693.5 2.18.334.48.812.72 1.433.72Zm14.3 1.96-.36-1.257h-.141a2.853 2.853 0 0 1-1.222 1.064c-.527.246-1.128.369-1.802.369-1.154 0-2.024-.308-2.61-.923-.586-.621-.879-1.512-.879-2.672v-6.407h2.681v5.74c0 .708.126 1.241.378 1.599.252.351.653.527 1.204.527.75 0 1.292-.249 1.626-.747.334-.504.501-1.336.501-2.496v-4.623h2.681V32h-2.057Zm8.859.176c-3.058 0-4.588-1.679-4.588-5.036 0-1.67.416-2.945 1.248-3.824.832-.884 2.025-1.327 3.578-1.327 1.136 0 2.156.223 3.058.668l-.791 2.074c-.422-.17-.814-.307-1.178-.413a3.695 3.695 0 0 0-1.089-.167c-1.395 0-2.092.99-2.092 2.971 0 1.922.697 2.883 2.092 2.883.515 0 .993-.067 1.432-.202.44-.14.879-.358 1.319-.65v2.293a4.313 4.313 0 0 1-1.319.572c-.439.105-.996.158-1.67.158Zm9.413-2.136c.469 0 1.032-.102 1.688-.308v1.995c-.668.3-1.488.449-2.461.449-1.072 0-1.855-.27-2.347-.809-.486-.545-.729-1.36-.729-2.443v-4.738h-1.283v-1.133l1.476-.897.774-2.074h1.713v2.092h2.751v2.012h-2.751v4.738c0 .38.106.662.317.844.217.181.501.272.852.272ZM194.25 32h-2.716v-5.546h-5.089V32h-2.724V19.15h2.724v5.037h5.089V19.15h2.716V32Zm10.002 0-.36-1.257h-.141a2.853 2.853 0 0 1-1.222 1.064c-.527.246-1.128.369-1.801.369-1.155 0-2.025-.308-2.611-.923-.586-.621-.879-1.512-.879-2.672v-6.407h2.681v5.74c0 .708.126 1.241.378 1.599.252.351.653.527 1.204.527.75 0 1.292-.249 1.626-.747.334-.504.501-1.336.501-2.496v-4.623h2.681V32h-2.057Zm13.939 0h-2.68v-5.74c0-.708-.126-1.239-.378-1.59-.252-.358-.654-.536-1.204-.536-.75 0-1.292.252-1.626.756-.334.498-.501 1.327-.501 2.487V32h-2.681v-9.826h2.048l.36 1.257h.15a2.812 2.812 0 0 1 1.23-1.073c.528-.246 1.125-.369 1.793-.369 1.143 0 2.01.31 2.602.932.592.615.887 1.506.887 2.672V32Zm6.9-1.96c.469 0 1.031-.102 1.687-.308v1.995c-.668.3-1.488.449-2.461.449-1.072 0-1.854-.27-2.346-.809-.487-.545-.73-1.36-.73-2.443v-4.738h-1.283v-1.133l1.477-.897.773-2.074h1.714v2.092h2.751v2.012h-2.751v4.738c0 .38.105.662.316.844.217.181.501.272.853.272Z"/>
  </g>
  <rect width="301" height="49" x=".5" y=".5" stroke="#212121" rx="8.5"/>
  <defs>
    <clipPath id="a">
      <path fill="#fff" d="M74.5 12h153v26h-153z"/>
    </clipPath>
    <clipPath id="b">
      <path fill="#fff" d="M74.5 13h24v24h-24z"/>
    </clipPath>
  </defs>
</svg>
