<svg xmlns="http://www.w3.org/2000/svg" width="302" height="50" fill="none" viewBox="0 0 302 50">
  <rect width="301" height="49" x=".5" y=".5" fill="#000" rx="8.5"/>
  <g clip-path="url(#a)">
    <path fill="#fff" fill-rule="evenodd" d="m107.817 13.078 13.473 3.36a2.617 2.617 0 0 1 1.906 3.171l-3.842 15.407a2.616 2.616 0 0 1-3.171 1.906l-13.474-3.36a2.615 2.615 0 0 1-1.905-3.171l3.841-15.407a2.617 2.617 0 0 1 3.172-1.906Zm-.542 4.359 12.511 3.119a.53.53 0 0 1 .386.642l-.166.665a.53.53 0 0 1-.642.385l-12.511-3.119a.53.53 0 0 1-.385-.642l.166-.665a.53.53 0 0 1 .641-.385Zm11.56 7.074-12.511-3.12a.53.53 0 0 0-.641.386l-.166.665a.53.53 0 0 0 .385.642l12.511 3.119a.53.53 0 0 0 .642-.386l.166-.665a.53.53 0 0 0-.386-.641Zm-13.494.585 5.742 1.431a.53.53 0 0 1 .386.642l-.166.665a.53.53 0 0 1-.642.386l-5.742-1.432a.53.53 0 0 1-.385-.641l.166-.666a.529.529 0 0 1 .641-.385Z" clip-rule="evenodd"/>
  </g>
  <path fill="#fff" d="M136.342 24.855h.879c.861 0 1.497-.144 1.907-.431.41-.287.615-.738.615-1.354 0-.61-.211-1.043-.633-1.3-.416-.258-1.063-.387-1.942-.387h-.826v3.472Zm0 2.214V32h-2.725V19.15h3.744c1.746 0 3.038.32 3.876.958.838.633 1.257 1.597 1.257 2.892a3.43 3.43 0 0 1-.624 2.021c-.416.586-1.005 1.046-1.766 1.38A511.524 511.524 0 0 0 143.883 32h-3.024l-3.067-4.93h-1.45Zm13.016-3.172c-.568 0-1.013.181-1.336.544-.322.358-.506.868-.553 1.53h3.761c-.011-.662-.184-1.172-.518-1.53-.334-.363-.785-.544-1.354-.544Zm.378 8.279c-1.582 0-2.818-.437-3.709-1.31-.89-.873-1.336-2.11-1.336-3.709 0-1.646.411-2.918 1.231-3.814.826-.903 1.966-1.354 3.419-1.354 1.388 0 2.47.396 3.243 1.187.773.79 1.16 1.884 1.16 3.278v1.3h-6.337c.03.763.255 1.357.677 1.785.422.428 1.014.642 1.775.642.592 0 1.152-.062 1.679-.185a8.4 8.4 0 0 0 1.652-.589v2.074a6.143 6.143 0 0 1-1.502.519c-.534.117-1.184.176-1.952.176ZM162.164 32l-.518-1.336h-.071c-.451.568-.917.964-1.397 1.187-.475.216-1.096.325-1.864.325-.943 0-1.687-.27-2.232-.809-.539-.539-.809-1.306-.809-2.303 0-1.043.364-1.81 1.09-2.302.733-.498 1.834-.774 3.305-.826l1.705-.053v-.43c0-.997-.51-1.495-1.529-1.495-.785 0-1.708.237-2.769.712l-.887-1.81c1.13-.592 2.384-.888 3.761-.888 1.319 0 2.329.287 3.032.861.704.574 1.055 1.447 1.055 2.62V32h-1.872Zm-.791-4.553-1.037.035c-.779.024-1.359.165-1.74.422-.381.258-.572.65-.572 1.178 0 .756.434 1.134 1.301 1.134.621 0 1.116-.179 1.486-.536.375-.358.562-.832.562-1.424v-.809Zm8.543 4.729c-1.154 0-2.062-.449-2.725-1.345-.656-.896-.984-2.139-.984-3.726 0-1.612.334-2.866 1.002-3.762.674-.903 1.6-1.354 2.777-1.354 1.237 0 2.18.48 2.83 1.442h.088a11.03 11.03 0 0 1-.202-1.96v-3.147h2.69V32h-2.057l-.519-1.274h-.114c-.609.966-1.538 1.45-2.786 1.45Zm.94-2.136c.686 0 1.187-.2 1.503-.598.323-.398.498-1.075.528-2.03v-.29c0-1.055-.164-1.81-.492-2.267-.323-.457-.85-.686-1.583-.686-.597 0-1.063.255-1.397.765-.328.503-.492 1.239-.492 2.206 0 .966.167 1.693.501 2.18.334.48.811.72 1.432.72Zm6.961.703c0-.492.132-.864.396-1.116.264-.252.647-.378 1.151-.378.487 0 .862.129 1.125.387.27.258.405.627.405 1.107 0 .463-.135.83-.405 1.099-.269.264-.644.395-1.125.395-.492 0-.873-.129-1.142-.386-.27-.264-.405-.633-.405-1.108Zm9.501 1.433c-3.058 0-4.588-1.679-4.588-5.036 0-1.67.416-2.945 1.249-3.824.832-.884 2.024-1.327 3.577-1.327 1.136 0 2.156.223 3.058.668l-.791 2.074a12.53 12.53 0 0 0-1.177-.413 3.706 3.706 0 0 0-1.09-.167c-1.395 0-2.092.99-2.092 2.971 0 1.922.697 2.883 2.092 2.883.515 0 .993-.067 1.432-.202.44-.14.879-.358 1.319-.65v2.293a4.313 4.313 0 0 1-1.319.572c-.439.105-.996.158-1.67.158ZM194.93 32l-3.744-9.826h2.803l1.899 5.599a10 10 0 0 1 .395 2.012h.053c.029-.562.161-1.233.395-2.012l1.89-5.6h2.804L197.681 32h-2.751Z"/>
  <rect width="301" height="49" x=".5" y=".5" stroke="#fff" rx="8.5"/>
  <defs>
    <clipPath id="a">
      <path fill="#fff" d="M100 13h24v24h-24z"/>
    </clipPath>
  </defs>
</svg>
