<svg xmlns="http://www.w3.org/2000/svg" width="302" height="50" fill="none" viewBox="0 0 302 50">
  <rect width="301" height="49" x=".5" y=".5" fill="#fff" rx="8.5"/>
  <g clip-path="url(#a)">
    <g clip-path="url(#b)">
      <path fill="#E41321" d="M103.073 29.335h-3.197a.321.321 0 0 1-.32-.321V20.99a.32.32 0 0 1 .32-.32h2.964c2.224 0 2.691 1.31 2.691 2.407 0 .636-.169 1.14-.504 1.51.816.337 1.255 1.095 1.255 2.192 0 1.6-1.2 2.556-3.209 2.556Zm-4.642 0h-6.64a.32.32 0 0 1-.319-.321V20.99a.32.32 0 0 1 .32-.32h3.101c1.938 0 3.094 1.043 3.094 2.79 0 1.162-.585 2.075-1.527 2.446l2.21 2.895a.322.322 0 0 1-.24.533m.012-16.313c-6.622 0-11.991 5.37-11.991 11.992 0 6.624 5.369 11.994 11.992 11.994 6.623 0 11.991-5.37 11.991-11.993s-5.367-11.991-11.99-11.991"/>
    </g>
    <path fill="#000" d="M122.842 24.855h.879c.861 0 1.497-.144 1.907-.431.41-.287.615-.738.615-1.354 0-.61-.211-1.043-.633-1.3-.416-.258-1.063-.387-1.942-.387h-.826v3.472Zm0 2.214V32h-2.725V19.15h3.744c1.746 0 3.038.32 3.876.958.838.633 1.257 1.597 1.257 2.892a3.43 3.43 0 0 1-.624 2.021c-.416.586-1.005 1.046-1.766 1.38A511.524 511.524 0 0 0 130.383 32h-3.024l-3.067-4.93h-1.45Zm13.016-3.172c-.568 0-1.013.181-1.336.544-.322.358-.506.868-.553 1.53h3.761c-.011-.662-.184-1.172-.518-1.53-.334-.363-.785-.544-1.354-.544Zm.378 8.279c-1.582 0-2.818-.437-3.709-1.31-.89-.873-1.336-2.11-1.336-3.709 0-1.646.411-2.918 1.231-3.814.826-.903 1.966-1.354 3.419-1.354 1.388 0 2.47.396 3.243 1.187.773.79 1.16 1.884 1.16 3.278v1.3h-6.337c.03.763.255 1.357.677 1.785.422.428 1.014.642 1.775.642.592 0 1.152-.062 1.679-.185a8.4 8.4 0 0 0 1.652-.589v2.074a6.143 6.143 0 0 1-1.502.519c-.534.117-1.184.176-1.952.176Zm9.299 0c-1.154 0-2.062-.449-2.724-1.345-.657-.896-.985-2.139-.985-3.726 0-1.612.334-2.866 1.002-3.762.674-.903 1.6-1.354 2.777-1.354 1.237 0 2.18.48 2.831 1.442h.087a11.03 11.03 0 0 1-.202-1.96v-3.147h2.69V32h-2.057l-.518-1.274h-.115c-.609.966-1.538 1.45-2.786 1.45Zm.941-2.136c.685 0 1.186-.2 1.503-.598.322-.398.498-1.075.527-2.03v-.29c0-1.055-.164-1.81-.492-2.267-.323-.457-.85-.686-1.582-.686-.598 0-1.064.255-1.398.765-.328.503-.492 1.239-.492 2.206 0 .966.167 1.693.501 2.18.334.48.811.72 1.433.72Zm12.805-8.05c1.16 0 2.069.453 2.725 1.362.656.902.984 2.141.984 3.717 0 1.623-.34 2.88-1.019 3.77-.674.892-1.594 1.337-2.76 1.337-1.154 0-2.06-.42-2.716-1.257h-.184L155.862 32h-2.048V18.324h2.681v3.182c0 .404-.035 1.052-.105 1.942h.105c.627-.972 1.556-1.459 2.786-1.459Zm-.861 2.144c-.662 0-1.146.205-1.45.615-.305.404-.463 1.075-.475 2.013v.29c0 1.054.155 1.81.466 2.267.316.457.814.686 1.494.686.551 0 .987-.252 1.31-.756.328-.51.492-1.248.492-2.215 0-.967-.164-1.69-.492-2.17-.328-.487-.777-.73-1.345-.73ZM172.166 32l-.36-1.257h-.141a2.853 2.853 0 0 1-1.222 1.064c-.527.246-1.128.369-1.801.369-1.155 0-2.025-.308-2.611-.923-.586-.621-.879-1.512-.879-2.672v-6.407h2.681v5.74c0 .708.126 1.241.378 1.599.252.351.653.527 1.204.527.75 0 1.292-.249 1.626-.747.334-.504.501-1.336.501-2.496v-4.623h2.681V32h-2.057Zm10.336-10.01c1.16 0 2.068.453 2.725 1.362.656.902.984 2.141.984 3.717 0 1.623-.34 2.88-1.02 3.77-.673.892-1.593 1.337-2.759 1.337-1.155 0-2.06-.42-2.716-1.257h-.185L179.083 32h-2.048V18.324h2.681v3.182c0 .404-.035 1.052-.106 1.942h.106c.627-.972 1.555-1.459 2.786-1.459Zm-.861 2.144c-.662 0-1.146.205-1.451.615-.304.404-.462 1.075-.474 2.013v.29c0 1.054.155 1.81.466 2.267.316.457.814.686 1.494.686.551 0 .987-.252 1.309-.756.328-.51.493-1.248.493-2.215 0-.967-.165-1.69-.493-2.17-.328-.487-.776-.73-1.344-.73Zm12.252-2.145c1.16 0 2.068.454 2.724 1.363.656.902.985 2.141.985 3.717 0 1.623-.34 2.88-1.02 3.77-.674.892-1.594 1.337-2.76 1.337-1.154 0-2.059-.42-2.716-1.257h-.184L190.474 32h-2.048V18.324h2.68v3.182c0 .404-.035 1.052-.105 1.942h.105c.627-.972 1.556-1.459 2.787-1.459Zm-.862 2.145c-.662 0-1.145.205-1.45.615-.305.404-.463 1.075-.475 2.013v.29c0 1.054.156 1.81.466 2.267.317.457.815.686 1.494.686.551 0 .988-.252 1.31-.756.328-.51.492-1.248.492-2.215 0-.967-.164-1.69-.492-2.17-.328-.487-.776-.73-1.345-.73ZM202.497 32h-2.681V18.324h2.681V32Zm6.891-8.104c-.569 0-1.014.182-1.336.545-.323.358-.507.868-.554 1.53h3.762c-.012-.662-.185-1.172-.519-1.53-.334-.363-.785-.544-1.353-.544Zm.378 8.28c-1.582 0-2.819-.437-3.709-1.31-.891-.873-1.336-2.11-1.336-3.709 0-1.646.41-2.918 1.23-3.814.826-.903 1.966-1.354 3.419-1.354 1.389 0 2.47.396 3.243 1.187.774.79 1.16 1.884 1.16 3.278v1.3h-6.336c.029.763.254 1.357.676 1.785.422.428 1.014.642 1.776.642a7.37 7.37 0 0 0 1.678-.185 8.384 8.384 0 0 0 1.653-.589v2.074c-.469.235-.97.408-1.503.519-.533.117-1.184.176-1.951.176Z"/>
  </g>
  <rect width="301" height="49" x=".5" y=".5" stroke="#212121" rx="8.5"/>
  <defs>
    <clipPath id="a">
      <path fill="#fff" d="M86.5 12h129v26h-129z"/>
    </clipPath>
    <clipPath id="b">
      <path fill="#fff" d="M86.5 13h24v24h-24z"/>
    </clipPath>
  </defs>
</svg>
