<svg xmlns="http://www.w3.org/2000/svg" width="302" height="50" fill="none" viewBox="0 0 302 50">
  <rect width="301" height="49" x=".5" y=".5" fill="#D7DFE2" rx="8.5"/>
  <g clip-path="url(#a)">
    <g clip-path="url(#b)">
      <path fill="#FF4500" d="M117.116 36.424c6.362 0 11.52-5.158 11.52-11.52 0-6.363-5.158-11.52-11.52-11.52-6.362 0-11.52 5.157-11.52 11.52 0 6.362 5.158 11.52 11.52 11.52Z"/>
      <path fill="#fff" d="M124.796 24.904c0-.93-.755-1.684-1.684-1.684-.458 0-.863.175-1.159.471-1.145-.822-2.735-1.36-4.487-1.428l.768-3.597 2.493.525a1.2 1.2 0 0 0 2.398-.054c0-.66-.539-1.199-1.199-1.199-.471 0-.876.27-1.064.674l-2.789-.593a.335.335 0 0 0-.229.04.325.325 0 0 0-.135.189l-.849 4.015c-1.792.054-3.395.58-4.554 1.428a1.701 1.701 0 0 0-1.159-.471 1.684 1.684 0 0 0-.687 3.22c-.027.162-.04.337-.04.512 0 2.587 3.004 4.675 6.723 4.675s6.723-2.088 6.723-4.675c0-.175-.013-.337-.04-.499.552-.27.97-.862.97-1.55Zm-11.52 1.199c0-.66.539-1.2 1.199-1.2s1.199.54 1.199 1.2c0 .66-.539 1.2-1.199 1.2s-1.199-.54-1.199-1.2Zm6.696 3.166c-.821.822-2.384.876-2.843.876-.458 0-2.034-.067-2.843-.876a.318.318 0 0 1 0-.444.318.318 0 0 1 .445 0c.512.512 1.617.7 2.412.7.795 0 1.886-.188 2.412-.7a.317.317 0 0 1 .444 0 .345.345 0 0 1-.027.444Zm-.215-1.967c-.66 0-1.199-.539-1.199-1.199s.539-1.2 1.199-1.2 1.199.54 1.199 1.2c0 .66-.539 1.2-1.199 1.2Z"/>
    </g>
    <path fill="#000" d="M141.842 24.855h.879c.861 0 1.497-.144 1.907-.431.41-.287.615-.738.615-1.354 0-.61-.211-1.043-.633-1.3-.416-.258-1.063-.387-1.942-.387h-.826v3.472Zm0 2.214V32h-2.725V19.15h3.744c1.746 0 3.038.32 3.876.958.838.633 1.257 1.597 1.257 2.892a3.43 3.43 0 0 1-.624 2.021c-.416.586-1.005 1.046-1.766 1.38A511.524 511.524 0 0 0 149.383 32h-3.024l-3.067-4.93h-1.45Zm13.016-3.172c-.568 0-1.013.181-1.336.544-.322.358-.506.868-.553 1.53h3.761c-.011-.662-.184-1.172-.518-1.53-.334-.363-.785-.544-1.354-.544Zm.378 8.279c-1.582 0-2.818-.437-3.709-1.31-.89-.873-1.336-2.11-1.336-3.709 0-1.646.411-2.918 1.231-3.814.826-.903 1.966-1.354 3.419-1.354 1.388 0 2.47.396 3.243 1.187.773.79 1.16 1.884 1.16 3.278v1.3h-6.337c.03.763.255 1.357.677 1.785.422.428 1.014.642 1.775.642.592 0 1.152-.062 1.679-.185a8.4 8.4 0 0 0 1.652-.589v2.074a6.143 6.143 0 0 1-1.502.519c-.534.117-1.184.176-1.952.176Zm9.299 0c-1.154 0-2.062-.449-2.724-1.345-.657-.896-.985-2.139-.985-3.726 0-1.612.334-2.866 1.002-3.762.674-.903 1.6-1.354 2.777-1.354 1.237 0 2.18.48 2.831 1.442h.087a11.03 11.03 0 0 1-.202-1.96v-3.147h2.69V32h-2.057l-.518-1.274h-.115c-.609.966-1.538 1.45-2.786 1.45Zm.941-2.136c.685 0 1.186-.2 1.503-.598.322-.398.498-1.075.527-2.03v-.29c0-1.055-.164-1.81-.492-2.267-.323-.457-.85-.686-1.582-.686-.598 0-1.064.255-1.398.765-.328.503-.492 1.239-.492 2.206 0 .966.167 1.693.501 2.18.334.48.811.72 1.433.72Zm10.45 2.136c-1.155 0-2.063-.449-2.725-1.345-.656-.896-.984-2.139-.984-3.726 0-1.612.334-2.866 1.002-3.762.674-.903 1.599-1.354 2.777-1.354 1.236 0 2.18.48 2.83 1.442h.088a10.937 10.937 0 0 1-.202-1.96v-3.147h2.689V32h-2.056l-.519-1.274h-.114c-.609.966-1.538 1.45-2.786 1.45Zm.94-2.136c.686 0 1.187-.2 1.503-.598.322-.398.498-1.075.527-2.03v-.29c0-1.055-.164-1.81-.492-2.267-.322-.457-.849-.686-1.582-.686-.597 0-1.063.255-1.397.765-.328.503-.492 1.239-.492 2.206 0 .966.167 1.693.501 2.18.334.48.811.72 1.432.72Zm7.225-10.406c0-.873.486-1.31 1.459-1.31.972 0 1.459.437 1.459 1.31 0 .416-.123.741-.369.975-.241.229-.604.343-1.09.343-.973 0-1.459-.44-1.459-1.318ZM186.886 32h-2.681v-9.826h2.681V32Zm6.961-1.96c.468 0 1.031-.102 1.687-.308v1.995c-.668.3-1.488.449-2.461.449-1.072 0-1.854-.27-2.346-.809-.487-.545-.73-1.36-.73-2.443v-4.738h-1.283v-1.133l1.476-.897.774-2.074h1.714v2.092h2.751v2.012h-2.751v4.738c0 .38.105.662.316.844.217.181.501.272.853.272Z"/>
  </g>
  <rect width="301" height="49" x=".5" y=".5" stroke="#212121" rx="8.5"/>
  <defs>
    <clipPath id="a">
      <path fill="#fff" d="M105.5 12h91v26h-91z"/>
    </clipPath>
    <clipPath id="b">
      <path fill="#fff" d="M105.5 13h24v24h-24z"/>
    </clipPath>
  </defs>
</svg>
