<svg xmlns="http://www.w3.org/2000/svg" width="300" height="48" fill="none" viewBox="0 0 300 48">
  <rect width="300" height="48" fill="#5A31F4" rx="8"/>
  <g clip-path="url(#a)">
    <g clip-path="url(#b)">
      <path fill="#fff" d="M112.766 14.931c1.916-1.308 4.31-2.931 9.11-2.931 8.117 0 12.496 6.4 12.508 12.45 0 6.516-4.707 11.34-11.224 11.55h-.63c-5.478-.163-9.705-4.017-9.857-9.075-.129-3.982 2.125-6.154 4.041-7.287a.497.497 0 0 1 .187-.058.433.433 0 0 1 .49.245l1.705 3.212c0 .011.012.011.012.023a.43.43 0 0 1-.152.584c-1.226.887-1.763 1.903-1.763 3.27 0 2.593 2.265 4.344 5.64 4.356 4.1-.058 6.646-2.768 6.646-7.066 0-2.335-.9-4.554-2.394-5.933-1.344-1.25-3.189-1.821-5.326-1.646-3.829.303-5.325 1.552-6.317 2.381l-.001.001-.152.117a.559.559 0 0 1-.187.094.43.43 0 0 1-.549-.222l-1.985-3.399a.467.467 0 0 1 .14-.63l.058-.036Z"/>
    </g>
    <path fill="#fff" d="M152.702 27.432c0 1.16-.419 2.074-1.257 2.742-.832.668-1.992 1.002-3.48 1.002-1.371 0-2.584-.258-3.639-.774v-2.53c.867.386 1.6.658 2.197.817a6.573 6.573 0 0 0 1.653.237c.597 0 1.054-.114 1.371-.343.322-.228.483-.568.483-1.02 0-.252-.07-.474-.211-.668a2.258 2.258 0 0 0-.624-.57c-.269-.182-.823-.473-1.661-.87-.785-.37-1.374-.724-1.766-1.064a3.996 3.996 0 0 1-.941-1.187c-.234-.451-.351-.978-.351-1.582 0-1.137.383-2.03 1.151-2.68.773-.651 1.84-.976 3.199-.976.668 0 1.304.079 1.907.237.61.158 1.246.381 1.908.668l-.879 2.118c-.686-.281-1.254-.477-1.705-.589a5.43 5.43 0 0 0-1.319-.167c-.515 0-.911.12-1.186.36-.276.241-.413.555-.413.941 0 .24.055.451.167.633.111.176.287.349.527.518.246.165.823.463 1.731.897 1.202.574 2.025 1.151 2.47 1.732.445.574.668 1.28.668 2.118ZM163.891 31h-2.681v-5.74c0-1.417-.527-2.126-1.582-2.126-.75 0-1.292.255-1.626.764-.334.51-.501 1.336-.501 2.479V31h-2.681V17.324h2.681v2.786c0 .217-.021.727-.062 1.53l-.061.79h.141c.597-.96 1.546-1.44 2.847-1.44 1.155 0 2.03.31 2.628.93.598.622.897 1.513.897 2.673V31Zm4.895-4.93c0 .972.158 1.707.475 2.205.322.498.843.748 1.564.748.715 0 1.228-.247 1.538-.739.317-.498.475-1.236.475-2.215 0-.972-.158-1.702-.475-2.188-.316-.486-.835-.73-1.555-.73-.715 0-1.231.244-1.547.73-.317.48-.475 1.21-.475 2.188Zm6.794 0c0 1.599-.422 2.85-1.266 3.752-.843.903-2.018 1.354-3.524 1.354-.943 0-1.775-.205-2.496-.615a4.15 4.15 0 0 1-1.661-1.785c-.387-.773-.58-1.675-.58-2.707 0-1.605.419-2.853 1.257-3.744.837-.89 2.015-1.336 3.533-1.336.943 0 1.775.205 2.496.616.721.41 1.274.998 1.661 1.766s.58 1.667.58 2.698Zm7.611 5.106c-1.154 0-2.059-.42-2.715-1.257h-.141c.094.82.141 1.295.141 1.424v3.981h-2.681v-14.15h2.18l.378 1.274h.123c.627-.972 1.555-1.459 2.786-1.459 1.16 0 2.068.448 2.724 1.345.657.896.985 2.142.985 3.735 0 1.05-.156 1.96-.466 2.734-.305.773-.741 1.362-1.31 1.766-.568.405-1.236.607-2.004.607Zm-.791-8.042c-.662 0-1.145.205-1.45.615-.304.404-.463 1.075-.474 2.013v.29c0 1.054.155 1.81.465 2.267.317.457.815.686 1.495.686 1.201 0 1.801-.99 1.801-2.97 0-.968-.149-1.691-.448-2.172-.293-.486-.756-.73-1.389-.73Z"/>
  </g>
  <defs>
    <clipPath id="a">
      <path fill="#fff" d="M111.5 11h77v26h-77z"/>
    </clipPath>
    <clipPath id="b">
      <path fill="#fff" d="M111.5 12h24v24h-24z"/>
    </clipPath>
  </defs>
</svg>
