<svg xmlns="http://www.w3.org/2000/svg" width="300" height="48" fill="none" viewBox="0 0 300 48">
  <rect width="300" height="48" fill="#3A76F0" rx="8"/>
  <g clip-path="url(#a)">
    <path fill="#fff" d="m116.119 12.348.268 1.092a10.887 10.887 0 0 0-3.014 1.25l-.576-.967a11.848 11.848 0 0 1 3.322-1.375Zm5.759 0-.268 1.092c1.062.263 2.078.684 3.015 1.25l.581-.967a11.948 11.948 0 0 0-3.325-1.375h-.003Zm-13.152 5.446a11.891 11.891 0 0 0-1.375 3.323l1.092.27a10.886 10.886 0 0 1 1.249-3.014l-.966-.579ZM108.122 24c.001-.545.043-1.09.125-1.628l-1.111-.175a11.988 11.988 0 0 0 0 3.598l1.111-.168a10.98 10.98 0 0 1-.125-1.63V24Zm17.076 10.27-.576-.96a10.84 10.84 0 0 1-3.009 1.248l.27 1.092a11.947 11.947 0 0 0 3.318-1.377l-.003-.002ZM129.875 24c0 .545-.041 1.089-.122 1.627l1.111.17a11.988 11.988 0 0 0 0-3.597l-1.111.17c.082.54.124 1.084.125 1.63h-.003Zm.777 2.88-1.092-.271a10.866 10.866 0 0 1-1.25 3.017l.967.578a11.897 11.897 0 0 0 1.372-3.325h.003Zm-10.026 7.869c-1.08.163-2.179.163-3.26 0l-.168 1.111c1.192.181 2.404.181 3.596 0l-.168-1.111Zm7.126-4.302a10.838 10.838 0 0 1-2.303 2.304l.666.904a12.118 12.118 0 0 0 2.544-2.532l-.907-.676Zm-2.303-15.206a10.87 10.87 0 0 1 2.303 2.304l.907-.674a12.099 12.099 0 0 0-2.537-2.536l-.673.907Zm-15.209 2.304a10.876 10.876 0 0 1 2.304-2.303l-.674-.907a12.094 12.094 0 0 0-2.536 2.536l.906.674Zm19.029.248-.964.578c.567.935.988 1.951 1.25 3.012l1.092-.27a11.907 11.907 0 0 0-1.378-3.32Zm-11.898-4.545a10.882 10.882 0 0 1 3.26 0l.168-1.111a11.975 11.975 0 0 0-3.595 0l.167 1.111Zm-6.55 20.71-2.323.538.543-2.321-1.094-.255-.543 2.32a1.126 1.126 0 0 0 1.349 1.353l2.324-.534-.256-1.101Zm-2.644-3.04 1.099.25.376-1.607a10.79 10.79 0 0 1-1.212-2.955l-1.092.273c.247.995.62 1.954 1.11 2.855l-.281 1.184Zm5.251 2.434-1.608.375.256 1.097 1.181-.276c.901.489 1.86.86 2.855 1.102l.268-1.089a10.8 10.8 0 0 1-2.94-1.217l-.012.008Zm5.571-19.105a9.754 9.754 0 0 0-9.748 9.755 9.77 9.77 0 0 0 1.498 5.183l-.937 4.001 3.999-.936a9.752 9.752 0 0 0 10.393-16.5 9.774 9.774 0 0 0-5.205-1.503Z"/>
  </g>
  <path fill="#fff" d="M148.202 27.432c0 1.16-.419 2.074-1.257 2.742-.832.668-1.992 1.002-3.48 1.002-1.371 0-2.584-.258-3.639-.774v-2.53c.867.386 1.6.658 2.197.817a6.573 6.573 0 0 0 1.653.237c.597 0 1.054-.114 1.371-.343.322-.228.483-.568.483-1.02 0-.252-.07-.474-.211-.668a2.258 2.258 0 0 0-.624-.57c-.269-.182-.823-.473-1.661-.87-.785-.37-1.374-.724-1.766-1.064a3.996 3.996 0 0 1-.941-1.187c-.234-.451-.351-.978-.351-1.582 0-1.137.383-2.03 1.151-2.68.773-.651 1.84-.976 3.199-.976.668 0 1.304.079 1.907.237.61.158 1.246.381 1.908.668l-.879 2.118c-.686-.281-1.254-.477-1.705-.589a5.43 5.43 0 0 0-1.319-.167c-.515 0-.911.12-1.186.36-.276.241-.413.555-.413.941 0 .24.055.451.167.633.111.176.287.349.527.518.246.165.823.463 1.731.897 1.202.574 2.025 1.151 2.47 1.732.445.574.668 1.28.668 2.118Zm2.004-8.798c0-.873.486-1.31 1.459-1.31.973 0 1.459.437 1.459 1.31 0 .416-.123.741-.369.975-.24.229-.604.343-1.09.343-.973 0-1.459-.44-1.459-1.318ZM153.001 31h-2.681v-9.826h2.681V31Zm11.373-9.826v1.362l-1.538.396c.281.44.422.931.422 1.476 0 1.055-.369 1.878-1.108 2.47-.732.586-1.752.879-3.058.879l-.484-.027-.395-.044c-.275.212-.413.446-.413.704 0 .386.492.58 1.476.58h1.67c1.078 0 1.899.231 2.461.694.569.463.853 1.143.853 2.04 0 1.148-.481 2.038-1.442 2.671-.955.633-2.329.95-4.122.95-1.371 0-2.42-.241-3.146-.722-.721-.474-1.081-1.142-1.081-2.003 0-.592.184-1.087.553-1.486.37-.398.912-.682 1.626-.852a1.807 1.807 0 0 1-.72-.572 1.387 1.387 0 0 1-.308-.852c0-.375.109-.686.325-.932.217-.252.531-.498.941-.738a2.663 2.663 0 0 1-1.231-1.072c-.299-.492-.448-1.073-.448-1.74 0-1.073.349-1.902 1.046-2.488.697-.586 1.693-.879 2.988-.879.276 0 .601.027.976.08.381.046.624.081.729.105h3.428Zm-7.585 11.215c0 .369.176.659.527.87.358.21.856.316 1.495.316.96 0 1.713-.132 2.258-.395.545-.264.818-.624.818-1.081 0-.37-.161-.624-.484-.765-.322-.14-.82-.211-1.494-.211h-1.388c-.493 0-.906.114-1.24.343-.328.234-.492.542-.492.923Zm.976-7.998c0 .533.12.955.36 1.265.246.31.618.466 1.116.466.504 0 .873-.155 1.108-.466.234-.31.351-.732.351-1.265 0-1.184-.486-1.776-1.459-1.776-.984 0-1.476.592-1.476 1.776ZM175.07 31h-2.68v-5.74c0-.708-.126-1.239-.378-1.59-.252-.358-.654-.536-1.204-.536-.75 0-1.292.252-1.626.756-.334.498-.501 1.327-.501 2.487V31H166v-9.826h2.048l.36 1.257h.15a2.806 2.806 0 0 1 1.23-1.073c.527-.246 1.125-.369 1.793-.369 1.143 0 2.01.31 2.602.932.591.615.887 1.506.887 2.672V31Zm9 0-.518-1.336h-.071c-.451.568-.917.964-1.397 1.187-.475.216-1.096.325-1.863.325-.944 0-1.688-.27-2.233-.809-.539-.539-.808-1.306-.808-2.303 0-1.043.363-1.81 1.09-2.302.732-.498 1.834-.774 3.304-.826l1.705-.053v-.43c0-.997-.509-1.495-1.529-1.495-.785 0-1.708.237-2.769.712l-.887-1.81c1.131-.592 2.385-.888 3.761-.888 1.319 0 2.33.287 3.033.861.703.574 1.054 1.447 1.054 2.62V31h-1.872Zm-.791-4.553-1.037.035c-.779.024-1.359.165-1.74.422-.381.258-.571.65-.571 1.178 0 .756.433 1.134 1.3 1.134.622 0 1.117-.179 1.486-.536.375-.358.562-.832.562-1.424v-.809ZM191.392 31h-2.681V17.324h2.681V31Z"/>
  <defs>
    <clipPath id="a">
      <path fill="#fff" d="M107 12h24v24h-24z"/>
    </clipPath>
  </defs>
</svg>
