<svg xmlns="http://www.w3.org/2000/svg" width="300" height="48" fill="none" viewBox="0 0 300 48">
  <rect width="300" height="48" fill="#3189C8" rx="8"/>
  <g clip-path="url(#a)">
    <path fill="#FEFEFE" d="M127.258 28.357c0 .64-.464 1.39-1.037 1.677l-7.721 3.861-7.722-3.861c-.572-.287-1.036-1.037-1.036-1.677v-1.76l7.722 3.86c.572.287 1.036 1.037 1.036 1.677 0-.64.464-1.39 1.036-1.677l7.722-3.86v1.76Zm-16.744-7.599a3.612 3.612 0 0 1 3.607-3.607 3.612 3.612 0 0 1 3.607 3.605v.005a3.612 3.612 0 0 1-3.607 3.604 3.612 3.612 0 0 1-3.607-3.607Zm7.986 1.459c.538 0 .973.437.973.974 0 .537-.973 1.947-.973 1.947s-.973-1.41-.973-1.947c0-.537.435-.974.973-.974Zm.772-1.461a3.612 3.612 0 0 1 3.607-3.605 3.611 3.611 0 0 1 3.607 3.607 3.611 3.611 0 0 1-3.607 3.607 3.612 3.612 0 0 1-3.607-3.604v-.005Zm6.526 5.419v-1.177a5.135 5.135 0 0 0 .458-8.121c.556-.3 1.002-1.03 1.002-1.657V12l-7.722 3.861c-.572.286-1.036 1.037-1.036 1.677 0-.64-.464-1.391-1.036-1.677L109.742 12v3.22c0 .627.446 1.358 1.003 1.657a5.132 5.132 0 0 0-1.776 3.881c0 1.757.886 3.31 2.233 4.24v1.177l-.999-.5-1.491-.744v3.426c0 1.023.69 2.139 1.605 2.598l.928.464c.148.968.832 3.206 4.011 3.206 1.69 0 2.669.635 3.244 1.375.575-.74 1.554-1.375 3.244-1.375 3.179 0 3.863-2.238 4.012-3.206l.926-.464c.916-.459 1.606-1.575 1.606-2.598v-3.426l-2.49 1.244Z"/>
    <path fill="#FEFEFE" d="M113.621 23.536a1.46 1.46 0 1 0 0-2.92 1.46 1.46 0 0 0 0 2.92Zm8.758 0a1.46 1.46 0 1 0 0-2.92 1.46 1.46 0 0 0 0 2.92Z"/>
    <path fill="#fff" d="M147.702 27.432c0 1.16-.419 2.074-1.257 2.742-.832.668-1.992 1.002-3.48 1.002-1.371 0-2.584-.258-3.639-.774v-2.53c.867.386 1.6.658 2.197.817a6.573 6.573 0 0 0 1.653.237c.597 0 1.054-.114 1.371-.343.322-.228.483-.568.483-1.02 0-.252-.07-.474-.211-.668a2.258 2.258 0 0 0-.624-.57c-.269-.182-.823-.473-1.661-.87-.785-.37-1.374-.724-1.766-1.064a3.996 3.996 0 0 1-.941-1.187c-.234-.451-.351-.978-.351-1.582 0-1.137.383-2.03 1.151-2.68.773-.651 1.84-.976 3.199-.976.668 0 1.304.079 1.907.237.61.158 1.246.381 1.908.668l-.879 2.118c-.686-.281-1.254-.477-1.705-.589a5.43 5.43 0 0 0-1.319-.167c-.515 0-.911.12-1.186.36-.276.241-.413.555-.413.941 0 .24.055.451.167.633.111.176.287.349.527.518.246.165.823.463 1.731.897 1.202.574 2.025 1.151 2.47 1.732.445.574.668 1.28.668 2.118Zm4.694-1.776 1.168-1.494 2.751-2.988h3.024l-3.902 4.262L159.576 31h-3.094l-2.83-3.981-1.151.922V31h-2.681V17.324h2.681v6.1l-.141 2.232h.036Zm10.722.413c0 .973.158 1.708.475 2.206.322.498.844.748 1.564.748.715 0 1.228-.247 1.538-.739.317-.498.475-1.236.475-2.215 0-.972-.158-1.702-.475-2.188-.316-.486-.835-.73-1.555-.73-.715 0-1.231.244-1.547.73-.317.48-.475 1.21-.475 2.188Zm6.794 0c0 1.6-.422 2.85-1.266 3.753-.843.903-2.018 1.354-3.524 1.354-.943 0-1.775-.205-2.496-.615a4.15 4.15 0 0 1-1.661-1.785c-.387-.773-.58-1.675-.58-2.707 0-1.605.419-2.853 1.257-3.744.837-.89 2.015-1.336 3.533-1.336.943 0 1.775.205 2.496.616.721.41 1.274.998 1.661 1.766s.58 1.667.58 2.698Zm4.351 0c0 .973.158 1.708.474 2.206.323.498.844.748 1.565.748.715 0 1.227-.247 1.538-.739.316-.498.474-1.236.474-2.215 0-.972-.158-1.702-.474-2.188-.317-.486-.835-.73-1.556-.73-.715 0-1.23.244-1.547.73-.316.48-.474 1.21-.474 2.188Zm6.794 0c0 1.6-.422 2.85-1.266 3.753-.844.903-2.019 1.354-3.524 1.354-.944 0-1.776-.205-2.496-.615a4.152 4.152 0 0 1-1.662-1.785c-.386-.773-.58-1.675-.58-2.707 0-1.605.419-2.853 1.257-3.744.838-.89 2.016-1.336 3.533-1.336.944 0 1.776.205 2.496.616.721.41 1.275.998 1.662 1.766.386.768.58 1.667.58 2.698Zm7.681-5.08c1.16 0 2.069.454 2.725 1.363.656.902.984 2.141.984 3.717 0 1.623-.34 2.88-1.019 3.77-.674.892-1.594 1.337-2.76 1.337-1.154 0-2.06-.42-2.716-1.257h-.184L185.319 31h-2.048V17.324h2.681v3.182c0 .404-.035 1.052-.105 1.942h.105c.627-.972 1.556-1.459 2.786-1.459Zm-.861 2.145c-.662 0-1.146.205-1.45.615-.305.404-.463 1.075-.475 2.013v.29c0 1.054.155 1.81.466 2.267.316.457.814.686 1.494.686.551 0 .987-.252 1.31-.756.328-.51.492-1.248.492-2.215 0-.967-.164-1.69-.492-2.17-.328-.487-.777-.73-1.345-.73Z"/>
  </g>
  <defs>
    <clipPath id="a">
      <path fill="#fff" d="M106.5 11h87v26h-87z"/>
    </clipPath>
  </defs>
</svg>
