<svg xmlns="http://www.w3.org/2000/svg" width="300" height="48" fill="none" viewBox="0 0 300 48">
  <rect width="300" height="48" fill="#FFFC00" rx="8"/>
  <g clip-path="url(#a)">
    <path fill="#fff" d="M114.24 29.694c-3.69-1.808-4.278-4.599-4.304-4.806-.031-.25-.067-.448.206-.703.264-.246 1.433-.979 1.757-1.208.537-.38.773-.759.599-1.224-.122-.323-.418-.444-.731-.444-.098 0-.196.012-.293.033-.589.13-1.161.429-1.492.51a.515.515 0 0 1-.122.016c-.176 0-.243-.08-.226-.294.041-.652.129-1.925.027-3.113-.139-1.635-.66-2.445-1.278-3.162-.299-.347-1.687-1.84-4.365-1.84s-4.064 1.493-4.361 1.836c-.62.716-1.14 1.527-1.278 3.162-.102 1.188-.01 2.46.027 3.112.012.205-.05.295-.227.295a.522.522 0 0 1-.121-.017c-.33-.08-.903-.38-1.492-.509a1.348 1.348 0 0 0-.293-.033c-.313 0-.609.123-.73.443-.175.466.06.845.599 1.225.324.229 1.493.96 1.757 1.208.273.255.237.452.206.703-.027.21-.615 3-4.304 4.805-.216.106-.584.33.065.693 1.017.569 1.695.508 2.221.851.447.291.183.92.508 1.147.4.279 1.58-.02 3.104.49 1.279.426 2.055 1.63 4.322 1.63s3.066-1.21 4.322-1.63c1.521-.51 2.704-.211 3.104-.49.325-.227.061-.856.508-1.147.526-.343 1.203-.282 2.221-.851.647-.358.28-.583.064-.689Z"/>
    <path fill="#000" d="M115.418 29.322c-.16-.442-.464-.678-.811-.874a2.007 2.007 0 0 0-.176-.093c-.104-.055-.21-.107-.315-.163-1.081-.581-1.924-1.315-2.51-2.185a4.962 4.962 0 0 1-.43-.776c-.05-.145-.048-.227-.012-.302a.477.477 0 0 1 .138-.146c.186-.125.377-.252.507-.337.232-.152.415-.273.533-.358.444-.315.754-.65.948-1.024a2.065 2.065 0 0 0 .099-1.693c-.294-.785-1.024-1.273-1.909-1.273a2.584 2.584 0 0 0-.701.095 16.651 16.651 0 0 0-.05-1.662c-.167-1.961-.843-2.99-1.548-3.81a6.198 6.198 0 0 0-1.575-1.286c-1.07-.62-2.283-.935-3.606-.935s-2.531.315-3.602.935a6.17 6.17 0 0 0-1.577 1.29c-.705.82-1.382 1.849-1.548 3.808a17.117 17.117 0 0 0-.052 1.662 2.6 2.6 0 0 0-.7-.094c-.885 0-1.617.487-1.91 1.272a2.068 2.068 0 0 0 .098 1.695c.194.374.504.71.948 1.024.118.084.302.204.533.358.125.082.308.203.487.323a.527.527 0 0 1 .157.16c.037.078.038.162-.017.317-.12.266-.261.52-.424.76-.573.85-1.392 1.57-2.438 2.148-.554.298-1.13.497-1.373 1.168-.183.507-.063 1.083.403 1.57.17.18.369.333.587.45.454.254.937.45 1.438.585a.942.942 0 0 1 .29.132c.17.15.146.378.372.71.114.173.258.322.426.44.475.333 1.008.354 1.574.376.51.02 1.09.042 1.75.264.274.092.558.27.888.477.792.494 1.875 1.17 3.689 1.17 1.813 0 2.904-.68 3.702-1.175.327-.204.61-.38.876-.47.661-.222 1.24-.244 1.751-.264.565-.022 1.099-.043 1.573-.376a1.63 1.63 0 0 0 .484-.537c.163-.28.159-.477.312-.614a.885.885 0 0 1 .273-.127 6.341 6.341 0 0 0 1.457-.589c.232-.126.441-.292.617-.49l.006-.008c.437-.475.547-1.034.368-1.528Zm-1.612.88c-.983.55-1.637.491-2.145.824-.432.282-.176.89-.49 1.11-.386.27-1.525-.019-2.997.474-1.214.408-1.989 1.58-4.172 1.58-2.184 0-2.94-1.17-4.174-1.582-1.47-.494-2.611-.205-2.997-.475-.314-.22-.06-.828-.49-1.11-.51-.332-1.163-.273-2.145-.822-.626-.35-.271-.568-.063-.67 3.562-1.751 4.13-4.454 4.155-4.654.03-.243.065-.434-.199-.681-.254-.239-1.383-.948-1.696-1.17-.518-.368-.746-.735-.578-1.186.117-.312.404-.43.705-.43.095.001.19.012.282.033.57.125 1.122.415 1.44.493a.54.54 0 0 0 .118.016c.17 0 .23-.087.219-.285-.037-.632-.125-1.864-.027-3.014.135-1.584.637-2.368 1.234-3.062.287-.334 1.635-1.78 4.212-1.78 2.576 0 3.927 1.44 4.214 1.773.598.693 1.101 1.478 1.234 3.061.098 1.151.014 2.383-.026 3.015-.014.208.048.285.218.285.04 0 .079-.006.118-.016.32-.078.872-.368 1.441-.493a1.27 1.27 0 0 1 .282-.032c.303 0 .588.119.706.43.168.45-.059.817-.578 1.185-.313.222-1.442.93-1.697 1.17-.264.247-.229.438-.198.68.025.204.593 2.907 4.154 4.654.211.107.566.324-.06.678Z"/>
  </g>
  <path fill="#000" d="M133.202 27.432c0 1.16-.419 2.074-1.257 2.742-.832.668-1.992 1.002-3.48 1.002-1.371 0-2.584-.258-3.639-.774v-2.53c.867.386 1.6.658 2.197.817a6.573 6.573 0 0 0 1.653.237c.597 0 1.054-.114 1.371-.343.322-.228.483-.568.483-1.02 0-.252-.07-.474-.211-.668a2.258 2.258 0 0 0-.624-.57c-.269-.182-.823-.473-1.661-.87-.785-.37-1.374-.724-1.766-1.064a3.996 3.996 0 0 1-.941-1.187c-.234-.451-.351-.978-.351-1.582 0-1.137.383-2.03 1.151-2.68.773-.651 1.84-.976 3.199-.976.668 0 1.304.079 1.907.237.61.158 1.246.381 1.908.668l-.879 2.118c-.686-.281-1.254-.477-1.705-.589a5.43 5.43 0 0 0-1.319-.167c-.515 0-.911.12-1.186.36-.276.241-.413.555-.413.941 0 .24.055.451.167.633.111.176.287.349.527.518.246.165.823.463 1.731.897 1.202.574 2.025 1.151 2.47 1.732.445.574.668 1.28.668 2.118ZM144.391 31h-2.681v-5.74c0-.708-.126-1.239-.378-1.59-.252-.358-.653-.536-1.204-.536-.75 0-1.292.252-1.626.756-.334.498-.501 1.327-.501 2.487V31h-2.681v-9.826h2.048l.361 1.257h.149a2.812 2.812 0 0 1 1.23-1.073c.528-.246 1.125-.369 1.793-.369 1.143 0 2.01.31 2.602.932.592.615.888 1.506.888 2.672V31Zm9 0-.519-1.336h-.07c-.451.568-.917.964-1.398 1.187-.474.216-1.095.325-1.863.325-.943 0-1.687-.27-2.232-.809-.539-.539-.809-1.306-.809-2.303 0-1.043.363-1.81 1.09-2.302.732-.498 1.834-.774 3.305-.826l1.705-.053v-.43c0-.997-.51-1.495-1.53-1.495-.785 0-1.708.237-2.768.712l-.888-1.81c1.131-.592 2.385-.888 3.762-.888 1.318 0 2.329.287 3.032.861.703.574 1.055 1.447 1.055 2.62V31h-1.872Zm-.791-4.553-1.038.035c-.779.024-1.359.165-1.74.422-.381.258-.571.65-.571 1.178 0 .756.434 1.134 1.301 1.134.621 0 1.116-.179 1.485-.536.375-.358.563-.832.563-1.424v-.809Zm10.828 4.729c-1.155 0-2.06-.42-2.716-1.257h-.141c.094.82.141 1.295.141 1.424v3.981h-2.681v-14.15h2.18l.378 1.274h.123c.627-.972 1.556-1.459 2.786-1.459 1.16 0 2.068.448 2.725 1.345.656.896.984 2.142.984 3.735 0 1.05-.155 1.96-.466 2.734-.304.773-.741 1.362-1.309 1.766-.569.405-1.237.607-2.004.607Zm-.791-8.042c-.662 0-1.146.205-1.45.615-.305.404-.463 1.075-.475 2.013v.29c0 1.054.155 1.81.466 2.267.316.457.814.686 1.494.686 1.201 0 1.802-.99 1.802-2.97 0-.968-.15-1.691-.449-2.172-.293-.486-.755-.73-1.388-.73Zm10.775 8.042c-3.058 0-4.588-1.679-4.588-5.036 0-1.67.416-2.945 1.248-3.824.832-.884 2.025-1.327 3.577-1.327 1.137 0 2.157.223 3.059.668l-.791 2.074c-.422-.17-.814-.307-1.178-.413a3.696 3.696 0 0 0-1.09-.167c-1.394 0-2.091.99-2.091 2.971 0 1.922.697 2.883 2.091 2.883.516 0 .994-.067 1.433-.202a5.3 5.3 0 0 0 1.318-.65v2.293a4.308 4.308 0 0 1-1.318.572c-.439.105-.996.158-1.67.158ZM187.756 31h-2.681v-5.74c0-1.417-.527-2.126-1.582-2.126-.75 0-1.292.255-1.626.764-.334.51-.501 1.336-.501 2.479V31h-2.68V17.324h2.68v2.786c0 .217-.02.727-.061 1.53l-.062.79h.141c.597-.96 1.547-1.44 2.847-1.44 1.155 0 2.031.31 2.628.93.598.622.897 1.513.897 2.673V31Zm9 0-.519-1.336h-.07c-.451.568-.917.964-1.397 1.187-.475.216-1.096.325-1.864.325-.943 0-1.687-.27-2.232-.809-.539-.539-.809-1.306-.809-2.303 0-1.043.364-1.81 1.09-2.302.733-.498 1.834-.774 3.305-.826l1.705-.053v-.43c0-.997-.51-1.495-1.529-1.495-.786 0-1.708.237-2.769.712l-.888-1.81c1.131-.592 2.385-.888 3.762-.888 1.318 0 2.329.287 3.032.861.703.574 1.055 1.447 1.055 2.62V31h-1.872Zm-.791-4.553-1.037.035c-.78.024-1.36.165-1.74.422-.381.258-.572.65-.572 1.178 0 .756.434 1.134 1.301 1.134.621 0 1.116-.179 1.485-.536.375-.358.563-.832.563-1.424v-.809Zm9.571 2.593c.469 0 1.031-.102 1.688-.308v1.995c-.668.3-1.489.449-2.461.449-1.073 0-1.855-.27-2.347-.809-.486-.545-.729-1.36-.729-2.443v-4.738h-1.284v-1.133l1.477-.897.773-2.074h1.714v2.092h2.751v2.012h-2.751v4.738c0 .38.106.662.317.844.216.181.501.272.852.272Z"/>
  <defs>
    <clipPath id="a">
      <path fill="#fff" d="M92 12h24v24H92z"/>
    </clipPath>
  </defs>
</svg>
