<svg xmlns="http://www.w3.org/2000/svg" width="300" height="48" fill="none" viewBox="0 0 300 48">
  <rect width="300" height="48" fill="#F50" rx="8"/>
  <path fill="#fff" d="m84.177 23.611.218 2.438-.218 2.56c-.01.095-.082.166-.165.166a.163.163 0 0 1-.157-.165l-.21-2.561.21-2.438a.16.16 0 0 1 .157-.157c.083 0 .154.075.165.157Zm.803-1.71c-.105 0-.176.083-.188.188l-.187 3.96.188 2.56c.01.106.082.188.187.188.094 0 .176-.082.176-.187l.218-2.561-.218-3.96c0-.105-.082-.188-.176-.188Zm.956-.904c-.116 0-.199.083-.21.2l-.165 4.874.165 2.543c.011.116.094.198.21.198a.198.198 0 0 0 .199-.198l.199-2.543-.199-4.875a.198.198 0 0 0-.199-.199ZM80.27 24.62c-.052 0-.082.041-.094.094L80 26.049l.176 1.312c.011.053.041.094.094.094s.083-.041.094-.094l.21-1.312-.21-1.335c-.011-.053-.041-.094-.094-.094Zm.885-.821a.093.093 0 0 0-.094.093l-.24 2.157.24 2.103c0 .064.041.105.094.105.052 0 .094-.04.105-.093l.27-2.115-.27-2.157c-.011-.052-.053-.093-.105-.093Zm.949-.428c-.064 0-.117.053-.124.124l-.218 2.554.218 2.467c.011.064.064.116.124.116a.117.117 0 0 0 .116-.116l.259-2.467-.259-2.554c0-.071-.052-.124-.116-.124Zm.948-.082a.132.132 0 0 0-.135.135l-.217 2.625.218 2.542c0 .083.063.135.134.135a.15.15 0 0 0 .147-.135l.24-2.542-.24-2.625a.15.15 0 0 0-.147-.135Zm9.053-4.16a.293.293 0 0 0-.157-.052.345.345 0 0 0-.21.072.385.385 0 0 0-.124.25v.03l-.124 6.627.064 1.219.064 1.189a.343.343 0 0 0 .333.322.325.325 0 0 0 .323-.322l.146-2.408-.146-6.656a.361.361 0 0 0-.169-.27Zm-1.001.575a.33.33 0 0 0-.165-.053.318.318 0 0 0-.165.053.296.296 0 0 0-.135.25l-.011.065-.106 6.03.117 2.46v.01c0 .065.022.125.064.177a.322.322 0 0 0 .24.116.304.304 0 0 0 .21-.093.258.258 0 0 0 .093-.21l.011-.252.117-2.197-.124-6.105a.336.336 0 0 0-.146-.251Zm-4.178.843c-.116 0-.217.105-.217.23l-.165 5.272.165 2.52c.011.123.105.217.217.217a.23.23 0 0 0 .229-.217l.188-2.52-.188-5.273c-.008-.124-.101-.229-.229-.229Zm14.127 2.355a3 3 0 0 0-1.148.23 5.211 5.211 0 0 0-7.073-4.388c-.228.082-.292.165-.292.345v9.363c0 .188.146.323.322.345h8.187a2.943 2.943 0 0 0 2.947-2.936 2.95 2.95 0 0 0-2.943-2.959Zm-11.127-2.26c-.157 0-.281.123-.292.292l-.124 5.126.124 2.46a.296.296 0 0 0 .292.281.278.278 0 0 0 .281-.281l.147-2.46-.147-5.126c-.01-.17-.123-.293-.28-.293Zm-2.01-.293c-.123 0-.24.116-.24.25l-.146 5.45.146 2.508c.011.135.117.24.24.24.135 0 .24-.105.252-.24l.164-2.508-.164-5.45c-.012-.134-.117-.25-.252-.25Zm1.002.127a.257.257 0 0 0-.26.259l-.145 5.314.146 2.49c.011.146.116.258.258.258a.26.26 0 0 0 .26-.258l.157-2.49-.158-5.314a.255.255 0 0 0-.258-.259Zm32.284 6.956c0 1.16-.419 2.074-1.257 2.742-.832.668-1.992 1.002-3.48 1.002-1.371 0-2.584-.258-3.639-.774v-2.53c.867.386 1.6.658 2.197.817a6.573 6.573 0 0 0 1.653.237c.597 0 1.054-.114 1.371-.343.322-.228.483-.568.483-1.02 0-.252-.07-.474-.211-.668a2.258 2.258 0 0 0-.624-.57c-.269-.182-.823-.473-1.661-.87-.785-.37-1.374-.724-1.766-1.064a3.996 3.996 0 0 1-.941-1.187c-.234-.451-.351-.978-.351-1.582 0-1.137.383-2.03 1.151-2.68.773-.651 1.84-.976 3.199-.976.668 0 1.304.079 1.907.237.61.158 1.246.381 1.908.668l-.879 2.118c-.686-.281-1.254-.477-1.705-.589a5.43 5.43 0 0 0-1.319-.167c-.515 0-.911.12-1.186.36-.276.241-.413.555-.413.941 0 .24.055.451.167.633.111.176.287.349.527.518.246.165.823.463 1.731.897 1.202.574 2.025 1.151 2.47 1.732.445.574.668 1.28.668 2.118Zm4.254-1.363c0 .973.158 1.708.475 2.206.322.498.843.748 1.564.748.715 0 1.228-.247 1.538-.739.317-.498.475-1.236.475-2.215 0-.972-.158-1.702-.475-2.188-.316-.486-.835-.73-1.555-.73-.715 0-1.231.244-1.547.73-.317.48-.475 1.21-.475 2.188Zm6.794 0c0 1.6-.422 2.85-1.266 3.753-.843.903-2.018 1.354-3.524 1.354-.943 0-1.775-.205-2.496-.615a4.144 4.144 0 0 1-1.661-1.785c-.387-.773-.58-1.675-.58-2.707 0-1.605.419-2.853 1.256-3.744.838-.89 2.016-1.336 3.534-1.336.943 0 1.775.205 2.496.616.72.41 1.274.998 1.661 1.766s.58 1.667.58 2.698ZM141.426 31l-.361-1.257h-.14a2.858 2.858 0 0 1-1.222 1.064c-.527.246-1.128.369-1.802.369-1.154 0-2.024-.308-2.61-.923-.586-.621-.879-1.512-.879-2.672v-6.407h2.681v5.74c0 .708.126 1.241.378 1.599.252.351.653.527 1.204.527.75 0 1.292-.249 1.626-.747.334-.504.501-1.336.501-2.496v-4.623h2.68V31h-2.056Zm13.939 0h-2.68v-5.74c0-.708-.126-1.239-.378-1.59-.252-.358-.654-.536-1.204-.536-.75 0-1.292.252-1.626.756-.334.498-.501 1.327-.501 2.487V31h-2.681v-9.826h2.048l.36 1.257h.15a2.806 2.806 0 0 1 1.23-1.073c.527-.246 1.125-.369 1.793-.369 1.143 0 2.01.31 2.602.932.591.615.887 1.506.887 2.672V31Zm5.871.176c-1.154 0-2.062-.448-2.724-1.345-.657-.896-.985-2.139-.985-3.726 0-1.612.334-2.866 1.002-3.762.674-.903 1.6-1.354 2.778-1.354 1.236 0 2.179.48 2.83 1.442h.088a10.946 10.946 0 0 1-.203-1.96v-3.147h2.69V31h-2.057l-.518-1.274h-.115c-.609.966-1.538 1.45-2.786 1.45Zm.941-2.136c.685 0 1.186-.2 1.503-.598.322-.398.498-1.075.527-2.03v-.29c0-1.055-.164-1.81-.492-2.267-.322-.457-.85-.686-1.582-.686-.598 0-1.064.255-1.398.765-.328.503-.492 1.239-.492 2.206 0 .966.167 1.693.501 2.18.334.48.812.72 1.433.72Zm13.008-8.807c-1.026 0-1.82.387-2.382 1.16-.563.768-.844 1.84-.844 3.217 0 2.866 1.075 4.298 3.226 4.298.902 0 1.995-.225 3.278-.677v2.286c-1.055.44-2.233.659-3.533.659-1.869 0-3.299-.566-4.289-1.696-.991-1.137-1.486-2.766-1.486-4.887 0-1.336.243-2.505.73-3.507.486-1.008 1.183-1.778 2.092-2.312.914-.539 1.983-.808 3.208-.808 1.248 0 2.502.302 3.761.905l-.879 2.215c-.48-.229-.963-.428-1.45-.598a4.325 4.325 0 0 0-1.432-.255ZM183.675 31h-2.681V17.324h2.681V31Zm4.957-4.93c0 .972.158 1.707.474 2.205.323.498.844.748 1.565.748.715 0 1.227-.247 1.538-.739.316-.498.475-1.236.475-2.215 0-.972-.159-1.702-.475-2.188-.316-.486-.835-.73-1.556-.73-.715 0-1.23.244-1.547.73-.316.48-.474 1.21-.474 2.188Zm6.794 0c0 1.599-.422 2.85-1.266 3.752-.844.903-2.018 1.354-3.524 1.354-.944 0-1.776-.205-2.496-.615a4.144 4.144 0 0 1-1.661-1.785c-.387-.773-.581-1.675-.581-2.707 0-1.605.419-2.853 1.257-3.744.838-.89 2.016-1.336 3.533-1.336.944 0 1.776.205 2.497.616.72.41 1.274.998 1.661 1.766.386.768.58 1.667.58 2.698Zm9.176 4.93-.361-1.257h-.14a2.864 2.864 0 0 1-1.222 1.064c-.527.246-1.128.369-1.802.369-1.154 0-2.024-.308-2.61-.923-.586-.621-.879-1.512-.879-2.672v-6.407h2.681v5.74c0 .708.126 1.241.377 1.599.252.351.654.527 1.205.527.75 0 1.292-.249 1.626-.747.334-.504.501-1.336.501-2.496v-4.623h2.68V31h-2.056Zm7.98.176c-1.154 0-2.062-.448-2.725-1.345-.656-.896-.984-2.139-.984-3.726 0-1.612.334-2.866 1.002-3.762.674-.903 1.6-1.354 2.777-1.354 1.237 0 2.18.48 2.83 1.442h.088a11.03 11.03 0 0 1-.202-1.96v-3.147h2.69V31h-2.057l-.519-1.274h-.114c-.609.966-1.538 1.45-2.786 1.45Zm.94-2.136c.686 0 1.187-.2 1.503-.598.323-.398.498-1.075.528-2.03v-.29c0-1.055-.164-1.81-.492-2.267-.323-.457-.85-.686-1.582-.686-.598 0-1.064.255-1.398.765-.328.503-.492 1.239-.492 2.206 0 .966.167 1.693.501 2.18.334.48.811.72 1.432.72Z"/>
</svg>
