<svg xmlns="http://www.w3.org/2000/svg" width="300" height="48" fill="none" viewBox="0 0 300 48">
  <rect width="300" height="48" fill="#1DB954" rx="8"/>
  <g clip-path="url(#a)">
    <g clip-path="url(#b)">
      <path fill="#191414" d="M114.5 12.375c-6.624 0-12 5.208-12 11.625s5.376 11.625 12 11.625 12-5.208 12-11.625-5.376-11.625-12-11.625Zm4.873 17.105c-.204 0-.329-.061-.518-.17-3.02-1.762-6.532-1.837-10.002-1.147-.188.046-.435.121-.576.121a.741.741 0 0 1-.764-.74c0-.483.295-.713.658-.788 3.963-.848 8.013-.773 11.468 1.228.295.183.469.347.469.774a.72.72 0 0 1-.735.722Zm1.301-3.075c-.251 0-.421-.108-.595-.197-3.024-1.735-7.534-2.433-11.545-1.378-.232.06-.358.122-.576.122-.518 0-.939-.408-.939-.91 0-.501.252-.834.75-.97a16.774 16.774 0 0 1 4.733-.638c3.14 0 6.174.755 8.564 2.133.392.225.547.516.547.924a.923.923 0 0 1-.939.914Zm1.5-3.572c-.251 0-.406-.061-.624-.183-3.445-1.992-9.605-2.47-13.592-1.392-.174.047-.392.122-.624.122-.639 0-1.128-.483-1.128-1.107 0-.637.407-.998.842-1.12 1.704-.483 3.61-.712 5.686-.712 3.532 0 7.234.712 9.939 2.24.377.211.624.502.624 1.06 0 .637-.532 1.092-1.123 1.092Z"/>
    </g>
    <path fill="#000" d="M143.702 27.432c0 1.16-.419 2.074-1.257 2.742-.832.668-1.992 1.002-3.48 1.002-1.371 0-2.584-.258-3.639-.774v-2.53c.867.386 1.6.658 2.197.817a6.573 6.573 0 0 0 1.653.237c.597 0 1.054-.114 1.371-.343.322-.228.483-.568.483-1.02 0-.252-.07-.474-.211-.668a2.258 2.258 0 0 0-.624-.57c-.269-.182-.823-.473-1.661-.87-.785-.37-1.374-.724-1.766-1.064a3.996 3.996 0 0 1-.941-1.187c-.234-.451-.351-.978-.351-1.582 0-1.137.383-2.03 1.151-2.68.773-.651 1.84-.976 3.199-.976.668 0 1.304.079 1.907.237.61.158 1.246.381 1.908.668l-.879 2.118c-.686-.281-1.254-.477-1.705-.589a5.43 5.43 0 0 0-1.319-.167c-.515 0-.911.12-1.186.36-.276.241-.413.555-.413.941 0 .24.055.451.167.633.111.176.287.349.527.518.246.165.823.463 1.731.897 1.202.574 2.025 1.151 2.47 1.732.445.574.668 1.28.668 2.118Zm7.515 3.744c-1.155 0-2.06-.42-2.716-1.257h-.141c.094.82.141 1.295.141 1.424v3.981h-2.681v-14.15H148l.378 1.274h.123c.627-.972 1.556-1.459 2.786-1.459 1.16 0 2.068.448 2.725 1.345.656.896.984 2.142.984 3.735 0 1.05-.155 1.96-.466 2.734-.304.773-.741 1.362-1.309 1.766-.569.405-1.237.607-2.004.607Zm-.791-8.042c-.662 0-1.146.205-1.45.615-.305.404-.463 1.075-.475 2.013v.29c0 1.054.155 1.81.466 2.267.316.457.814.686 1.494.686 1.201 0 1.802-.99 1.802-2.97 0-.968-.15-1.691-.449-2.172-.293-.486-.755-.73-1.388-.73Zm8.921 2.935c0 .973.158 1.708.474 2.206.323.498.844.748 1.565.748.715 0 1.227-.247 1.538-.739.316-.498.474-1.236.474-2.215 0-.972-.158-1.702-.474-2.188-.317-.486-.835-.73-1.556-.73-.715 0-1.23.244-1.547.73-.316.48-.474 1.21-.474 2.188Zm6.794 0c0 1.6-.422 2.85-1.266 3.753-.844.903-2.019 1.354-3.524 1.354-.944 0-1.776-.205-2.497-.615a4.156 4.156 0 0 1-1.661-1.785c-.386-.773-.58-1.675-.58-2.707 0-1.605.419-2.853 1.257-3.744.838-.89 2.016-1.336 3.533-1.336.944 0 1.776.205 2.496.616.721.41 1.275.998 1.662 1.766.386.768.58 1.667.58 2.698Zm6.354 2.971c.469 0 1.031-.102 1.688-.308v1.995c-.668.3-1.489.449-2.461.449-1.073 0-1.855-.27-2.347-.809-.486-.545-.729-1.36-.729-2.443v-4.738h-1.284v-1.133l1.477-.897.773-2.074h1.714v2.092h2.751v2.012h-2.751v4.738c0 .38.106.662.317.844.216.181.501.272.852.272Zm3.568-10.406c0-.873.487-1.31 1.459-1.31.973 0 1.459.437 1.459 1.31 0 .416-.123.741-.369.975-.24.229-.603.343-1.09.343-.972 0-1.459-.44-1.459-1.318ZM178.858 31h-2.68v-9.826h2.68V31Zm8.253-7.814h-2.32V31h-2.681v-7.814h-1.476v-1.291l1.476-.721v-.72c0-1.12.276-1.937.827-2.453.55-.516 1.432-.774 2.645-.774.926 0 1.749.138 2.47.414l-.686 1.968a4.996 4.996 0 0 0-1.494-.255c-.381 0-.656.115-.826.343-.17.223-.255.51-.255.862v.615h2.32v2.012Zm.141-2.012h2.936l1.854 5.528a7.65 7.65 0 0 1 .325 1.705h.053c.064-.603.19-1.172.378-1.705l1.819-5.528h2.874l-4.157 11.083c-.381 1.025-.926 1.793-1.635 2.303-.703.51-1.526.764-2.47.764a6.2 6.2 0 0 1-1.362-.15v-2.126c.322.076.674.114 1.055.114a1.87 1.87 0 0 0 1.239-.44c.358-.287.636-.723.835-1.309l.158-.483-3.902-9.756Z"/>
  </g>
  <defs>
    <clipPath id="a">
      <path fill="#fff" d="M102.5 11h95v26h-95z"/>
    </clipPath>
    <clipPath id="b">
      <path fill="#fff" d="M102.5 12h24v24h-24z"/>
    </clipPath>
  </defs>
</svg>
