<svg xmlns="http://www.w3.org/2000/svg" width="302" height="50" fill="none" viewBox="0 0 302 50">
  <rect width="301" height="49" x=".5" y=".5" fill="#006AFF" rx="8.5"/>
  <g clip-path="url(#a)">
    <g clip-path="url(#b)">
      <path fill="#fff" fill-rule="evenodd" d="M107.51 13h15.979a4.01 4.01 0 0 1 4.011 4.01v15.977A4.011 4.011 0 0 1 123.489 37H107.51a4.011 4.011 0 0 1-4.01-4.012V17.01a4.01 4.01 0 0 1 4.01-4.01Zm14.364 19.636c.699 0 1.265-.567 1.265-1.266l-.003-12.74c0-.7-.567-1.266-1.266-1.266h-12.739a1.264 1.264 0 0 0-1.266 1.267v12.74c0 .698.567 1.265 1.266 1.265h12.743Z" clip-rule="evenodd"/>
      <path fill="#fff" d="M112.948 28.253a.727.727 0 0 1-.721-.726v-5.086a.727.727 0 0 1 .726-.73h5.093a.727.727 0 0 1 .727.73v5.085a.727.727 0 0 1-.727.73l-5.098-.003Z"/>
    </g>
    <path fill="#fff" d="M144.702 28.432c0 1.16-.419 2.074-1.257 2.742-.832.668-1.992 1.002-3.48 1.002-1.371 0-2.584-.258-3.639-.774v-2.53c.867.386 1.6.658 2.197.817a6.573 6.573 0 0 0 1.653.237c.597 0 1.054-.114 1.371-.343.322-.228.483-.568.483-1.02 0-.252-.07-.474-.211-.668a2.258 2.258 0 0 0-.624-.57c-.269-.182-.823-.473-1.661-.87-.785-.37-1.374-.724-1.766-1.064a3.996 3.996 0 0 1-.941-1.187c-.234-.451-.351-.978-.351-1.582 0-1.137.383-2.03 1.151-2.68.773-.651 1.84-.976 3.199-.976.668 0 1.304.079 1.907.237.61.158 1.246.381 1.908.668l-.879 2.118c-.686-.281-1.254-.477-1.705-.589a5.43 5.43 0 0 0-1.319-.167c-.515 0-.911.12-1.186.36-.276.241-.413.555-.413.941 0 .24.055.451.167.633.111.176.287.349.527.518.246.165.823.463 1.731.897 1.202.574 2.025 1.151 2.47 1.732.445.574.668 1.28.668 2.118Zm6.188 1.643c.679 0 1.177-.193 1.494-.58.316-.393.489-1.075.518-2.048v-.325c0-1.055-.164-1.81-.492-2.267-.322-.457-.844-.686-1.564-.686-1.26 0-1.89.99-1.89 2.97 0 .985.155 1.72.466 2.207.316.486.806.73 1.468.73Zm-.958 2.1c-1.161 0-2.069-.444-2.725-1.335-.656-.897-.984-2.142-.984-3.735 0-1.606.334-2.86 1.002-3.762.673-.903 1.593-1.354 2.759-1.354.621 0 1.163.117 1.626.352.463.234.87.598 1.222 1.09h.07l.238-1.257h2.267v14.15h-2.689v-4.122c0-.357.038-.85.114-1.476h-.114a2.85 2.85 0 0 1-1.143 1.08c-.474.247-1.022.37-1.643.37Zm15.24-.175-.36-1.257h-.141a2.853 2.853 0 0 1-1.222 1.064c-.527.246-1.128.369-1.802.369-1.154 0-2.024-.308-2.61-.923-.586-.621-.879-1.512-.879-2.672v-6.407h2.681v5.74c0 .708.126 1.241.378 1.599.252.351.653.527 1.204.527.75 0 1.292-.249 1.626-.747.334-.504.501-1.336.501-2.496v-4.623h2.681V32h-2.057Zm11.109 0-.518-1.336h-.071c-.451.568-.917.964-1.397 1.187-.475.216-1.096.325-1.863.325-.944 0-1.688-.27-2.233-.809-.539-.539-.808-1.306-.808-2.303 0-1.043.363-1.81 1.089-2.302.733-.498 1.834-.774 3.305-.826l1.705-.053v-.43c0-.997-.51-1.495-1.529-1.495-.785 0-1.708.237-2.769.712l-.887-1.81c1.131-.592 2.384-.888 3.761-.888 1.319 0 2.33.287 3.033.861.703.574 1.054 1.447 1.054 2.62V32h-1.872Zm-.791-4.553-1.037.035c-.779.024-1.359.165-1.74.422-.381.258-.571.65-.571 1.178 0 .756.433 1.134 1.3 1.134.621 0 1.117-.179 1.486-.536.375-.358.562-.832.562-1.424v-.809Zm10.916-5.458c.364 0 .665.027.906.08l-.203 2.513a3.064 3.064 0 0 0-.791-.088c-.855 0-1.523.22-2.004.66-.474.439-.711 1.054-.711 1.845V32h-2.681v-9.826h2.03l.396 1.652h.131c.305-.55.715-.993 1.231-1.327a3.046 3.046 0 0 1 1.696-.51Zm6.759 1.907c-.568 0-1.014.182-1.336.545-.322.358-.507.868-.554 1.53h3.762c-.012-.662-.184-1.172-.518-1.53-.334-.363-.786-.544-1.354-.544Zm.378 8.28c-1.582 0-2.818-.437-3.709-1.31s-1.336-2.11-1.336-3.709c0-1.646.41-2.918 1.231-3.814.826-.903 1.965-1.354 3.418-1.354 1.389 0 2.47.396 3.244 1.187.773.79 1.16 1.884 1.16 3.278v1.3h-6.337c.029.763.255 1.357.677 1.785.421.428 1.013.642 1.775.642.592 0 1.151-.062 1.679-.185a8.4 8.4 0 0 0 1.652-.589v2.074c-.469.235-.97.408-1.503.519-.533.117-1.183.176-1.951.176Z"/>
  </g>
  <rect width="301" height="49" x=".5" y=".5" stroke="#fff" rx="8.5"/>
  <defs>
    <clipPath id="a">
      <path fill="#fff" d="M103.5 12h95v26h-95z"/>
    </clipPath>
    <clipPath id="b">
      <path fill="#fff" d="M103.5 13h24v24h-24z"/>
    </clipPath>
  </defs>
</svg>
