<svg xmlns="http://www.w3.org/2000/svg" width="300" height="48" fill="none" viewBox="0 0 300 48">
  <rect width="300" height="48" fill="url(#a)" rx="8"/>
  <g clip-path="url(#b)">
    <g clip-path="url(#c)">
      <path fill="#fff" d="M129.5 24c0 6.629-5.381 12-12.019 12a12.012 12.012 0 0 1-11.565-8.729l4.607 1.902a3.4 3.4 0 0 0 6.73-.827l4.089-2.914a4.535 4.535 0 0 0 4.635-4.524 4.535 4.535 0 0 0-9.067 0v.058l-2.865 4.147a3.39 3.39 0 0 0-2.105.585l-6.44-2.66c.494-6.18 5.666-11.038 11.981-11.038 6.638 0 12.019 5.371 12.019 12Zm-16.466 6.208-1.476-.61c.271.564.74 1.008 1.316 1.249a2.557 2.557 0 0 0 3.339-1.374 2.546 2.546 0 0 0-3.257-3.363l1.525.629a1.871 1.871 0 0 1 1.011 2.453 1.88 1.88 0 0 1-2.458 1.016Zm8.41-6.285a3.022 3.022 0 0 1-3.02-3.015 3.023 3.023 0 0 1 3.02-3.015 3.022 3.022 0 0 1 3.019 3.015 3.02 3.02 0 0 1-3.019 3.015Zm.004-.755a2.268 2.268 0 0 0 2.27-2.265 2.265 2.265 0 0 0-2.27-2.264 2.268 2.268 0 0 0-2.269 2.264 2.275 2.275 0 0 0 2.269 2.265Z"/>
    </g>
    <path fill="#fff" d="M146.702 27.432c0 1.16-.419 2.074-1.257 2.742-.832.668-1.992 1.002-3.48 1.002-1.371 0-2.584-.258-3.639-.774v-2.53c.867.386 1.6.658 2.197.817a6.573 6.573 0 0 0 1.653.237c.597 0 1.054-.114 1.371-.343.322-.228.483-.568.483-1.02 0-.252-.07-.474-.211-.668a2.258 2.258 0 0 0-.624-.57c-.269-.182-.823-.473-1.661-.87-.785-.37-1.374-.724-1.766-1.064a3.996 3.996 0 0 1-.941-1.187c-.234-.451-.351-.978-.351-1.582 0-1.137.383-2.03 1.151-2.68.773-.651 1.84-.976 3.199-.976.668 0 1.304.079 1.907.237.61.158 1.246.381 1.908.668l-.879 2.118c-.686-.281-1.254-.477-1.705-.589a5.43 5.43 0 0 0-1.319-.167c-.515 0-.911.12-1.186.36-.276.241-.413.555-.413.941 0 .24.055.451.167.633.111.176.287.349.527.518.246.165.823.463 1.731.897 1.202.574 2.025 1.151 2.47 1.732.445.574.668 1.28.668 2.118Zm6.258 1.608c.469 0 1.031-.102 1.687-.308v1.995c-.668.3-1.488.449-2.46.449-1.073 0-1.855-.27-2.347-.809-.486-.545-.73-1.36-.73-2.443v-4.738h-1.283v-1.133l1.477-.897.773-2.074h1.714v2.092h2.751v2.012h-2.751v4.738c0 .38.105.662.316.844.217.181.501.272.853.272Zm7.752-6.143c-.568 0-1.014.181-1.336.544-.322.358-.507.868-.554 1.53h3.762c-.012-.662-.185-1.172-.519-1.53-.334-.363-.785-.544-1.353-.544Zm.378 8.279c-1.582 0-2.819-.437-3.709-1.31-.891-.873-1.336-2.11-1.336-3.709 0-1.646.41-2.918 1.23-3.814.827-.903 1.966-1.354 3.419-1.354 1.389 0 2.47.396 3.244 1.187.773.79 1.16 1.884 1.16 3.278v1.3h-6.337c.029.763.255 1.357.677 1.785.421.428 1.013.642 1.775.642.592 0 1.151-.062 1.679-.185a8.4 8.4 0 0 0 1.652-.589v2.074c-.469.235-.97.408-1.503.519-.533.117-1.184.176-1.951.176ZM173.518 31l-.519-1.336h-.07c-.451.568-.917.964-1.398 1.187-.474.216-1.095.325-1.863.325-.943 0-1.688-.27-2.232-.809-.54-.539-.809-1.306-.809-2.303 0-1.043.363-1.81 1.09-2.302.732-.498 1.834-.774 3.304-.826l1.706-.053v-.43c0-.997-.51-1.495-1.53-1.495-.785 0-1.708.237-2.768.712l-.888-1.81c1.131-.592 2.385-.888 3.762-.888 1.318 0 2.329.287 3.032.861.703.574 1.055 1.447 1.055 2.62V31h-1.872Zm-.791-4.553-1.038.035c-.779.024-1.359.165-1.74.422-.381.258-.571.65-.571 1.178 0 .756.434 1.134 1.301 1.134.621 0 1.116-.179 1.485-.536.375-.358.563-.832.563-1.424v-.809ZM186.956 31h-2.681v-5.74c0-.708-.12-1.239-.36-1.59-.234-.358-.606-.536-1.116-.536-.686 0-1.184.252-1.494.756-.311.504-.466 1.333-.466 2.487V31h-2.681v-9.826h2.048l.36 1.257h.15a2.69 2.69 0 0 1 1.142-1.055c.498-.258 1.07-.387 1.714-.387 1.471 0 2.467.48 2.989 1.442h.237a2.66 2.66 0 0 1 1.16-1.064c.516-.252 1.096-.378 1.74-.378 1.114 0 1.954.287 2.523.862.574.568.861 1.482.861 2.742V31h-2.689v-5.74c0-.708-.121-1.239-.361-1.59-.234-.358-.606-.536-1.116-.536-.656 0-1.148.234-1.477.703-.322.469-.483 1.213-.483 2.232V31Z"/>
  </g>
  <defs>
    <clipPath id="b">
      <path fill="#fff" d="M105.5 11h89v26h-89z"/>
    </clipPath>
    <clipPath id="c">
      <path fill="#fff" d="M105.5 12h24v24h-24z"/>
    </clipPath>
    <linearGradient id="a" x1="0" x2="300" y1="24" y2="24" gradientUnits="userSpaceOnUse">
      <stop stop-color="#08BBFF"/>
      <stop offset="1" stop-color="#2B75FF"/>
    </linearGradient>
  </defs>
</svg>
