<svg xmlns="http://www.w3.org/2000/svg" width="300" height="48" fill="none" viewBox="0 0 300 48">
  <rect width="300" height="48" fill="#FF6719" rx="8"/>
  <path fill="#fff" d="M115.539 20.242H94.46v-2.836h21.08v2.836h-.001Zm-21.079 2.57V36L105 30.11 115.54 36V22.812H94.46ZM115.54 12H94.46v2.836h21.08V12Zm18.662 15.432c0 1.16-.419 2.074-1.257 2.742-.832.668-1.992 1.002-3.48 1.002-1.371 0-2.584-.258-3.639-.774v-2.53c.867.386 1.6.658 2.197.817a6.573 6.573 0 0 0 1.653.237c.597 0 1.054-.114 1.371-.343.322-.228.483-.568.483-1.02 0-.252-.07-.474-.211-.668a2.258 2.258 0 0 0-.624-.57c-.269-.182-.823-.473-1.661-.87-.785-.37-1.374-.724-1.766-1.064a3.996 3.996 0 0 1-.941-1.187c-.234-.451-.351-.978-.351-1.582 0-1.137.383-2.03 1.151-2.68.773-.651 1.84-.976 3.199-.976.668 0 1.304.079 1.907.237.61.158 1.246.381 1.908.668l-.879 2.118c-.686-.281-1.254-.477-1.705-.589a5.43 5.43 0 0 0-1.319-.167c-.515 0-.911.12-1.186.36-.276.241-.413.555-.413.941 0 .24.055.451.167.633.111.176.287.349.527.518.246.165.823.463 1.731.897 1.202.574 2.025 1.151 2.47 1.732.445.574.668 1.28.668 2.118ZM143.281 31l-.36-1.257h-.141a2.856 2.856 0 0 1-1.221 1.064c-.528.246-1.128.369-1.802.369-1.154 0-2.025-.308-2.611-.923-.585-.621-.878-1.512-.878-2.672v-6.407h2.68v5.74c0 .708.126 1.241.378 1.599.252.351.653.527 1.204.527.75 0 1.292-.249 1.626-.747.334-.504.501-1.336.501-2.496v-4.623h2.681V31h-2.057Zm10.336-10.01c1.16 0 2.069.453 2.725 1.362.656.902.984 2.141.984 3.717 0 1.623-.34 2.88-1.019 3.77-.674.892-1.594 1.337-2.76 1.337-1.154 0-2.06-.42-2.716-1.257h-.185L150.198 31h-2.048V17.324h2.681v3.182c0 .404-.035 1.052-.105 1.942h.105c.627-.972 1.556-1.459 2.786-1.459Zm-.861 2.144c-.662 0-1.146.205-1.45.615-.305.404-.463 1.075-.475 2.013v.29c0 1.054.155 1.81.466 2.267.316.457.814.686 1.494.686.551 0 .987-.252 1.31-.756.328-.51.492-1.248.492-2.215 0-.967-.164-1.69-.492-2.17-.329-.487-.777-.73-1.345-.73Zm13.64 4.948c0 1.008-.351 1.775-1.054 2.303-.697.527-1.743.79-3.138.79-.715 0-1.324-.049-1.828-.149a6.724 6.724 0 0 1-1.415-.421V28.39c.498.234 1.058.43 1.679.588.627.159 1.177.238 1.652.238.973 0 1.459-.281 1.459-.844a.689.689 0 0 0-.193-.51c-.129-.134-.352-.284-.668-.448-.317-.17-.739-.366-1.266-.589-.756-.316-1.312-.61-1.67-.879a2.545 2.545 0 0 1-.773-.923c-.159-.351-.238-.782-.238-1.292 0-.873.337-1.546 1.011-2.021.68-.48 1.641-.72 2.883-.72 1.184 0 2.335.257 3.454.773l-.809 1.933c-.492-.21-.952-.384-1.379-.518a4.34 4.34 0 0 0-1.31-.202c-.791 0-1.187.213-1.187.641 0 .24.126.448.378.624.258.176.818.437 1.679.782.768.311 1.33.601 1.688.87.357.27.621.58.791.932.17.352.254.77.254 1.257Zm6.232.958c.469 0 1.031-.102 1.687-.308v1.995c-.668.3-1.488.449-2.461.449-1.072 0-1.854-.27-2.346-.809-.487-.545-.73-1.36-.73-2.443v-4.738h-1.283v-1.133l1.477-.897.773-2.074h1.714v2.092h2.751v2.012h-2.751v4.738c0 .38.105.662.316.844.217.181.501.272.853.272Zm9.923 1.96-.519-1.336h-.07c-.451.568-.917.964-1.398 1.187-.474.216-1.095.325-1.863.325-.943 0-1.687-.27-2.232-.809-.539-.539-.809-1.306-.809-2.303 0-1.043.363-1.81 1.09-2.302.732-.498 1.834-.774 3.305-.826l1.705-.053v-.43c0-.997-.51-1.495-1.53-1.495-.785 0-1.708.237-2.768.712l-.888-1.81c1.131-.592 2.385-.888 3.762-.888 1.318 0 2.329.287 3.032.861.703.574 1.055 1.447 1.055 2.62V31h-1.872Zm-.791-4.553-1.037.035c-.78.024-1.36.165-1.741.422-.38.258-.571.65-.571 1.178 0 .756.434 1.134 1.301 1.134.621 0 1.116-.179 1.485-.536.375-.358.563-.832.563-1.424v-.809Zm9.422 4.729c-3.059 0-4.588-1.679-4.588-5.036 0-1.67.416-2.945 1.248-3.824.832-.884 2.024-1.327 3.577-1.327 1.137 0 2.156.223 3.059.668l-.791 2.074c-.422-.17-.815-.307-1.178-.413a3.701 3.701 0 0 0-1.09-.167c-1.395 0-2.092.99-2.092 2.971 0 1.922.697 2.883 2.092 2.883.516 0 .993-.067 1.433-.202.439-.14.878-.358 1.318-.65v2.293a4.318 4.318 0 0 1-1.318.572c-.44.105-.997.158-1.67.158Zm7.848-5.52 1.169-1.494 2.751-2.988h3.024l-3.903 4.262 4.14 5.564h-3.094l-2.83-3.981-1.151.922V31h-2.681V17.324h2.681v6.1l-.141 2.232h.035Z"/>
</svg>
