<svg xmlns="http://www.w3.org/2000/svg" width="300" height="48" fill="none" viewBox="0 0 300 48">
  <rect width="300" height="48" fill="#3FAEE8" rx="8"/>
  <g clip-path="url(#a)">
    <g clip-path="url(#b)">
      <path fill="#fff" d="m115.432 15.82-3.621 16.973c-.274 1.197-.986 1.496-1.999.931l-5.518-4.04-2.663 2.544c-.295.293-.541.538-1.109.538l.397-5.584 10.227-9.184c.445-.394-.096-.612-.691-.218l-12.644 7.91-5.443-1.692c-1.184-.367-1.206-1.177.246-1.74l21.291-8.151c.986-.368 1.849.218 1.527 1.714Z"/>
    </g>
    <path fill="#fff" d="M130.074 31h-2.724V20.418h-3.49V18.15h9.703v2.268h-3.489V31Zm9.325-8.104c-.568 0-1.013.182-1.336.545-.322.358-.506.868-.553 1.53h3.761c-.011-.662-.184-1.172-.518-1.53-.334-.363-.785-.544-1.354-.544Zm.378 8.28c-1.582 0-2.818-.437-3.709-1.31-.89-.873-1.336-2.11-1.336-3.709 0-1.646.411-2.918 1.231-3.814.826-.903 1.966-1.354 3.419-1.354 1.389 0 2.47.396 3.243 1.187.773.79 1.16 1.884 1.16 3.278v1.3h-6.337c.03.763.255 1.357.677 1.785.422.428 1.014.642 1.775.642.592 0 1.152-.062 1.679-.185a8.4 8.4 0 0 0 1.652-.589v2.074a6.143 6.143 0 0 1-1.502.519c-.534.117-1.184.176-1.952.176Zm8.869-.176h-2.681V17.324h2.681V31Zm6.89-8.104c-.568 0-1.014.182-1.336.545-.322.358-.507.868-.554 1.53h3.762c-.012-.662-.184-1.172-.518-1.53-.334-.363-.786-.544-1.354-.544Zm.378 8.28c-1.582 0-2.818-.437-3.709-1.31s-1.336-2.11-1.336-3.709c0-1.646.41-2.918 1.231-3.814.826-.903 1.965-1.354 3.419-1.354 1.388 0 2.469.396 3.243 1.187.773.79 1.16 1.884 1.16 3.278v1.3h-6.337c.029.763.255 1.357.677 1.785.422.428 1.013.642 1.775.642.592 0 1.151-.062 1.679-.185a8.4 8.4 0 0 0 1.652-.589v2.074c-.469.235-.97.408-1.503.519-.533.117-1.183.176-1.951.176Zm14.739-10.002v1.362l-1.538.396c.281.44.422.931.422 1.476 0 1.055-.369 1.878-1.107 2.47-.733.586-1.752.879-3.059.879l-.483-.027-.396-.044c-.275.212-.413.446-.413.704 0 .386.492.58 1.477.58h1.67c1.078 0 1.898.231 2.461.694.568.463.852 1.143.852 2.04 0 1.148-.48 2.038-1.441 2.671-.955.633-2.329.95-4.122.95-1.372 0-2.42-.241-3.147-.722-.721-.474-1.081-1.142-1.081-2.003 0-.592.185-1.087.554-1.486.369-.398.911-.682 1.626-.852a1.803 1.803 0 0 1-.721-.572 1.387 1.387 0 0 1-.308-.852c0-.375.109-.686.326-.932.216-.252.53-.498.94-.738a2.656 2.656 0 0 1-1.23-1.072c-.299-.492-.449-1.073-.449-1.74 0-1.073.349-1.902 1.046-2.488.697-.586 1.694-.879 2.989-.879.275 0 .6.027.975.08.381.046.624.081.73.105h3.427Zm-7.585 11.215c0 .369.176.659.528.87.357.21.855.316 1.494.316.961 0 1.714-.132 2.259-.395.545-.264.817-.624.817-1.081 0-.37-.161-.624-.483-.765-.323-.14-.821-.211-1.495-.211H164.8c-.492 0-.905.114-1.239.343-.329.234-.493.542-.493.923Zm.976-7.998c0 .533.12.955.36 1.265.246.31.618.466 1.117.466.503 0 .873-.155 1.107-.466.234-.31.351-.732.351-1.265 0-1.184-.486-1.776-1.458-1.776-.985 0-1.477.592-1.477 1.776Zm13.72-3.402c.363 0 .665.027.905.08l-.202 2.513a3.074 3.074 0 0 0-.791-.088c-.856 0-1.524.22-2.004.66-.475.439-.712 1.054-.712 1.845V31h-2.681v-9.826h2.031l.395 1.652h.132c.305-.55.715-.993 1.23-1.327a3.05 3.05 0 0 1 1.697-.51ZM186.693 31l-.518-1.336h-.071c-.451.568-.916.964-1.397 1.187-.475.216-1.096.325-1.863.325-.944 0-1.688-.27-2.233-.809-.539-.539-.808-1.306-.808-2.303 0-1.043.363-1.81 1.09-2.302.732-.498 1.834-.774 3.304-.826l1.705-.053v-.43c0-.997-.509-1.495-1.529-1.495-.785 0-1.708.237-2.769.712l-.887-1.81c1.131-.592 2.385-.888 3.762-.888 1.318 0 2.329.287 3.032.861.703.574 1.054 1.447 1.054 2.62V31h-1.872Zm-.791-4.553-1.037.035c-.779.024-1.359.165-1.74.422-.381.258-.571.65-.571 1.178 0 .756.433 1.134 1.3 1.134.622 0 1.117-.179 1.486-.536.375-.358.562-.832.562-1.424v-.809ZM200.132 31h-2.681v-5.74c0-.708-.12-1.239-.36-1.59-.235-.358-.607-.536-1.116-.536-.686 0-1.184.252-1.495.756-.31.504-.465 1.333-.465 2.487V31h-2.681v-9.826h2.048l.36 1.257h.15a2.69 2.69 0 0 1 1.142-1.055c.498-.258 1.07-.387 1.714-.387 1.471 0 2.467.48 2.988 1.442h.238c.263-.457.65-.812 1.16-1.064.515-.252 1.095-.378 1.74-.378 1.113 0 1.954.287 2.522.862.575.568.862 1.482.862 2.742V31h-2.69v-5.74c0-.708-.12-1.239-.36-1.59-.234-.358-.606-.536-1.116-.536-.656 0-1.149.234-1.477.703-.322.469-.483 1.213-.483 2.232V31Z"/>
  </g>
  <defs>
    <clipPath id="a">
      <path fill="#fff" d="M91.5 11h117v26h-117z"/>
    </clipPath>
    <clipPath id="b">
      <path fill="#fff" d="M91.5 12h24v24h-24z"/>
    </clipPath>
  </defs>
</svg>
