<svg xmlns="http://www.w3.org/2000/svg" width="300" height="48" fill="none" viewBox="0 0 300 48">
  <rect width="300" height="48" fill="#3FE669" rx="8"/>
  <g clip-path="url(#a)">
    <g clip-path="url(#b)">
      <path fill="#000" d="M111.853 32.489a1.758 1.758 0 1 1 0 3.518 1.752 1.752 0 0 1-1.752-1.759c0-.972.779-1.76 1.752-1.76Zm-12.665 0a1.759 1.759 0 1 1 0 3.518 1.752 1.752 0 0 1-1.752-1.759 1.747 1.747 0 0 1 1.752-1.76Zm6.332 0a1.759 1.759 0 1 1 0 3.518 1.752 1.752 0 0 1-1.752-1.759 1.748 1.748 0 0 1 1.752-1.76Zm0-20.482c5.702 0 10.319 4.068 10.319 9.08 0 5.01-4.617 9.078-10.319 9.078-1.618 0-3.155-.327-4.52-.913l-5.167 1.292 1.106-4.417c-1.091-1.44-1.73-3.177-1.73-5.04-.007-5.012 4.61-9.08 10.311-9.08Zm0 4.24a2.92 2.92 0 0 0-2.924 2.924v1.165h-.112a.465.465 0 0 0-.467.468v4.128c0 .26.207.467.467.467h6.087c.26 0 .468-.208.468-.468v-4.127a.466.466 0 0 0-.468-.468h-.111v-1.165a2.943 2.943 0 0 0-2.94-2.925Zm0 1.165c.973 0 1.76.787 1.76 1.752v1.165h-3.519v-1.166c0-.965.787-1.751 1.759-1.751Z"/>
    </g>
    <path fill="#000" d="M132.074 31h-2.724V20.418h-3.49V18.15h9.703v2.268h-3.489V31Zm14.326 0h-2.68v-5.74c0-1.417-.528-2.126-1.582-2.126-.75 0-1.292.255-1.626.764-.334.51-.501 1.336-.501 2.479V31h-2.681V17.324h2.681v2.786c0 .217-.021.727-.062 1.53l-.061.79h.14c.598-.96 1.547-1.44 2.848-1.44 1.154 0 2.03.31 2.628.93.598.622.896 1.513.896 2.673V31Zm8.245-10.01c.363 0 .665.026.905.078l-.202 2.514a3.074 3.074 0 0 0-.791-.088c-.856 0-1.524.22-2.004.66-.475.439-.712 1.054-.712 1.845V31h-2.681v-9.826h2.03l.396 1.652h.132a3.67 3.67 0 0 1 1.23-1.327 3.05 3.05 0 0 1 1.697-.51Zm6.758 1.907c-.568 0-1.013.181-1.336.544-.322.358-.506.868-.553 1.53h3.761c-.011-.662-.184-1.172-.518-1.53-.334-.363-.785-.544-1.354-.544Zm.378 8.279c-1.582 0-2.818-.437-3.709-1.31-.89-.873-1.336-2.11-1.336-3.709 0-1.646.41-2.918 1.231-3.814.826-.903 1.966-1.354 3.419-1.354 1.388 0 2.469.396 3.243 1.187.773.79 1.16 1.884 1.16 3.278v1.3h-6.337c.029.763.255 1.357.677 1.785.422.428 1.014.642 1.775.642.592 0 1.152-.062 1.679-.185a8.4 8.4 0 0 0 1.652-.589v2.074a6.136 6.136 0 0 1-1.503.519c-.533.117-1.183.176-1.951.176Zm10.257-8.28c-.568 0-1.014.182-1.336.545-.322.358-.507.868-.554 1.53h3.762c-.012-.662-.184-1.172-.518-1.53-.334-.363-.786-.544-1.354-.544Zm.378 8.28c-1.582 0-2.818-.437-3.709-1.31s-1.336-2.11-1.336-3.709c0-1.646.41-2.918 1.231-3.814.826-.903 1.965-1.354 3.419-1.354 1.388 0 2.469.396 3.243 1.187.773.79 1.16 1.884 1.16 3.278v1.3h-6.337c.029.763.255 1.357.677 1.785.422.428 1.013.642 1.775.642.592 0 1.151-.062 1.679-.185a8.4 8.4 0 0 0 1.652-.589v2.074c-.469.235-.97.408-1.503.519-.533.117-1.183.176-1.951.176ZM187.401 31h-2.68v-5.74c0-.708-.12-1.239-.361-1.59-.234-.358-.606-.536-1.116-.536-.685 0-1.183.252-1.494.756-.311.504-.466 1.333-.466 2.487V31h-2.68v-9.826h2.047l.361 1.257h.149a2.699 2.699 0 0 1 1.143-1.055c.498-.258 1.069-.387 1.714-.387 1.47 0 2.466.48 2.988 1.442h.237a2.664 2.664 0 0 1 1.16-1.064c.516-.252 1.096-.378 1.741-.378 1.113 0 1.954.287 2.522.862.574.568.861 1.482.861 2.742V31h-2.689v-5.74c0-.708-.12-1.239-.36-1.59-.235-.358-.607-.536-1.117-.536-.656 0-1.148.234-1.476.703-.323.469-.484 1.213-.484 2.232V31Zm15.126 0-.518-1.336h-.071c-.451.568-.917.964-1.397 1.187-.475.216-1.096.325-1.863.325-.944 0-1.688-.27-2.233-.809-.539-.539-.808-1.306-.808-2.303 0-1.043.363-1.81 1.09-2.302.732-.498 1.834-.774 3.304-.826l1.705-.053v-.43c0-.997-.509-1.495-1.529-1.495-.785 0-1.708.237-2.769.712l-.887-1.81c1.131-.592 2.385-.888 3.761-.888 1.319 0 2.33.287 3.033.861.703.574 1.054 1.447 1.054 2.62V31h-1.872Zm-.791-4.553-1.037.035c-.779.024-1.359.165-1.74.422-.381.258-.571.65-.571 1.178 0 .756.433 1.134 1.3 1.134.622 0 1.117-.179 1.486-.536.375-.358.562-.832.562-1.424v-.809Z"/>
  </g>
  <defs>
    <clipPath id="a">
      <path fill="#fff" d="M93.5 11h113v26h-113z"/>
    </clipPath>
    <clipPath id="b">
      <path fill="#fff" d="M95.15 12h20.689v24H95.15z"/>
    </clipPath>
  </defs>
</svg>
