<svg xmlns="http://www.w3.org/2000/svg" width="302" height="50" fill="none" viewBox="0 0 302 50">
  <rect width="301" height="49" x=".5" y=".5" fill="#000" rx="8.5"/>
  <g clip-path="url(#a)">
    <path fill="#EE1D52" fill-rule="evenodd" d="M122.184 21.663a9.624 9.624 0 0 0 5.566 1.759v-3.944c-.393 0-.785-.04-1.169-.12v3.104a9.619 9.619 0 0 1-5.565-1.759v8.048c0 4.025-3.306 7.289-7.382 7.289a7.412 7.412 0 0 1-4.11-1.233A7.405 7.405 0 0 0 114.802 37c4.077 0 7.382-3.263 7.382-7.29v-8.047Zm1.442-3.978a5.469 5.469 0 0 1-1.442-3.218v-.507h-1.107a5.516 5.516 0 0 0 2.549 3.725Zm-11.523 14.033a3.293 3.293 0 0 1-.689-2.019c0-1.841 1.511-3.334 3.377-3.334.347 0 .693.053 1.024.156V22.49a7.53 7.53 0 0 0-1.168-.067v3.138a3.43 3.43 0 0 0-1.025-.156c-1.865 0-3.377 1.493-3.377 3.334a3.33 3.33 0 0 0 1.858 2.979Z" clip-rule="evenodd"/>
    <path fill="#fff" fill-rule="evenodd" d="M121.014 20.703a9.622 9.622 0 0 0 5.566 1.759v-3.104a5.6 5.6 0 0 1-2.955-1.673 5.52 5.52 0 0 1-2.55-3.725h-2.909v15.75c-.007 1.837-1.516 3.323-3.377 3.323a3.386 3.386 0 0 1-2.688-1.315 3.33 3.33 0 0 1-1.858-2.979c0-1.841 1.512-3.334 3.377-3.334.357 0 .702.055 1.025.156v-3.138c-4.005.082-7.227 3.314-7.227 7.288a7.22 7.22 0 0 0 2.104 5.096 7.416 7.416 0 0 0 4.11 1.233c4.077 0 7.382-3.264 7.382-7.29v-8.047Z" clip-rule="evenodd"/>
    <path fill="#69C9D0" fill-rule="evenodd" d="M126.58 19.358v-.84a5.616 5.616 0 0 1-2.955-.833 5.602 5.602 0 0 0 2.955 1.673Zm-5.505-5.398a5.75 5.75 0 0 1-.061-.453V13h-4.017v15.75c-.006 1.837-1.515 3.324-3.377 3.324a3.397 3.397 0 0 1-1.519-.356 3.386 3.386 0 0 0 2.688 1.316c1.861 0 3.371-1.487 3.377-3.323V13.96h2.909Zm-6.43 8.463v-.893a7.533 7.533 0 0 0-1.013-.068c-4.077 0-7.382 3.264-7.382 7.289 0 2.523 1.299 4.748 3.273 6.056a7.217 7.217 0 0 1-2.104-5.096c0-3.974 3.221-7.206 7.226-7.288Z" clip-rule="evenodd"/>
  </g>
  <path fill="#fff" d="M143.574 32h-2.724V21.418h-3.49V19.15h9.703v2.268h-3.489V32Zm5.142-12.366c0-.873.486-1.31 1.459-1.31.972 0 1.459.437 1.459 1.31 0 .416-.123.741-.369.975-.241.229-.604.343-1.09.343-.973 0-1.459-.44-1.459-1.318ZM151.511 32h-2.681v-9.826h2.681V32Zm5.396-5.344 1.169-1.494 2.751-2.988h3.024l-3.903 4.262 4.14 5.564h-3.094l-2.83-3.981-1.151.922V32h-2.681V18.324h2.681v6.1l-.141 2.232h.035ZM170.662 32h-2.724V21.418h-3.49V19.15h9.703v2.268h-3.489V32Zm7.392-4.93c0 .972.158 1.707.474 2.205.323.498.844.748 1.565.748.715 0 1.227-.247 1.538-.739.316-.498.474-1.236.474-2.215 0-.972-.158-1.702-.474-2.188-.317-.486-.835-.73-1.556-.73-.715 0-1.23.244-1.547.73-.316.48-.474 1.21-.474 2.188Zm6.794 0c0 1.599-.422 2.85-1.266 3.752-.844.903-2.019 1.354-3.524 1.354-.944 0-1.776-.205-2.496-.616a4.152 4.152 0 0 1-1.662-1.784c-.386-.773-.58-1.675-.58-2.707 0-1.605.419-2.853 1.257-3.744.838-.89 2.016-1.336 3.533-1.336.944 0 1.776.205 2.496.616.721.41 1.275.998 1.662 1.766.386.768.58 1.667.58 2.698Zm4.79-.414 1.169-1.494 2.751-2.988h3.023l-3.902 4.262L196.818 32h-3.093l-2.83-3.981-1.152.922V32h-2.681V18.324h2.681v6.1l-.14 2.232h.035Z"/>
  <rect width="301" height="49" x=".5" y=".5" stroke="#fff" rx="8.5"/>
  <defs>
    <clipPath id="a">
      <path fill="#fff" d="M105 13h24v24h-24z"/>
    </clipPath>
  </defs>
</svg>
