<svg xmlns="http://www.w3.org/2000/svg" width="300" height="48" fill="none" viewBox="0 0 300 48">
  <rect width="300" height="48" fill="#0065FF" rx="8"/>
  <g clip-path="url(#a)">
    <path fill="url(#b)" fill-rule="evenodd" d="M129.144 12h-18.292A2.856 2.856 0 0 0 108 14.856v18.292A2.85 2.85 0 0 0 110.852 36h18.292A2.855 2.855 0 0 0 132 33.148V14.856A2.857 2.857 0 0 0 129.144 12Zm-10.808 17.288a.96.96 0 0 1-.276.671.947.947 0 0 1-.67.278h-4.013a.946.946 0 0 1-.946-.949V17.381a.96.96 0 0 1 .276-.671.947.947 0 0 1 .67-.279h4.013a.946.946 0 0 1 .946.95v11.907Zm9.233-5.467a.95.95 0 0 1-.95.95h-4.009a.95.95 0 0 1-.95-.95v-6.44a.95.95 0 0 1 .95-.95h4.009a.95.95 0 0 1 .95.95v6.44Z" clip-rule="evenodd"/>
  </g>
  <path fill="#fff" d="M146.574 31h-2.724V20.418h-3.49V18.15h9.703v2.268h-3.489V31Zm10.74-10.01c.364 0 .665.026.906.078l-.202 2.514a3.074 3.074 0 0 0-.791-.088c-.856 0-1.524.22-2.004.66-.475.439-.712 1.054-.712 1.845V31h-2.681v-9.826h2.03l.396 1.652h.132a3.67 3.67 0 0 1 1.23-1.327 3.049 3.049 0 0 1 1.696-.51Zm6.759 1.907c-.568 0-1.013.181-1.336.544-.322.358-.507.868-.553 1.53h3.761c-.011-.662-.184-1.172-.518-1.53-.334-.363-.785-.544-1.354-.544Zm.378 8.279c-1.582 0-2.818-.437-3.709-1.31-.89-.873-1.336-2.11-1.336-3.709 0-1.646.41-2.918 1.231-3.814.826-.903 1.966-1.354 3.419-1.354 1.388 0 2.469.396 3.243 1.187.773.79 1.16 1.884 1.16 3.278v1.3h-6.337c.029.763.255 1.357.677 1.785.422.428 1.013.642 1.775.642.592 0 1.152-.062 1.679-.185a8.4 8.4 0 0 0 1.652-.589v2.074a6.136 6.136 0 0 1-1.503.519c-.533.117-1.183.176-1.951.176Zm8.868-.176h-2.68V17.324h2.68V31Zm5.502 0h-2.68V17.324h2.68V31Zm4.957-4.93c0 .972.159 1.707.475 2.205.322.498.844.748 1.564.748.715 0 1.228-.247 1.538-.739.317-.498.475-1.236.475-2.215 0-.972-.158-1.702-.475-2.188-.316-.486-.834-.73-1.555-.73-.715 0-1.231.244-1.547.73-.316.48-.475 1.21-.475 2.188Zm6.794 0c0 1.599-.422 2.85-1.265 3.752-.844.903-2.019 1.354-3.525 1.354-.943 0-1.775-.205-2.496-.615a4.15 4.15 0 0 1-1.661-1.785c-.387-.773-.58-1.675-.58-2.707 0-1.605.419-2.853 1.257-3.744.838-.89 2.015-1.336 3.533-1.336.943 0 1.775.205 2.496.616.721.41 1.274.998 1.661 1.766s.58 1.667.58 2.698Z"/>
  <defs>
    <linearGradient id="b" x1="119.998" x2="119.998" y1="36" y2="12" gradientUnits="userSpaceOnUse">
      <stop stop-color="#fff" stop-opacity=".4"/>
      <stop offset=".11" stop-color="#fff" stop-opacity=".54"/>
      <stop offset=".25" stop-color="#fff" stop-opacity=".71"/>
      <stop offset=".39" stop-color="#fff" stop-opacity=".83"/>
      <stop offset=".52" stop-color="#fff" stop-opacity=".93"/>
      <stop offset=".64" stop-color="#fff" stop-opacity=".98"/>
      <stop offset=".75" stop-color="#fff"/>
    </linearGradient>
    <clipPath id="a">
      <path fill="#fff" d="M108 12h24v24h-24z"/>
    </clipPath>
  </defs>
</svg>
