<svg xmlns="http://www.w3.org/2000/svg" width="302" height="50" fill="none" viewBox="0 0 302 50">
  <rect width="301" height="49" x=".5" y=".5" fill="#131313" rx="8.5"/>
  <path fill="#fff" d="M120.895 35.514c-.626.68-2.301 1.486-4.483 1.486-5.56 0-6.766-4.163-6.766-6.59v-6.75h-2.186a.466.466 0 0 1-.46-.47v-3.187c0-.337.207-.637.52-.75 2.854-1.022 3.751-3.562 3.88-5.489.037-.516.299-.764.741-.764h3.263c.253 0 .46.21.46.469v5.4h3.82c.254 0 .461.206.461.464v3.83a.466.466 0 0 1-.461.468h-3.838v6.244c0 1.603 1.091 2.513 3.13 1.678.221-.089.414-.15.584-.103.161.042.267.16.341.37l1.012 3.014c.083.235.152.497-.018.68ZM140.574 32h-2.724V21.418h-3.49V19.15h9.703v2.268h-3.489V32Zm12.217 0-.36-1.257h-.141a2.853 2.853 0 0 1-1.222 1.064c-.527.246-1.128.369-1.801.369-1.155 0-2.025-.308-2.611-.923-.586-.621-.879-1.512-.879-2.672v-6.407h2.681v5.74c0 .708.126 1.241.378 1.599.252.351.653.527 1.204.527.75 0 1.292-.249 1.626-.747.334-.504.501-1.336.501-2.496v-4.623h2.681V32h-2.057Zm13.667 0h-2.681v-5.74c0-.708-.12-1.239-.36-1.59-.234-.358-.606-.536-1.116-.536-.686 0-1.184.252-1.494.756-.311.504-.466 1.333-.466 2.487V32h-2.681v-9.826h2.048l.36 1.257h.15a2.69 2.69 0 0 1 1.142-1.055c.498-.258 1.07-.387 1.714-.387 1.471 0 2.467.48 2.988 1.442h.238c.263-.457.65-.812 1.16-1.064.516-.252 1.096-.378 1.74-.378 1.113 0 1.954.287 2.523.862.574.568.861 1.482.861 2.742V32h-2.689v-5.74c0-.708-.121-1.239-.361-1.59-.234-.358-.606-.536-1.116-.536-.656 0-1.148.234-1.477.703-.322.469-.483 1.213-.483 2.232V32Zm14.353-10.01c1.16 0 2.068.453 2.724 1.362.656.902.985 2.141.985 3.717 0 1.623-.34 2.88-1.02 3.77-.674.892-1.594 1.337-2.76 1.337-1.154 0-2.059-.42-2.716-1.257h-.184L177.392 32h-2.048V18.324h2.68v3.182c0 .404-.035 1.052-.105 1.942h.105c.627-.972 1.556-1.459 2.787-1.459Zm-.862 2.144c-.662 0-1.145.205-1.45.615-.305.404-.463 1.075-.475 2.013v.29c0 1.054.156 1.81.466 2.267.317.457.815.686 1.494.686.551 0 .988-.252 1.31-.756.328-.51.492-1.248.492-2.215 0-.967-.164-1.69-.492-2.17-.328-.487-.776-.73-1.345-.73ZM189.415 32h-2.681V18.324h2.681V32Zm8.306-10.01c.363 0 .665.026.905.078l-.202 2.514a3.074 3.074 0 0 0-.791-.088c-.856 0-1.524.22-2.004.66-.475.439-.712 1.054-.712 1.845V32h-2.681v-9.826h2.031l.395 1.652h.132c.305-.55.715-.993 1.23-1.327a3.05 3.05 0 0 1 1.697-.51Z"/>
  <rect width="301" height="49" x=".5" y=".5" stroke="#fff" rx="8.5"/>
</svg>
