<svg xmlns="http://www.w3.org/2000/svg" width="300" height="48" fill="none" viewBox="0 0 300 48">
  <rect width="300" height="48" fill="#1DA1F2" rx="8"/>
  <g clip-path="url(#a)">
    <path fill="#fff" d="M124.954 16.382c-.885.398-1.83.67-2.825.794a5.063 5.063 0 0 0 2.163-2.791 9.993 9.993 0 0 1-3.127 1.213A4.845 4.845 0 0 0 117.574 14c-2.717 0-4.92 2.259-4.92 5.041 0 .4.045.785.127 1.153-4.09-.198-7.715-2.212-10.141-5.256a5.04 5.04 0 0 0-.666 2.538 5.08 5.08 0 0 0 2.188 4.2 4.813 4.813 0 0 1-2.228-.632v.062c0 2.445 1.693 4.485 3.946 4.95a4.88 4.88 0 0 1-2.212.086c.631 2.003 2.445 3.463 4.604 3.504a9.715 9.715 0 0 1-7.272 2.09A13.746 13.746 0 0 0 108.557 34c9.054 0 13.999-7.685 13.999-14.34 0-.214 0-.43-.015-.645.961-.707 1.8-1.6 2.46-2.613l-.047-.02Z"/>
  </g>
  <path fill="#fff" d="M139.574 31h-2.724V20.418h-3.49V18.15h9.703v2.268h-3.489V31Zm13.333 0-.756-3.436-1.019-4.342h-.062L149.277 31h-2.882l-2.795-9.826h2.671l1.134 4.35c.182.78.366 1.855.554 3.226h.053c.023-.445.126-1.151.307-2.118l.141-.747 1.213-4.711h2.953l1.151 4.71.106.572a21.564 21.564 0 0 1 .272 1.643c.041.27.065.487.071.651h.052c.053-.422.147-.999.282-1.731a40.62 40.62 0 0 1 .29-1.495l1.177-4.35h2.628L155.825 31h-2.918Zm7.225-12.366c0-.873.486-1.31 1.459-1.31.972 0 1.459.437 1.459 1.31 0 .416-.123.741-.369.975-.241.229-.604.343-1.09.343-.973 0-1.459-.44-1.459-1.318ZM162.927 31h-2.681v-9.826h2.681V31Zm6.961-1.96c.468 0 1.031-.102 1.687-.308v1.995c-.668.3-1.488.449-2.461.449-1.072 0-1.854-.27-2.346-.809-.487-.545-.73-1.36-.73-2.443v-4.738h-1.283v-1.133l1.476-.897.774-2.074h1.714v2.092h2.751v2.012h-2.751v4.738c0 .38.105.662.316.844.217.181.501.272.853.272Zm7.822 0c.469 0 1.031-.102 1.687-.308v1.995c-.668.3-1.488.449-2.46.449-1.073 0-1.855-.27-2.347-.809-.486-.545-.73-1.36-.73-2.443v-4.738h-1.283v-1.133l1.477-.897.773-2.074h1.714v2.092h2.751v2.012h-2.751v4.738c0 .38.105.662.316.844.217.181.501.272.853.272Zm7.752-6.143c-.568 0-1.014.181-1.336.544-.322.358-.507.868-.554 1.53h3.762c-.012-.662-.185-1.172-.519-1.53-.334-.363-.785-.544-1.353-.544Zm.378 8.279c-1.582 0-2.819-.437-3.709-1.31-.891-.873-1.336-2.11-1.336-3.709 0-1.646.41-2.918 1.23-3.814.827-.903 1.966-1.354 3.419-1.354 1.389 0 2.47.396 3.244 1.187.773.79 1.16 1.884 1.16 3.278v1.3h-6.337c.029.763.255 1.357.677 1.785.421.428 1.013.642 1.775.642.592 0 1.151-.062 1.679-.185a8.4 8.4 0 0 0 1.652-.589v2.074c-.469.235-.97.408-1.503.519-.533.117-1.184.176-1.951.176Zm11.672-10.187c.363 0 .665.027.905.08l-.202 2.513a3.074 3.074 0 0 0-.791-.088c-.856 0-1.524.22-2.004.66-.475.439-.712 1.054-.712 1.845V31h-2.681v-9.826h2.031l.395 1.652h.132c.305-.55.715-.993 1.23-1.327a3.05 3.05 0 0 1 1.697-.51Z"/>
  <defs>
    <clipPath id="a">
      <path fill="#fff" d="M101 12h24v24h-24z"/>
    </clipPath>
  </defs>
</svg>
