<svg xmlns="http://www.w3.org/2000/svg" width="300" height="48" fill="none" viewBox="0 0 300 48">
  <rect width="300" height="48" fill="#9146FF" rx="8"/>
  <g clip-path="url(#a)">
    <path fill="#fff" d="m109.667 12-4.167 4.286v15.428h5V36l4.167-4.286H118L125.5 24V12h-15.833Zm14.166 11.143L120.5 26.57h-3.333l-2.917 3v-3h-3.75V13.714h13.333v9.429Z"/>
    <path fill="#fff" d="M121.333 16.714h-1.666v5.143h1.666v-5.143Zm-4.583 0h-1.667v5.143h1.667v-5.143ZM142.074 31h-2.724V20.418h-3.49V18.15h9.703v2.268h-3.489V31Zm13.333 0-.756-3.436-1.019-4.342h-.062L151.777 31h-2.882l-2.795-9.826h2.671l1.134 4.35c.182.78.366 1.855.554 3.226h.053c.023-.445.126-1.151.307-2.118l.141-.747 1.213-4.711h2.953l1.151 4.71.106.572a21.564 21.564 0 0 1 .272 1.643c.041.27.065.487.071.651h.052c.053-.422.147-.999.282-1.731a40.62 40.62 0 0 1 .29-1.495l1.177-4.35h2.628L158.325 31h-2.918Zm7.225-12.366c0-.873.486-1.31 1.459-1.31.972 0 1.459.437 1.459 1.31 0 .416-.123.741-.369.975-.241.229-.604.343-1.09.343-.973 0-1.459-.44-1.459-1.318ZM165.427 31h-2.681v-9.826h2.681V31Zm6.961-1.96c.468 0 1.031-.102 1.687-.308v1.995c-.668.3-1.488.449-2.461.449-1.072 0-1.854-.27-2.346-.809-.487-.545-.73-1.36-.73-2.443v-4.738h-1.283v-1.133l1.476-.897.774-2.074h1.714v2.092h2.751v2.012h-2.751v4.738c0 .38.105.662.316.844.217.181.501.272.853.272Zm7.673 2.136c-3.059 0-4.588-1.679-4.588-5.036 0-1.67.416-2.945 1.248-3.824.832-.884 2.024-1.327 3.577-1.327 1.137 0 2.156.223 3.058.668l-.791 2.074c-.421-.17-.814-.307-1.177-.413a3.706 3.706 0 0 0-1.09-.167c-1.395 0-2.092.99-2.092 2.971 0 1.922.697 2.883 2.092 2.883.515 0 .993-.067 1.432-.202.44-.14.879-.358 1.319-.65v2.293a4.313 4.313 0 0 1-1.319.572c-.439.105-.996.158-1.669.158ZM194.404 31h-2.68v-5.74c0-1.417-.528-2.126-1.582-2.126-.75 0-1.292.255-1.626.764-.334.51-.501 1.336-.501 2.479V31h-2.681V17.324h2.681v2.786c0 .217-.021.727-.062 1.53l-.061.79h.14c.598-.96 1.547-1.44 2.848-1.44 1.154 0 2.03.31 2.628.93.597.622.896 1.513.896 2.673V31Z"/>
  </g>
  <defs>
    <clipPath id="a">
      <path fill="#fff" d="M103.5 11h93v26h-93z"/>
    </clipPath>
  </defs>
</svg>
