<svg xmlns="http://www.w3.org/2000/svg" width="302" height="50" fill="none" viewBox="0 0 302 50">
  <rect width="301" height="49" x=".5" y=".5" fill="#fff" rx="8.5"/>
  <g clip-path="url(#a)">
    <g clip-path="url(#b)">
      <path fill="#000" d="M101 19.75V13h9v6.75h-9Zm9 3.75h7.5V37h-24V23.5h7.5v6.75h9V23.5Z"/>
    </g>
    <path fill="#000" d="M137.576 19.15v8.315c0 .95-.214 1.781-.641 2.496-.422.715-1.035 1.263-1.837 1.644-.803.38-1.752.57-2.848.57-1.652 0-2.936-.421-3.85-1.265-.914-.85-1.371-2.01-1.371-3.48v-8.28h2.716v7.867c0 .99.199 1.716.598 2.18.398.462 1.057.694 1.977.694.891 0 1.535-.232 1.934-.695.404-.469.606-1.2.606-2.197V19.15h2.716ZM149.582 32h-2.681v-5.74c0-.708-.126-1.239-.378-1.59-.252-.358-.653-.536-1.204-.536-.75 0-1.292.252-1.626.756-.334.498-.501 1.327-.501 2.487V32h-2.68v-9.826h2.048l.36 1.257h.149a2.81 2.81 0 0 1 1.231-1.073c.527-.246 1.125-.369 1.793-.369 1.142 0 2.01.31 2.601.932.592.615.888 1.506.888 2.672V32Zm9.615-2.918c0 1.008-.351 1.775-1.054 2.303-.698.527-1.744.79-3.138.79-.715 0-1.324-.049-1.828-.149a6.724 6.724 0 0 1-1.415-.422V29.39c.498.234 1.057.43 1.678.588.627.159 1.178.238 1.653.238.972 0 1.459-.281 1.459-.844a.69.69 0 0 0-.194-.51c-.129-.134-.351-.284-.668-.448-.316-.17-.738-.366-1.265-.589-.756-.316-1.313-.61-1.67-.879a2.548 2.548 0 0 1-.774-.923c-.158-.351-.237-.782-.237-1.292 0-.873.337-1.546 1.011-2.021.68-.48 1.641-.72 2.883-.72 1.183 0 2.335.257 3.454.773l-.809 1.933a14.85 14.85 0 0 0-1.38-.518 4.33 4.33 0 0 0-1.309-.202c-.791 0-1.187.213-1.187.641 0 .24.126.448.378.624.258.176.818.437 1.679.782.767.311 1.33.601 1.687.87.358.27.621.58.791.932.17.352.255.77.255 1.257Zm7.489 3.094c-1.155 0-2.06-.42-2.716-1.257h-.141c.094.82.141 1.295.141 1.424v3.981h-2.681v-14.15h2.18l.378 1.274h.123c.627-.972 1.555-1.459 2.786-1.459 1.16 0 2.068.448 2.724 1.345.657.896.985 2.142.985 3.735 0 1.05-.155 1.96-.466 2.734-.305.773-.741 1.362-1.31 1.766-.568.405-1.236.607-2.003.607Zm-.791-8.042c-.663 0-1.146.205-1.451.615-.304.404-.463 1.075-.474 2.013v.29c0 1.054.155 1.81.466 2.267.316.457.814.686 1.494.686 1.201 0 1.801-.99 1.801-2.97 0-.968-.149-1.691-.448-2.172-.293-.486-.756-.73-1.388-.73ZM175.36 32h-2.68V18.324h2.68V32Zm9.062 0-.519-1.336h-.07c-.451.568-.917.964-1.397 1.187-.475.216-1.096.325-1.864.325-.943 0-1.687-.27-2.232-.809-.539-.539-.809-1.306-.809-2.303 0-1.043.364-1.81 1.09-2.302.733-.498 1.834-.774 3.305-.826l1.705-.053v-.43c0-.997-.51-1.495-1.529-1.495-.786 0-1.708.237-2.769.712l-.888-1.81c1.131-.592 2.385-.888 3.762-.888 1.318 0 2.329.287 3.032.861.703.574 1.055 1.447 1.055 2.62V32h-1.872Zm-.791-4.553-1.037.035c-.78.024-1.36.165-1.74.422-.381.258-.572.65-.572 1.178 0 .756.434 1.134 1.301 1.134.621 0 1.116-.179 1.485-.536.375-.358.563-.832.563-1.424v-.809Zm12.287 1.635c0 1.008-.352 1.775-1.055 2.303-.697.527-1.743.79-3.137.79-.715 0-1.325-.049-1.829-.149a6.76 6.76 0 0 1-1.415-.422V29.39c.498.234 1.058.43 1.679.588.627.159 1.178.238 1.652.238.973 0 1.459-.281 1.459-.844a.689.689 0 0 0-.193-.51c-.129-.134-.351-.284-.668-.448-.316-.17-.738-.366-1.265-.589-.756-.316-1.313-.61-1.67-.879a2.538 2.538 0 0 1-.774-.923c-.158-.351-.237-.782-.237-1.292 0-.873.337-1.546 1.011-2.021.679-.48 1.64-.72 2.882-.72 1.184 0 2.335.257 3.454.773l-.808 1.933a14.85 14.85 0 0 0-1.38-.518 4.336 4.336 0 0 0-1.31-.202c-.791 0-1.186.213-1.186.641 0 .24.126.448.378.624.258.176.817.437 1.679.782.767.311 1.33.601 1.687.87.357.27.621.58.791.932.17.352.255.77.255 1.257ZM207.08 32h-2.681v-5.74c0-1.417-.527-2.126-1.582-2.126-.75 0-1.292.255-1.626.764-.334.51-.501 1.336-.501 2.479V32h-2.68V18.324h2.68v2.786c0 .217-.02.727-.061 1.53l-.062.79h.141c.598-.96 1.547-1.44 2.848-1.44 1.154 0 2.03.31 2.628.93.597.622.896 1.513.896 2.673V32Z"/>
  </g>
  <rect width="301" height="49" x=".5" y=".5" stroke="#212121" rx="8.5"/>
  <defs>
    <clipPath id="a">
      <path fill="#fff" d="M93.5 12h115v26h-115z"/>
    </clipPath>
    <clipPath id="b">
      <path fill="#fff" d="M93.5 13h24v24h-24z"/>
    </clipPath>
  </defs>
</svg>
