<svg xmlns="http://www.w3.org/2000/svg" width="300" height="48" fill="none" viewBox="0 0 300 48">
  <rect width="300" height="48" fill="#FFC000" rx="8"/>
  <g clip-path="url(#a)">
    <g clip-path="url(#b)">
      <path fill="#fff" fill-rule="evenodd" d="m105.461 25.417-5.67 8.126c-.377.378-.944.567-1.322.567-.567-.189-1.512-.378-2.268-.945l-1.512-1.7c-.189-.567-.189-1.134.189-1.512l5.669-8.126 1.134-.945 1.134-.567.567-.567 4.724-4.914v-.188h.189l.189-.19v-.188l.189-.19.945.379.756.755-.189.19-.189.188v.19l-.189.188h-.189a122.35 122.35 0 0 1-3.401 6.803l-.189 1.323c0 .378-.189.945-.567 1.323Zm12.85 4.536-5.858-8.126-1.134-.945-1.134-.567-.567-.567c-.25-.191-.502-.38-.756-.567a96.578 96.578 0 0 1-1.889 3.78v1.133c0 .378.189.945.566 1.323l5.859 8.126c.189.378.756.567 1.134.567.755-.189 1.511-.378 2.267-.945l1.512-1.7v-1.512ZM102.815 15.4l.189.19h.189v.377h.189c.312.569.627 1.136.945 1.701.499-.57 1.003-1.138 1.512-1.7l-.945-1.134v-.19h-.189v-.188h-.189v-.378l-1.134.378-.567.755v.19Z" clip-rule="evenodd"/>
    </g>
    <path fill="#fff" d="M138.576 18.15v8.315c0 .95-.214 1.781-.641 2.496-.422.715-1.035 1.263-1.837 1.644-.803.38-1.752.57-2.848.57-1.652 0-2.936-.421-3.85-1.265-.914-.85-1.371-2.01-1.371-3.48v-8.28h2.716v7.867c0 .99.199 1.716.598 2.18.398.462 1.057.694 1.977.694.891 0 1.535-.232 1.934-.695.404-.469.606-1.2.606-2.197V18.15h2.716ZM150.582 31h-2.681v-5.74c0-.708-.126-1.239-.378-1.59-.252-.358-.653-.536-1.204-.536-.75 0-1.292.252-1.626.756-.334.498-.501 1.327-.501 2.487V31h-2.68v-9.826h2.048l.36 1.257h.149a2.81 2.81 0 0 1 1.231-1.073c.527-.246 1.125-.369 1.793-.369 1.142 0 2.01.31 2.601.932.592.615.888 1.506.888 2.672V31Zm6.899-1.96c.469 0 1.032-.102 1.688-.308v1.995c-.668.3-1.488.449-2.461.449-1.072 0-1.854-.27-2.347-.809-.486-.545-.729-1.36-.729-2.443v-4.738h-1.283v-1.133l1.476-.897.774-2.074h1.713v2.092h2.751v2.012h-2.751v4.738c0 .38.106.662.317.844.217.181.501.272.852.272Zm9.923 1.96-.518-1.336h-.071c-.451.568-.917.964-1.397 1.187-.475.216-1.096.325-1.863.325-.944 0-1.688-.27-2.233-.809-.539-.539-.808-1.306-.808-2.303 0-1.043.363-1.81 1.09-2.302.732-.498 1.834-.774 3.304-.826l1.705-.053v-.43c0-.997-.509-1.495-1.529-1.495-.785 0-1.708.237-2.769.712l-.887-1.81c1.131-.592 2.384-.888 3.761-.888 1.319 0 2.33.287 3.033.861.703.574 1.054 1.447 1.054 2.62V31h-1.872Zm-.791-4.553-1.037.035c-.779.024-1.359.165-1.74.422-.381.258-.571.65-.571 1.178 0 .756.433 1.134 1.3 1.134.622 0 1.117-.179 1.486-.536.375-.358.562-.832.562-1.424v-.809Zm10.828 4.729c-1.154 0-2.059-.42-2.715-1.257h-.141c.094.82.141 1.295.141 1.424v3.981h-2.681v-14.15h2.18l.378 1.274h.123c.627-.972 1.555-1.459 2.786-1.459 1.16 0 2.068.448 2.724 1.345.657.896.985 2.142.985 3.735 0 1.05-.156 1.96-.466 2.734-.305.773-.741 1.362-1.31 1.766-.568.405-1.236.607-2.004.607Zm-.791-8.042c-.662 0-1.145.205-1.45.615-.304.404-.463 1.075-.474 2.013v.29c0 1.054.155 1.81.465 2.267.317.457.815.686 1.495.686 1.201 0 1.801-.99 1.801-2.97 0-.968-.149-1.691-.448-2.172-.293-.486-.756-.73-1.389-.73Zm12.182 8.042c-1.154 0-2.06-.42-2.716-1.257h-.14c.093.82.14 1.295.14 1.424v3.981h-2.68v-14.15h2.179l.378 1.274h.123c.627-.972 1.556-1.459 2.786-1.459 1.16 0 2.069.448 2.725 1.345.656.896.984 2.142.984 3.735 0 1.05-.155 1.96-.465 2.734-.305.773-.742 1.362-1.31 1.766-.568.405-1.236.607-2.004.607Zm-.791-8.042c-.662 0-1.145.205-1.45.615-.305.404-.463 1.075-.475 2.013v.29c0 1.054.155 1.81.466 2.267.316.457.814.686 1.494.686 1.201 0 1.802-.99 1.802-2.97 0-.968-.149-1.691-.448-2.172-.293-.486-.756-.73-1.389-.73Zm9.897 8.042c-1.155 0-2.063-.448-2.725-1.345-.656-.896-.984-2.139-.984-3.726 0-1.612.333-2.866 1.001-3.762.674-.903 1.6-1.354 2.778-1.354 1.236 0 2.18.48 2.83 1.442h.088a10.937 10.937 0 0 1-.202-1.96v-3.147h2.689V31h-2.057l-.518-1.274h-.114c-.61.966-1.538 1.45-2.786 1.45Zm.94-2.136c.685 0 1.186-.2 1.503-.598.322-.398.498-1.075.527-2.03v-.29c0-1.055-.164-1.81-.492-2.267-.322-.457-.85-.686-1.582-.686-.598 0-1.063.255-1.397.765-.329.503-.493 1.239-.493 2.206 0 .966.167 1.693.501 2.18.334.48.812.72 1.433.72Z"/>
  </g>
  <defs>
    <clipPath id="a">
      <path fill="#fff" d="M94.5 11h111v26h-111z"/>
    </clipPath>
    <clipPath id="b">
      <path fill="#fff" d="M94.5 12h24v24h-24z"/>
    </clipPath>
  </defs>
</svg>
