<svg xmlns="http://www.w3.org/2000/svg" width="300" height="48" fill="none" viewBox="0 0 300 48">
  <rect width="300" height="48" fill="#14A800" rx="8"/>
  <g clip-path="url(#a)">
    <g clip-path="url(#b)">
      <path fill="#fff" d="M117.058 16.452c-2.573.012-4.528 1.714-5.26 4.425A23.926 23.926 0 0 1 109.062 15l-2.707.013.037 7.176a2.562 2.562 0 0 1-.745 1.823 2.57 2.57 0 0 1-3.638.018 2.578 2.578 0 0 1-.763-1.816l-.037-7.177-2.709.013.037 7.177c.011 2.979 2.391 5.338 5.303 5.323 2.912-.015 5.271-2.394 5.257-5.373l-.005-1.219a22.988 22.988 0 0 0 1.978 3.24l-1.655 7.929 2.775-.013 1.192-5.76c1.086.672 2.306 1.072 3.728 1.065 2.979-.013 5.405-2.46 5.39-5.576-.014-2.98-2.463-5.405-5.442-5.391Zm.038 8.192c-1.083.005-2.168-.463-3.052-1.205l.266-1.087v-.068c.198-1.153.797-3.119 2.828-3.128a2.717 2.717 0 0 1 2.722 2.696c-.062 1.557-1.342 2.782-2.764 2.788v.004Z"/>
    </g>
    <path fill="#fff" d="M142.576 18.15v8.315c0 .95-.214 1.781-.641 2.496-.422.715-1.035 1.263-1.837 1.644-.803.38-1.752.57-2.848.57-1.652 0-2.936-.421-3.85-1.265-.914-.85-1.371-2.01-1.371-3.48v-8.28h2.716v7.867c0 .99.199 1.716.598 2.18.398.462 1.057.694 1.977.694.891 0 1.535-.232 1.934-.695.404-.469.606-1.2.606-2.197V18.15h2.716Zm8.332 13.026c-1.154 0-2.059-.42-2.716-1.257h-.14c.094.82.14 1.295.14 1.424v3.981h-2.68v-14.15h2.179l.378 1.274h.123c.627-.972 1.556-1.459 2.787-1.459 1.16 0 2.068.448 2.724 1.345.656.896.985 2.142.985 3.735 0 1.05-.156 1.96-.466 2.734-.305.773-.742 1.362-1.31 1.766-.568.405-1.236.607-2.004.607Zm-.791-8.042c-.662 0-1.145.205-1.45.615-.305.404-.463 1.075-.475 2.013v.29c0 1.054.156 1.81.466 2.267.317.457.815.686 1.494.686 1.202 0 1.802-.99 1.802-2.97 0-.968-.149-1.691-.448-2.172-.293-.486-.756-.73-1.389-.73ZM164.979 31l-.755-3.436-1.02-4.342h-.061L161.35 31h-2.883l-2.795-9.826h2.672l1.134 4.35c.181.78.366 1.855.553 3.226h.053c.023-.445.126-1.151.308-2.118l.14-.747 1.213-4.711h2.953l1.152 4.71.105.572a23.721 23.721 0 0 1 .273 1.643c.041.27.064.487.07.651h.053c.052-.422.146-.999.281-1.731.135-.739.231-1.237.29-1.495l1.178-4.35h2.628L167.897 31h-2.918Zm9.475-4.93c0 .972.158 1.707.475 2.205.322.498.843.748 1.564.748.715 0 1.228-.247 1.538-.739.317-.498.475-1.236.475-2.215 0-.972-.158-1.702-.475-2.188-.316-.486-.835-.73-1.555-.73-.715 0-1.231.244-1.547.73-.317.48-.475 1.21-.475 2.188Zm6.794 0c0 1.599-.422 2.85-1.266 3.752-.843.903-2.018 1.354-3.524 1.354-.943 0-1.775-.205-2.496-.615a4.15 4.15 0 0 1-1.661-1.785c-.387-.773-.58-1.675-.58-2.707 0-1.605.419-2.853 1.257-3.744.837-.89 2.015-1.336 3.533-1.336.943 0 1.775.205 2.496.616.721.41 1.274.998 1.661 1.766s.58 1.667.58 2.698Zm7.699-5.08c.364 0 .665.026.906.078l-.203 2.514a3.064 3.064 0 0 0-.791-.088c-.855 0-1.523.22-2.004.66-.474.439-.711 1.054-.711 1.845V31h-2.681v-9.826h2.03l.396 1.652h.132a3.66 3.66 0 0 1 1.23-1.327 3.046 3.046 0 0 1 1.696-.51Zm5.265 4.666 1.169-1.494 2.751-2.988h3.023l-3.902 4.262 4.14 5.564h-3.094l-2.83-3.981-1.152.922V31h-2.68V17.324h2.68v6.1l-.14 2.232h.035Z"/>
  </g>
  <defs>
    <clipPath id="a">
      <path fill="#fff" d="M98.5 11h103v26h-103z"/>
    </clipPath>
    <clipPath id="b">
      <path fill="#fff" d="M98.5 12h24v24h-24z"/>
    </clipPath>
  </defs>
</svg>
