<svg xmlns="http://www.w3.org/2000/svg" width="300" height="48" fill="none" viewBox="0 0 300 48">
  <rect width="300" height="48" fill="#3D95CE" rx="8"/>
  <g clip-path="url(#a)">
    <path fill="#fff" d="M124.261 12a8.934 8.934 0 0 1 1.235 4.798c0 5.983-4.99 13.75-9.035 19.202h-9.255L103.5 13.309l8.096-.783 1.967 16.143c1.826-3.053 4.089-7.856 4.089-11.128 0-1.789-.3-3.008-.765-4.014L124.261 12Zm19.186 6.15h2.751L141.83 31h-2.971L134.5 18.15h2.751l2.417 7.647c.135.451.272.978.413 1.582.147.598.237 1.014.273 1.248.064-.54.284-1.482.659-2.83l2.434-7.647Zm8.236 4.747c-.569 0-1.014.181-1.336.544-.323.358-.507.868-.554 1.53h3.762c-.012-.662-.185-1.172-.519-1.53-.334-.363-.785-.544-1.353-.544Zm.378 8.279c-1.582 0-2.819-.437-3.709-1.31-.891-.873-1.336-2.11-1.336-3.709 0-1.646.41-2.918 1.23-3.814.826-.903 1.966-1.354 3.419-1.354 1.389 0 2.47.396 3.243 1.187.774.79 1.16 1.884 1.16 3.278v1.3h-6.337c.03.763.255 1.357.677 1.785.422.428 1.014.642 1.776.642a7.37 7.37 0 0 0 1.678-.185 8.407 8.407 0 0 0 1.653-.589v2.074c-.469.235-.97.408-1.503.519-.533.117-1.184.176-1.951.176ZM167.318 31h-2.68v-5.74c0-.708-.126-1.239-.378-1.59-.252-.358-.654-.536-1.204-.536-.75 0-1.292.252-1.626.756-.334.498-.501 1.327-.501 2.487V31h-2.681v-9.826h2.048l.36 1.257h.15a2.806 2.806 0 0 1 1.23-1.073c.527-.246 1.125-.369 1.793-.369 1.143 0 2.01.31 2.602.932.591.615.887 1.506.887 2.672V31Zm11.558 0h-2.681v-5.74c0-.708-.12-1.239-.36-1.59-.234-.358-.606-.536-1.116-.536-.686 0-1.184.252-1.494.756-.311.504-.466 1.333-.466 2.487V31h-2.681v-9.826h2.048l.36 1.257h.15a2.69 2.69 0 0 1 1.142-1.055c.498-.258 1.07-.387 1.714-.387 1.471 0 2.467.48 2.988 1.442h.238c.263-.457.65-.812 1.16-1.064.516-.252 1.096-.378 1.74-.378 1.113 0 1.954.287 2.523.862.574.568.861 1.482.861 2.742V31h-2.69v-5.74c0-.708-.12-1.239-.36-1.59-.234-.358-.606-.536-1.116-.536-.656 0-1.148.234-1.477.703-.322.469-.483 1.213-.483 2.232V31Zm11.021-4.93c0 .972.159 1.707.475 2.205.322.498.844.748 1.565.748.714 0 1.227-.247 1.538-.739.316-.498.474-1.236.474-2.215 0-.972-.158-1.702-.474-2.188-.317-.486-.835-.73-1.556-.73-.715 0-1.231.244-1.547.73-.316.48-.475 1.21-.475 2.188Zm6.794 0c0 1.599-.421 2.85-1.265 3.752-.844.903-2.019 1.354-3.525 1.354-.943 0-1.775-.205-2.496-.615a4.156 4.156 0 0 1-1.661-1.785c-.387-.773-.58-1.675-.58-2.707 0-1.605.419-2.853 1.257-3.744.838-.89 2.016-1.336 3.533-1.336.943 0 1.775.205 2.496.616a4.1 4.1 0 0 1 1.661 1.766c.387.768.58 1.667.58 2.698Z"/>
  </g>
  <defs>
    <clipPath id="a">
      <path fill="#fff" d="M102.5 11h95v26h-95z"/>
    </clipPath>
  </defs>
</svg>
