<svg xmlns="http://www.w3.org/2000/svg" width="300" height="48" fill="none" viewBox="0 0 300 48">
  <rect width="300" height="48" fill="#1AB7EA" rx="8"/>
  <g clip-path="url(#a)">
    <g clip-path="url(#b)">
      <path fill="#fff" d="M129.488 18.358c-.106 2.364-1.738 5.6-4.894 9.707-3.263 4.29-6.024 6.435-8.282 6.435-1.399 0-2.583-1.306-3.55-3.92l-1.937-7.184c-.719-2.612-1.489-3.92-2.312-3.92-.18 0-.808.383-1.884 1.144l-1.129-1.472a313.474 313.474 0 0 0 3.503-3.16c1.579-1.38 2.765-2.106 3.555-2.18 1.868-.181 3.018 1.11 3.45 3.875.466 2.983.788 4.838.97 5.564.538 2.475 1.13 3.71 1.778 3.71.502 0 1.257-.802 2.263-2.407 1.005-1.605 1.543-2.827 1.616-3.666.143-1.385-.396-2.08-1.616-2.08-.575 0-1.167.134-1.776.398 1.179-3.908 3.433-5.806 6.759-5.698 2.466.074 3.628 1.691 3.486 4.854Z"/>
    </g>
    <path fill="#fff" d="M146.447 18.15h2.751L144.83 31h-2.971L137.5 18.15h2.751l2.417 7.647c.135.451.272.978.413 1.582.147.598.237 1.014.273 1.248.064-.54.284-1.482.659-2.83l2.434-7.647Zm4.052.484c0-.873.486-1.31 1.459-1.31.973 0 1.459.437 1.459 1.31 0 .416-.123.741-.369.975-.24.229-.604.343-1.09.343-.973 0-1.459-.44-1.459-1.318ZM153.294 31h-2.681v-9.826h2.681V31Zm11.619 0h-2.681v-5.74c0-.708-.12-1.239-.36-1.59-.234-.358-.606-.536-1.116-.536-.686 0-1.184.252-1.494.756-.311.504-.466 1.333-.466 2.487V31h-2.681v-9.826h2.048l.36 1.257h.15a2.696 2.696 0 0 1 1.142-1.055c.498-.258 1.07-.387 1.714-.387 1.471 0 2.467.48 2.989 1.442h.237a2.66 2.66 0 0 1 1.16-1.064c.516-.252 1.096-.378 1.74-.378 1.114 0 1.954.287 2.523.862.574.568.861 1.482.861 2.742V31h-2.689v-5.74c0-.708-.121-1.239-.361-1.59-.234-.358-.606-.536-1.116-.536-.656 0-1.148.234-1.477.703-.322.469-.483 1.213-.483 2.232V31Zm12.955-8.104c-.568 0-1.014.182-1.336.545-.322.358-.507.868-.553 1.53h3.761c-.011-.662-.184-1.172-.518-1.53-.334-.363-.785-.544-1.354-.544Zm.378 8.28c-1.582 0-2.818-.437-3.709-1.31s-1.336-2.11-1.336-3.709c0-1.646.41-2.918 1.231-3.814.826-.903 1.965-1.354 3.419-1.354 1.388 0 2.469.396 3.243 1.187.773.79 1.16 1.884 1.16 3.278v1.3h-6.337c.029.763.255 1.357.677 1.785.422.428 1.013.642 1.775.642.592 0 1.152-.062 1.679-.185a8.4 8.4 0 0 0 1.652-.589v2.074c-.469.235-.97.408-1.503.519-.533.117-1.183.176-1.951.176Zm8.323-5.107c0 .973.159 1.708.475 2.206.322.498.844.748 1.564.748.715 0 1.228-.247 1.538-.739.317-.498.475-1.236.475-2.215 0-.972-.158-1.702-.475-2.188-.316-.486-.834-.73-1.555-.73-.715 0-1.231.244-1.547.73-.316.48-.475 1.21-.475 2.188Zm6.794 0c0 1.6-.422 2.85-1.265 3.753-.844.903-2.019 1.354-3.525 1.354-.943 0-1.775-.205-2.496-.615a4.15 4.15 0 0 1-1.661-1.785c-.387-.773-.58-1.675-.58-2.707 0-1.605.419-2.853 1.257-3.744.838-.89 2.015-1.336 3.533-1.336.943 0 1.775.205 2.496.616.721.41 1.274.998 1.661 1.766s.58 1.667.58 2.698Z"/>
  </g>
  <defs>
    <clipPath id="a">
      <path fill="#fff" d="M105.5 11h89v26h-89z"/>
    </clipPath>
    <clipPath id="b">
      <path fill="#fff" d="M105.5 12h24v24h-24z"/>
    </clipPath>
  </defs>
</svg>
