<svg xmlns="http://www.w3.org/2000/svg" width="302" height="50" fill="none" viewBox="0 0 302 50">
  <rect width="301" height="49" x=".5" y=".5" fill="#fff" rx="8.5"/>
  <g clip-path="url(#a)">
    <path fill="#000" d="M122.1 37.448c-.615-.163-1.04-.573-1.416-1.059-1.25-1.612-2.507-3.22-3.758-4.835-.105-.136-.219-.166-.378-.166-3.713.003-7.425.004-11.138.002-1.457 0-2.613-.876-2.926-2.23a3.784 3.784 0 0 1-.096-.834c-.005-3.946-.007-7.892-.004-11.838-.001-1.777 1.267-3.038 3.052-3.038h17.835c1.754 0 3.006 1.247 3.006 2.999v11.934c0 1.589-.976 2.73-2.551 2.983a.495.495 0 0 0-.079.033v.255l.004 4.244c0 .48-.12.924-.51 1.234-.177.141-.409.214-.617.318l-.424-.002Zm.505-7.102h.647c1.208-.007 1.978-.779 1.978-1.987V16.474c0-1.21-.771-1.98-1.979-1.98h-15.836c-.705 0-1.409-.007-2.114 0-1.047.014-1.849.807-1.85 1.848-.004 4.049-.004 8.097 0 12.145a1.79 1.79 0 0 0 .303 1.018c.408.606.992.846 1.708.843 3.869-.005 7.738-.007 11.607-.006a.435.435 0 0 1 .391.188 1242.89 1242.89 0 0 0 4.004 5.146c.148.202.319.386.508.55.112.092.325.175.43.126.106-.048.141-.263.207-.406a.165.165 0 0 0 .003-.07l-.004-3.727c-.004-.592-.003-1.184-.003-1.803Z"/>
    <path fill="#000" d="M119.353 22.999c.572 1.058 1.127 2.09 1.685 3.119.166.308.167.517-.077.763a1.768 1.768 0 0 1-.571.39c-.402.165-.719.027-.92-.36-.593-1.144-1.186-2.288-1.769-3.438-.083-.164-.173-.23-.357-.218-.273.017-.547.004-.853.004-.004.1-.012.188-.012.278v3.025c0 .407-.136.583-.54.665-.16.034-.325.044-.488.03-.53-.05-.711-.258-.711-.783v-8.181c0-.556.173-.73.729-.73.901 0 1.802-.007 2.702.012.336.009.67.053.997.133 1.047.253 1.694.902 1.868 1.978a3.78 3.78 0 0 1-.079 1.673c-.235.817-.765 1.361-1.604 1.64Zm-2.863-1.1h1.457c.993-.005 1.481-.537 1.405-1.527-.004-.054-.011-.108-.017-.162-.074-.658-.44-1.054-1.097-1.1-.568-.039-1.14-.016-1.71-.018-.011 0-.023.018-.04.033l.002 2.774Zm-6.486 3.17.391-1.384c.532-1.886 1.063-3.773 1.591-5.66.098-.343.248-.474.605-.454.21.011.416.06.61.14.462.195.556.431.409.91-.817 2.672-1.633 5.345-2.448 8.018-.108.356-.324.585-.672.637a3.36 3.36 0 0 1-.95.007c-.365-.052-.595-.288-.708-.66-.82-2.697-1.646-5.39-2.481-8.083-.11-.36-.052-.581.282-.744.251-.12.521-.194.799-.217.334-.029.475.111.569.437l1.921 6.78c.018.072.042.143.082.273Z"/>
  </g>
  <path fill="#000" d="M142.947 19.15h2.751L141.33 32h-2.971L134 19.15h2.751l2.417 7.647c.135.451.272.978.413 1.582.147.598.237 1.014.273 1.248.064-.54.284-1.482.659-2.83l2.434-7.647Zm7.102 5.705h.879c.861 0 1.497-.144 1.907-.431.41-.287.615-.738.615-1.354 0-.61-.211-1.043-.633-1.3-.416-.258-1.063-.387-1.942-.387h-.826v3.472Zm0 2.214V32h-2.725V19.15h3.744c1.746 0 3.038.32 3.876.958.838.633 1.257 1.597 1.257 2.892a3.43 3.43 0 0 1-.624 2.021c-.416.586-1.005 1.046-1.766 1.38A511.524 511.524 0 0 0 157.59 32h-3.024l-3.067-4.93h-1.45Zm14.616-5.836c-1.025 0-1.819.387-2.382 1.16-.562.768-.844 1.84-.844 3.217 0 2.866 1.076 4.298 3.226 4.298.902 0 1.995-.225 3.278-.677v2.286c-1.054.44-2.232.659-3.533.659-1.869 0-3.299-.566-4.289-1.697-.99-1.136-1.485-2.765-1.485-4.886 0-1.336.243-2.505.729-3.507.487-1.008 1.184-1.778 2.092-2.312.914-.539 1.983-.808 3.208-.808 1.248 0 2.502.302 3.762.905l-.879 2.215a14.628 14.628 0 0 0-1.45-.598 4.33 4.33 0 0 0-1.433-.255ZM179.545 32h-2.681v-5.74c0-1.417-.527-2.126-1.582-2.126-.75 0-1.292.255-1.626.764-.334.51-.501 1.336-.501 2.479V32h-2.68V18.324h2.68v2.786c0 .217-.02.727-.061 1.53l-.062.79h.141c.598-.96 1.547-1.44 2.848-1.44 1.154 0 2.03.31 2.627.93.598.622.897 1.513.897 2.673V32Zm9 0-.519-1.336h-.07c-.451.568-.917.964-1.397 1.187-.475.216-1.096.325-1.864.325-.943 0-1.687-.27-2.232-.809-.539-.539-.809-1.306-.809-2.303 0-1.043.364-1.81 1.09-2.302.733-.498 1.834-.774 3.305-.826l1.705-.053v-.43c0-.997-.51-1.495-1.529-1.495-.786 0-1.708.237-2.769.712l-.888-1.81c1.131-.592 2.385-.888 3.762-.888 1.318 0 2.329.287 3.032.861.703.574 1.055 1.447 1.055 2.62V32h-1.872Zm-.791-4.553-1.037.035c-.779.024-1.36.165-1.74.422-.381.258-.572.65-.572 1.178 0 .756.434 1.134 1.301 1.134.621 0 1.116-.179 1.485-.536.375-.358.563-.832.563-1.424v-.809Zm9.571 2.593c.469 0 1.031-.102 1.688-.308v1.995c-.668.3-1.489.449-2.461.449-1.073 0-1.855-.27-2.347-.809-.486-.545-.729-1.36-.729-2.443v-4.738h-1.284v-1.133l1.477-.897.773-2.074h1.714v2.092h2.751v2.012h-2.751v4.738c0 .38.106.662.317.844.216.181.501.272.852.272Z"/>
  <rect width="301" height="49" x=".5" y=".5" stroke="#212121" rx="8.5"/>
  <defs>
    <clipPath id="a">
      <path fill="#fff" d="M102 13h24v24h-24z"/>
    </clipPath>
  </defs>
</svg>
