<svg xmlns="http://www.w3.org/2000/svg" width="302" height="50" fill="none" viewBox="0 0 302 50">
  <rect width="301" height="49" x=".5" y=".5" fill="#000" rx="8.5"/>
  <g clip-path="url(#a)">
    <path fill="#fff" d="M134.993 24.619c-.197-6.324-5.287-11.415-11.61-11.612V13h-.763v.007c-6.323.197-11.412 5.288-11.61 11.612H111v.763h.01c.042 1.322.296 2.59.732 3.771l-.01.005.291.705.007-.003c1.816 4.096 5.857 6.986 10.591 7.133V37h.763v-.007c6.322-.197 11.412-5.287 11.61-11.612H135v-.763h-.007Zm-3.439 0a8.517 8.517 0 0 0-.532-2.533l2.476-1.1c.445 1.161.69 2.38.732 3.633h-2.676Zm-4.924 8.245a8.593 8.593 0 0 0 2.204-1.487l1.835 1.836c-.94.879-2.01 1.582-3.188 2.095l-.851-2.444Zm-8.477 2.276a11.182 11.182 0 0 1-2.821-1.93l1.836-1.835a8.58 8.58 0 0 0 1.974 1.377l-.989 2.388Zm1.058-17.724a8.59 8.59 0 0 0-1.938 1.315l-1.941-1.941a11.182 11.182 0 0 1 2.821-1.93l1.058 2.556Zm8.24-2.737c1.19.514 2.27 1.222 3.218 2.109l-1.941 1.942a8.571 8.571 0 0 0-2.334-1.497l1.056-2.553h.001Zm1.821 4.586 1.937-1.938a11.198 11.198 0 0 1 1.992 2.956l-2.479 1.101a8.597 8.597 0 0 0-1.45-2.12Zm-3.233-1.355a7.74 7.74 0 0 1 2.149 1.36l-1.567 1.567a5.495 5.495 0 0 0-3.238-1.34v-2.191a7.736 7.736 0 0 1 2.656.604Zm.324 10.454a4.723 4.723 0 0 1-3.362 1.393 4.72 4.72 0 0 1-3.361-1.393 4.725 4.725 0 0 1-1.393-3.362c0-1.27.495-2.464 1.393-3.363a4.72 4.72 0 0 1 3.361-1.392c1.27 0 2.464.494 3.362 1.392a4.725 4.725 0 0 1 1.393 3.363c0 1.27-.495 2.464-1.393 3.362Zm-3.743-8.867a5.495 5.495 0 0 0-3.24 1.341l-1.567-1.567a7.76 7.76 0 0 1 4.807-1.966v2.192Zm-5.891-.23a8.596 8.596 0 0 0-1.487 2.2l-2.491-1.073a11.175 11.175 0 0 1 2.041-3.065l1.937 1.937Zm-.918 2.797a7.774 7.774 0 0 1 1.458-2.258l1.572 1.572a5.498 5.498 0 0 0-1.343 3.241h-2.285a7.755 7.755 0 0 1 .598-2.555Zm1.687 3.318a5.493 5.493 0 0 0 1.341 3.241l-1.666 1.667a7.764 7.764 0 0 1-1.969-4.908h2.294Zm.209 5.453 1.672-1.672a5.492 5.492 0 0 0 3.241 1.343v2.39a7.767 7.767 0 0 1-4.913-2.062Zm5.676-.329a5.492 5.492 0 0 0 3.239-1.341l1.671 1.672a7.756 7.756 0 0 1-4.91 2.06v-2.39Zm5.985.326a8.55 8.55 0 0 0 1.403-2.12l2.423 1.02a11.184 11.184 0 0 1-1.986 2.94l-1.84-1.84Zm.824-2.693a7.782 7.782 0 0 1-1.364 2.153l-1.666-1.667a5.494 5.494 0 0 0 1.343-3.244h2.294a7.743 7.743 0 0 1-.607 2.758Zm-1.687-3.52a5.492 5.492 0 0 0-1.345-3.243l1.572-1.572a7.784 7.784 0 0 1 2.058 4.814h-2.285ZM126.74 14.4l-1.059 2.56a8.534 8.534 0 0 0-2.298-.419V13.77c1.154.039 2.279.25 3.357.63Zm-4.12 2.141a8.52 8.52 0 0 0-2.71.567l-1.058-2.555a11.144 11.144 0 0 1 3.768-.784v2.772ZM112.462 21.1l2.488 1.072a8.557 8.557 0 0 0-.501 2.447h-2.675c.04-1.211.271-2.392.688-3.519Zm-.688 4.282h2.666a8.56 8.56 0 0 0 .447 2.471l-2.439 1.009a11.15 11.15 0 0 1-.674-3.48Zm3.391 3.183a8.569 8.569 0 0 0 1.468 2.266l-1.84 1.84a11.173 11.173 0 0 1-2.058-3.102l2.43-1.004Zm3.687 6.88.986-2.38a8.52 8.52 0 0 0 2.782.596v2.57a11.144 11.144 0 0 1-3.768-.785Zm4.531-1.784a8.533 8.533 0 0 0 2.541-.503l.847 2.431a11.15 11.15 0 0 1-3.388.641v-2.57Zm10.109-4.632-2.43-1.021a8.552 8.552 0 0 0 .501-2.626h2.667a11.14 11.14 0 0 1-.738 3.647Z"/>
  </g>
  <path fill="#fff" d="M151.947 19.15h2.751L150.33 32h-2.971L143 19.15h2.751l2.417 7.647c.135.451.272.978.413 1.582.147.598.237 1.014.273 1.248.064-.54.284-1.482.659-2.83l2.434-7.647Zm11.962 9.282c0 1.16-.419 2.074-1.257 2.742-.832.668-1.992 1.002-3.48 1.002-1.371 0-2.584-.258-3.639-.774v-2.53c.867.386 1.6.658 2.197.817a6.573 6.573 0 0 0 1.653.237c.597 0 1.055-.114 1.371-.343.322-.228.483-.568.483-1.02 0-.252-.07-.474-.211-.668a2.258 2.258 0 0 0-.624-.57c-.269-.182-.823-.473-1.661-.87-.785-.37-1.374-.724-1.766-1.064a3.996 3.996 0 0 1-.941-1.187c-.234-.451-.351-.978-.351-1.582 0-1.137.383-2.03 1.151-2.68.773-.651 1.84-.976 3.199-.976.668 0 1.304.079 1.907.237.61.158 1.246.381 1.908.668l-.879 2.118c-.686-.281-1.254-.477-1.705-.589a5.43 5.43 0 0 0-1.319-.167c-.515 0-.911.12-1.186.36-.276.241-.413.555-.413.941 0 .24.055.451.167.633.111.176.287.349.527.518.246.165.823.463 1.731.897 1.202.574 2.025 1.151 2.47 1.732.446.574.668 1.28.668 2.118Zm7.787-7.199c-1.025 0-1.819.387-2.382 1.16-.562.768-.843 1.84-.843 3.217 0 2.866 1.075 4.298 3.225 4.298.903 0 1.995-.225 3.279-.677v2.286c-1.055.44-2.233.659-3.534.659-1.869 0-3.298-.566-4.289-1.697-.99-1.136-1.485-2.765-1.485-4.886 0-1.336.243-2.505.729-3.507.487-1.008 1.184-1.778 2.092-2.312.914-.539 1.984-.808 3.208-.808 1.248 0 2.502.302 3.762.905l-.879 2.215a14.53 14.53 0 0 0-1.45-.598 4.326 4.326 0 0 0-1.433-.255Zm17.684 4.325c0 2.127-.527 3.761-1.582 4.904-1.055 1.143-2.567 1.714-4.535 1.714-1.969 0-3.481-.572-4.535-1.714-1.055-1.143-1.582-2.783-1.582-4.922s.527-3.77 1.582-4.895c1.06-1.131 2.578-1.697 4.552-1.697 1.975 0 3.484.569 4.527 1.705 1.048 1.137 1.573 2.772 1.573 4.905Zm-9.378 0c0 1.435.272 2.516.817 3.243.545.726 1.36 1.09 2.444 1.09 2.174 0 3.26-1.445 3.26-4.333 0-2.895-1.081-4.342-3.243-4.342-1.084 0-1.901.366-2.452 1.098-.551.727-.826 1.808-.826 3.244Z"/>
  <rect width="301" height="49" x=".5" y=".5" stroke="#fff" rx="8.5"/>
  <defs>
    <clipPath id="a">
      <path fill="#fff" d="M111 13h24v24h-24z"/>
    </clipPath>
  </defs>
</svg>
