<svg xmlns="http://www.w3.org/2000/svg" width="300" height="48" fill="none" viewBox="0 0 300 48">
  <rect width="300" height="48" fill="#2457F5" rx="8"/>
  <g clip-path="url(#a)">
    <g clip-path="url(#b)">
      <g clip-path="url(#c)">
        <path fill="#fff" d="m69.477 15.359-.712 2.424-.388-1.233h-.954l-.388 1.233-.712-2.424-.96.282 1.176 4 .956.01.405-1.286.405 1.285.956-.009 1.176-4-.96-.282Zm5.6 0-.712 2.424-.388-1.233h-.954l-.388 1.233-.712-2.424-.96.282 1.176 4 .956.01.405-1.286.405 1.285.956-.009 1.176-4-.96-.282Zm5.6 0-.712 2.424-.388-1.233h-.954l-.388 1.233-.712-2.424-.96.282 1.175 4 .957.01.405-1.286.405 1.285.956-.009 1.176-4-.96-.282Z"/>
        <path fill="#fff" d="M84.5 13.5h-22v4.35a10.38 10.38 0 0 0-2 6.15c0 2.77 1.07 5.38 3.01 7.35A10.398 10.398 0 0 0 71 34.5c2.843 0 5.503-1.119 7.49-3.149A10.411 10.411 0 0 0 81.5 24c0-.848-.105-1.685-.304-2.5H84.5v-8Zm-22 6.265V21.5h2.833a18.77 18.77 0 0 0-.156 2H61.52c.067-1.314.4-2.577.98-3.735Zm-.976 4.735h3.656c.04 1.582.262 3.063.636 4.375-.684.391-1.325.866-1.916 1.413a9.387 9.387 0 0 1-2.376-5.788Zm3.078 6.5c.475-.437.987-.82 1.53-1.146.47 1.282 1.097 2.35 1.831 3.143A9.393 9.393 0 0 1 64.602 31Zm5.898 2.446c-1.413-.301-2.666-1.86-3.456-4.077a9.408 9.408 0 0 1 3.456-.844v4.92Zm0-5.921a10.412 10.412 0 0 0-3.76.881 16.629 16.629 0 0 1-.56-3.906h4.32v3.025Zm0-4.025h-4.323c.018-.679.074-1.348.166-2H70.5v2Zm1 9.946v-4.921a9.395 9.395 0 0 1 3.456.844c-.79 2.216-2.043 3.776-3.456 4.077Zm4.32-8.946a16.629 16.629 0 0 1-.56 3.906 10.414 10.414 0 0 0-3.76-.881V24.5h4.32Zm-4.32-1v-2h4.157c.092.652.148 1.321.166 2H71.5Zm2.537 9.497c.734-.793 1.36-1.861 1.832-3.144A9.53 9.53 0 0 1 77.399 31a9.39 9.39 0 0 1-3.362 1.997Zm4.063-2.709a10.478 10.478 0 0 0-1.916-1.413c.374-1.312.596-2.793.636-4.375h3.656a9.39 9.39 0 0 1-2.376 5.788ZM76.823 23.5a18.766 18.766 0 0 0-.156-2h3.493a9.47 9.47 0 0 1 .321 2h-3.658Zm6.677-3h-20v-6h20v6Z"/>
      </g>
    </g>
    <path fill="#fff" d="M98.995 23.784h5.098v6.662a14.03 14.03 0 0 1-2.338.563c-.727.111-1.471.167-2.233.167-1.939 0-3.421-.569-4.447-1.705-1.02-1.143-1.53-2.78-1.53-4.913 0-2.075.593-3.692 1.776-4.852 1.19-1.16 2.836-1.74 4.94-1.74 1.318 0 2.59.264 3.814.79l-.905 2.18a6.468 6.468 0 0 0-2.927-.703c-1.178 0-2.12.396-2.83 1.187-.709.79-1.063 1.854-1.063 3.19 0 1.395.284 2.461.852 3.2.574.732 1.406 1.098 2.496 1.098.569 0 1.146-.058 1.732-.176v-2.68h-2.435v-2.268Zm12.024-.887c-.569 0-1.014.181-1.336.544-.323.358-.507.868-.554 1.53h3.762c-.012-.662-.185-1.172-.519-1.53-.334-.363-.785-.544-1.353-.544Zm.377 8.279c-1.582 0-2.818-.437-3.708-1.31-.891-.873-1.336-2.11-1.336-3.709 0-1.646.41-2.918 1.23-3.814.826-.903 1.966-1.354 3.419-1.354 1.389 0 2.47.396 3.243 1.187.774.79 1.16 1.884 1.16 3.278v1.3h-6.337c.03.763.255 1.357.677 1.785.422.428 1.014.642 1.776.642a7.37 7.37 0 0 0 1.678-.185 8.407 8.407 0 0 0 1.653-.589v2.074c-.469.235-.97.408-1.503.519-.534.117-1.184.176-1.952.176ZM126.654 31h-2.68v-5.74c0-.708-.126-1.239-.378-1.59-.252-.358-.654-.536-1.204-.536-.75 0-1.292.252-1.626.756-.334.498-.501 1.327-.501 2.487V31h-2.681v-9.826h2.048l.36 1.257h.15a2.806 2.806 0 0 1 1.23-1.073c.527-.246 1.125-.369 1.793-.369 1.143 0 2.01.31 2.602.932.591.615.887 1.506.887 2.672V31Zm6.829-8.104c-.568 0-1.013.182-1.336.545-.322.358-.506.868-.553 1.53h3.761c-.011-.662-.184-1.172-.518-1.53-.334-.363-.785-.544-1.354-.544Zm.378 8.28c-1.582 0-2.818-.437-3.709-1.31-.89-.873-1.336-2.11-1.336-3.709 0-1.646.411-2.918 1.231-3.814.826-.903 1.966-1.354 3.419-1.354 1.388 0 2.47.396 3.243 1.187.773.79 1.16 1.884 1.16 3.278v1.3h-6.337c.03.763.255 1.357.677 1.785.422.428 1.014.642 1.775.642.592 0 1.152-.062 1.679-.185a8.4 8.4 0 0 0 1.652-.589v2.074a6.136 6.136 0 0 1-1.503.519c-.533.117-1.183.176-1.951.176Zm11.672-10.187c.363 0 .665.027.905.08l-.202 2.513a3.064 3.064 0 0 0-.791-.088c-.855 0-1.523.22-2.004.66-.474.439-.712 1.054-.712 1.845V31h-2.68v-9.826h2.03l.396 1.652h.131c.305-.55.715-.993 1.231-1.327a3.046 3.046 0 0 1 1.696-.51Zm2.575-2.355c0-.873.487-1.31 1.459-1.31.973 0 1.459.437 1.459 1.31 0 .416-.123.741-.369.975-.24.229-.603.343-1.09.343-.972 0-1.459-.44-1.459-1.318ZM150.903 31h-2.68v-9.826h2.68V31Zm6.812.176c-3.059 0-4.588-1.679-4.588-5.036 0-1.67.416-2.945 1.248-3.824.832-.884 2.024-1.327 3.577-1.327 1.137 0 2.156.223 3.059.668l-.791 2.074c-.422-.17-.815-.307-1.178-.413a3.701 3.701 0 0 0-1.09-.167c-1.394 0-2.092.99-2.092 2.971 0 1.922.698 2.883 2.092 2.883.516 0 .993-.067 1.433-.202a5.3 5.3 0 0 0 1.318-.65v2.293a4.308 4.308 0 0 1-1.318.572c-.44.105-.996.158-1.67.158ZM180.391 31h-3.103l-1.74-6.75c-.065-.24-.176-.735-.334-1.485-.152-.756-.24-1.263-.264-1.52-.035.316-.123.825-.263 1.528a33.426 33.426 0 0 1-.326 1.495L172.63 31h-3.094l-3.278-12.85h2.68l1.644 7.014a42.05 42.05 0 0 1 .624 3.366c.035-.334.114-.85.237-1.547a17.76 17.76 0 0 1 .361-1.634l1.872-7.199h2.575l1.872 7.199c.082.322.185.814.308 1.476s.216 1.23.281 1.705c.059-.457.152-1.025.281-1.705.129-.685.246-1.24.352-1.66l1.634-7.015h2.681L180.391 31Zm8.745-8.104c-.569 0-1.014.182-1.336.545-.322.358-.507.868-.554 1.53h3.762c-.012-.662-.185-1.172-.519-1.53-.334-.363-.785-.544-1.353-.544Zm.378 8.28c-1.582 0-2.819-.437-3.709-1.31-.891-.873-1.336-2.11-1.336-3.709 0-1.646.41-2.918 1.23-3.814.826-.903 1.966-1.354 3.419-1.354 1.389 0 2.47.396 3.243 1.187.774.79 1.16 1.884 1.16 3.278v1.3h-6.336c.029.763.254 1.357.676 1.785.422.428 1.014.642 1.776.642.592 0 1.151-.062 1.678-.185a8.384 8.384 0 0 0 1.653-.589v2.074c-.469.235-.97.408-1.503.519-.533.117-1.184.176-1.951.176Zm11.654-10.187c1.16 0 2.068.454 2.725 1.363.656.902.984 2.141.984 3.717 0 1.623-.34 2.88-1.02 3.77-.673.892-1.593 1.337-2.759 1.337-1.155 0-2.06-.42-2.716-1.257h-.185L197.749 31h-2.048V17.324h2.681v3.182c0 .404-.035 1.052-.106 1.942h.106c.627-.972 1.556-1.459 2.786-1.459Zm-.861 2.145c-.662 0-1.146.205-1.451.615-.304.404-.462 1.075-.474 2.013v.29c0 1.054.155 1.81.466 2.267.316.457.814.686 1.494.686.551 0 .987-.252 1.309-.756.328-.51.493-1.248.493-2.215 0-.967-.165-1.69-.493-2.17-.328-.487-.776-.73-1.344-.73Zm13.64 4.948c0 1.008-.351 1.775-1.054 2.303-.698.527-1.744.79-3.138.79-.715 0-1.324-.049-1.828-.149a6.724 6.724 0 0 1-1.415-.421V28.39c.498.234 1.057.43 1.678.588.627.159 1.178.238 1.653.238.972 0 1.459-.281 1.459-.844a.69.69 0 0 0-.194-.51c-.129-.134-.351-.284-.668-.448-.316-.17-.738-.366-1.265-.589-.756-.316-1.313-.61-1.67-.879a2.548 2.548 0 0 1-.774-.923c-.158-.351-.237-.782-.237-1.292 0-.873.337-1.546 1.011-2.021.68-.48 1.641-.72 2.883-.72 1.183 0 2.335.257 3.454.773l-.809 1.933a14.85 14.85 0 0 0-1.38-.518 4.33 4.33 0 0 0-1.309-.202c-.791 0-1.187.213-1.187.641 0 .24.126.448.378.624.258.176.818.437 1.679.782.767.311 1.33.601 1.687.87.358.27.621.58.791.932.17.352.255.77.255 1.257Zm1.978-9.448c0-.873.486-1.31 1.459-1.31.972 0 1.459.437 1.459 1.31 0 .416-.123.741-.369.975-.241.229-.604.343-1.09.343-.973 0-1.459-.44-1.459-1.318ZM218.72 31h-2.681v-9.826h2.681V31Zm6.961-1.96c.468 0 1.031-.102 1.687-.308v1.995c-.668.3-1.488.449-2.461.449-1.072 0-1.854-.27-2.346-.809-.487-.545-.73-1.36-.73-2.443v-4.738h-1.283v-1.133l1.476-.897.774-2.074h1.714v2.092h2.751v2.012h-2.751v4.738c0 .38.105.662.316.844.217.181.501.272.853.272Zm7.752-6.143c-.569 0-1.014.181-1.336.544-.323.358-.507.868-.554 1.53h3.762c-.012-.662-.185-1.172-.519-1.53-.334-.363-.785-.544-1.353-.544Zm.378 8.279c-1.582 0-2.819-.437-3.709-1.31-.891-.873-1.336-2.11-1.336-3.709 0-1.646.41-2.918 1.23-3.814.826-.903 1.966-1.354 3.419-1.354 1.389 0 2.47.396 3.243 1.187.774.79 1.16 1.884 1.16 3.278v1.3h-6.337c.03.763.255 1.357.677 1.785.422.428 1.014.642 1.776.642a7.37 7.37 0 0 0 1.678-.185 8.407 8.407 0 0 0 1.653-.589v2.074c-.469.235-.97.408-1.503.519-.533.117-1.184.176-1.951.176Z"/>
  </g>
  <defs>
    <clipPath id="a">
      <path fill="#fff" d="M60.5 11h179v26h-179z"/>
    </clipPath>
    <clipPath id="b">
      <path fill="#fff" d="M60.5 12h24v24h-24z"/>
    </clipPath>
    <clipPath id="c">
      <path fill="#fff" d="M60.5 12h24v24h-24z"/>
    </clipPath>
  </defs>
</svg>
