<svg xmlns="http://www.w3.org/2000/svg" width="300" height="48" fill="none" viewBox="0 0 300 48">
  <rect width="300" height="48" fill="#455A64" rx="8"/>
  <g clip-path="url(#a)">
    <g clip-path="url(#b)">
      <path fill="#fff" d="m87.561 35.989 1.687-6.158a11.859 11.859 0 0 1-1.59-5.94c0-6.553 5.334-11.88 11.886-11.88a11.888 11.888 0 0 1 11.889 11.89c0 6.553-5.335 11.882-11.886 11.882h-.005a11.88 11.88 0 0 1-5.68-1.446l-6.3 1.652Zm6.593-3.804.361.214a9.864 9.864 0 0 0 5.028 1.377c5.448 0 9.877-4.43 9.879-9.876a9.88 9.88 0 0 0-9.871-9.883c-5.448 0-9.88 4.43-9.883 9.875a9.85 9.85 0 0 0 1.51 5.256l.237.374-1 3.644 3.74-.98Z"/>
      <path fill="url(#c)" d="M87.974 35.574 89.6 29.63a11.449 11.449 0 0 1-1.531-5.735c0-6.325 5.15-11.47 11.474-11.47a11.471 11.471 0 0 1 11.474 11.48c0 6.324-5.149 11.47-11.473 11.47h-.006c-1.915 0-3.8-.48-5.482-1.396l-6.083 1.595Z"/>
      <path fill="url(#d)" d="m87.561 35.989 1.687-6.158a11.859 11.859 0 0 1-1.59-5.94c0-6.553 5.334-11.88 11.886-11.88a11.888 11.888 0 0 1 11.889 11.89c0 6.553-5.335 11.882-11.886 11.882h-.005a11.88 11.88 0 0 1-5.68-1.446l-6.3 1.652Zm6.593-3.804.361.214a9.864 9.864 0 0 0 5.028 1.377c5.448 0 9.877-4.43 9.879-9.876a9.88 9.88 0 0 0-9.871-9.883c-5.448 0-9.88 4.43-9.883 9.875a9.85 9.85 0 0 0 1.51 5.256l.237.374-1 3.644 3.74-.98Z"/>
      <path fill="#fff" fill-rule="evenodd" d="M96.579 18.925c-.223-.495-.457-.505-.669-.514-.173-.007-.37-.007-.569-.007a1.091 1.091 0 0 0-.79.372c-.276.297-1.043 1.015-1.043 2.477 0 1.461 1.064 2.873 1.212 3.072.149.198 2.053 3.292 5.074 4.482 2.508.99 3.019.79 3.563.743.545-.047 1.757-.718 2.005-1.412.248-.693.247-1.288.173-1.412-.075-.124-.273-.198-.57-.346-.296-.149-1.756-.869-2.029-.967-.272-.098-.473-.148-.668.15-.195.297-.767.965-.94 1.163-.174.198-.346.224-.644.075-.298-.148-1.253-.462-2.388-1.474-.883-.79-1.479-1.76-1.652-2.056-.174-.297-.019-.458.13-.607.134-.132.297-.346.446-.52a2.04 2.04 0 0 0 .297-.495.547.547 0 0 0-.025-.52c-.075-.149-.652-1.617-.913-2.204Z" clip-rule="evenodd"/>
    </g>
    <path fill="#fff" d="M133.633 31h-3.103l-1.74-6.75a35.89 35.89 0 0 1-.334-1.485c-.152-.756-.24-1.263-.264-1.52-.035.316-.123.825-.263 1.528a35.362 35.362 0 0 1-.325 1.495L125.872 31h-3.094L119.5 18.15h2.681l1.643 7.014a42.05 42.05 0 0 1 .624 3.366c.035-.334.114-.85.238-1.547.128-.703.249-1.248.36-1.634l1.872-7.199h2.575l1.872 7.199c.082.322.185.814.308 1.476s.217 1.23.281 1.705c.059-.457.152-1.025.281-1.705.129-.685.246-1.24.352-1.66l1.635-7.015h2.68L133.633 31Zm13.746 0h-2.681v-5.74c0-1.417-.527-2.126-1.582-2.126-.75 0-1.292.255-1.626.764-.334.51-.501 1.336-.501 2.479V31h-2.68V17.324h2.68v2.786c0 .217-.02.727-.061 1.53l-.062.79h.141c.597-.96 1.547-1.44 2.847-1.44 1.155 0 2.031.31 2.628.93.598.622.897 1.513.897 2.673V31Zm9 0-.519-1.336h-.07c-.451.568-.917.964-1.397 1.187-.475.216-1.096.325-1.864.325-.943 0-1.687-.27-2.232-.809-.539-.539-.809-1.306-.809-2.303 0-1.043.364-1.81 1.09-2.302.733-.498 1.834-.774 3.305-.826l1.705-.053v-.43c0-.997-.51-1.495-1.529-1.495-.786 0-1.708.237-2.769.712l-.888-1.81c1.131-.592 2.385-.888 3.762-.888 1.318 0 2.329.287 3.032.861.703.574 1.055 1.447 1.055 2.62V31h-1.872Zm-.791-4.553-1.037.035c-.78.024-1.36.165-1.74.422-.381.258-.572.65-.572 1.178 0 .756.434 1.134 1.301 1.134.621 0 1.116-.179 1.485-.536.375-.358.563-.832.563-1.424v-.809Zm9.571 2.593c.469 0 1.031-.102 1.688-.308v1.995c-.668.3-1.489.449-2.461.449-1.073 0-1.855-.27-2.347-.809-.486-.545-.729-1.36-.729-2.443v-4.738h-1.284v-1.133l1.477-.897.773-2.074h1.714v2.092h2.751v2.012h-2.751v4.738c0 .38.106.662.317.844.216.181.501.272.852.272Zm10.538-.958c0 1.008-.351 1.775-1.054 2.303-.698.527-1.744.79-3.138.79-.715 0-1.324-.049-1.828-.149a6.724 6.724 0 0 1-1.415-.421V28.39c.498.234 1.057.43 1.678.588.627.159 1.178.238 1.653.238.972 0 1.459-.281 1.459-.844a.69.69 0 0 0-.194-.51c-.129-.134-.351-.284-.668-.448-.316-.17-.738-.366-1.265-.589-.756-.316-1.313-.61-1.67-.879a2.548 2.548 0 0 1-.774-.923c-.158-.351-.237-.782-.237-1.292 0-.873.337-1.546 1.011-2.021.68-.48 1.641-.72 2.883-.72 1.183 0 2.335.257 3.454.773l-.809 1.933a14.85 14.85 0 0 0-1.38-.518 4.33 4.33 0 0 0-1.309-.202c-.791 0-1.187.213-1.187.641 0 .24.126.448.378.624.258.176.818.437 1.679.782.767.311 1.33.601 1.687.87.358.27.621.58.791.932.17.352.255.77.255 1.257ZM185.866 31l-.931-3.059h-4.685L179.318 31h-2.935l4.535-12.902h3.331L188.802 31h-2.936Zm-1.582-5.344c-.861-2.771-1.347-4.339-1.459-4.702a15.13 15.13 0 0 1-.228-.861c-.194.75-.747 2.604-1.661 5.563h3.348Zm11.329 5.52c-1.154 0-2.059-.42-2.716-1.257h-.14c.094.82.14 1.295.14 1.424v3.981h-2.68v-14.15h2.179l.378 1.274h.123c.627-.972 1.556-1.459 2.787-1.459 1.16 0 2.068.448 2.724 1.345.656.896.985 2.142.985 3.735 0 1.05-.156 1.96-.466 2.734-.305.773-.741 1.362-1.31 1.766-.568.405-1.236.607-2.004.607Zm-.791-8.042c-.662 0-1.145.205-1.45.615-.305.404-.463 1.075-.475 2.013v.29c0 1.054.156 1.81.466 2.267.317.457.815.686 1.494.686 1.202 0 1.802-.99 1.802-2.97 0-.968-.149-1.691-.448-2.172-.293-.486-.756-.73-1.389-.73Zm12.182 8.042c-1.154 0-2.06-.42-2.716-1.257h-.141c.094.82.141 1.295.141 1.424v3.981h-2.681v-14.15h2.18l.378 1.274h.123c.627-.972 1.556-1.459 2.786-1.459 1.16 0 2.069.448 2.725 1.345.656.896.984 2.142.984 3.735 0 1.05-.155 1.96-.466 2.734-.304.773-.741 1.362-1.309 1.766-.569.405-1.237.607-2.004.607Zm-.791-8.042c-.662 0-1.146.205-1.45.615-.305.404-.463 1.075-.475 2.013v.29c0 1.054.155 1.81.466 2.267.316.457.814.686 1.494.686 1.201 0 1.802-.99 1.802-2.97 0-.968-.15-1.691-.448-2.172-.293-.486-.756-.73-1.389-.73Z"/>
  </g>
  <defs>
    <linearGradient id="c" x1="99.497" x2="99.497" y1="35.574" y2="12.425" gradientUnits="userSpaceOnUse">
      <stop stop-color="#20B038"/>
      <stop offset="1" stop-color="#60D66A"/>
    </linearGradient>
    <linearGradient id="d" x1="99.497" x2="99.497" y1="35.989" y2="12.01" gradientUnits="userSpaceOnUse">
      <stop stop-color="#F9F9F9"/>
      <stop offset="1" stop-color="#fff"/>
    </linearGradient>
    <clipPath id="a">
      <path fill="#fff" d="M87.5 11h125v26h-125z"/>
    </clipPath>
    <clipPath id="b">
      <path fill="#fff" d="M87.5 12h24v24h-24z"/>
    </clipPath>
  </defs>
</svg>
