<svg xmlns="http://www.w3.org/2000/svg" width="300" height="48" fill="none" viewBox="0 0 300 48">
  <rect width="300" height="48" fill="#21759B" rx="8"/>
  <g clip-path="url(#a)">
    <g clip-path="url(#b)">
      <path fill="#fff" d="M97.5 12c-6.613 0-12 5.381-12 12 0 6.613 5.387 12 12 12s12-5.387 12-12c0-6.619-5.387-12-12-12ZM86.71 24c0-1.563.337-3.05.934-4.39l5.147 14.102c-3.6-1.755-6.08-5.445-6.08-9.712ZM97.5 34.79c-1.061 0-2.08-.155-3.05-.443l3.237-9.408 3.312 9.088c.026.053.048.101.08.149a10.71 10.71 0 0 1-3.579.613Zm1.488-15.846c.65-.032 1.232-.101 1.232-.101.581-.07.512-.923-.069-.891 0 0-1.75.133-2.875.133-1.061 0-2.843-.133-2.843-.133-.581-.032-.65.859-.069.89 0 0 .55.07 1.13.102l1.68 4.608-2.362 7.077-3.93-11.685c.65-.032 1.231-.101 1.231-.101.582-.07.512-.923-.069-.891 0 0-1.75.133-2.875.133-.202 0-.442-.005-.698-.016 1.93-2.928 5.242-4.864 9.013-4.864 2.805 0 5.365 1.072 7.285 2.832-.048-.005-.09-.01-.138-.01-1.062 0-1.808.922-1.808 1.914 0 .891.512 1.643 1.061 2.528.411.715.891 1.643.891 2.976 0 .923-.352 1.995-.822 3.488l-1.072 3.595-3.893-11.584Zm3.936 14.379 3.296-9.526c.613-1.541.821-2.768.821-3.866 0-.395-.026-.763-.074-1.11A10.759 10.759 0 0 1 108.289 24c0 3.984-2.154 7.456-5.365 9.323Z"/>
    </g>
    <path fill="#fff" d="M131.633 31h-3.103l-1.74-6.75a35.89 35.89 0 0 1-.334-1.485c-.152-.756-.24-1.263-.264-1.52-.035.316-.123.825-.263 1.528a35.362 35.362 0 0 1-.325 1.495L123.872 31h-3.094L117.5 18.15h2.681l1.643 7.014a42.05 42.05 0 0 1 .624 3.366c.035-.334.114-.85.238-1.547.128-.703.249-1.248.36-1.634l1.872-7.199h2.575l1.872 7.199c.082.322.185.814.308 1.476s.217 1.23.281 1.705c.059-.457.152-1.025.281-1.705.129-.685.246-1.24.352-1.66l1.635-7.015h2.68L131.633 31Zm6.811-4.93c0 .972.159 1.707.475 2.205.322.498.844.748 1.564.748.715 0 1.228-.247 1.538-.739.317-.498.475-1.236.475-2.215 0-.972-.158-1.702-.475-2.188-.316-.486-.834-.73-1.555-.73-.715 0-1.231.244-1.547.73-.316.48-.475 1.21-.475 2.188Zm6.794 0c0 1.599-.422 2.85-1.265 3.752-.844.903-2.019 1.354-3.525 1.354-.943 0-1.775-.205-2.496-.615a4.15 4.15 0 0 1-1.661-1.785c-.387-.773-.58-1.675-.58-2.707 0-1.605.419-2.853 1.257-3.744.838-.89 2.015-1.336 3.533-1.336.943 0 1.775.205 2.496.616.721.41 1.274.998 1.661 1.766s.58 1.667.58 2.698Zm7.7-5.08c.363 0 .665.026.905.078l-.202 2.514a3.074 3.074 0 0 0-.791-.088c-.856 0-1.524.22-2.004.66-.475.439-.712 1.054-.712 1.845V31h-2.681v-9.826h2.03l.396 1.652h.132a3.67 3.67 0 0 1 1.23-1.327 3.05 3.05 0 0 1 1.697-.51Zm5.8 10.186c-1.154 0-2.062-.448-2.724-1.345-.657-.896-.985-2.139-.985-3.726 0-1.612.334-2.866 1.002-3.762.674-.903 1.6-1.354 2.778-1.354 1.236 0 2.179.48 2.83 1.442h.088a10.946 10.946 0 0 1-.203-1.96v-3.147h2.69V31h-2.057l-.518-1.274h-.115c-.609.966-1.538 1.45-2.786 1.45Zm.941-2.136c.685 0 1.186-.2 1.503-.598.322-.398.498-1.075.527-2.03v-.29c0-1.055-.164-1.81-.492-2.267-.322-.457-.85-.686-1.582-.686-.598 0-1.064.255-1.398.765-.328.503-.492 1.239-.492 2.206 0 .966.167 1.693.501 2.18.334.48.812.72 1.433.72Zm10.274-4.843h.897c.838 0 1.464-.164 1.88-.492.416-.334.624-.817.624-1.45 0-.639-.175-1.11-.527-1.415-.346-.305-.89-.457-1.635-.457h-1.239v3.814Zm6.152-2.039c0 1.383-.433 2.44-1.3 3.173-.862.733-2.089 1.099-3.683 1.099h-1.169V31h-2.724V18.15h4.104c1.559 0 2.742.337 3.551 1.011.814.668 1.221 1.667 1.221 2.997Zm7.7-1.169c.363 0 .665.027.905.08l-.202 2.513a3.074 3.074 0 0 0-.791-.088c-.856 0-1.524.22-2.004.66-.475.439-.712 1.054-.712 1.845V31h-2.681v-9.826h2.031l.395 1.652h.132c.305-.55.715-.993 1.23-1.327a3.05 3.05 0 0 1 1.697-.51Zm6.758 1.907c-.568 0-1.013.182-1.335.545-.323.358-.507.868-.554 1.53h3.762c-.012-.662-.185-1.172-.519-1.53-.334-.363-.785-.544-1.354-.544Zm.378 8.28c-1.582 0-2.818-.437-3.709-1.31-.89-.873-1.336-2.11-1.336-3.709 0-1.646.411-2.918 1.231-3.814.826-.903 1.966-1.354 3.419-1.354 1.389 0 2.47.396 3.243 1.187.773.79 1.16 1.884 1.16 3.278v1.3h-6.337c.03.763.255 1.357.677 1.785.422.428 1.014.642 1.775.642.592 0 1.152-.062 1.679-.185a8.407 8.407 0 0 0 1.653-.589v2.074c-.469.235-.97.408-1.503.519-.534.117-1.184.176-1.952.176Zm13.043-3.094c0 1.008-.351 1.775-1.054 2.303-.698.527-1.743.79-3.138.79-.715 0-1.324-.049-1.828-.149a6.724 6.724 0 0 1-1.415-.421V28.39a9.35 9.35 0 0 0 1.679.588c.626.159 1.177.238 1.652.238.973 0 1.459-.281 1.459-.844a.693.693 0 0 0-.193-.51c-.129-.134-.352-.284-.668-.448-.317-.17-.739-.366-1.266-.589-.756-.316-1.313-.61-1.67-.879a2.535 2.535 0 0 1-.773-.923c-.159-.351-.238-.782-.238-1.292 0-.873.337-1.546 1.011-2.021.68-.48 1.641-.72 2.883-.72 1.183 0 2.335.257 3.454.773l-.809 1.933a14.85 14.85 0 0 0-1.38-.518 4.33 4.33 0 0 0-1.309-.202c-.791 0-1.187.213-1.187.641 0 .24.126.448.378.624.258.176.818.437 1.679.782.768.311 1.33.601 1.687.87.358.27.622.58.791.932.17.352.255.77.255 1.257Zm8.948 0c0 1.008-.352 1.775-1.055 2.303-.697.527-1.743.79-3.138.79-.715 0-1.324-.049-1.828-.149a6.742 6.742 0 0 1-1.415-.421V28.39c.498.234 1.058.43 1.679.588.627.159 1.178.238 1.652.238.973 0 1.459-.281 1.459-.844a.689.689 0 0 0-.193-.51c-.129-.134-.352-.284-.668-.448a15.57 15.57 0 0 0-1.266-.589c-.756-.316-1.312-.61-1.67-.879a2.545 2.545 0 0 1-.773-.923c-.158-.351-.237-.782-.237-1.292 0-.873.336-1.546 1.01-2.021.68-.48 1.641-.72 2.883-.72 1.184 0 2.335.257 3.454.773l-.808 1.933a15.08 15.08 0 0 0-1.38-.518 4.34 4.34 0 0 0-1.31-.202c-.791 0-1.186.213-1.186.641 0 .24.126.448.378.624.257.176.817.437 1.678.782.768.311 1.33.601 1.688.87.357.27.621.58.791.932.17.352.255.77.255 1.257Z"/>
  </g>
  <defs>
    <clipPath id="a">
      <path fill="#fff" d="M85.5 11h129v26h-129z"/>
    </clipPath>
    <clipPath id="b">
      <path fill="#fff" d="M85.5 12h24v24h-24z"/>
    </clipPath>
  </defs>
</svg>
