<svg xmlns="http://www.w3.org/2000/svg" width="300" height="48" fill="none" viewBox="0 0 300 48">
  <rect width="300" height="48" fill="#026466" rx="8"/>
  <path fill="#fff" d="M117.83 16.865c-.2 0-.4.1-.5.2-.1.1-.1.3 0 .5l2.3 4-3.6 6.4c-.1.2-.1.4 0 .5.1.1.2.2.4.2h3.4c.5 0 .8-.3.9-.7 0 0 3.5-6.2 3.7-6.5l-2.3-4.1c-.2-.3-.4-.6-.9-.6h-3.4v.1Zm14.2-4.6c-.5 0-.7.3-.9.6 0 0-7.3 13-7.6 13.4l4.8 8.9c.2.3.4.6.9.6h3.4c.2 0 .4-.1.5-.2.1-.1.1-.3 0-.5l-4.8-8.8 7.5-13.3c.1-.2.1-.4 0-.5-.1-.1-.2-.2-.5-.2h-3.3ZM158.006 31h-3.111l-2.989-4.86-2.988 4.86H146l4.263-6.627-3.991-6.223h3.006l2.769 4.623 2.716-4.623h2.935l-4.034 6.373L158.006 31Zm1.292-12.366c0-.873.486-1.31 1.459-1.31.972 0 1.459.437 1.459 1.31 0 .416-.123.741-.369.975-.241.229-.604.343-1.09.343-.973 0-1.459-.44-1.459-1.318ZM162.093 31h-2.681v-9.826h2.681V31Zm11.891 0h-2.68v-5.74c0-.708-.126-1.239-.378-1.59-.252-.358-.654-.536-1.204-.536-.75 0-1.292.252-1.626.756-.334.498-.501 1.327-.501 2.487V31h-2.681v-9.826h2.048l.36 1.257h.15a2.812 2.812 0 0 1 1.23-1.073c.527-.246 1.125-.369 1.793-.369 1.143 0 2.01.31 2.602.932.591.615.887 1.506.887 2.672V31Zm11.312-9.826v1.362l-1.538.396c.281.44.422.931.422 1.476 0 1.055-.369 1.878-1.108 2.47-.732.586-1.752.879-3.058.879l-.484-.027-.395-.044c-.276.212-.413.446-.413.704 0 .386.492.58 1.476.58h1.67c1.078 0 1.899.231 2.461.694.568.463.853 1.143.853 2.04 0 1.148-.481 2.038-1.442 2.671-.955.633-2.329.95-4.122.95-1.371 0-2.42-.241-3.146-.722-.721-.474-1.081-1.142-1.081-2.003 0-.592.184-1.087.553-1.486.369-.398.911-.682 1.626-.852a1.807 1.807 0 0 1-.72-.572 1.387 1.387 0 0 1-.308-.852c0-.375.108-.686.325-.932.217-.252.53-.498.941-.738a2.663 2.663 0 0 1-1.231-1.072c-.299-.492-.448-1.073-.448-1.74 0-1.073.349-1.902 1.046-2.488.697-.586 1.693-.879 2.988-.879.275 0 .601.027.976.08.381.046.624.081.729.105h3.428Zm-7.585 11.215c0 .369.176.659.527.87.358.21.856.316 1.494.316.961 0 1.714-.132 2.259-.395.545-.264.818-.624.818-1.081 0-.37-.162-.624-.484-.765-.322-.14-.82-.211-1.494-.211h-1.389c-.492 0-.905.114-1.239.343-.328.234-.492.542-.492.923Zm.976-7.998c0 .533.12.955.36 1.265.246.31.618.466 1.116.466.504 0 .873-.155 1.108-.466.234-.31.351-.732.351-1.265 0-1.184-.486-1.776-1.459-1.776-.984 0-1.476.592-1.476 1.776Z"/>
</svg>
