<svg xmlns="http://www.w3.org/2000/svg" width="302" height="50" fill="none" viewBox="0 0 302 50">
  <rect width="301" height="49" x=".5" y=".5" fill="#000" rx="8.5"/>
  <g clip-path="url(#a)">
    <g clip-path="url(#b)">
      <path fill="red" d="M118.998 19.154a3.022 3.022 0 0 0-2.122-2.147c-1.87-.507-9.376-.507-9.376-.507s-7.505 0-9.376.507a3.024 3.024 0 0 0-2.122 2.147C95.5 21.05 95.5 25 95.5 25s0 3.951.502 5.846a3.024 3.024 0 0 0 2.122 2.147c1.87.507 9.376.507 9.376.507s7.506 0 9.376-.507a3.022 3.022 0 0 0 2.122-2.147C119.5 28.95 119.5 25 119.5 25s0-3.951-.502-5.846Z"/>
      <path fill="#fff" d="M105.045 28.588 111.318 25l-6.273-3.588v7.176Z"/>
    </g>
    <path fill="#fff" d="m133.116 24.441 2.681-5.29h2.935l-4.262 7.848V32h-2.707v-4.913L127.5 19.15h2.953l2.663 5.291Zm9.158 2.628c0 .973.159 1.708.475 2.206.322.498.844.748 1.564.748.715 0 1.228-.247 1.539-.739.316-.498.474-1.236.474-2.215 0-.972-.158-1.702-.474-2.188-.317-.486-.835-.73-1.556-.73-.715 0-1.231.244-1.547.73-.316.48-.475 1.21-.475 2.188Zm6.794 0c0 1.6-.422 2.85-1.265 3.753-.844.903-2.019 1.354-3.525 1.354-.943 0-1.775-.205-2.496-.616a4.156 4.156 0 0 1-1.661-1.784c-.387-.773-.58-1.675-.58-2.707 0-1.605.419-2.853 1.257-3.744.838-.89 2.015-1.336 3.533-1.336.943 0 1.775.205 2.496.616a4.1 4.1 0 0 1 1.661 1.766c.387.768.58 1.667.58 2.698ZM158.244 32l-.36-1.257h-.141a2.853 2.853 0 0 1-1.222 1.064c-.527.246-1.127.369-1.801.369-1.155 0-2.025-.308-2.611-.923-.586-.621-.879-1.512-.879-2.672v-6.407h2.681v5.74c0 .708.126 1.241.378 1.599.252.351.653.527 1.204.527.75 0 1.292-.249 1.626-.747.334-.504.501-1.336.501-2.496v-4.623h2.681V32h-2.057Zm10.037 0h-2.724V21.418h-3.49V19.15h9.704v2.268h-3.49V32Zm12.217 0-.36-1.257h-.141a2.853 2.853 0 0 1-1.222 1.064c-.527.246-1.128.369-1.801.369-1.155 0-2.025-.308-2.611-.923-.586-.621-.879-1.512-.879-2.672v-6.407h2.681v5.74c0 .708.126 1.241.378 1.599.252.351.653.527 1.204.527.75 0 1.292-.249 1.626-.747.334-.504.501-1.336.501-2.496v-4.623h2.681V32h-2.057Zm10.336-10.01c1.16 0 2.068.453 2.725 1.362.656.902.984 2.141.984 3.717 0 1.623-.34 2.88-1.02 3.77-.673.892-1.593 1.337-2.759 1.337-1.155 0-2.06-.42-2.716-1.257h-.185L187.415 32h-2.048V18.324h2.681v3.182c0 .404-.035 1.052-.106 1.942h.106c.627-.972 1.556-1.459 2.786-1.459Zm-.861 2.144c-.662 0-1.146.205-1.451.615-.304.404-.462 1.075-.474 2.013v.29c0 1.054.155 1.81.466 2.267.316.457.814.686 1.494.686.551 0 .987-.252 1.309-.756.329-.51.493-1.248.493-2.215 0-.967-.164-1.69-.493-2.17-.328-.487-.776-.73-1.344-.73Zm10.854-.238c-.568 0-1.014.182-1.336.545-.322.358-.507.868-.553 1.53h3.761c-.011-.662-.184-1.172-.518-1.53-.334-.363-.785-.544-1.354-.544Zm.378 8.28c-1.582 0-2.818-.437-3.709-1.31s-1.336-2.11-1.336-3.709c0-1.646.41-2.918 1.231-3.814.826-.903 1.965-1.354 3.419-1.354 1.388 0 2.469.396 3.243 1.187.773.79 1.16 1.884 1.16 3.278v1.3h-6.337c.029.763.255 1.357.677 1.785.422.428 1.013.642 1.775.642.592 0 1.151-.062 1.679-.185a8.4 8.4 0 0 0 1.652-.589v2.074c-.469.235-.97.408-1.503.519-.533.117-1.183.176-1.951.176Z"/>
  </g>
  <rect width="301" height="49" x=".5" y=".5" stroke="#fff" rx="8.5"/>
  <defs>
    <clipPath id="a">
      <path fill="#fff" d="M95.5 12h111v26h-111z"/>
    </clipPath>
    <clipPath id="b">
      <path fill="#fff" d="M95.5 13h24v24h-24z"/>
    </clipPath>
  </defs>
</svg>
