<svg xmlns="http://www.w3.org/2000/svg" width="302" height="50" fill="none" viewBox="0 0 302 50">
  <rect width="301" height="49" x=".5" y=".5" fill="#000" rx="8.5"/>
  <g clip-path="url(#a)">
    <path fill="red" d="M79 37c6.627 0 12-5.373 12-12s-5.373-12-12-12-12 5.373-12 12 5.373 12 12 12Z"/>
    <path fill="#fff" d="M79 19.273A5.735 5.735 0 0 1 84.727 25 5.727 5.727 0 0 1 79 30.727 5.727 5.727 0 0 1 73.273 25 5.735 5.735 0 0 1 79 19.273Zm0-.546a6.274 6.274 0 1 0 .002 12.547A6.274 6.274 0 0 0 79 18.727Z"/>
    <path fill="#fff" d="m76.818 28.137 5.318-3.273-5.318-3v6.273Z"/>
  </g>
  <path fill="#fff" d="m104.616 24.441 2.681-5.29h2.935l-4.262 7.848V32h-2.707v-4.913L99 19.15h2.953l2.663 5.291Zm9.158 2.628c0 .973.159 1.708.475 2.206.322.498.844.748 1.564.748.715 0 1.228-.247 1.539-.739.316-.498.474-1.236.474-2.215 0-.972-.158-1.702-.474-2.188-.317-.486-.835-.73-1.556-.73-.715 0-1.231.244-1.547.73-.316.48-.475 1.21-.475 2.188Zm6.794 0c0 1.6-.422 2.85-1.265 3.753-.844.903-2.019 1.354-3.525 1.354-.943 0-1.775-.205-2.496-.616a4.156 4.156 0 0 1-1.661-1.784c-.387-.773-.58-1.675-.58-2.707 0-1.605.419-2.853 1.257-3.744.838-.89 2.015-1.336 3.533-1.336.943 0 1.775.205 2.496.616a4.1 4.1 0 0 1 1.661 1.766c.387.768.58 1.667.58 2.698ZM129.744 32l-.36-1.257h-.141a2.853 2.853 0 0 1-1.222 1.064c-.527.246-1.127.369-1.801.369-1.155 0-2.025-.308-2.611-.923-.586-.621-.879-1.512-.879-2.672v-6.407h2.681v5.74c0 .708.126 1.241.378 1.599.252.351.653.527 1.204.527.75 0 1.292-.249 1.626-.747.334-.504.501-1.336.501-2.496v-4.623h2.681V32h-2.057Zm10.037 0h-2.724V21.418h-3.49V19.15h9.704v2.268h-3.49V32Zm12.217 0-.36-1.257h-.141a2.853 2.853 0 0 1-1.222 1.064c-.527.246-1.128.369-1.801.369-1.155 0-2.025-.308-2.611-.923-.586-.621-.879-1.512-.879-2.672v-6.407h2.681v5.74c0 .708.126 1.241.378 1.599.252.351.653.527 1.204.527.75 0 1.292-.249 1.626-.747.334-.504.501-1.336.501-2.496v-4.623h2.681V32h-2.057Zm10.336-10.01c1.16 0 2.068.453 2.725 1.362.656.902.984 2.141.984 3.717 0 1.623-.34 2.88-1.02 3.77-.673.892-1.593 1.337-2.759 1.337-1.155 0-2.06-.42-2.716-1.257h-.185L158.915 32h-2.048V18.324h2.681v3.182c0 .404-.035 1.052-.106 1.942h.106c.627-.972 1.556-1.459 2.786-1.459Zm-.861 2.144c-.662 0-1.146.205-1.451.615-.304.404-.462 1.075-.474 2.013v.29c0 1.054.155 1.81.466 2.267.316.457.814.686 1.494.686.551 0 .987-.252 1.309-.756.329-.51.493-1.248.493-2.215 0-.967-.164-1.69-.493-2.17-.328-.487-.776-.73-1.344-.73Zm10.854-.238c-.568 0-1.014.182-1.336.545-.322.358-.507.868-.553 1.53h3.761c-.011-.662-.184-1.172-.518-1.53-.334-.363-.785-.544-1.354-.544Zm.378 8.28c-1.582 0-2.818-.437-3.709-1.31s-1.336-2.11-1.336-3.709c0-1.646.41-2.918 1.231-3.814.826-.903 1.965-1.354 3.419-1.354 1.388 0 2.469.396 3.243 1.187.773.79 1.16 1.884 1.16 3.278v1.3h-6.337c.029.763.255 1.357.677 1.785.422.428 1.013.642 1.775.642.592 0 1.151-.062 1.679-.185a8.4 8.4 0 0 0 1.652-.589v2.074c-.469.235-.97.408-1.503.519-.533.117-1.183.176-1.951.176ZM189.22 32l-3.094-10.081h-.079c.111 2.05.167 3.419.167 4.104V32h-2.435V19.15h3.709l3.041 9.827h.053l3.226-9.827h3.709V32h-2.54v-6.082c0-.287.002-.618.008-.993.012-.375.053-1.371.123-2.989h-.079L191.716 32h-2.496Zm18.29 0-.361-1.257h-.14a2.858 2.858 0 0 1-1.222 1.064c-.527.246-1.128.369-1.802.369-1.154 0-2.024-.308-2.61-.923-.586-.621-.879-1.512-.879-2.672v-6.407h2.681v5.74c0 .708.126 1.241.378 1.599.252.351.653.527 1.204.527.75 0 1.292-.249 1.626-.747.334-.504.501-1.336.501-2.496v-4.623h2.68V32h-2.056Zm11.724-2.918c0 1.008-.351 1.775-1.054 2.303-.698.527-1.743.79-3.138.79-.715 0-1.324-.049-1.828-.149a6.724 6.724 0 0 1-1.415-.422V29.39a9.35 9.35 0 0 0 1.679.588c.626.159 1.177.238 1.652.238.973 0 1.459-.281 1.459-.844a.693.693 0 0 0-.193-.51c-.129-.134-.352-.284-.668-.448-.317-.17-.739-.366-1.266-.589-.756-.316-1.313-.61-1.67-.879a2.535 2.535 0 0 1-.773-.923c-.159-.351-.238-.782-.238-1.292 0-.873.337-1.546 1.011-2.021.68-.48 1.641-.72 2.883-.72 1.183 0 2.335.257 3.454.773l-.809 1.933a14.85 14.85 0 0 0-1.38-.518 4.33 4.33 0 0 0-1.309-.202c-.791 0-1.187.213-1.187.641 0 .24.126.448.378.624.258.176.818.437 1.679.782.768.311 1.33.601 1.687.87.358.27.622.58.791.932.17.352.255.77.255 1.257Zm1.978-9.448c0-.873.486-1.31 1.459-1.31.973 0 1.459.437 1.459 1.31 0 .416-.123.741-.369.975-.24.229-.604.343-1.09.343-.973 0-1.459-.44-1.459-1.318ZM224.007 32h-2.681v-9.826h2.681V32Zm6.811.176c-3.058 0-4.588-1.679-4.588-5.036 0-1.67.416-2.945 1.249-3.824.832-.884 2.024-1.327 3.577-1.327 1.136 0 2.156.223 3.058.668l-.791 2.074a12.53 12.53 0 0 0-1.177-.413 3.706 3.706 0 0 0-1.09-.167c-1.395 0-2.092.99-2.092 2.971 0 1.922.697 2.883 2.092 2.883.515 0 .993-.067 1.432-.202.44-.14.879-.358 1.319-.65v2.293a4.313 4.313 0 0 1-1.319.572c-.439.105-.996.158-1.67.158Z"/>
  <rect width="301" height="49" x=".5" y=".5" stroke="#fff" rx="8.5"/>
  <defs>
    <clipPath id="a">
      <path fill="#fff" d="M67 13h24v24H67z"/>
    </clipPath>
  </defs>
</svg>
