<svg xmlns="http://www.w3.org/2000/svg" width="302" height="50" fill="none" viewBox="0 0 302 50">
  <rect width="301" height="49" x=".5" y=".5" fill="#0B5CFF" rx="8.5"/>
  <path fill="#fff" d="M66.5 30.75A2.25 2.25 0 0 1 64.25 33H54.5a4.5 4.5 0 0 1-4.5-4.5v-8.25A2.25 2.25 0 0 1 52.25 18H62a4.5 4.5 0 0 1 4.5 4.5v8.25Zm5.7-11.4-3.3 2.475a2.25 2.25 0 0 0-.9 1.8v3.75c0 .708.334 1.375.9 1.8l3.3 2.475c.742.556 1.8.027 1.8-.9v-10.5a1.125 1.125 0 0 0-1.8-.9Zm10.072 16.43c-.615 0-1.15-.065-1.608-.194v-2.268c.469.117.897.176 1.283.176.598 0 1.026-.187 1.284-.562.257-.37.386-.95.386-1.74V19.15h2.725v12.024c0 1.5-.343 2.642-1.028 3.428-.686.785-1.7 1.177-3.041 1.177Zm9.229-8.71c0 .972.158 1.707.475 2.205.322.498.843.748 1.564.748.715 0 1.228-.247 1.538-.739.316-.498.475-1.236.475-2.215 0-.972-.159-1.702-.475-2.188-.316-.486-.835-.73-1.556-.73-.714 0-1.23.244-1.546.73-.317.48-.475 1.21-.475 2.188Zm6.794 0c0 1.599-.422 2.85-1.266 3.752-.843.903-2.018 1.354-3.524 1.354-.944 0-1.775-.205-2.496-.616a4.15 4.15 0 0 1-1.661-1.784c-.387-.773-.58-1.675-.58-2.707 0-1.605.418-2.853 1.256-3.744.838-.89 2.016-1.336 3.534-1.336.943 0 1.775.205 2.496.616a4.1 4.1 0 0 1 1.66 1.766c.388.768.58 1.667.58 2.698Zm2.101-7.436c0-.873.486-1.31 1.458-1.31.973 0 1.459.437 1.459 1.31 0 .416-.123.741-.369.975-.24.229-.603.343-1.09.343-.972 0-1.458-.44-1.458-1.318ZM103.19 32h-2.68v-9.826h2.68V32Zm11.892 0h-2.681v-5.74c0-.708-.126-1.239-.378-1.59-.252-.358-.653-.536-1.204-.536-.75 0-1.292.252-1.626.756-.334.498-.501 1.327-.501 2.487V32h-2.68v-9.826h2.048l.36 1.257h.149a2.81 2.81 0 0 1 1.231-1.073c.527-.246 1.125-.369 1.793-.369 1.142 0 2.01.31 2.601.932.592.615.888 1.506.888 2.672V32Zm16.022 0h-9.562v-1.767l6.161-8.833h-5.994v-2.25h9.229v1.758l-6.153 8.842h6.319V32Zm3.973-4.93c0 .972.158 1.707.475 2.205.322.498.844.748 1.564.748.715 0 1.228-.247 1.538-.739.317-.498.475-1.236.475-2.215 0-.972-.158-1.702-.475-2.188-.316-.486-.835-.73-1.555-.73-.715 0-1.231.244-1.547.73-.317.48-.475 1.21-.475 2.188Zm6.794 0c0 1.599-.422 2.85-1.266 3.752-.843.903-2.018 1.354-3.524 1.354-.943 0-1.775-.205-2.496-.616a4.15 4.15 0 0 1-1.661-1.784c-.387-.773-.58-1.675-.58-2.707 0-1.605.419-2.853 1.257-3.744.837-.89 2.015-1.336 3.533-1.336.943 0 1.775.205 2.496.616.721.41 1.274.998 1.661 1.766s.58 1.667.58 2.698Zm4.351 0c0 .972.158 1.707.474 2.205.323.498.844.748 1.565.748.715 0 1.227-.247 1.538-.739.316-.498.474-1.236.474-2.215 0-.972-.158-1.702-.474-2.188-.317-.486-.835-.73-1.556-.73-.715 0-1.23.244-1.547.73-.316.48-.474 1.21-.474 2.188Zm6.794 0c0 1.599-.422 2.85-1.266 3.752-.844.903-2.019 1.354-3.524 1.354-.944 0-1.776-.205-2.497-.616a4.156 4.156 0 0 1-1.661-1.784c-.386-.773-.58-1.675-.58-2.707 0-1.605.419-2.853 1.257-3.744.838-.89 2.016-1.336 3.533-1.336.944 0 1.776.205 2.496.616.721.41 1.275.998 1.662 1.766.386.768.58 1.667.58 2.698ZM164.028 32h-2.68v-5.74c0-.708-.12-1.239-.361-1.59-.234-.358-.606-.536-1.116-.536-.685 0-1.183.252-1.494.756-.311.504-.466 1.333-.466 2.487V32h-2.681v-9.826h2.048l.361 1.257h.149a2.699 2.699 0 0 1 1.143-1.055c.498-.258 1.069-.387 1.714-.387 1.47 0 2.466.48 2.988 1.442h.237a2.664 2.664 0 0 1 1.16-1.064c.516-.252 1.096-.378 1.741-.378 1.113 0 1.954.287 2.522.862.574.568.861 1.482.861 2.742V32h-2.689v-5.74c0-.708-.12-1.239-.361-1.59-.234-.358-.606-.536-1.116-.536-.656 0-1.148.234-1.476.703-.323.469-.484 1.213-.484 2.232V32Zm26.288 0h-3.102l-1.74-6.75c-.065-.24-.176-.735-.334-1.485-.153-.756-.241-1.263-.264-1.52-.035.316-.123.825-.264 1.528-.14.698-.249 1.196-.325 1.495L182.556 32h-3.094l-3.278-12.85h2.68l1.644 7.014a42.05 42.05 0 0 1 .624 3.366c.035-.334.114-.85.237-1.547.129-.703.249-1.248.36-1.634l1.873-7.199h2.575l1.872 7.199c.082.322.184.814.307 1.476s.217 1.23.282 1.705a29.11 29.11 0 0 1 .281-1.705c.129-.685.246-1.24.352-1.66l1.634-7.015h2.681L190.316 32Zm8.746-8.104c-.569 0-1.014.182-1.336.545-.323.358-.507.868-.554 1.53h3.762c-.012-.662-.185-1.172-.519-1.53-.334-.363-.785-.544-1.353-.544Zm.377 8.28c-1.582 0-2.818-.437-3.709-1.31-.89-.873-1.335-2.11-1.335-3.709 0-1.646.41-2.918 1.23-3.814.826-.903 1.966-1.354 3.419-1.354 1.389 0 2.47.396 3.243 1.187.774.79 1.16 1.884 1.16 3.278v1.3h-6.337c.03.763.255 1.357.677 1.785.422.428 1.014.642 1.775.642.592 0 1.152-.062 1.679-.185a8.407 8.407 0 0 0 1.653-.589v2.074c-.469.235-.97.408-1.503.519-.534.117-1.184.176-1.952.176Zm11.655-10.187c1.16 0 2.068.454 2.724 1.363.657.902.985 2.141.985 3.717 0 1.623-.34 2.88-1.02 3.77-.674.892-1.594 1.337-2.76 1.337-1.154 0-2.059-.42-2.715-1.257h-.185L207.675 32h-2.048V18.324h2.681v3.182c0 .404-.036 1.052-.106 1.942h.106c.627-.972 1.555-1.459 2.786-1.459Zm-.862 2.145c-.662 0-1.145.205-1.45.615-.304.404-.463 1.075-.474 2.013v.29c0 1.054.155 1.81.465 2.267.317.457.815.686 1.495.686.55 0 .987-.252 1.309-.756.328-.51.492-1.248.492-2.215 0-.967-.164-1.69-.492-2.17-.328-.487-.776-.73-1.345-.73Zm6.671-4.5c0-.873.487-1.31 1.459-1.31.973 0 1.459.437 1.459 1.31 0 .416-.123.741-.369.975-.24.229-.603.343-1.09.343-.972 0-1.459-.44-1.459-1.318ZM219.698 32h-2.68v-9.826h2.68V32Zm11.892 0h-2.681v-5.74c0-.708-.126-1.239-.378-1.59-.252-.358-.653-.536-1.204-.536-.75 0-1.292.252-1.626.756-.334.498-.501 1.327-.501 2.487V32h-2.68v-9.826h2.047l.361 1.257h.149a2.81 2.81 0 0 1 1.231-1.073c.527-.246 1.125-.369 1.793-.369 1.142 0 2.009.31 2.601.932.592.615.888 1.506.888 2.672V32Zm9 0-.519-1.336h-.07c-.451.568-.917.964-1.397 1.187-.475.216-1.096.325-1.864.325-.943 0-1.687-.27-2.232-.809-.539-.539-.809-1.306-.809-2.303 0-1.043.363-1.81 1.09-2.302.732-.498 1.834-.774 3.305-.826l1.705-.053v-.43c0-.997-.51-1.495-1.529-1.495-.786 0-1.708.237-2.769.712l-.888-1.81c1.131-.592 2.385-.888 3.762-.888 1.318 0 2.329.287 3.032.861.703.574 1.055 1.447 1.055 2.62V32h-1.872Zm-.791-4.553-1.037.035c-.78.024-1.36.165-1.741.422-.38.258-.571.65-.571 1.178 0 .756.434 1.134 1.301 1.134.621 0 1.116-.179 1.485-.536.375-.358.563-.832.563-1.424v-.809Zm10.916-5.458c.363 0 .665.027.905.08l-.202 2.513a3.07 3.07 0 0 0-.791-.088c-.856 0-1.523.22-2.004.66-.475.439-.712 1.054-.712 1.845V32h-2.681v-9.826h2.031l.395 1.652h.132c.305-.55.715-.993 1.231-1.327a3.044 3.044 0 0 1 1.696-.51Z"/>
  <rect width="301" height="49" x=".5" y=".5" stroke="#fff" rx="8.5"/>
</svg>
