<svg xmlns="http://www.w3.org/2000/svg" aria-label="Venmo" role="img" viewBox="0 0 512 512">
<rect width="512" height="512" rx="15%" fill="transparent"/>
<g transform="translate(540 540)">
<rect x="-540" y="-540" width="1080" height="1080" rx="0" ry="0" fill="#fff" vector-effect="non-scaling-stroke" visibility="hidden"/>
</g>
<g transform="matrix(0 0 0 0 256.01 256.01)">
<rect x="-256" y="-256" width="512" height="512" rx="15" ry="15" fill="#fff"/>
</g>
<g transform="matrix(0 0 0 0 256.01 256.01)">
<rect x="-256" y="-256" width="512" height="512" rx="15" ry="15" fill="#fff"/>
</g>
<g transform="translate(256 256)">
<rect x="-256" y="-256" width="512" height="512" rx="15" ry="15" vector-effect="non-scaling-stroke"/>
</g>
<g transform="translate(645.86 393.19)">
<path transform="translate(-389.75 -137.15)" d="m390.1 137.3-0.2-0.1-0.5-0.2c0.1 0.2 0.4 0.3 0.7 0.3z" fill="#010202" stroke-linecap="round" vector-effect="non-scaling-stroke"/>
</g>
<g transform="translate(649.37 417)">
<path transform="translate(-393.25 -160.95)" d="m393.4 160.9-0.3 0.1 0.3-0.1z" fill="#010202" stroke-linecap="round" vector-effect="non-scaling-stroke"/>
</g>
<g transform="translate(646.17 393.24)">
<path transform="translate(-390.06 -137.2)" d="m390.1 137.2v0c-0.1 0-0.1 0 0 0v0z" fill="#010202" stroke-linecap="round" vector-effect="non-scaling-stroke"/>
</g>
<g transform="translate(649.52 416.55)">
<path transform="translate(-393.4 -160.5)" d="m393.1 160.7 0.4-0.2 0.2-0.2c-0.2 0.1-0.4 0.3-0.6 0.4z" fill="#010202" stroke-linecap="round" vector-effect="non-scaling-stroke"/>
</g>
<g transform="translate(646.47 393.59)">
<path transform="translate(-390.35 -137.55)" d="m390.7 137.8-0.4-0.4-0.3-0.1c0.2 0.2 0.4 0.4 0.7 0.5z" fill="#010202" stroke-linecap="round" vector-effect="non-scaling-stroke"/>
</g>
<g transform="translate(552.69 622.61)">
<path transform="translate(-296.6 -366.5)" d="m297 366.2c-0.3 0.1-0.6 0.3-0.8 0.6l0.2-0.2c0.3-0.2 0.5-0.3 0.6-0.4z" fill="#010202" stroke-linecap="round" vector-effect="non-scaling-stroke"/>
</g>
<g transform="translate(607.54 611.87)">
<path transform="translate(-351.44 -355.77)" d="m351.5 355.4c0-0.3-0.2-0.3-0.1 0.9 0-0.1 0-0.2 0.1-0.3-0.1-0.1-0.1-0.3 0-0.6z" fill="#010202" stroke-linecap="round" vector-effect="non-scaling-stroke"/>
</g>
<g transform="matrix(1.48 0 0 1.48 256 256)">
<path transform="translate(-300.2 -225.32)" d="m412.8 148.7-1.8-9.1c-1.6-8.2-5.3-16-13.7-18.9-2.7-0.9-5.8-1.4-7.8-3.3-2.1-2-2.7-5-3.2-7.8-0.9-5.2-1.7-10.4-2.6-15.6-0.8-4.5-1.4-9.5-3.4-13.5-2.7-5.5-8.2-8.7-13.7-10.8-2.8-1-5.7-1.9-8.6-2.7-13.7-3.6-28.1-4.9-42.2-5.7-16.9-0.9-33.9-0.7-50.8 0.8-12.6 1.1-25.8 2.5-37.7 6.9-4.4 1.6-8.9 3.5-12.2 6.9-4.1 4.1-5.4 10.6-2.4 15.7 2.1 3.7 5.7 6.3 9.5 8 4.9 2.2 10.1 3.9 15.4 5 14.8 3.3 30 4.5 45.1 5.1 16.7 0.7 33.4 0.1 50.1-1.6 4.1-0.5 8.2-1 12.3-1.6 4.8-0.7 7.9-7.1 6.5-11.4-1.7-5.3-6.3-7.3-11.4-6.5-0.8 0.1-1.5 0.2-2.3 0.3l-0.5 0.1c-1.8 0.2-3.5 0.4-5.3 0.6-3.6 0.4-7.2 0.7-10.9 1-8.1 0.6-16.3 0.8-24.5 0.8-8 0-16-0.2-24-0.8-3.7-0.2-7.3-0.5-10.9-0.9-1.7-0.2-3.3-0.4-4.9-0.6l-1.6-0.2h-0.3l-1.6-0.2c-3.3-0.5-6.6-1.1-9.9-1.8-0.3-0.1-0.6-0.3-0.8-0.5-0.2-0.2-0.3-0.6-0.3-0.9 0-0.3 0.1-0.7 0.3-0.9 0.2-0.2 0.5-0.4 0.8-0.5h0.1c2.8-0.6 5.7-1.1 8.6-1.6 1-0.2 1.9-0.3 2.9-0.4v0c1.8-0.1 3.6-0.4 5.4-0.7 15.6-1.6 31.3-2.2 47-1.7 7.6 0.2 15.2 0.7 22.8 1.4 1.6 0.2 3.3 0.3 4.9 0.5 0.6 0.1 1.2 0.2 1.9 0.2l1.3 0.2c3.7 0.5 7.3 1.2 11 2 5.4 1.2 12.3 1.6 14.7 7.4 0.8 1.9 1.1 3.9 1.5 5.9l0.5 2.5v0.1c1.3 5.9 2.5 11.8 3.8 17.7 0.1 0.4 0.1 0.9 0 1.3-0.1 0.4-0.3 0.9-0.5 1.2-0.3 0.4-0.6 0.7-1 0.9-0.4 0.2-0.8 0.4-1.2 0.4v0l-1.6 0.2c-2.4 0.3-4.9 0.6-7.3 0.9-4.8 0.5-9.6 1-14.4 1.4-9.6 0.8-19.1 1.3-28.7 1.6-4.9 0.1-9.8 0.2-14.7 0.2-19.5 0-38.9-1.1-58.2-3.4-2.1-0.2-4.2-0.5-6.3-0.8 1.6 0.2-1.2-0.2-1.7-0.2-1.3-0.2-2.7-0.4-4-0.6-4.5-0.7-8.9-1.5-13.4-2.2-5.4-0.9-10.5-0.4-15.4 2.2-4 2.2-7.2 5.5-9.3 9.6-2.1 4.3-2.7 9.1-3.7 13.7-0.9 4.7-2.4 9.7-1.8 14.5 1.2 10.3 8.4 18.7 18.8 20.6 9.8 1.8 19.6 3.2 29.5 4.4 38.7 4.7 77.9 5.3 116.7 1.7 3.2-0.3 6.3-0.6 9.5-1 1-0.1 2 0 2.9 0.3 0.9 0.3 1.8 0.9 2.5 1.6 0.7 0.7 1.2 1.5 1.6 2.5 0.3 0.9 0.5 1.9 0.4 2.9l-1 9.6c-2 19.3-4 38.6-5.9 58-2.1 20.3-4.1 40.6-6.2 60.9l-1.8 17.1c-0.6 5.6-0.6 11.4-1.7 17-1.7 8.7-7.6 14.1-16.2 16.1-7.9 1.8-16 2.7-24.1 2.8-9 0-18-0.3-27-0.3-9.6 0.1-21.4-0.8-28.8-8-6.5-6.3-7.4-16.1-8.3-24.6-1.2-11.2-2.4-22.5-3.5-33.7l-6.5-62.5-4.2-40.5c-0.1-0.7-0.1-1.3-0.2-2-0.5-4.8-3.9-9.5-9.3-9.3-4.6 0.2-9.8 4.1-9.3 9.3l3.1 30 6.5 62c1.8 17.6 3.7 35.2 5.5 52.9 0.4 3.4 0.7 6.8 1.1 10.1 2 18.5 16.1 28.4 33.6 31.2 10.2 1.6 20.6 2 31 2.1 13.3 0.2 26.7 0.7 39.7-1.7 19.3-3.5 33.8-16.4 35.9-36.5 0.6-5.8 1.2-11.6 1.8-17.3 2-19.1 3.9-38.2 5.9-57.4l6.4-62.5 2.9-28.6c0.1-1.4 0.7-2.8 1.7-3.8s2.2-1.8 3.6-2c5.5-1.1 10.8-2.9 14.7-7.1 5.8-6.6 7-15.3 4.8-24.1zm-207.8 6.2c0.1 0-0.1 0.7-0.1 1-0.1-0.5-0.1-1 0.1-1zm0.5 4.1s0.2 0.1 0.3 0.4c-0.2-0.2-0.3-0.4-0.3-0.4v0zm0.5 0.7c0.2 0.4 0.3 0.6 0 0v0zm1.1 0.9v0s0.1 0 0 0v0 0zm185.4-1.3c-2 1.9-5 2.8-7.9 3.2-33.1 4.9-66.8 7.4-100.3 6.3-24-0.8-47.7-3.5-71.5-6.8-2.3-0.3-4.8-0.8-6.4-2.5-3-3.2-1.5-9.7-0.7-13.7 0.7-3.6 2.1-8.4 6.4-8.9 6.6-0.8 14.4 2 20.9 3 7.9 1.2 15.9 2.2 23.8 2.9 34 3.1 68.7 2.6 102.5-1.9 6.2-0.8 12.3-1.8 18.5-2.9 5.5-1 11.5-2.8 14.8 2.8 2.3 3.9 2.6 9 2.2 13.4 0 2-0.9 3.8-2.3 5.1v0z" fill="#fff" stroke-linecap="round" vector-effect="non-scaling-stroke"/>
</g>
<g transform="translate(601.5 622.61)">
<path transform="translate(-345.4 -366.5)" d="m345.8 366.2c-0.3 0.1-0.6 0.3-0.8 0.6l0.2-0.2c0.3-0.2 0.5-0.3 0.6-0.4z" fill="#010202" stroke-linecap="round" vector-effect="non-scaling-stroke"/>
</g>
<g transform="translate(514.38 624.61)">
<path transform="translate(-258.3 -368.5)" d="m258.7 368.7c-0.2-0.2-0.5-0.3-0.8-0.4 0.2 0.1 0.5 0.2 0.6 0.3l0.2 0.1z" fill="#010202" stroke-linecap="round" vector-effect="non-scaling-stroke"/>
</g>
<g transform="translate(506.12 616.1)">
<path transform="translate(-250.05 -360)" d="m250.2 360.5c0-0.3-0.1-0.7-0.3-1 0.1 0.3 0.2 0.6 0.3 1v0z" fill="#010202" stroke-linecap="round" vector-effect="non-scaling-stroke"/>
</g>
<g transform="translate(462.71 416.4)">
<path transform="translate(-206.65 -160.35)" d="m206.5 160.2 0.3 0.3c2e-14 -0.2-0.1-0.3-0.3-0.3z" fill="#010202" stroke-linecap="round" vector-effect="non-scaling-stroke"/>
</g>
<g transform="matrix(1.48 0 0 1.48 257 346.93)">
<path transform="translate(-300.5 -284.25)" d="m308 212.8c-11.8 5.1-25.3 10.8-42.7 10.8-7.3 0-14.5-1-21.5-3l12 123.6c0.4 5.2 2.8 10 6.6 13.5 3.8 3.5 8.8 5.5 14 5.5 0 0 17.1 0.9 22.8 0.9 6.1 0 24.5-0.9 24.5-0.9 5.2 0 10.2-1.9 14-5.5 3.8-3.5 6.2-8.3 6.6-13.5l12.9-136.5c-5.8-2-11.6-3.3-18.1-3.3-11.4-3e-14 -20.5 3.9-31.1 8.4z" fill="#ffdd06" stroke-linecap="round" vector-effect="non-scaling-stroke"/>
</g>
</svg>
