<?xml version="1.0" encoding="UTF-8" standalone="no" ?>
<!DOCTYPE svg PUBLIC "-//W3C//DTD SVG 1.1//EN" "http://www.w3.org/Graphics/SVG/1.1/DTD/svg11.dtd">
<svg xmlns="http://www.w3.org/2000/svg" xmlns:xlink="http://www.w3.org/1999/xlink" version="1.1" width="512" height="512" viewBox="0 0 512 512" xml:space="preserve">
<desc>Created with Fabric.js 5.2.4</desc>
<defs>
</defs>
<rect x="0" y="0" width="100%" height="100%" fill="transparent"></rect>
<g transform="matrix(1 0 0 1 540 540)" id="f549746d-9e26-48b4-ab3f-1638eeb6e47a"  >
</g>
<g transform="matrix(1 0 0 1 540 540)" id="fca2d9ad-766d-4071-b252-e8c603932adb"  >
<rect style="stroke: none; stroke-width: 1; stroke-dasharray: none; stroke-linecap: butt; stroke-dashoffset: 0; stroke-linejoin: miter; stroke-miterlimit: 4; fill: rgb(255,255,255); fill-rule: nonzero; opacity: 1; visibility: hidden;" vector-effect="non-scaling-stroke"  x="-540" y="-540" rx="0" ry="0" width="1080" height="1080" />
</g>
<g transform="matrix(0 0 0 0 256.01 256.01)"  >
<rect style="stroke: none; stroke-width: 1; stroke-dasharray: none; stroke-linecap: butt; stroke-dashoffset: 0; stroke-linejoin: miter; stroke-miterlimit: 4; fill: rgb(255,255,255); fill-rule: nonzero; opacity: 1;"  x="-256" y="-256" rx="15" ry="15" width="512" height="512" />
</g>
<g transform="matrix(0 0 0 0 256.01 256.01)"  >
<rect style="stroke: none; stroke-width: 1; stroke-dasharray: none; stroke-linecap: butt; stroke-dashoffset: 0; stroke-linejoin: miter; stroke-miterlimit: 4; fill: rgb(255,255,255); fill-rule: nonzero; opacity: 1;"  x="-256" y="-256" rx="15" ry="15" width="512" height="512" />
</g>
<g transform="matrix(1 0 0 1 256 256)"  >
<rect style="stroke: none; stroke-width: 1; stroke-dasharray: none; stroke-linecap: butt; stroke-dashoffset: 0; stroke-linejoin: miter; stroke-miterlimit: 4; fill: rgb(255,255,255); fill-opacity: 0; fill-rule: nonzero; opacity: 1;" vector-effect="non-scaling-stroke"  x="-256" y="-256" rx="15" ry="15" width="512" height="512" />
</g>
<g transform="matrix(1 0 0 1 645.86 393.19)"  >
<path style="stroke: none; stroke-width: 1; stroke-dasharray: none; stroke-linecap: butt; stroke-dashoffset: 0; stroke-linejoin: miter; stroke-miterlimit: 4; fill: rgb(1,2,2); fill-rule: nonzero; opacity: 1;" vector-effect="non-scaling-stroke"  transform=" translate(-389.75, -137.15)" d="M 390.1 137.3 L 389.90000000000003 137.20000000000002 L 389.40000000000003 137.00000000000003 C 389.5 137.2 389.8 137.3 390.1 137.3 z" stroke-linecap="round" />
</g>
<g transform="matrix(1 0 0 1 649.37 417)"  >
<path style="stroke: none; stroke-width: 1; stroke-dasharray: none; stroke-linecap: butt; stroke-dashoffset: 0; stroke-linejoin: miter; stroke-miterlimit: 4; fill: rgb(1,2,2); fill-rule: nonzero; opacity: 1;" vector-effect="non-scaling-stroke"  transform=" translate(-393.25, -160.95)" d="M 393.4 160.9 L 393.09999999999997 161 L 393.4 160.9 z" stroke-linecap="round" />
</g>
<g transform="matrix(1 0 0 1 646.17 393.24)"  >
<path style="stroke: none; stroke-width: 1; stroke-dasharray: none; stroke-linecap: butt; stroke-dashoffset: 0; stroke-linejoin: miter; stroke-miterlimit: 4; fill: rgb(1,2,2); fill-rule: nonzero; opacity: 1;" vector-effect="non-scaling-stroke"  transform=" translate(-390.06, -137.2)" d="M 390.1 137.2 C 390.1 137.2 390.1 137.2 390.1 137.2 C 390 137.2 390 137.2 390.1 137.2 C 390.1 137.2 390.1 137.2 390.1 137.2 z" stroke-linecap="round" />
</g>
<g transform="matrix(1 0 0 1 649.52 416.55)"  >
<path style="stroke: none; stroke-width: 1; stroke-dasharray: none; stroke-linecap: butt; stroke-dashoffset: 0; stroke-linejoin: miter; stroke-miterlimit: 4; fill: rgb(1,2,2); fill-rule: nonzero; opacity: 1;" vector-effect="non-scaling-stroke"  transform=" translate(-393.4, -160.5)" d="M 393.1 160.7 L 393.5 160.5 L 393.6 160.4 L 393.70000000000005 160.3 C 393.5 160.4 393.3 160.6 393.1 160.7 z" stroke-linecap="round" />
</g>
<g transform="matrix(1 0 0 1 646.47 393.59)"  >
<path style="stroke: none; stroke-width: 1; stroke-dasharray: none; stroke-linecap: butt; stroke-dashoffset: 0; stroke-linejoin: miter; stroke-miterlimit: 4; fill: rgb(1,2,2); fill-rule: nonzero; opacity: 1;" vector-effect="non-scaling-stroke"  transform=" translate(-390.35, -137.55)" d="M 390.7 137.8 L 390.3 137.4 L 390 137.3 C 390.2 137.5 390.4 137.7 390.7 137.8 z" stroke-linecap="round" />
</g>
<g transform="matrix(1 0 0 1 552.69 622.61)"  >
<path style="stroke: none; stroke-width: 1; stroke-dasharray: none; stroke-linecap: butt; stroke-dashoffset: 0; stroke-linejoin: miter; stroke-miterlimit: 4; fill: rgb(1,2,2); fill-rule: nonzero; opacity: 1;" vector-effect="non-scaling-stroke"  transform=" translate(-296.6, -366.5)" d="M 297 366.2 C 296.7 366.3 296.4 366.5 296.2 366.8 L 296.4 366.6 C 296.7 366.4 296.9 366.3 297 366.2 z" stroke-linecap="round" />
</g>
<g transform="matrix(1 0 0 1 607.54 611.87)"  >
<path style="stroke: none; stroke-width: 1; stroke-dasharray: none; stroke-linecap: butt; stroke-dashoffset: 0; stroke-linejoin: miter; stroke-miterlimit: 4; fill: rgb(1,2,2); fill-rule: nonzero; opacity: 1;" vector-effect="non-scaling-stroke"  transform=" translate(-351.44, -355.77)" d="M 351.5 355.4 C 351.5 355.09999999999997 351.3 355.09999999999997 351.4 356.29999999999995 C 351.4 356.19999999999993 351.4 356.09999999999997 351.5 355.99999999999994 C 351.4 355.9 351.4 355.7 351.5 355.4 z" stroke-linecap="round" />
</g>
<g transform="matrix(1.48 0 0 1.48 256 256)"  >
<path style="stroke: none; stroke-width: 1; stroke-dasharray: none; stroke-linecap: butt; stroke-dashoffset: 0; stroke-linejoin: miter; stroke-miterlimit: 4; fill: rgb(0,0,0); fill-rule: nonzero; opacity: 1;" vector-effect="non-scaling-stroke"  transform=" translate(-300.2, -225.32)" d="M 412.8 148.7 L 411 139.6 C 409.4 131.4 405.7 123.6 397.3 120.69999999999999 C 394.6 119.79999999999998 391.5 119.29999999999998 389.5 117.39999999999999 C 387.4 115.39999999999999 386.8 112.39999999999999 386.3 109.6 C 385.40000000000003 104.39999999999999 384.6 99.19999999999999 383.7 94 C 382.9 89.5 382.3 84.5 380.3 80.5 C 377.6 75 372.1 71.8 366.6 69.7 C 363.8 68.7 360.90000000000003 67.8 358 67 C 344.3 63.4 329.9 62.1 315.8 61.3 C 298.90000000000003 60.4 281.90000000000003 60.599999999999994 265 62.099999999999994 C 252.4 63.199999999999996 239.2 64.6 227.3 69 C 222.9 70.6 218.4 72.5 215.10000000000002 75.9 C 211.00000000000003 80 209.70000000000002 86.5 212.70000000000002 91.60000000000001 C 214.8 95.30000000000001 218.4 97.9 222.20000000000002 99.60000000000001 C 227.10000000000002 101.80000000000001 232.3 103.50000000000001 237.60000000000002 104.60000000000001 C 252.40000000000003 107.9 267.6 109.10000000000001 282.70000000000005 109.7 C 299.40000000000003 110.4 316.1 109.8 332.80000000000007 108.10000000000001 C 336.9000000000001 107.60000000000001 341.00000000000006 107.10000000000001 345.1000000000001 106.50000000000001 C 349.9000000000001 105.80000000000001 353.00000000000006 99.40000000000002 351.6000000000001 95.10000000000001 C 349.9000000000001 89.80000000000001 345.30000000000007 87.80000000000001 340.2000000000001 88.60000000000001 C 339.4000000000001 88.7 338.7000000000001 88.80000000000001 337.9000000000001 88.9 L 337.4000000000001 89 C 335.6000000000001 89.2 333.9000000000001 89.4 332.1000000000001 89.6 C 328.50000000000006 90 324.9000000000001 90.3 321.2000000000001 90.6 C 313.1000000000001 91.19999999999999 304.9000000000001 91.39999999999999 296.7000000000001 91.39999999999999 C 288.7000000000001 91.39999999999999 280.7000000000001 91.19999999999999 272.7000000000001 90.6 C 269.0000000000001 90.39999999999999 265.4000000000001 90.1 261.8000000000001 89.69999999999999 C 260.10000000000014 89.49999999999999 258.5000000000001 89.29999999999998 256.90000000000015 89.1 L 255.30000000000015 88.89999999999999 L 255.00000000000014 88.89999999999999 L 253.40000000000015 88.69999999999999 C 250.10000000000014 88.19999999999999 246.80000000000015 87.6 243.50000000000014 86.89999999999999 C 243.20000000000013 86.8 242.90000000000015 86.6 242.70000000000013 86.39999999999999 C 242.5000000000001 86.19999999999999 242.40000000000012 85.8 242.40000000000012 85.49999999999999 C 242.40000000000012 85.19999999999999 242.5000000000001 84.79999999999998 242.70000000000013 84.59999999999998 C 242.90000000000015 84.39999999999998 243.20000000000013 84.19999999999997 243.50000000000014 84.09999999999998 L 243.60000000000014 84.09999999999998 C 246.40000000000015 83.49999999999999 249.30000000000013 82.99999999999999 252.20000000000013 82.49999999999999 C 253.20000000000013 82.29999999999998 254.10000000000014 82.19999999999999 255.10000000000014 82.09999999999998 L 255.10000000000014 82.09999999999998 C 256.90000000000015 81.99999999999999 258.70000000000016 81.69999999999997 260.5000000000001 81.39999999999998 C 276.10000000000014 79.79999999999998 291.8000000000001 79.19999999999997 307.5000000000001 79.69999999999997 C 315.10000000000014 79.89999999999998 322.7000000000001 80.39999999999998 330.3000000000001 81.09999999999998 C 331.90000000000015 81.29999999999998 333.60000000000014 81.39999999999998 335.2000000000001 81.59999999999998 C 335.8000000000001 81.69999999999997 336.4000000000001 81.79999999999998 337.1000000000001 81.79999999999998 L 338.4000000000001 81.99999999999999 C 342.1000000000001 82.49999999999999 345.7000000000001 83.19999999999999 349.4000000000001 83.99999999999999 C 354.80000000000007 85.19999999999999 361.7000000000001 85.59999999999998 364.1000000000001 91.39999999999999 C 364.9000000000001 93.3 365.2000000000001 95.3 365.6000000000001 97.3 L 366.1000000000001 99.8 C 366.1000000000001 99.8 366.1000000000001 99.89999999999999 366.1000000000001 99.89999999999999 C 367.4000000000001 105.8 368.6000000000001 111.69999999999999 369.9000000000001 117.6 C 370.0000000000001 118 370.0000000000001 118.5 369.9000000000001 118.89999999999999 C 369.80000000000007 119.3 369.6000000000001 119.8 369.4000000000001 120.1 C 369.1000000000001 120.5 368.80000000000007 120.8 368.4000000000001 121 C 368.0000000000001 121.2 367.6000000000001 121.4 367.2000000000001 121.4 L 367.2000000000001 121.4 L 366.4000000000001 121.5 L 365.6000000000001 121.6 C 363.2000000000001 121.89999999999999 360.7000000000001 122.19999999999999 358.30000000000007 122.5 C 353.50000000000006 123 348.70000000000005 123.5 343.9000000000001 123.9 C 334.30000000000007 124.7 324.80000000000007 125.2 315.2000000000001 125.5 C 310.3000000000001 125.6 305.4000000000001 125.7 300.5000000000001 125.7 C 281.0000000000001 125.7 261.60000000000014 124.60000000000001 242.30000000000013 122.3 C 240.20000000000013 122.1 238.10000000000014 121.8 236.0000000000001 121.5 C 237.6000000000001 121.7 234.80000000000013 121.3 234.30000000000013 121.3 C 233.0000000000001 121.1 231.60000000000014 120.89999999999999 230.30000000000013 120.7 C 225.80000000000013 120 221.40000000000012 119.2 216.90000000000012 118.5 C 211.5000000000001 117.6 206.40000000000012 118.1 201.5000000000001 120.7 C 197.5000000000001 122.9 194.30000000000013 126.2 192.2000000000001 130.3 C 190.1000000000001 134.60000000000002 189.5000000000001 139.4 188.5000000000001 144 C 187.6000000000001 148.7 186.1000000000001 153.7 186.7000000000001 158.5 C 187.9000000000001 168.8 195.1000000000001 177.2 205.5000000000001 179.1 C 215.30000000000013 180.9 225.1000000000001 182.29999999999998 235.0000000000001 183.5 C 273.7000000000001 188.2 312.9000000000001 188.8 351.7000000000001 185.2 C 354.9000000000001 184.89999999999998 358.0000000000001 184.6 361.2000000000001 184.2 C 362.2000000000001 184.1 363.2000000000001 184.2 364.1000000000001 184.5 C 365.00000000000006 184.8 365.9000000000001 185.4 366.6000000000001 186.1 C 367.30000000000007 186.79999999999998 367.80000000000007 187.6 368.2000000000001 188.6 C 368.5000000000001 189.5 368.7000000000001 190.5 368.6000000000001 191.5 L 367.6000000000001 201.1 C 365.6000000000001 220.4 363.6000000000001 239.7 361.7000000000001 259.1 C 359.6000000000001 279.40000000000003 357.6000000000001 299.70000000000005 355.5000000000001 320 C 354.9000000000001 325.7 354.3000000000001 331.4 353.7000000000001 337.1 C 353.1000000000001 342.70000000000005 353.1000000000001 348.5 352.0000000000001 354.1 C 350.3000000000001 362.8 344.4000000000001 368.20000000000005 335.8000000000001 370.20000000000005 C 327.90000000000015 372.00000000000006 319.8000000000001 372.90000000000003 311.7000000000001 373.00000000000006 C 302.7000000000001 373.00000000000006 293.7000000000001 372.70000000000005 284.7000000000001 372.70000000000005 C 275.1000000000001 372.80000000000007 263.3000000000001 371.90000000000003 255.9000000000001 364.70000000000005 C 249.4000000000001 358.40000000000003 248.50000000000009 348.6 247.60000000000008 340.1 C 246.4000000000001 328.90000000000003 245.20000000000007 317.6 244.10000000000008 306.40000000000003 L 237.60000000000008 243.90000000000003 L 233.4000000000001 203.40000000000003 C 233.3000000000001 202.70000000000005 233.3000000000001 202.10000000000002 233.2000000000001 201.40000000000003 C 232.7000000000001 196.60000000000002 229.3000000000001 191.90000000000003 223.9000000000001 192.10000000000002 C 219.3000000000001 192.3 214.10000000000008 196.20000000000002 214.60000000000008 201.40000000000003 L 217.70000000000007 231.40000000000003 L 224.20000000000007 293.40000000000003 C 226.00000000000009 311.00000000000006 227.90000000000006 328.6 229.70000000000007 346.3 C 230.10000000000008 349.7 230.40000000000006 353.1 230.80000000000007 356.40000000000003 C 232.80000000000007 374.90000000000003 246.90000000000006 384.8 264.4000000000001 387.6 C 274.6000000000001 389.20000000000005 285.0000000000001 389.6 295.4000000000001 389.70000000000005 C 308.7000000000001 389.90000000000003 322.1000000000001 390.40000000000003 335.1000000000001 388.00000000000006 C 354.4000000000001 384.50000000000006 368.9000000000001 371.6000000000001 371.00000000000006 351.50000000000006 C 371.6000000000001 345.70000000000005 372.20000000000005 339.90000000000003 372.80000000000007 334.20000000000005 C 374.80000000000007 315.1 376.70000000000005 296.00000000000006 378.70000000000005 276.80000000000007 L 385.1 214.30000000000007 L 388 185.70000000000007 C 388.1 184.30000000000007 388.7 182.90000000000006 389.7 181.90000000000006 C 390.7 180.90000000000006 391.9 180.10000000000005 393.3 179.90000000000006 C 398.8 178.80000000000007 404.1 177.00000000000006 408 172.80000000000007 C 413.8 166.2 415 157.5 412.8 148.7 z M 205 154.9 C 205.1 154.9 204.9 155.6 204.9 155.9 C 204.8 155.4 204.8 154.9 205 154.9 z M 205.5 159 C 205.5 159 205.7 159.1 205.8 159.4 C 205.6 159.2 205.5 159 205.5 159 L 205.5 159 z M 206 159.7 C 206.2 160.1 206.3 160.3 206 159.7 L 206 159.7 z M 207.1 160.6 L 207.1 160.6 C 207.1 160.6 207.2 160.6 207.1 160.6 C 207.1 160.6 207.1 160.6 207.1 160.6 L 207.1 160.6 z M 392.5 159.3 C 390.5 161.20000000000002 387.5 162.10000000000002 384.6 162.5 C 351.5 167.4 317.8 169.9 284.3 168.8 C 260.3 168 236.60000000000002 165.3 212.8 162 C 210.5 161.7 208 161.2 206.4 159.5 C 203.4 156.3 204.9 149.8 205.70000000000002 145.8 C 206.4 142.20000000000002 207.8 137.4 212.10000000000002 136.9 C 218.70000000000002 136.1 226.50000000000003 138.9 233.00000000000003 139.9 C 240.90000000000003 141.1 248.90000000000003 142.1 256.8 142.8 C 290.8 145.9 325.5 145.4 359.3 140.9 C 365.5 140.1 371.6 139.1 377.8 138 C 383.3 137 389.3 135.2 392.6 140.8 C 394.90000000000003 144.70000000000002 395.20000000000005 149.8 394.8 154.20000000000002 C 394.8 156.2 393.9 158 392.5 159.3 L 392.5 159.3 z" stroke-linecap="round" />
</g>
<g transform="matrix(1 0 0 1 601.5 622.61)"  >
<path style="stroke: none; stroke-width: 1; stroke-dasharray: none; stroke-linecap: butt; stroke-dashoffset: 0; stroke-linejoin: miter; stroke-miterlimit: 4; fill: rgb(1,2,2); fill-rule: nonzero; opacity: 1;" vector-effect="non-scaling-stroke"  transform=" translate(-345.4, -366.5)" d="M 345.8 366.2 C 345.5 366.3 345.2 366.5 345 366.8 L 345.2 366.6 C 345.5 366.4 345.7 366.3 345.8 366.2 z" stroke-linecap="round" />
</g>
<g transform="matrix(1 0 0 1 514.38 624.61)"  >
<path style="stroke: none; stroke-width: 1; stroke-dasharray: none; stroke-linecap: butt; stroke-dashoffset: 0; stroke-linejoin: miter; stroke-miterlimit: 4; fill: rgb(1,2,2); fill-rule: nonzero; opacity: 1;" vector-effect="non-scaling-stroke"  transform=" translate(-258.3, -368.5)" d="M 258.7 368.7 C 258.5 368.5 258.2 368.4 257.9 368.3 C 258.09999999999997 368.40000000000003 258.4 368.5 258.5 368.6 L 258.7 368.7 z" stroke-linecap="round" />
</g>
<g transform="matrix(1 0 0 1 506.12 616.1)"  >
<path style="stroke: none; stroke-width: 1; stroke-dasharray: none; stroke-linecap: butt; stroke-dashoffset: 0; stroke-linejoin: miter; stroke-miterlimit: 4; fill: rgb(1,2,2); fill-rule: nonzero; opacity: 1;" vector-effect="non-scaling-stroke"  transform=" translate(-250.05, -360)" d="M 250.2 360.5 C 250.2 360.2 250.1 359.8 249.89999999999998 359.5 C 250 359.8 250.1 360.1 250.2 360.5 L 250.2 360.5 z" stroke-linecap="round" />
</g>
<g transform="matrix(1 0 0 1 462.71 416.4)"  >
<path style="stroke: none; stroke-width: 1; stroke-dasharray: none; stroke-linecap: butt; stroke-dashoffset: 0; stroke-linejoin: miter; stroke-miterlimit: 4; fill: rgb(1,2,2); fill-rule: nonzero; opacity: 1;" vector-effect="non-scaling-stroke"  transform=" translate(-206.65, -160.35)" d="M 206.5 160.2 L 206.7 160.39999999999998 L 206.79999999999998 160.49999999999997 C 206.8 160.3 206.7 160.2 206.5 160.2 z" stroke-linecap="round" />
</g>
<g transform="matrix(1.48 0 0 1.48 257 346.93)"  >
<path style="stroke: none; stroke-width: 1; stroke-dasharray: none; stroke-linecap: butt; stroke-dashoffset: 0; stroke-linejoin: miter; stroke-miterlimit: 4; fill: rgb(255,221,6); fill-rule: nonzero; opacity: 1;" vector-effect="non-scaling-stroke"  transform=" translate(-300.5, -284.25)" d="M 308 212.8 C 296.2 217.9 282.7 223.60000000000002 265.3 223.60000000000002 C 258 223.60000000000002 250.8 222.60000000000002 243.8 220.60000000000002 L 255.8 344.20000000000005 C 256.2 349.40000000000003 258.6 354.20000000000005 262.40000000000003 357.70000000000005 C 266.20000000000005 361.20000000000005 271.20000000000005 363.20000000000005 276.40000000000003 363.20000000000005 C 276.40000000000003 363.20000000000005 293.50000000000006 364.1 299.20000000000005 364.1 C 305.30000000000007 364.1 323.70000000000005 363.20000000000005 323.70000000000005 363.20000000000005 C 328.90000000000003 363.20000000000005 333.90000000000003 361.30000000000007 337.70000000000005 357.70000000000005 C 341.50000000000006 354.20000000000005 343.90000000000003 349.40000000000003 344.30000000000007 344.20000000000005 L 357.20000000000005 207.70000000000005 C 351.40000000000003 205.70000000000005 345.6 204.40000000000003 339.1 204.40000000000003 C 327.7 204.4 318.6 208.3 308 212.8 z" stroke-linecap="round" />
</g>
</svg>