<?xml version="1.0" encoding="UTF-8"?>
<svg xmlns="http://www.w3.org/2000/svg" xmlns:xlink="http://www.w3.org/1999/xlink" width="24px" height="24px" viewBox="0 0 24 24" version="1.1">
<g id="surface1">
<path style=" stroke:none;fill-rule:nonzero;fill:rgb(11.372549%,63.137255%,94.901961%);fill-opacity:1;" d="M 22.5 12.5 C 22.5 10.921875 21.625 9.550781 20.351562 8.898438 C 20.507812 8.464844 20.589844 7.996094 20.589844 7.5 C 20.589844 5.289062 18.878906 3.503906 16.773438 3.503906 C 16.300781 3.503906 15.851562 3.585938 15.4375 3.753906 C 14.816406 2.414062 13.511719 1.5 12 1.5 C 10.488281 1.5 9.183594 2.417969 8.5625 3.75 C 8.148438 3.585938 7.695312 3.5 7.226562 3.5 C 5.117188 3.5 3.410156 5.289062 3.410156 7.5 C 3.410156 7.992188 3.492188 8.464844 3.644531 8.898438 C 2.375 9.550781 1.5 10.917969 1.5 12.5 C 1.5 13.996094 2.28125 15.296875 3.441406 15.984375 C 3.421875 16.15625 3.410156 16.324219 3.410156 16.5 C 3.410156 18.710938 5.117188 20.5 7.226562 20.5 C 7.695312 20.5 8.148438 20.414062 8.5625 20.25 C 9.183594 21.585938 10.488281 22.5 12 22.5 C 13.511719 22.5 14.816406 21.585938 15.4375 20.25 C 15.851562 20.414062 16.300781 20.496094 16.773438 20.496094 C 18.882812 20.496094 20.589844 18.707031 20.589844 16.496094 C 20.589844 16.324219 20.578125 16.152344 20.558594 15.984375 C 21.714844 15.296875 22.5 13.996094 22.5 12.5 Z M 15.882812 9.164062 L 11.550781 15.664062 C 11.40625 15.882812 11.167969 16 10.925781 16 C 10.78125 16 10.636719 15.960938 10.507812 15.875 L 10.394531 15.78125 L 7.980469 13.363281 C 7.6875 13.070312 7.6875 12.597656 7.980469 12.304688 C 8.273438 12.011719 8.746094 12.011719 9.039062 12.304688 L 10.808594 14.070312 L 14.632812 8.332031 C 14.863281 7.988281 15.328125 7.894531 15.675781 8.125 C 16.019531 8.355469 16.113281 8.820312 15.882812 9.164062 Z M 15.882812 9.164062 "/>
</g>
</svg>